<?xml version="1.0" encoding="iso-8859-1"?>
<!-- Generator: Adobe Illustrator 21.1.0, SVG Export Plug-In . SVG Version: 6.00 Build 0)  -->
<svg version="1.0" xmlns="http://www.w3.org/2000/svg" xmlns:xlink="http://www.w3.org/1999/xlink" x="0px" y="0px"
	 viewBox="0 0 589.594 74.641" style="enable-background:new 0 0 589.594 74.641;" xml:space="preserve">
<g id="Layer_97">
</g>
<g id="Layer_96">
</g>
<g id="Layer_95">
</g>
<g id="Layer_94">
</g>
<g id="Layer_93">
</g>
<g id="Layer_92">
</g>
<g id="Layer_91">
</g>
<g id="Layer_90">
</g>
<g id="Layer_89">
</g>
<g id="Layer_88">
</g>
<g id="Layer_87">
</g>
<g id="Layer_86">
</g>
<g id="Layer_85">
</g>
<g id="Layer_84">
</g>
<g id="Layer_83">
</g>
<g id="Layer_82">
</g>
<g id="Layer_81">
</g>
<g id="Layer_80">
</g>
<g id="Layer_79">
</g>
<g id="Layer_78">
</g>
<g id="Layer_77">
</g>
<g id="Layer_76">
</g>
<g id="Layer_75">
</g>
<g id="Layer_74">
</g>
<g id="Layer_73">
</g>
<g id="Layer_72">
</g>
<g id="Layer_71">
</g>
<g id="Layer_69">
</g>
<g id="Layer_68">
</g>
<g id="Layer_67">
</g>
<g id="Layer_66">
</g>
<g id="Layer_65">
</g>
<g id="Layer_64">
</g>
<g id="Layer_63">
</g>
<g id="Layer_62">
</g>
<g id="Layer_61">
</g>
<g id="Layer_60">
</g>
<g id="Layer_59">
</g>
<g id="Layer_58">
</g>
<g id="Layer_57">
</g>
<g id="Layer_56">
</g>
<g id="Layer_55">
</g>
<g id="Layer_54">
</g>
<g id="Layer_53">
</g>
<g id="Layer_52">
	<g>
		<path style="fill:#AEAFAE;" d="M544.162,19.308h38.772c3.663,0,6.66,2.997,6.66,6.66v0c0,3.663-2.997,6.66-6.66,6.66l-38.772,0
			c-3.663,0-6.66-2.997-6.66-6.66v0C537.503,22.304,540.5,19.308,544.162,19.308z"/>
		<path style="fill:none;stroke:#A2C41D;stroke-width:20;stroke-miterlimit:10;" d="M92.405,27.016h56.864
			c4.008,0,7.893,1.388,10.994,3.927l36.349,29.768c8.313,6.808,20.751,4.501,26.071-4.834l10.924-19.17
			c5.758-10.105,19.633-11.796,27.65-3.368l0,0c8.078,8.492,22.078,6.699,27.755-3.555l5.816-10.505
			c5.999-10.837,21.095-12.08,28.785-2.369l15.556,19.644c7.545,9.527,22.293,8.548,28.512-1.893l9.641-16.185
			c5.692-9.556,18.779-11.365,26.85-3.71l7.896,7.489c3.224,3.058,7.498,4.762,11.941,4.762l39.648,0h48.113"/>
		<path style="fill:#AEAFAE;" d="M6.66,20.356h38.772c3.663,0,6.66,2.997,6.66,6.66v0c0,3.663-2.997,6.66-6.66,6.66H6.66
			c-3.663,0-6.66-2.997-6.66-6.66l0,0C0,23.353,2.997,20.356,6.66,20.356z"/>
		<path style="fill:#1D1E1C;" d="M88.114,10.426H41.321c-4.517,0-8.178,3.662-8.178,8.178v16.822c0,4.517,3.662,8.178,8.178,8.178
			h46.793c4.517,0,8.178-3.662,8.178-8.178V18.605C96.292,14.088,92.631,10.426,88.114,10.426z"/>
		<path style="fill:#1D1E1C;" d="M550.607,9.156h-46.793c-4.517,0-8.178,3.662-8.178,8.178v16.822c0,4.517,3.661,8.178,8.178,8.178
			h46.793c4.517,0,8.178-3.662,8.178-8.178V17.334C558.785,12.817,555.123,9.156,550.607,9.156z"/>
	</g>
</g>
<g id="Layer_51">
</g>
<g id="Layer_50">
</g>
<g id="Layer_49">
</g>
<g id="Layer_48">
</g>
<g id="Layer_98">
</g>
<g id="Layer_47">
</g>
<g id="Layer_46">
</g>
<g id="Layer_45">
</g>
<g id="Layer_44">
</g>
<g id="Layer_43">
</g>
<g id="Layer_42">
</g>
<g id="Layer_41">
</g>
<g id="Layer_40">
</g>
<g id="Layer_39">
</g>
<g id="Layer_38">
</g>
<g id="Layer_37">
</g>
<g id="Layer_36">
</g>
<g id="Layer_35">
</g>
<g id="Layer_34">
</g>
<g id="Layer_33">
</g>
<g id="Layer_32">
</g>
<g id="Layer_31">
</g>
<g id="Layer_29">
</g>
<g id="Layer_28">
</g>
<g id="Layer_27">
</g>
<g id="Layer_99">
</g>
<g id="Layer_26">
</g>
<g id="Layer_25">
</g>
<g id="Layer_24">
</g>
<g id="Layer_23">
</g>
<g id="Layer_22">
</g>
<g id="Layer_21">
</g>
<g id="Layer_20">
</g>
<g id="Layer_19">
</g>
<g id="Layer_18">
</g>
<g id="Layer_17">
</g>
<g id="Layer_16">
</g>
<g id="Layer_15">
</g>
<g id="Layer_14">
</g>
<g id="Layer_13">
</g>
<g id="Layer_12">
</g>
<g id="Layer_11">
</g>
<g id="Layer_10">
</g>
<g id="Layer_9">
</g>
<g id="Layer_8">
</g>
<g id="Layer_7">
</g>
<g id="Layer_6">
</g>
<g id="Layer_5">
</g>
<g id="Layer_4">
</g>
<g id="Layer_3">
</g>
<g id="Layer_2">
</g>
</svg>
