<?xml version="1.0" encoding="iso-8859-1"?>
<!-- Generator: Adobe Illustrator 21.1.0, SVG Export Plug-In . SVG Version: 6.00 Build 0)  -->
<svg version="1.0" xmlns="http://www.w3.org/2000/svg" xmlns:xlink="http://www.w3.org/1999/xlink" x="0px" y="0px"
	 viewBox="0 0 298.603 316.364" style="enable-background:new 0 0 298.603 316.364;" xml:space="preserve">
<g id="Layer_97">
</g>
<g id="Layer_96">
</g>
<g id="Layer_95">
</g>
<g id="Layer_94">
</g>
<g id="Layer_93">
</g>
<g id="Layer_92">
</g>
<g id="Layer_91">
</g>
<g id="Layer_90">
</g>
<g id="Layer_89">
</g>
<g id="Layer_88">
</g>
<g id="Layer_87">
</g>
<g id="Layer_86">
</g>
<g id="Layer_85">
</g>
<g id="Layer_84">
</g>
<g id="Layer_83">
</g>
<g id="Layer_82">
</g>
<g id="Layer_81">
</g>
<g id="Layer_80">
</g>
<g id="Layer_79">
</g>
<g id="Layer_78">
</g>
<g id="Layer_77">
</g>
<g id="Layer_76">
</g>
<g id="Layer_75">
</g>
<g id="Layer_74">
</g>
<g id="Layer_73">
</g>
<g id="Layer_72">
</g>
<g id="Layer_71">
</g>
<g id="Layer_69">
</g>
<g id="Layer_68">
</g>
<g id="Layer_67">
</g>
<g id="Layer_66">
</g>
<g id="Layer_65">
</g>
<g id="Layer_64">
</g>
<g id="Layer_63">
</g>
<g id="Layer_62">
</g>
<g id="Layer_61">
</g>
<g id="Layer_60">
</g>
<g id="Layer_59">
</g>
<g id="Layer_58">
</g>
<g id="Layer_57">
</g>
<g id="Layer_56">
</g>
<g id="Layer_55">
</g>
<g id="Layer_54">
</g>
<g id="Layer_53">
</g>
<g id="Layer_52">
</g>
<g id="Layer_51">
</g>
<g id="Layer_50">
</g>
<g id="Layer_49">
</g>
<g id="Layer_48">
</g>
<g id="Layer_98">
</g>
<g id="Layer_47">
</g>
<g id="Layer_46">
</g>
<g id="Layer_45">
</g>
<g id="Layer_44">
</g>
<g id="Layer_43">
</g>
<g id="Layer_42">
</g>
<g id="Layer_41">
</g>
<g id="Layer_40">
</g>
<g id="Layer_39">
</g>
<g id="Layer_38">
</g>
<g id="Layer_37">
</g>
<g id="Layer_36">
</g>
<g id="Layer_35">
</g>
<g id="Layer_34">
</g>
<g id="Layer_33">
</g>
<g id="Layer_32">
</g>
<g id="Layer_31">
</g>
<g id="Layer_29">
</g>
<g id="Layer_28">
</g>
<g id="Layer_27">
</g>
<g id="Layer_99">
</g>
<g id="Layer_26">
</g>
<g id="Layer_25">
</g>
<g id="Layer_24">
</g>
<g id="Layer_23">
</g>
<g id="Layer_22">
	<g>
		<path style="fill:#35201D;" d="M190.05,246.995l3.168,55.143c0.16,2.791,3.74,3.831,5.371,1.56l8.684-12.093
			c1.438-2.003,4.551-1.478,5.253,0.885l6.463,21.751c0.773,2.602,4.346,2.885,5.519,0.436l14.717-30.731
			c0.961-2.006,3.706-2.28,5.045-0.503l5.621,7.463c1.699,2.255,5.29,1.086,5.335-1.737l2.009-124.816L190.05,246.995z"/>
		<circle style="fill:#E84780;" cx="204.509" cy="31.854" r="31.854"/>
		
			<ellipse transform="matrix(0.1184 -0.993 0.993 0.1184 -202.4139 247.2629)" style="fill:none;stroke:#FFCF11;stroke-width:3;stroke-miterlimit:10;" cx="38.048" cy="237.628" rx="28.189" ry="28.189"/>
		
			<ellipse transform="matrix(0.9151 -0.4033 0.4033 0.9151 -39.7905 119.4115)" style="fill:#FCDBBB;" cx="263.637" cy="154.185" rx="25.216" ry="25.216"/>
		<g>
			<defs>
				
					<ellipse id="XMLID_18_" transform="matrix(0.9743 -0.2252 0.2252 0.9743 -26.9464 34.0341)" cx="135.717" cy="135.138" rx="124.584" ry="124.584"/>
			</defs>
			<use xlink:href="#XMLID_18_"  style="overflow:visible;fill:#FCDBBB;"/>
			<clipPath id="XMLID_7_">
				<use xlink:href="#XMLID_18_"  style="overflow:visible;"/>
			</clipPath>
			<polygon style="clip-path:url(#XMLID_7_);fill:#35201D;" points="71.418,24.02 126.695,-7.528 203.711,3.941 277.493,68.446 
				264.137,129.614 195.426,91.966 173.392,79.893 			"/>
		</g>
		<path style="fill:#FFFFFF;" d="M83.327,206.731c4.194,18.145,22.303,29.454,40.447,25.26s29.454-22.303,25.26-40.447
			L83.327,206.731z"/>
		<ellipse transform="matrix(0.9743 -0.2252 0.2252 0.9743 -31.0618 41.5283)" cx="166.51" cy="156.925" rx="6.866" ry="6.866"/>
		<polyline style="fill:none;stroke:#000000;stroke-width:2.5551;stroke-miterlimit:10;" points="97.236,124.851 100.238,183.625 
			122.438,178.494 		"/>
		<ellipse transform="matrix(0.9743 -0.2252 0.2252 0.9743 -39.605 17.4319)" cx="56.611" cy="182.326" rx="6.866" ry="6.866"/>
		
			<ellipse transform="matrix(0.1184 -0.993 0.993 0.1184 22.5648 457.4512)" style="fill:none;stroke:#FFCF11;stroke-width:3;stroke-miterlimit:10;" cx="268.911" cy="216.018" rx="28.189" ry="28.189"/>
		<path style="fill:#35201D;" d="M257.1,107.082c-12.616,18.24-107.193-73.178-107.193-73.178l9.34,52.349L2.125,129.614
			C-13.64,69.406,63.478,16.237,63.478,16.237"/>
		
			<ellipse transform="matrix(0.4862 -0.8739 0.8739 0.4862 -69.8963 270.3425)" style="fill:#F6B7A1;" cx="194.936" cy="194.607" rx="22.277" ry="22.277"/>
	</g>
</g>
<g id="Layer_21">
</g>
<g id="Layer_20">
</g>
<g id="Layer_19">
</g>
<g id="Layer_18">
</g>
<g id="Layer_17">
</g>
<g id="Layer_16">
</g>
<g id="Layer_15">
</g>
<g id="Layer_14">
</g>
<g id="Layer_13">
</g>
<g id="Layer_12">
</g>
<g id="Layer_11">
</g>
<g id="Layer_10">
</g>
<g id="Layer_9">
</g>
<g id="Layer_8">
</g>
<g id="Layer_7">
</g>
<g id="Layer_6">
</g>
<g id="Layer_5">
</g>
<g id="Layer_4">
</g>
<g id="Layer_3">
</g>
<g id="Layer_2">
</g>
</svg>
