<?xml version="1.0" encoding="iso-8859-1"?>
<!-- Generator: Adobe Illustrator 21.1.0, SVG Export Plug-In . SVG Version: 6.00 Build 0)  -->
<svg version="1.0" xmlns="http://www.w3.org/2000/svg" xmlns:xlink="http://www.w3.org/1999/xlink" x="0px" y="0px"
	 viewBox="0 0 487.198 99.4" style="enable-background:new 0 0 487.198 99.4;" xml:space="preserve">
<g id="Layer_97">
</g>
<g id="Layer_96">
</g>
<g id="Layer_95">
</g>
<g id="Layer_94">
</g>
<g id="Layer_93">
</g>
<g id="Layer_92">
</g>
<g id="Layer_91">
</g>
<g id="Layer_90">
</g>
<g id="Layer_89">
</g>
<g id="Layer_88">
</g>
<g id="Layer_87">
</g>
<g id="Layer_86">
</g>
<g id="Layer_85">
</g>
<g id="Layer_84">
</g>
<g id="Layer_83">
</g>
<g id="Layer_82">
</g>
<g id="Layer_81">
</g>
<g id="Layer_80">
</g>
<g id="Layer_79">
</g>
<g id="Layer_78">
</g>
<g id="Layer_77">
</g>
<g id="Layer_76">
</g>
<g id="Layer_75">
</g>
<g id="Layer_74">
</g>
<g id="Layer_73">
</g>
<g id="Layer_72">
</g>
<g id="Layer_71">
</g>
<g id="Layer_69">
</g>
<g id="Layer_68">
</g>
<g id="Layer_67">
</g>
<g id="Layer_66">
</g>
<g id="Layer_65">
</g>
<g id="Layer_64">
</g>
<g id="Layer_63">
</g>
<g id="Layer_62">
</g>
<g id="Layer_61">
</g>
<g id="Layer_60">
</g>
<g id="Layer_59">
</g>
<g id="Layer_58">
</g>
<g id="Layer_57">
</g>
<g id="Layer_56">
</g>
<g id="Layer_55">
</g>
<g id="Layer_54">
</g>
<g id="Layer_53">
</g>
<g id="Layer_52">
</g>
<g id="Layer_51">
</g>
<g id="Layer_50">
</g>
<g id="Layer_49">
</g>
<g id="Layer_48">
</g>
<g id="Layer_98">
</g>
<g id="Layer_47">
</g>
<g id="Layer_46">
</g>
<g id="Layer_45">
</g>
<g id="Layer_44">
</g>
<g id="Layer_43">
</g>
<g id="Layer_42">
</g>
<g id="Layer_41">
</g>
<g id="Layer_40">
</g>
<g id="Layer_39">
</g>
<g id="Layer_38">
</g>
<g id="Layer_37">
</g>
<g id="Layer_36">
</g>
<g id="Layer_35">
</g>
<g id="Layer_34">
</g>
<g id="Layer_33">
</g>
<g id="Layer_32">
</g>
<g id="Layer_31">
</g>
<g id="Layer_29">
</g>
<g id="Layer_28">
</g>
<g id="Layer_27">
</g>
<g id="Layer_99">
	<g>
		<path style="fill:#E84780;" d="M72.52,21.14h7.28c1.026,0,1.912,0.374,2.66,1.12c0.746,0.748,1.12,1.635,1.12,2.66v13.44
			c0,1.027-0.374,1.914-1.12,2.659c-0.748,0.749-1.634,1.12-2.66,1.12H69.44L67.2,56.7h8.96c1.026,0,1.912,0.374,2.66,1.12
			c0.746,0.748,1.12,1.634,1.12,2.66V73.92c0,1.028-0.374,1.914-1.12,2.66c-0.748,0.748-1.634,1.12-2.66,1.12H64.12L62.3,89.6
			c-0.188,0.841-0.584,1.54-1.19,2.101c-0.608,0.56-1.378,0.84-2.31,0.84H44.1c-0.84,0-1.564-0.302-2.17-0.91
			c-0.608-0.605-0.91-1.33-0.91-2.17v-0.28L42.7,77.7H32.34L30.52,89.6c-0.188,0.841-0.584,1.54-1.19,2.101
			c-0.608,0.56-1.378,0.84-2.31,0.84h-14.7c-0.84,0-1.564-0.302-2.17-0.91c-0.608-0.605-0.91-1.33-0.91-2.17v-0.28L10.92,77.7H3.78
			c-1.028,0-1.914-0.372-2.66-1.12C0.372,75.834,0,74.948,0,73.92V60.48c0-1.026,0.372-1.912,1.12-2.66
			c0.746-0.746,1.632-1.12,2.66-1.12h10.36l2.1-14.561H7.42c-1.028,0-1.914-0.371-2.66-1.12c-0.749-0.745-1.12-1.632-1.12-2.659
			V24.92c0-1.025,0.372-1.912,1.12-2.66c0.746-0.746,1.632-1.12,2.66-1.12h12.04L21.28,9.24c0.186-0.746,0.56-1.422,1.12-2.03
			c0.56-0.605,1.306-0.91,2.24-0.91h14.84c0.84,0,1.562,0.305,2.17,0.91c0.606,0.608,0.91,1.33,0.91,2.17V9.8l-1.82,11.34h10.5
			L53.06,9.24c0.186-0.746,0.56-1.422,1.12-2.03c0.56-0.605,1.306-0.91,2.24-0.91h14.84c0.84,0,1.562,0.305,2.17,0.91
			c0.606,0.608,0.91,1.33,0.91,2.17V9.8L72.52,21.14z M35.42,56.7h10.5l2.1-14.561H37.66L35.42,56.7z"/>
		<path style="fill:#E84780;" d="M141.54,0c6.16,0,11.666,0.654,16.52,1.96c4.852,1.309,8.982,3.269,12.39,5.88
			c3.406,2.614,6.02,5.95,7.84,10.01c1.82,4.061,2.73,8.799,2.73,14.21c0,7-1.448,12.811-4.34,17.431
			c-2.894,4.62-7,8.144-12.32,10.569l17.36,33.32c0.28,0.561,0.42,1.074,0.42,1.54c0,0.84-0.304,1.564-0.91,2.17
			c-0.608,0.608-1.33,0.91-2.17,0.91h-19.04c-1.868,0-3.198-0.42-3.99-1.26c-0.794-0.84-1.424-1.681-1.89-2.521L138.6,64.26h-12.88
			v29.96c0,1.028-0.374,1.914-1.12,2.66c-0.748,0.748-1.634,1.12-2.66,1.12H103.6c-1.028,0-1.914-0.372-2.66-1.12
			c-0.748-0.746-1.12-1.632-1.12-2.66V3.78c0-1.026,0.372-1.912,1.12-2.66C101.686,0.374,102.571,0,103.6,0H141.54z M125.72,42.42
			h15.82c3.92,0,7.162-0.746,9.73-2.24c2.566-1.491,3.85-4.199,3.85-8.12c0-3.92-1.284-6.626-3.85-8.119
			c-2.568-1.492-5.81-2.24-9.73-2.24h-15.82V42.42z"/>
		<path style="fill:#E84780;" d="M273.139,62.3c0,6.16-1.12,11.55-3.36,16.17c-2.24,4.62-5.274,8.494-9.1,11.62
			c-3.828,3.128-8.26,5.46-13.3,7s-10.36,2.311-15.96,2.311c-6.068,0-11.62-0.795-16.66-2.381s-9.404-3.802-13.09-6.649
			c-3.688-2.846-6.58-6.3-8.68-10.36c-2.1-4.06-3.198-8.609-3.29-13.649c0-0.841,0.302-1.562,0.91-2.17
			c0.606-0.606,1.33-0.91,2.17-0.91h17.92c1.772,0,2.94,0.279,3.5,0.84c0.56,0.56,1.12,1.634,1.68,3.22
			c1.12,3.174,2.87,5.578,5.25,7.21c2.38,1.634,5.81,2.45,10.29,2.45c5.32,0,9.31-1.33,11.97-3.99s3.99-6.51,3.99-11.55V22.4h-47.88
			c-1.028,0-1.914-0.372-2.66-1.12c-0.748-0.746-1.12-1.632-1.12-2.66V3.78c0-1.026,0.372-1.912,1.12-2.66
			c0.746-0.746,1.632-1.12,2.66-1.12h69.86c1.026,0,1.912,0.374,2.66,1.12c0.746,0.748,1.12,1.634,1.12,2.66V62.3z"/>
		<path style="fill:#E84780;" d="M341.04,0c1.866,0,3.29,0.514,4.27,1.54c0.98,1.028,1.656,2.054,2.03,3.08l30.52,88.2
			c0.372,0.934,0.56,1.634,0.56,2.1c0,0.84-0.304,1.564-0.91,2.17c-0.608,0.608-1.33,0.91-2.17,0.91h-17.64
			c-1.868,0-3.198-0.396-3.99-1.19c-0.794-0.791-1.284-1.562-1.47-2.31l-3.92-11.62h-37.24l-3.92,11.62
			c-0.188,0.748-0.678,1.519-1.47,2.31c-0.794,0.795-2.124,1.19-3.99,1.19h-17.64c-0.84,0-1.564-0.302-2.17-0.91
			c-0.608-0.605-0.91-1.33-0.91-2.17c0-0.466,0.186-1.166,0.56-2.1l30.52-88.2c0.372-1.026,1.05-2.052,2.03-3.08
			c0.98-1.026,2.402-1.54,4.27-1.54H341.04z M318.359,61.18h22.68l-11.34-33.6L318.359,61.18z"/>
		<path style="fill:#E84780;" d="M430.708,73.29c-0.794-0.792-1.424-1.562-1.89-2.31l-13.16-23.101v46.34
			c0,1.028-0.374,1.914-1.12,2.66c-0.748,0.748-1.634,1.12-2.66,1.12h-18.34c-1.028,0-1.914-0.372-2.66-1.12
			c-0.748-0.746-1.12-1.632-1.12-2.66V3.78c0-1.026,0.372-1.912,1.12-2.66c0.746-0.746,1.632-1.12,2.66-1.12h16.24
			c1.866,0,3.266,0.514,4.2,1.54c0.932,1.028,1.54,1.774,1.82,2.24l22.68,38.779l22.68-38.779c0.28-0.466,0.886-1.212,1.82-2.24
			c0.932-1.026,2.332-1.54,4.2-1.54h16.24c1.026,0,1.912,0.374,2.66,1.12c0.746,0.748,1.12,1.634,1.12,2.66V94.22
			c0,1.028-0.375,1.914-1.12,2.66c-0.748,0.748-1.634,1.12-2.66,1.12h-18.34c-1.028,0-1.914-0.372-2.66-1.12
			c-0.748-0.746-1.12-1.632-1.12-2.66V47.88l-13.16,23.101c-0.468,0.748-1.098,1.518-1.89,2.31c-0.794,0.794-1.89,1.19-3.29,1.19
			h-8.96C432.598,74.48,431.5,74.084,430.708,73.29z"/>
	</g>
</g>
<g id="Layer_26">
</g>
<g id="Layer_25">
</g>
<g id="Layer_24">
</g>
<g id="Layer_23">
</g>
<g id="Layer_22">
</g>
<g id="Layer_21">
</g>
<g id="Layer_20">
</g>
<g id="Layer_19">
</g>
<g id="Layer_18">
</g>
<g id="Layer_17">
</g>
<g id="Layer_16">
</g>
<g id="Layer_15">
</g>
<g id="Layer_14">
</g>
<g id="Layer_13">
</g>
<g id="Layer_12">
</g>
<g id="Layer_11">
</g>
<g id="Layer_10">
</g>
<g id="Layer_9">
</g>
<g id="Layer_8">
</g>
<g id="Layer_7">
</g>
<g id="Layer_6">
</g>
<g id="Layer_5">
</g>
<g id="Layer_4">
</g>
<g id="Layer_3">
</g>
<g id="Layer_2">
</g>
</svg>
