<?xml version="1.0" encoding="iso-8859-1"?>
<!-- Generator: Adobe Illustrator 21.1.0, SVG Export Plug-In . SVG Version: 6.00 Build 0)  -->
<svg version="1.0" xmlns="http://www.w3.org/2000/svg" xmlns:xlink="http://www.w3.org/1999/xlink" x="0px" y="0px"
	 viewBox="0 0 333.285 120.26" style="enable-background:new 0 0 333.285 120.26;" xml:space="preserve">
<g id="Layer_97">
</g>
<g id="Layer_96">
</g>
<g id="Layer_95">
</g>
<g id="Layer_94">
</g>
<g id="Layer_93">
</g>
<g id="Layer_92">
</g>
<g id="Layer_91">
</g>
<g id="Layer_90">
</g>
<g id="Layer_89">
</g>
<g id="Layer_88">
</g>
<g id="Layer_87">
</g>
<g id="Layer_86">
</g>
<g id="Layer_85">
</g>
<g id="Layer_84">
</g>
<g id="Layer_83">
</g>
<g id="Layer_82">
</g>
<g id="Layer_81">
</g>
<g id="Layer_80">
</g>
<g id="Layer_79">
	<g>
		<path style="fill:#3EB8C7;" d="M318.233,120.26H15.052C6.773,120.26,0,113.487,0,105.208V15.052C0,6.773,6.773,0,15.052,0h303.182
			c8.279,0,15.052,6.773,15.052,15.052v90.156C333.285,113.487,326.512,120.26,318.233,120.26z"/>
		<circle style="fill:#FFFFFF;" cx="258.351" cy="45.062" r="13.675"/>
		<circle style="fill:#1D1E1C;" cx="284.525" cy="74.004" r="13.675"/>
		<path style="fill:#1D1E1C;" d="M55.342,31.474h11.539c3.107,0,5.648,2.542,5.648,5.648v48.185c0,3.107-2.542,5.648-5.648,5.648
			H55.342c-3.107,0-5.648-2.542-5.648-5.648V37.122C49.693,34.016,52.235,31.474,55.342,31.474z"/>
		<path style="fill:#1D1E1C;" d="M31.371,66.984V55.445c0-3.107,2.542-5.648,5.648-5.648h48.185c3.107,0,5.648,2.542,5.648,5.648
			v11.539c0,3.107-2.542,5.648-5.648,5.648H37.019C33.912,72.632,31.371,70.091,31.371,66.984z"/>
		<path style="fill:#1D1E1C;" d="M158.553,81.231h-19.155c-2.148,0-3.906-1.758-3.906-3.906v0c0-2.148,1.758-3.906,3.906-3.906
			h19.155c2.148,0,3.906,1.758,3.906,3.906v0C162.459,79.473,160.702,81.231,158.553,81.231z"/>
		<path style="fill:#1D1E1C;" d="M196.074,81.231h-19.155c-2.148,0-3.906-1.758-3.906-3.906v0c0-2.148,1.758-3.906,3.906-3.906
			h19.155c2.148,0,3.906,1.758,3.906,3.906v0C199.98,79.473,198.223,81.231,196.074,81.231z"/>
	</g>
</g>
<g id="Layer_78">
</g>
<g id="Layer_77">
</g>
<g id="Layer_76">
</g>
<g id="Layer_75">
</g>
<g id="Layer_74">
</g>
<g id="Layer_73">
</g>
<g id="Layer_72">
</g>
<g id="Layer_71">
</g>
<g id="Layer_69">
</g>
<g id="Layer_68">
</g>
<g id="Layer_67">
</g>
<g id="Layer_66">
</g>
<g id="Layer_65">
</g>
<g id="Layer_64">
</g>
<g id="Layer_63">
</g>
<g id="Layer_62">
</g>
<g id="Layer_61">
</g>
<g id="Layer_60">
</g>
<g id="Layer_59">
</g>
<g id="Layer_58">
</g>
<g id="Layer_57">
</g>
<g id="Layer_56">
</g>
<g id="Layer_55">
</g>
<g id="Layer_54">
</g>
<g id="Layer_53">
</g>
<g id="Layer_52">
</g>
<g id="Layer_51">
</g>
<g id="Layer_50">
</g>
<g id="Layer_49">
</g>
<g id="Layer_48">
</g>
<g id="Layer_98">
</g>
<g id="Layer_47">
</g>
<g id="Layer_46">
</g>
<g id="Layer_45">
</g>
<g id="Layer_44">
</g>
<g id="Layer_43">
</g>
<g id="Layer_42">
</g>
<g id="Layer_41">
</g>
<g id="Layer_40">
</g>
<g id="Layer_39">
</g>
<g id="Layer_38">
</g>
<g id="Layer_37">
</g>
<g id="Layer_36">
</g>
<g id="Layer_35">
</g>
<g id="Layer_34">
</g>
<g id="Layer_33">
</g>
<g id="Layer_32">
</g>
<g id="Layer_31">
</g>
<g id="Layer_29">
</g>
<g id="Layer_28">
</g>
<g id="Layer_27">
</g>
<g id="Layer_99">
</g>
<g id="Layer_26">
</g>
<g id="Layer_25">
</g>
<g id="Layer_24">
</g>
<g id="Layer_23">
</g>
<g id="Layer_22">
</g>
<g id="Layer_21">
</g>
<g id="Layer_20">
</g>
<g id="Layer_19">
</g>
<g id="Layer_18">
</g>
<g id="Layer_17">
</g>
<g id="Layer_16">
</g>
<g id="Layer_15">
</g>
<g id="Layer_14">
</g>
<g id="Layer_13">
</g>
<g id="Layer_12">
</g>
<g id="Layer_11">
</g>
<g id="Layer_10">
</g>
<g id="Layer_9">
</g>
<g id="Layer_8">
</g>
<g id="Layer_7">
</g>
<g id="Layer_6">
</g>
<g id="Layer_5">
</g>
<g id="Layer_4">
</g>
<g id="Layer_3">
</g>
<g id="Layer_2">
</g>
</svg>
