<?xml version="1.0" encoding="iso-8859-1"?>
<!-- Generator: Adobe Illustrator 21.1.0, SVG Export Plug-In . SVG Version: 6.00 Build 0)  -->
<svg version="1.0" xmlns="http://www.w3.org/2000/svg" xmlns:xlink="http://www.w3.org/1999/xlink" x="0px" y="0px"
	 viewBox="0 0 370.952 251.495" style="enable-background:new 0 0 370.952 251.495;" xml:space="preserve">
<g id="Layer_97">
</g>
<g id="Layer_96">
</g>
<g id="Layer_95">
</g>
<g id="Layer_94">
</g>
<g id="Layer_93">
</g>
<g id="Layer_92">
</g>
<g id="Layer_91">
</g>
<g id="Layer_90">
</g>
<g id="Layer_89">
</g>
<g id="Layer_88">
</g>
<g id="Layer_87">
</g>
<g id="Layer_86">
</g>
<g id="Layer_85">
</g>
<g id="Layer_84">
</g>
<g id="Layer_83">
</g>
<g id="Layer_82">
</g>
<g id="Layer_81">
</g>
<g id="Layer_80">
</g>
<g id="Layer_79">
</g>
<g id="Layer_78">
</g>
<g id="Layer_77">
</g>
<g id="Layer_76">
</g>
<g id="Layer_75">
</g>
<g id="Layer_74">
</g>
<g id="Layer_73">
</g>
<g id="Layer_72">
</g>
<g id="Layer_71">
</g>
<g id="Layer_69">
</g>
<g id="Layer_68">
</g>
<g id="Layer_67">
</g>
<g id="Layer_66">
</g>
<g id="Layer_65">
</g>
<g id="Layer_64">
</g>
<g id="Layer_63">
</g>
<g id="Layer_62">
</g>
<g id="Layer_61">
</g>
<g id="Layer_60">
</g>
<g id="Layer_59">
</g>
<g id="Layer_58">
</g>
<g id="Layer_57">
</g>
<g id="Layer_56">
</g>
<g id="Layer_55">
</g>
<g id="Layer_54">
</g>
<g id="Layer_53">
</g>
<g id="Layer_52">
</g>
<g id="Layer_51">
</g>
<g id="Layer_50">
</g>
<g id="Layer_49">
</g>
<g id="Layer_48">
</g>
<g id="Layer_98">
</g>
<g id="Layer_47">
</g>
<g id="Layer_46">
</g>
<g id="Layer_45">
</g>
<g id="Layer_44">
</g>
<g id="Layer_43">
</g>
<g id="Layer_42">
</g>
<g id="Layer_41">
</g>
<g id="Layer_40">
</g>
<g id="Layer_39">
</g>
<g id="Layer_38">
</g>
<g id="Layer_37">
</g>
<g id="Layer_36">
</g>
<g id="Layer_35">
</g>
<g id="Layer_34">
</g>
<g id="Layer_33">
</g>
<g id="Layer_32">
</g>
<g id="Layer_31">
</g>
<g id="Layer_29">
</g>
<g id="Layer_28">
</g>
<g id="Layer_27">
</g>
<g id="Layer_99">
</g>
<g id="Layer_26">
</g>
<g id="Layer_25">
</g>
<g id="Layer_24">
</g>
<g id="Layer_23">
</g>
<g id="Layer_22">
</g>
<g id="Layer_21">
</g>
<g id="Layer_20">
</g>
<g id="Layer_19">
</g>
<g id="Layer_18">
</g>
<g id="Layer_17">
</g>
<g id="Layer_16">
</g>
<g id="Layer_15">
</g>
<g id="Layer_14">
</g>
<g id="Layer_13">
</g>
<g id="Layer_12">
</g>
<g id="Layer_11">
</g>
<g id="Layer_10">
</g>
<g id="Layer_9">
</g>
<g id="Layer_8">
</g>
<g id="Layer_7">
</g>
<g id="Layer_6">
</g>
<g id="Layer_5">
</g>
<g id="Layer_4">
</g>
<g id="Layer_3">
</g>
<g id="Layer_2">
	<g>
		<path style="fill:#4BAB33;" d="M0.508,205.116V29.778C0.508,13.4,13.908,0,30.286,0l284.259,0c16.378,0,29.778,13.4,29.778,29.778
			v175.338c0,16.378-13.4,29.778-29.778,29.778H30.286C13.908,234.894,0.508,221.494,0.508,205.116z M32.407,23.157
			c0-5.178-4.198-9.376-9.376-9.376s-9.376,4.198-9.376,9.376s4.198,9.376,9.376,9.376S32.407,28.335,32.407,23.157z
			 M32.407,212.656c0-5.178-4.198-9.376-9.376-9.376s-9.376,4.198-9.376,9.376s4.198,9.376,9.376,9.376
			S32.407,217.834,32.407,212.656z M270.138,23.157c0-5.178-4.198-9.376-9.376-9.376c-5.178,0-9.376,4.198-9.376,9.376
			s4.198,9.376,9.376,9.376C265.94,32.533,270.138,28.335,270.138,23.157z M270.138,212.656c0-5.178-4.198-9.376-9.376-9.376
			c-5.178,0-9.376,4.198-9.376,9.376s4.198,9.376,9.376,9.376C265.94,222.032,270.138,217.834,270.138,212.656z"/>
		<path style="fill:#D5D5D5;" d="M275.96,204.218v-38.087c0-7.885,6.451-14.336,14.336-14.336h66.32
			c7.885,0,14.336,6.451,14.336,14.336v38.087c0,7.885-6.451,14.336-14.336,14.336h-66.32
			C282.411,218.555,275.96,212.103,275.96,204.218z"/>
		<path style="fill:#D5D5D5;" d="M288.141,124.201V96.993c0-6.402,5.238-11.641,11.641-11.641h59.53
			c6.402,0,11.641,5.238,11.641,11.641v27.208c0,6.402-5.238,11.641-11.641,11.641h-59.53
			C293.379,135.841,288.141,130.603,288.141,124.201z"/>
		<path style="fill:#D5D5D5;" d="M286.367,59.99V32.783c0-6.402,5.238-11.641,11.641-11.641h59.53
			c6.402,0,11.641,5.238,11.641,11.641V59.99c0,6.402-5.238,11.641-11.641,11.641h-59.53
			C291.605,71.631,286.367,66.393,286.367,59.99z"/>
		<path style="fill:#1D1E1C;" d="M77.1,149.941v-31.895c0-6.986,5.663-12.649,12.649-12.649h31.895
			c6.986,0,12.649,5.663,12.649,12.649v31.895c0,6.986-5.663,12.649-12.649,12.649H89.749C82.763,162.59,77.1,156.927,77.1,149.941z
			"/>
		<path style="fill:#1D1E1C;" d="M223.027,91.757V64.499c0-3.551,2.878-6.429,6.429-6.429h27.258c3.551,0,6.429,2.878,6.429,6.429
			v27.258c0,3.551-2.878,6.429-6.429,6.429h-27.258C225.906,98.186,223.027,95.308,223.027,91.757z"/>
		<path style="fill:#D5D5D5;" d="M141.95,245.429h-30.04c-5.623,0-10.225-4.601-10.225-10.225v-43.439
			c0-5.623,4.601-10.225,10.225-10.225h30.04c5.623,0,10.225,4.601,10.225,10.225v43.439
			C152.175,240.828,147.574,245.429,141.95,245.429z"/>
		<path style="fill:#F5A12D;" d="M58.193,29.001V18.438c0-3.799,3.108-6.908,6.908-6.908h149.114c3.799,0,6.908,3.108,6.908,6.908
			v10.563c0,3.799-3.108,6.908-6.908,6.908H65.101C61.302,35.909,58.193,32.8,58.193,29.001z"/>
		<path style="fill:#FFFFFF;" d="M102.673,45.804c0.489-0.015,0.904,0.278,1.356,0.418c1.103-0.355,1.354,0.131,1.895,0.329
			c1.202-0.25,1.567,0.294,2.144,0.869l0.67-0.013c1.812,1.052,2.711,3.195,3.03,4.296c0.319-1.101,1.22-3.244,3.032-4.296
			l0.67,0.013c0.576-0.575,0.941-1.119,2.143-0.869c0.541-0.198,0.793-0.684,1.895-0.329c0.688-0.214,1.29-0.781,2.201-0.074
			c0.767-0.291,1.51-0.392,2.174,0.2c1.026-0.131,1.36,0.139,1.612,0.455c0.226-0.005,1.686-0.228,2.356,0.756
			c1.684-0.196,2.215,0.975,1.613,2.067c0.343,0.524,0.7,1.042-0.104,2.041c0.284,0.557,0.108,1.16-0.562,1.891
			c0.177,0.782-0.171,1.334-0.794,1.765c0.117,1.071-0.997,1.693-1.329,1.915c-0.128,0.624-0.394,1.213-1.666,1.538
			c-0.21,0.93-0.974,1.09-1.714,1.285c2.446,1.401,4.544,3.244,4.53,7.765l0.359,0.63c2.805,1.68,5.329,7.081,1.382,11.471
			c-0.258,1.374-0.69,2.361-1.075,3.453c-0.576,4.401-4.333,6.462-5.324,6.706c-1.452,1.089-2.999,2.123-5.092,2.847
			c-1.973,2.004-4.11,2.768-6.26,2.767c-0.031,0-0.064,0-0.095,0c-2.149,0.001-4.287-0.763-6.26-2.767
			c-2.093-0.724-3.64-1.758-5.092-2.847c-0.991-0.244-4.748-2.305-5.324-6.706c-0.385-1.092-0.817-2.079-1.075-3.453
			c-3.946-4.389-1.423-9.79,1.382-11.47l0.358-0.63c-0.014-4.522,2.083-6.364,4.53-7.765c-0.74-0.195-1.505-0.356-1.714-1.285
			c-1.272-0.325-1.538-0.914-1.666-1.538c-0.332-0.222-1.446-0.844-1.329-1.915c-0.623-0.43-0.971-0.982-0.794-1.765
			c-0.67-0.731-0.846-1.335-0.562-1.891c-0.804-0.999-0.448-1.517-0.104-2.041c-0.603-1.092-0.071-2.264,1.613-2.068
			c0.67-0.984,2.13-0.761,2.356-0.756c0.253-0.316,0.586-0.586,1.613-0.455c0.665-0.593,1.408-0.492,2.174-0.2
			C102.142,45.905,102.418,45.812,102.673,45.804L102.673,45.804z M99.1,50.434c3.741,1.252,7.118,2.921,9.945,5.218
			c3.322-1.547,1.032-5.447-0.589-6.995c-0.082,0.409-0.175,0.668-0.281,0.744c-0.528-0.566-0.959-1.145-1.638-1.689
			c-0.002,0.32,0.161,0.667-0.243,0.92c-0.364-0.49-0.856-0.927-1.51-1.298c0.315,0.543,0.054,0.708-0.115,0.933
			c-0.499-0.428-0.973-0.862-1.894-1.197c0.252,0.307,0.603,0.606,0.23,0.958c-0.514-0.321-1.031-0.642-2.252-0.87
			c0.275,0.307,0.844,0.613,0.499,0.92c-0.645-0.247-1.359-0.425-2.15-0.53c0.378,0.311,0.694,0.616,0.384,0.857
			c-0.691-0.213-1.642-0.499-2.572-0.252l0.589,0.592c0.065,0.079-1.377,0.062-2.329,0.076c0.347,0.483,0.702,0.948,0.908,1.777
			c-0.094,0.096-0.566,0.042-1.011,0c0.456,0.96,1.248,1.202,1.433,1.613c-0.279,0.211-0.665,0.156-1.088,0.013
			c0.328,0.676,1.017,1.14,1.561,1.689c-0.138,0.098-0.378,0.156-0.947,0.088c0.503,0.534,1.11,1.023,1.83,1.462
			c-0.127,0.147-0.566,0.142-0.972,0.151c0.652,0.638,1.491,0.969,2.278,1.386c-0.392,0.268-0.672,0.205-0.973,0.202
			c0.556,0.457,1.502,0.695,2.38,0.971c-0.167,0.26-0.334,0.33-0.691,0.403c0.929,0.514,2.261,0.279,2.636,0.542
			c-0.091,0.258-0.346,0.427-0.653,0.567c1.496,0.087,5.588-0.054,6.373-3.151C106.706,54.851,103.91,52.875,99.1,50.434
			L99.1,50.434z M124.573,50.433c-4.809,2.443-7.605,4.418-9.136,6.1c0.784,3.097,4.877,3.238,6.373,3.151
			c-0.306-0.14-0.562-0.309-0.653-0.567c0.375-0.263,1.707-0.028,2.636-0.542c-0.357-0.073-0.524-0.144-0.691-0.403
			c0.878-0.276,1.824-0.514,2.38-0.971c-0.3,0.004-0.581,0.066-0.973-0.202c0.786-0.417,1.626-0.748,2.278-1.386
			c-0.407-0.01-0.845-0.004-0.973-0.151c0.72-0.439,1.327-0.928,1.83-1.462c-0.569,0.068-0.809,0.009-0.947-0.088
			c0.544-0.549,1.233-1.012,1.561-1.689c-0.423,0.143-0.809,0.198-1.088-0.013c0.185-0.411,0.977-0.653,1.433-1.613
			c-0.445,0.042-0.916,0.096-1.011,0c0.207-0.829,0.561-1.295,0.908-1.777c-0.952-0.014-2.394,0.004-2.329-0.076l0.589-0.592
			c-0.93-0.247-1.881,0.04-2.572,0.252c-0.31-0.241,0.006-0.546,0.384-0.857c-0.79,0.104-1.504,0.283-2.15,0.529
			c-0.345-0.307,0.224-0.613,0.499-0.92c-1.221,0.228-1.738,0.549-2.252,0.87c-0.373-0.352-0.021-0.651,0.23-0.958
			c-0.921,0.336-1.395,0.769-1.894,1.197c-0.169-0.225-0.43-0.39-0.115-0.933c-0.654,0.371-1.146,0.808-1.51,1.298
			c-0.404-0.254-0.241-0.6-0.243-0.92c-0.679,0.544-1.11,1.123-1.638,1.689c-0.106-0.076-0.199-0.335-0.282-0.744
			c-1.62,1.549-3.91,5.449-0.589,6.995C117.456,53.354,120.832,51.685,124.573,50.433L124.573,50.433z M117.653,81.911
			c-0.017-2.89-2.609-5.22-5.791-5.205c-3.182,0.015-5.747,2.37-5.73,5.26c0,0.018,0,0.037,0,0.037
			c0.017,2.908,2.61,5.238,5.791,5.223c3.181-0.015,5.747-2.37,5.73-5.26C117.653,81.948,117.653,81.93,117.653,81.911z
			 M108.671,67.019c-2.387-1.54-5.827-0.546-7.683,2.22c-1.856,2.767-1.426,6.258,0.961,7.799l0,0
			c2.387,1.54,5.827,0.546,7.683-2.221C111.488,72.051,111.058,68.56,108.671,67.019L108.671,67.019z M115.114,66.741
			c-2.387,1.54-2.817,5.032-0.961,7.799c1.856,2.767,5.296,3.761,7.683,2.221l0,0c2.387-1.54,2.817-5.032,0.961-7.799
			C120.941,66.194,117.501,65.2,115.114,66.741L115.114,66.741z M95.662,79.138c2.097,0.917,3.804-10.265,1.227-9.584
			C92.612,71.959,93.355,77.311,95.662,79.138z M126.671,69.414c-2.577-0.68-0.87,10.502,1.227,9.585
			C130.204,77.172,130.947,71.82,126.671,69.414L126.671,69.414z M126.026,67.685c0.149-4.75-3.551-7.353-7.999-6.613
			C116.389,61.342,125.88,69.506,126.026,67.685z M105.739,60.932c-4.448-0.74-8.148,1.863-7.999,6.613
			C97.887,69.366,107.378,61.203,105.739,60.932z M111.867,59.824c-2.654-0.068-5.202,1.94-5.208,3.105
			c-0.007,1.416,2.099,2.865,5.226,2.902c3.194,0.022,5.232-1.16,5.242-2.621C117.138,61.555,114.222,59.799,111.867,59.824
			L111.867,59.824z M112.072,88.851c-2.3-0.057-5.827,0.908-5.784,2.143c-0.037,0.842,2.769,3.273,5.63,3.151
			c2.763,0.047,5.618-2.38,5.579-3.454C117.491,89.586,114.386,88.752,112.072,88.851L112.072,88.851z M103.507,82.297
			c-1.891-2.161-4.348-3.45-5.938-2.496c-1.063,0.797-1.258,3.51,0.256,6.176c2.245,3.177,5.405,3.496,6.706,2.723
			C105.905,87.687,105.154,84.252,103.507,82.297L103.507,82.297z M120.096,81.677c-1.783,2.057-2.775,5.808-1.475,7.016
			c1.243,0.939,4.582,0.807,7.047-2.562c1.79-2.263,1.19-6.043,0.168-7.047C124.317,77.926,122.136,79.408,120.096,81.677
			L120.096,81.677z"/>
		<path style="fill:#D5D5D5;" d="M70.293,239.399H48.764c-2.864,0-5.207-2.343-5.207-5.207v-15.778c0-2.864,2.343-5.207,5.207-5.207
			h21.529c2.864,0,5.207,2.343,5.207,5.207v15.778C75.5,237.055,73.157,239.399,70.293,239.399z"/>
		<path style="fill:#FFFFFF;" d="M175.569,140.943h4.549c1.616,0,2.925,1.31,2.925,2.925v10.391l5.112,3.708
			c1.62,0.838,2.637,2.51,2.637,4.334v51.393c0,2.014-1.237,3.821-3.114,4.549l-4.635,2.596v9.757c0,1.616-1.31,2.925-2.925,2.925
			h-4.549c-1.616,0-2.925-1.31-2.925-2.925v-86.727C172.644,142.253,173.954,140.943,175.569,140.943z"/>
		<path style="fill:#D5D5D5;" d="M167.425,162.296v-0.657c0-1.092,0.885-1.977,1.977-1.977h4.428v4.612h-4.428
			C168.31,164.273,167.425,163.388,167.425,162.296z"/>
		<path style="fill:#D5D5D5;" d="M167.425,170.495v-0.657c0-1.092,0.885-1.977,1.977-1.977h4.428v4.612h-4.428
			C168.31,172.473,167.425,171.588,167.425,170.495z"/>
		<path style="fill:#D5D5D5;" d="M167.425,178.695v-0.657c0-1.092,0.885-1.977,1.977-1.977h4.428v4.612h-4.428
			C168.31,180.672,167.425,179.787,167.425,178.695z"/>
		<path style="fill:#D5D5D5;" d="M167.425,186.895v-0.657c0-1.092,0.885-1.977,1.977-1.977h4.428v4.612h-4.428
			C168.31,188.872,167.425,187.987,167.425,186.895z"/>
		<path style="fill:#D5D5D5;" d="M167.425,195.094v-0.657c0-1.092,0.885-1.977,1.977-1.977h4.428v4.612h-4.428
			C168.31,197.072,167.425,196.186,167.425,195.094z"/>
		<path style="fill:#D5D5D5;" d="M167.425,203.294v-0.657c0-1.092,0.885-1.977,1.977-1.977h4.428v4.612h-4.428
			C168.31,205.271,167.425,204.386,167.425,203.294z"/>
		<path style="fill:#D5D5D5;" d="M167.425,211.493v-0.657c0-1.092,0.885-1.977,1.977-1.977h4.428v4.612h-4.428
			C168.31,213.471,167.425,212.585,167.425,211.493z"/>
		<path d="M180.126,158.041v57.747c0,0.873-0.707,1.58-1.58,1.58h-5.902v-60.907h5.902
			C179.419,156.461,180.126,157.168,180.126,158.041z"/>
		<path style="fill:#FFFFFF;" d="M20.773,168.178h-4.549c-1.616,0-2.925-1.31-2.925-2.925v-10.391l-5.112-3.708
			c-1.62-0.838-2.637-2.51-2.637-4.334V95.428c0-2.014,1.237-3.821,3.114-4.549l4.635-2.596v-9.757c0-1.616,1.31-2.925,2.925-2.925
			h4.549c1.616,0,2.925,1.31,2.925,2.925v86.727C23.698,166.869,22.389,168.178,20.773,168.178z"/>
		<path style="fill:#D5D5D5;" d="M28.918,146.826v0.657c0,1.092-0.885,1.977-1.977,1.977h-4.428v-4.612h4.428
			C28.032,144.848,28.918,145.733,28.918,146.826z"/>
		<path style="fill:#D5D5D5;" d="M28.918,138.626v0.657c0,1.092-0.885,1.977-1.977,1.977h-4.428v-4.612h4.428
			C28.032,136.649,28.918,137.534,28.918,138.626z"/>
		<path style="fill:#D5D5D5;" d="M28.918,130.427v0.657c0,1.092-0.885,1.977-1.977,1.977h-4.428v-4.612h4.428
			C28.032,128.449,28.918,129.334,28.918,130.427z"/>
		<path style="fill:#D5D5D5;" d="M28.918,122.227v0.657c0,1.092-0.885,1.977-1.977,1.977h-4.428v-4.612h4.428
			C28.032,120.25,28.918,121.135,28.918,122.227z"/>
		<path style="fill:#D5D5D5;" d="M28.918,114.028v0.657c0,1.092-0.885,1.977-1.977,1.977h-4.428v-4.612h4.428
			C28.032,112.05,28.918,112.935,28.918,114.028z"/>
		<path style="fill:#D5D5D5;" d="M28.918,105.828v0.657c0,1.092-0.885,1.977-1.977,1.977h-4.428v-4.612l4.428,0
			C28.032,103.851,28.918,104.736,28.918,105.828z"/>
		<path style="fill:#D5D5D5;" d="M28.918,97.628v0.657c0,1.092-0.885,1.977-1.977,1.977h-4.428v-4.612h4.428
			C28.032,95.651,28.918,96.536,28.918,97.628z"/>
		<path d="M16.216,151.08V93.334c0-0.873,0.707-1.58,1.58-1.58h5.902v60.907h-5.902C16.924,152.66,16.216,151.953,16.216,151.08z"/>
		<path style="fill:#D5D5D5;" d="M0,61.845v-19.64c0-1.154,0.935-2.089,2.089-2.089h6.945c1.154,0,2.089,0.935,2.089,2.089v19.64
			c0,1.154-0.935,2.089-2.089,2.089H2.089C0.935,63.934,0,62.999,0,61.845z"/>
		<path d="M203.93,248.731v-13.493h25.247v13.493c0,1.527-1.238,2.765-2.765,2.765h-19.718
			C205.168,251.495,203.93,250.257,203.93,248.731z"/>
		<g>
			<defs>
				<path id="XMLID_1_" d="M201.976,239.21v-44.304c0-3.491,2.83-6.32,6.32-6.32h9.929h6.336c3.491,0,6.32,2.83,6.32,6.32v44.304
					H201.976z"/>
			</defs>
			<use xlink:href="#XMLID_1_"  style="overflow:visible;fill:#AEAFAE;"/>
			<clipPath id="XMLID_7_">
				<use xlink:href="#XMLID_1_"  style="overflow:visible;"/>
			</clipPath>
			<rect x="200.054" y="187.03" style="clip-path:url(#XMLID_7_);fill:#2D2D2D;" width="32.749" height="32.749"/>
		</g>
		<circle cx="216.554" cy="193.32" r="2.349"/>
		<path style="fill:#D6D6D6;" d="M207.818,200.754h-0.51c-1.017,0-1.849-0.832-1.849-1.849v-3.736c0-1.017,0.832-1.849,1.849-1.849
			h0.51c1.017,0,1.849,0.832,1.849,1.849v3.736C209.667,199.922,208.835,200.754,207.818,200.754z"/>
		<path style="fill:#AFAFAF;" d="M223.441,220.672h-13.775l2.573-21.212c0.149-1.232,1.195-2.159,2.437-2.159h3.431
			c1.227,0,2.266,0.906,2.432,2.122L223.441,220.672z"/>
		
			<rect x="216.092" y="225.095" transform="matrix(-1.836970e-16 1 -1 -1.836970e-16 455.9761 23.1186)" width="0.674" height="28.906"/>
	</g>
</g>
</svg>
