<?xml version="1.0" encoding="iso-8859-1"?>
<!-- Generator: Adobe Illustrator 21.1.0, SVG Export Plug-In . SVG Version: 6.00 Build 0)  -->
<svg version="1.0" xmlns="http://www.w3.org/2000/svg" xmlns:xlink="http://www.w3.org/1999/xlink" x="0px" y="0px"
	 viewBox="0 0 307.778 251.221" style="enable-background:new 0 0 307.778 251.221;" xml:space="preserve">
<g id="Layer_97">
</g>
<g id="Layer_96">
</g>
<g id="Layer_95">
</g>
<g id="Layer_94">
</g>
<g id="Layer_93">
</g>
<g id="Layer_92">
</g>
<g id="Layer_91">
</g>
<g id="Layer_90">
</g>
<g id="Layer_89">
</g>
<g id="Layer_88">
</g>
<g id="Layer_87">
</g>
<g id="Layer_86">
</g>
<g id="Layer_85">
</g>
<g id="Layer_84">
</g>
<g id="Layer_83">
</g>
<g id="Layer_82">
</g>
<g id="Layer_81">
</g>
<g id="Layer_80">
</g>
<g id="Layer_79">
</g>
<g id="Layer_78">
</g>
<g id="Layer_77">
</g>
<g id="Layer_76">
</g>
<g id="Layer_75">
</g>
<g id="Layer_74">
</g>
<g id="Layer_73">
</g>
<g id="Layer_72">
</g>
<g id="Layer_71">
</g>
<g id="Layer_69">
</g>
<g id="Layer_68">
</g>
<g id="Layer_67">
</g>
<g id="Layer_66">
</g>
<g id="Layer_65">
</g>
<g id="Layer_64">
</g>
<g id="Layer_63">
</g>
<g id="Layer_62">
</g>
<g id="Layer_61">
</g>
<g id="Layer_60">
</g>
<g id="Layer_59">
</g>
<g id="Layer_58">
</g>
<g id="Layer_57">
</g>
<g id="Layer_56">
</g>
<g id="Layer_55">
</g>
<g id="Layer_54">
</g>
<g id="Layer_53">
</g>
<g id="Layer_52">
</g>
<g id="Layer_51">
</g>
<g id="Layer_50">
</g>
<g id="Layer_49">
</g>
<g id="Layer_48">
</g>
<g id="Layer_98">
</g>
<g id="Layer_47">
</g>
<g id="Layer_46">
</g>
<g id="Layer_45">
</g>
<g id="Layer_44">
</g>
<g id="Layer_43">
</g>
<g id="Layer_42">
</g>
<g id="Layer_41">
</g>
<g id="Layer_40">
</g>
<g id="Layer_39">
</g>
<g id="Layer_38">
	<g>
		<path style="fill:#ADAEAD;" d="M282.208,251.221H25.57c-14.063,0-25.57-11.506-25.57-25.57V111.757
			c0-14.063,11.506-25.57,25.57-25.57h256.638c14.063,0,25.57,11.506,25.57,25.57v113.895
			C307.778,239.715,296.271,251.221,282.208,251.221z"/>
		
			<line style="fill:#818282;stroke:#1D1E1C;stroke-width:5;stroke-miterlimit:10;" x1="169.991" y1="70.038" x2="213.198" y2="13.579"/>
		
			<line style="fill:#818282;stroke:#1D1E1C;stroke-width:5;stroke-miterlimit:10;" x1="133.574" y1="70.038" x2="90.367" y2="13.579"/>
		<g>
			<defs>
				<path id="XMLID_55_" d="M213.287,226.481H99.43c-18.084,0-32.88-14.796-32.88-32.88v0c0-18.084,14.796-32.88,32.88-32.88
					h113.857c18.084,0,32.88,14.796,32.88,32.88v0C246.167,211.686,231.371,226.481,213.287,226.481z"/>
			</defs>
			<use xlink:href="#XMLID_55_"  style="overflow:visible;fill:#F1F0F1;"/>
			<clipPath id="XMLID_7_">
				<use xlink:href="#XMLID_55_"  style="overflow:visible;"/>
			</clipPath>
			
				<line style="clip-path:url(#XMLID_7_);fill:#F1F0F1;stroke:#1D1E1C;stroke-width:5;stroke-miterlimit:10;" x1="100.65" y1="147.027" x2="100.65" y2="240.104"/>
			
				<line style="clip-path:url(#XMLID_7_);fill:#F1F0F1;stroke:#1D1E1C;stroke-width:5;stroke-miterlimit:10;" x1="136.45" y1="147.027" x2="136.45" y2="240.104"/>
			
				<line style="clip-path:url(#XMLID_7_);fill:#F1F0F1;stroke:#1D1E1C;stroke-width:5;stroke-miterlimit:10;" x1="175.421" y1="147.745" x2="175.421" y2="240.822"/>
			
				<line style="clip-path:url(#XMLID_7_);fill:#F1F0F1;stroke:#1D1E1C;stroke-width:5;stroke-miterlimit:10;" x1="213.073" y1="147.745" x2="213.073" y2="240.822"/>
		</g>
		<circle style="fill:#ADAEAD;" cx="149.162" cy="100.425" r="47.527"/>
		<circle style="fill:#ADAEAD;" cx="90.04" cy="11.499" r="11.499"/>
		<circle style="fill:#ADAEAD;" cx="213.318" cy="11.499" r="11.499"/>
		<ellipse transform="matrix(0.9151 -0.4033 0.4033 0.9151 -66.0997 32.1156)" cx="43.206" cy="173.006" rx="6.741" ry="6.741"/>
		<ellipse transform="matrix(0.9151 -0.4033 0.4033 0.9151 -46.9356 123.1227)" cx="268.876" cy="173.006" rx="6.741" ry="6.741"/>
		<polyline style="fill:none;stroke:#000000;stroke-width:5;stroke-miterlimit:10;" points="148.065,91.803 157.885,143.391 
			137.554,143.635 		"/>
		<circle style="fill:#E84780;" cx="34.497" cy="214.644" r="20.307"/>
		<circle style="fill:#E84780;" cx="276.542" cy="214.644" r="20.307"/>
	</g>
</g>
<g id="Layer_37">
</g>
<g id="Layer_36">
</g>
<g id="Layer_35">
</g>
<g id="Layer_34">
</g>
<g id="Layer_33">
</g>
<g id="Layer_32">
</g>
<g id="Layer_31">
</g>
<g id="Layer_29">
</g>
<g id="Layer_28">
</g>
<g id="Layer_27">
</g>
<g id="Layer_99">
</g>
<g id="Layer_26">
</g>
<g id="Layer_25">
</g>
<g id="Layer_24">
</g>
<g id="Layer_23">
</g>
<g id="Layer_22">
</g>
<g id="Layer_21">
</g>
<g id="Layer_20">
</g>
<g id="Layer_19">
</g>
<g id="Layer_18">
</g>
<g id="Layer_17">
</g>
<g id="Layer_16">
</g>
<g id="Layer_15">
</g>
<g id="Layer_14">
</g>
<g id="Layer_13">
</g>
<g id="Layer_12">
</g>
<g id="Layer_11">
</g>
<g id="Layer_10">
</g>
<g id="Layer_9">
</g>
<g id="Layer_8">
</g>
<g id="Layer_7">
</g>
<g id="Layer_6">
</g>
<g id="Layer_5">
</g>
<g id="Layer_4">
</g>
<g id="Layer_3">
</g>
<g id="Layer_2">
</g>
</svg>
