<?xml version="1.0" encoding="iso-8859-1"?>
<!-- Generator: Adobe Illustrator 21.1.0, SVG Export Plug-In . SVG Version: 6.00 Build 0)  -->
<svg version="1.0" xmlns="http://www.w3.org/2000/svg" xmlns:xlink="http://www.w3.org/1999/xlink" x="0px" y="0px"
	 viewBox="0 0 331.474 317.544" style="enable-background:new 0 0 331.474 317.544;" xml:space="preserve">
<g id="Layer_97">
</g>
<g id="Layer_96">
</g>
<g id="Layer_95">
</g>
<g id="Layer_94">
</g>
<g id="Layer_93">
</g>
<g id="Layer_92">
</g>
<g id="Layer_91">
</g>
<g id="Layer_90">
</g>
<g id="Layer_89">
</g>
<g id="Layer_88">
</g>
<g id="Layer_87">
</g>
<g id="Layer_86">
</g>
<g id="Layer_85">
</g>
<g id="Layer_84">
</g>
<g id="Layer_83">
</g>
<g id="Layer_82">
</g>
<g id="Layer_81">
</g>
<g id="Layer_80">
</g>
<g id="Layer_79">
</g>
<g id="Layer_78">
</g>
<g id="Layer_77">
</g>
<g id="Layer_76">
</g>
<g id="Layer_75">
</g>
<g id="Layer_74">
</g>
<g id="Layer_73">
</g>
<g id="Layer_72">
</g>
<g id="Layer_71">
</g>
<g id="Layer_69">
</g>
<g id="Layer_68">
</g>
<g id="Layer_67">
</g>
<g id="Layer_66">
</g>
<g id="Layer_65">
</g>
<g id="Layer_64">
</g>
<g id="Layer_63">
</g>
<g id="Layer_62">
</g>
<g id="Layer_61">
</g>
<g id="Layer_60">
</g>
<g id="Layer_59">
</g>
<g id="Layer_58">
</g>
<g id="Layer_57">
</g>
<g id="Layer_56">
</g>
<g id="Layer_55">
</g>
<g id="Layer_54">
</g>
<g id="Layer_53">
</g>
<g id="Layer_52">
</g>
<g id="Layer_51">
</g>
<g id="Layer_50">
</g>
<g id="Layer_49">
</g>
<g id="Layer_48">
</g>
<g id="Layer_98">
</g>
<g id="Layer_47">
</g>
<g id="Layer_46">
</g>
<g id="Layer_45">
</g>
<g id="Layer_44">
</g>
<g id="Layer_43">
</g>
<g id="Layer_42">
</g>
<g id="Layer_41">
	<g>
		<path style="fill:#FFCF11;" d="M98.77,159.029c7.032-2.326,14.114-4.501,21.177-6.733c-1.275-6.159-2.551-12.318-3.824-18.478
			c-0.356-1.725-0.938-3.499,1.021-4.77c3.648-3.131,7.371-6.184,10.911-9.43c1.584-1.452,2.902-1.464,4.786-0.673
			c5.198,2.181,10.573,3.971,15.722,6.25c2.294,1.016,3.505,0.551,4.52-1.461c0.421-0.838,0.841-1.677,1.262-2.515l-0.011-0.257
			l0.225-0.135c0.643-1.156,1.286-2.313,1.929-3.469c0.019-0.069,0.038-0.137,0.057-0.206c0.031-0.053,0.064-0.105,0.095-0.158
			c3.787-6.721,3.759-6.702-2.595-10.959c-4.124-2.763-10.038-4.791-11.772-8.646c-1.803-4.008,0.669-9.813,0.863-14.844
			c0.116-3.013,1.549-4.31,4.183-5.283c5.237-1.937,10.353-4.199,15.579-6.167c1.7-0.64,2.021-1.388,1.515-3.034
			c-1.93-6.287-3.827-12.589-5.524-18.943c-0.572-2.142-1.531-2.369-3.525-1.941c-5.46,1.172-10.99,2.017-16.445,3.21
			c-2.51,0.549-4.15,0.001-5.669-2.049c-2.527-3.41-5.247-6.691-8.058-9.879c-1.383-1.569-1.478-2.895-0.601-4.768
			c2.284-4.877,4.202-9.919,6.554-14.761c1.248-2.569,1.258-3.947-1.685-5.317c-5.393-2.51-10.597-5.428-15.761-8.377
			c-2.171-1.24-3.403-1.339-4.912,1.053c-3.025,4.797-6.495,9.324-9.669,14.035c-1.042,1.548-2.071,2.212-4.079,1.919
			c-4.393-0.641-8.831-1.099-13.27-1.331c-2.463-0.129-3.696-1.18-4.526-3.33c-2.021-5.237-4.319-10.37-6.257-15.635
			c-0.77-2.091-1.752-2.237-3.688-1.64C60.219,2.49,53.095,4.522,45.989,6.612c1.146,6.185,2.294,12.37,3.437,18.556
			c0.32,1.732,0.865,3.518-1.12,4.75c-3.712,3.058-7.496,6.036-11.103,9.21c-1.613,1.42-2.931,1.405-4.798,0.577
			c-5.15-2.286-10.486-4.184-15.585-6.568c-2.271-1.061-3.492-0.621-4.548,1.371c-0.438,0.83-0.876,1.66-1.314,2.49l0.006,0.258
			l-0.227,0.131c-0.667,1.143-1.333,2.287-2,3.43c-0.071,0.237-0.142,0.474-0.213,0.71c-0.524,0.882-1.043,1.766-1.527,2.667
			c-3.647,6.794-3.619,6.775,2.824,10.902c4.182,2.679,10.138,4.587,11.952,8.405c1.887,3.97-0.465,9.822-0.554,14.855
			c-0.053,3.014-1.459,4.339-4.073,5.365C11.949,85.763,6.881,88.127,1.695,90.2c-1.686,0.674-1.992,1.428-1.452,3.063
			c2.061,6.246,4.089,12.507,5.919,18.824c0.617,2.129,1.58,2.337,3.565,1.869c5.436-1.282,10.948-2.238,16.378-3.54
			c2.498-0.6,4.15-0.085,5.712,1.934c2.598,3.357,5.387,6.582,8.264,9.713c1.415,1.54,1.539,2.864,0.7,4.753
			c-2.182,4.92-3.995,9.999-6.247,14.887c-1.195,2.593-1.176,3.971,1.796,5.281c5.446,2.4,10.711,5.213,15.936,8.056
			c2.197,1.195,3.431,1.27,4.89-1.152c2.925-4.856,6.301-9.451,9.377-14.224c1.01-1.568,2.025-2.253,4.039-2.001
			c4.407,0.552,8.854,0.921,13.298,1.064c2.466,0.079,3.721,1.104,4.596,3.237c2.13,5.193,4.535,10.278,6.583,15.502
			C95.861,159.539,96.847,159.666,98.77,159.029z M71.048,99.329C60.364,93.226,55.663,81.496,59.416,70.29
			c0.166-0.495,0.345-0.986,0.52-1.479c1.142-1.463,1.99-3.181,3.742-4.113c7.698-8.061,20.572-9.83,30.086-4.133
			c10.552,6.318,15.007,18.143,11.022,29.273c-0.112,0.312-0.233,0.62-0.349,0.931c-0.983,1.396-1.797,2.934-3.389,3.822
			C93.518,102.804,80.681,104.831,71.048,99.329z"/>
		<path style="fill:#1D1E1C;" d="M170.972,305.965c5.885-4.497,11.866-8.868,17.811-13.287c-3.219-5.404-6.439-10.807-9.656-16.213
			c-0.901-1.514-2.031-3-0.595-4.842c2.424-4.152,4.944-8.254,7.228-12.479c1.022-1.89,2.264-2.332,4.303-2.201
			c5.626,0.362,11.29,0.296,16.902,0.766c2.5,0.21,3.493-0.625,3.794-2.859c0.124-0.93,0.247-1.86,0.37-2.79l-0.095-0.24
			l0.168-0.201c0.23-1.303,0.459-2.606,0.689-3.909c-0.005-0.071-0.009-0.142-0.014-0.213c0.011-0.06,0.026-0.12,0.038-0.181
			c1.381-7.59,1.361-7.563-6.036-9.508c-4.801-1.263-11.053-1.246-13.952-4.322c-3.015-3.198-2.576-9.493-4.038-14.31
			c-0.875-2.885,0.055-4.579,2.225-6.361c4.316-3.543,8.411-7.353,12.706-10.922c1.397-1.161,1.456-1.972,0.44-3.363
			c-3.88-5.311-7.733-10.646-11.414-16.095c-1.241-1.837-2.221-1.738-3.965-0.682c-4.776,2.893-9.726,5.499-14.491,8.411
			c-2.192,1.34-3.922,1.358-6.028-0.083c-3.503-2.396-7.147-4.607-10.845-6.701c-1.82-1.03-2.344-2.253-2.127-4.309
			c0.564-5.355,0.728-10.747,1.368-16.093c0.34-2.836-0.101-4.141-3.331-4.474c-5.918-0.609-11.79-1.665-17.634-2.763
			c-2.457-0.461-3.654-0.153-4.297,2.601c-1.291,5.523-3.09,10.936-4.549,16.425c-0.479,1.804-1.234,2.768-3.227,3.148
			c-4.361,0.831-8.705,1.848-12.976,3.081c-2.37,0.683-3.879,0.094-5.366-1.667c-3.622-4.288-7.472-8.388-11.026-12.73
			c-1.411-1.724-2.387-1.541-4.022-0.344c-5.974,4.378-12.042,8.628-18.074,12.927c3.105,5.47,6.212,10.94,9.316,16.412
			c0.869,1.532,1.967,3.042,0.494,4.855c-2.508,4.104-5.111,8.155-7.481,12.334c-1.06,1.869-2.311,2.287-4.346,2.114
			c-5.615-0.476-11.278-0.526-16.876-1.111c-2.494-0.26-3.503,0.554-3.85,2.782c-0.143,0.927-0.285,1.855-0.427,2.782l0.09,0.241
			l-0.172,0.198c-0.256,1.298-0.512,2.597-0.769,3.896c0.011,0.247,0.021,0.494,0.031,0.741c-0.207,1.005-0.408,2.01-0.571,3.02
			c-1.225,7.613-1.205,7.586,6.233,9.38c4.828,1.164,11.08,1.02,14.044,4.035c3.081,3.135,2.772,9.435,4.334,14.219
			c0.935,2.865,0.039,4.577-2.095,6.402c-4.244,3.629-8.26,7.52-12.483,11.174c-1.373,1.188-1.415,2.001-0.371,3.37
			c3.99,5.229,7.954,10.483,11.749,15.854c1.279,1.81,2.257,1.692,3.98,0.601c4.718-2.989,9.615-5.694,14.32-8.701
			c2.165-1.384,3.895-1.437,6.03-0.04c3.553,2.324,7.243,4.459,10.985,6.477c1.841,0.992,2.39,2.203,2.216,4.263
			c-0.454,5.364-0.506,10.756-1.036,16.111c-0.281,2.841,0.187,4.137,3.424,4.403c5.931,0.488,11.826,1.424,17.694,2.402
			c2.467,0.411,3.658,0.079,4.244-2.687c1.177-5.546,2.865-10.992,4.211-16.508c0.442-1.812,1.177-2.791,3.163-3.211
			c4.345-0.919,8.669-2.024,12.915-3.343c2.356-0.732,3.877-0.173,5.402,1.557c3.711,4.212,7.646,8.23,11.29,12.498
			C168.39,307.398,169.362,307.195,170.972,305.965z M125.253,258.61c-12.092-2.274-20.37-11.822-20.487-23.639
			c-0.005-0.522,0.004-1.045,0.007-1.568c0.601-1.756,0.84-3.657,2.192-5.11c4.639-10.135,16.227-16.016,27.081-13.743
			c12.038,2.521,20.114,12.239,19.988,24.06c-0.004,0.331-0.018,0.662-0.025,0.993c-0.473,1.641-0.739,3.36-1.953,4.72
			C147.625,254.547,136.156,260.661,125.253,258.61z"/>
		<path style="fill:#3EB8C7;" d="M271.02,200.434c6.882-2.736,13.824-5.325,20.743-7.97c-1.636-6.073-3.273-12.146-4.907-18.221
			c-0.457-1.701-1.143-3.438,0.738-4.822c3.457-3.341,6.993-6.608,10.336-10.057c1.495-1.543,2.811-1.632,4.738-0.954
			c5.318,1.871,10.789,3.341,16.063,5.312c2.35,0.879,3.532,0.344,4.426-1.725c0.371-0.861,0.741-1.723,1.111-2.585l-0.026-0.256
			l0.216-0.148c0.574-1.192,1.147-2.385,1.721-3.577c0.015-0.07,0.03-0.139,0.045-0.209c0.027-0.055,0.058-0.109,0.085-0.164
			c3.384-6.932,3.357-6.912-3.237-10.787c-4.28-2.515-10.303-4.191-12.262-7.937c-2.036-3.895,0.09-9.836-0.014-14.869
			c-0.062-3.014,1.292-4.393,3.864-5.521c5.114-2.243,10.087-4.802,15.188-7.075c1.659-0.739,1.935-1.505,1.334-3.118
			c-2.297-6.163-4.562-12.342-6.632-18.584c-0.698-2.104-1.668-2.275-3.633-1.73c-5.381,1.492-10.852,2.661-16.227,4.174
			c-2.473,0.696-4.143,0.246-5.78-1.711c-2.723-3.255-5.633-6.37-8.626-9.387c-1.473-1.484-1.646-2.803-0.881-4.724
			c1.992-5.003,3.609-10.149,5.673-15.122c1.095-2.638,1.023-4.014-1.996-5.208c-5.532-2.188-10.899-4.794-16.228-7.433
			c-2.241-1.109-3.476-1.136-4.841,1.341c-2.737,4.967-5.934,9.691-8.825,14.581c-0.949,1.607-1.937,2.33-3.958,2.157
			c-4.424-0.381-8.88-0.577-13.325-0.547c-2.467,0.016-3.76-0.96-4.715-3.057c-2.327-5.109-4.923-10.097-7.168-15.239
			c-0.892-2.042-1.881-2.13-3.779-1.419c-6.936,2.598-13.928,5.047-20.899,7.552c1.509,6.107,3.019,12.213,4.525,18.321
			c0.422,1.71,1.071,3.461-0.838,4.807c-3.525,3.272-7.128,6.468-10.54,9.849c-1.527,1.513-2.843,1.576-4.756,0.859
			c-5.276-1.978-10.714-3.559-15.946-5.637c-2.33-0.926-3.523-0.414-4.459,1.636c-0.388,0.854-0.776,1.708-1.165,2.563l0.021,0.257
			l-0.219,0.144c-0.598,1.181-1.196,2.362-1.794,3.542c-0.057,0.241-0.113,0.481-0.17,0.722c-0.471,0.911-0.937,1.824-1.367,2.753
			c-3.24,6.998-3.213,6.977,3.462,10.717c4.333,2.428,10.391,3.981,12.427,7.686c2.118,3.852,0.115,9.833,0.323,14.862
			c0.124,3.011-1.201,4.417-3.749,5.596c-5.067,2.345-9.988,5.003-15.042,7.378c-1.644,0.772-1.904,1.543-1.269,3.144
			c2.426,6.114,4.819,12.244,7.019,18.442c0.741,2.089,1.715,2.24,3.669,1.656c5.351-1.6,10.797-2.879,16.141-4.5
			c2.459-0.746,4.138-0.329,5.816,1.593c2.791,3.198,5.765,6.253,8.822,9.208c1.504,1.454,1.705,2.768,0.979,4.704
			c-1.888,5.041-3.398,10.217-5.358,15.229c-1.04,2.659-0.94,4.033,2.104,5.166c5.578,2.075,10.999,4.572,16.383,7.102
			c2.264,1.064,3.5,1.066,4.813-1.438c2.634-5.02,5.733-9.806,8.522-14.752c0.916-1.625,1.889-2.368,3.914-2.235
			c4.432,0.291,8.893,0.398,13.337,0.278c2.466-0.067,3.78,0.883,4.779,2.961c2.433,5.059,5.133,9.993,7.486,15.087
			C268.146,201.114,269.138,201.182,271.02,200.434z M239.826,142.472c-11.025-5.462-16.41-16.895-13.324-28.302
			c0.136-0.504,0.287-1.005,0.432-1.507c1.053-1.528,1.799-3.293,3.493-4.326c7.209-8.501,19.956-11.026,29.79-5.9
			c10.906,5.685,16.051,17.227,12.729,28.572c-0.093,0.318-0.196,0.633-0.293,0.949c-0.899,1.452-1.621,3.035-3.158,4.015
			C262.462,144.616,249.767,147.397,239.826,142.472z"/>
	</g>
</g>
<g id="Layer_40">
</g>
<g id="Layer_39">
</g>
<g id="Layer_38">
</g>
<g id="Layer_37">
</g>
<g id="Layer_36">
</g>
<g id="Layer_35">
</g>
<g id="Layer_34">
</g>
<g id="Layer_33">
</g>
<g id="Layer_32">
</g>
<g id="Layer_31">
</g>
<g id="Layer_29">
</g>
<g id="Layer_28">
</g>
<g id="Layer_27">
</g>
<g id="Layer_99">
</g>
<g id="Layer_26">
</g>
<g id="Layer_25">
</g>
<g id="Layer_24">
</g>
<g id="Layer_23">
</g>
<g id="Layer_22">
</g>
<g id="Layer_21">
</g>
<g id="Layer_20">
</g>
<g id="Layer_19">
</g>
<g id="Layer_18">
</g>
<g id="Layer_17">
</g>
<g id="Layer_16">
</g>
<g id="Layer_15">
</g>
<g id="Layer_14">
</g>
<g id="Layer_13">
</g>
<g id="Layer_12">
</g>
<g id="Layer_11">
</g>
<g id="Layer_10">
</g>
<g id="Layer_9">
</g>
<g id="Layer_8">
</g>
<g id="Layer_7">
</g>
<g id="Layer_6">
</g>
<g id="Layer_5">
</g>
<g id="Layer_4">
</g>
<g id="Layer_3">
</g>
<g id="Layer_2">
</g>
</svg>
