<?xml version="1.0" encoding="iso-8859-1"?>
<!-- Generator: Adobe Illustrator 21.1.0, SVG Export Plug-In . SVG Version: 6.00 Build 0)  -->
<svg version="1.0" xmlns="http://www.w3.org/2000/svg" xmlns:xlink="http://www.w3.org/1999/xlink" x="0px" y="0px"
	 viewBox="0 0 263.194 247.88" style="enable-background:new 0 0 263.194 247.88;" xml:space="preserve">
<g id="Layer_97">
</g>
<g id="Layer_96">
</g>
<g id="Layer_95">
</g>
<g id="Layer_94">
</g>
<g id="Layer_93">
</g>
<g id="Layer_92">
</g>
<g id="Layer_91">
</g>
<g id="Layer_90">
</g>
<g id="Layer_89">
</g>
<g id="Layer_88">
</g>
<g id="Layer_87">
</g>
<g id="Layer_86">
</g>
<g id="Layer_85">
</g>
<g id="Layer_84">
</g>
<g id="Layer_83">
</g>
<g id="Layer_82">
</g>
<g id="Layer_81">
</g>
<g id="Layer_80">
</g>
<g id="Layer_79">
</g>
<g id="Layer_78">
</g>
<g id="Layer_77">
</g>
<g id="Layer_76">
</g>
<g id="Layer_75">
</g>
<g id="Layer_74">
</g>
<g id="Layer_73">
</g>
<g id="Layer_72">
</g>
<g id="Layer_71">
</g>
<g id="Layer_69">
</g>
<g id="Layer_68">
</g>
<g id="Layer_67">
</g>
<g id="Layer_66">
</g>
<g id="Layer_65">
</g>
<g id="Layer_64">
</g>
<g id="Layer_63">
</g>
<g id="Layer_62">
</g>
<g id="Layer_61">
</g>
<g id="Layer_60">
</g>
<g id="Layer_59">
</g>
<g id="Layer_58">
</g>
<g id="Layer_57">
</g>
<g id="Layer_56">
</g>
<g id="Layer_55">
</g>
<g id="Layer_54">
</g>
<g id="Layer_53">
</g>
<g id="Layer_52">
</g>
<g id="Layer_51">
</g>
<g id="Layer_50">
</g>
<g id="Layer_49">
</g>
<g id="Layer_48">
</g>
<g id="Layer_98">
</g>
<g id="Layer_47">
</g>
<g id="Layer_46">
</g>
<g id="Layer_45">
</g>
<g id="Layer_44">
</g>
<g id="Layer_43">
</g>
<g id="Layer_42">
</g>
<g id="Layer_41">
</g>
<g id="Layer_40">
</g>
<g id="Layer_39">
</g>
<g id="Layer_38">
</g>
<g id="Layer_37">
</g>
<g id="Layer_36">
</g>
<g id="Layer_35">
</g>
<g id="Layer_34">
</g>
<g id="Layer_33">
</g>
<g id="Layer_32">
</g>
<g id="Layer_31">
</g>
<g id="Layer_29">
</g>
<g id="Layer_28">
</g>
<g id="Layer_27">
</g>
<g id="Layer_99">
</g>
<g id="Layer_26">
</g>
<g id="Layer_25">
</g>
<g id="Layer_24">
</g>
<g id="Layer_23">
</g>
<g id="Layer_22">
</g>
<g id="Layer_21">
	<g>
		<g>
			<defs>
				
					<ellipse id="SVGID_1_" transform="matrix(0.9259 -0.3779 0.3779 0.9259 -37.6432 56.0202)" cx="123.94" cy="123.94" rx="123.907" ry="123.907"/>
			</defs>
			<use xlink:href="#SVGID_1_"  style="overflow:visible;fill:#ECD1BE;"/>
			<clipPath id="SVGID_2_">
				<use xlink:href="#SVGID_1_"  style="overflow:visible;"/>
			</clipPath>
			<path style="clip-path:url(#SVGID_2_);fill:#BF997F;" d="M44.931,211.001l143.85-64.392c7.347-3.289,13.922-8.082,19.301-14.071
				L244,92.544c8.764-9.758,24.855-2.166,22.897,10.802l-17.852,118.226c-0.787,5.21-4.593,9.455-9.687,10.802L57.316,280.52
				c-7.961,2.105-15.887-3.504-16.55-11.711l-3.607-44.683C36.708,218.546,39.822,213.288,44.931,211.001z"/>
		</g>
		
			<ellipse transform="matrix(0.9151 -0.4033 0.4033 0.9151 -5.8067 100.6514)" style="fill:#EDD2BE;" cx="236.084" cy="64.113" rx="27.103" ry="27.103"/>
		<path style="fill:#FFFFFF;" d="M103.829,198.595c7.171,16.271,26.174,23.648,42.445,16.478
			c16.271-7.171,23.648-26.174,16.478-42.445L103.829,198.595z"/>
		<ellipse transform="matrix(0.9151 -0.4033 0.4033 0.9151 -38.3017 77.9597)" cx="165.958" cy="129.924" rx="6.555" ry="6.555"/>
		<polyline style="fill:none;stroke:#000000;stroke-width:5;stroke-miterlimit:10;" points="91.064,94.41 108.06,164.167 
			133.497,152.957 		"/>
		<path d="M137.122,116.479l34.689-15.005c2.485-1.075,3.639-3.988,2.564-6.474v0c-1.075-2.485-3.988-3.639-6.474-2.564
			l-34.689,15.005c-2.485,1.075-3.639,3.988-2.564,6.474v0C131.723,116.4,134.636,117.554,137.122,116.479z"/>
		<path d="M36.218,157.745l34.689-15.005c2.485-1.075,3.639-3.988,2.564-6.474l0,0c-1.075-2.485-3.988-3.639-6.474-2.564
			l-34.689,15.005c-2.485,1.075-3.639,3.988-2.564,6.474l0,0C30.819,157.666,33.732,158.82,36.218,157.745z"/>
		<path style="fill:none;stroke:#000000;stroke-width:5;stroke-linecap:round;stroke-miterlimit:10;" d="M53.989,168.986
			l18.746-7.685c0.678-0.278,1.342,0.426,1.025,1.087l-7.224,15.023"/>
	</g>
</g>
<g id="Layer_20">
</g>
<g id="Layer_19">
</g>
<g id="Layer_18">
</g>
<g id="Layer_17">
</g>
<g id="Layer_16">
</g>
<g id="Layer_15">
</g>
<g id="Layer_14">
</g>
<g id="Layer_13">
</g>
<g id="Layer_12">
</g>
<g id="Layer_11">
</g>
<g id="Layer_10">
</g>
<g id="Layer_9">
</g>
<g id="Layer_8">
</g>
<g id="Layer_7">
</g>
<g id="Layer_6">
</g>
<g id="Layer_5">
</g>
<g id="Layer_4">
</g>
<g id="Layer_3">
</g>
<g id="Layer_2">
</g>
</svg>
