<?xml version="1.0" encoding="iso-8859-1"?>
<!-- Generator: Adobe Illustrator 21.1.0, SVG Export Plug-In . SVG Version: 6.00 Build 0)  -->
<svg version="1.0" xmlns="http://www.w3.org/2000/svg" xmlns:xlink="http://www.w3.org/1999/xlink" x="0px" y="0px"
	 viewBox="0 0 283.701 248.44" style="enable-background:new 0 0 283.701 248.44;" xml:space="preserve">
<g id="Layer_97">
</g>
<g id="Layer_96">
</g>
<g id="Layer_95">
</g>
<g id="Layer_94">
</g>
<g id="Layer_93">
</g>
<g id="Layer_92">
</g>
<g id="Layer_91">
</g>
<g id="Layer_90">
</g>
<g id="Layer_89">
</g>
<g id="Layer_88">
</g>
<g id="Layer_87">
</g>
<g id="Layer_86">
</g>
<g id="Layer_85">
</g>
<g id="Layer_84">
</g>
<g id="Layer_83">
</g>
<g id="Layer_82">
</g>
<g id="Layer_81">
</g>
<g id="Layer_80">
</g>
<g id="Layer_79">
</g>
<g id="Layer_78">
</g>
<g id="Layer_77">
</g>
<g id="Layer_76">
</g>
<g id="Layer_75">
</g>
<g id="Layer_74">
</g>
<g id="Layer_73">
</g>
<g id="Layer_72">
</g>
<g id="Layer_71">
</g>
<g id="Layer_69">
</g>
<g id="Layer_68">
</g>
<g id="Layer_67">
</g>
<g id="Layer_66">
</g>
<g id="Layer_65">
</g>
<g id="Layer_64">
</g>
<g id="Layer_63">
</g>
<g id="Layer_62">
</g>
<g id="Layer_61">
</g>
<g id="Layer_60">
</g>
<g id="Layer_59">
</g>
<g id="Layer_58">
</g>
<g id="Layer_57">
</g>
<g id="Layer_56">
</g>
<g id="Layer_55">
</g>
<g id="Layer_54">
</g>
<g id="Layer_53">
</g>
<g id="Layer_52">
</g>
<g id="Layer_51">
</g>
<g id="Layer_50">
</g>
<g id="Layer_49">
</g>
<g id="Layer_48">
</g>
<g id="Layer_98">
</g>
<g id="Layer_47">
</g>
<g id="Layer_46">
</g>
<g id="Layer_45">
</g>
<g id="Layer_44">
</g>
<g id="Layer_43">
</g>
<g id="Layer_42">
</g>
<g id="Layer_41">
</g>
<g id="Layer_40">
</g>
<g id="Layer_39">
</g>
<g id="Layer_38">
</g>
<g id="Layer_37">
</g>
<g id="Layer_36">
</g>
<g id="Layer_35">
</g>
<g id="Layer_34">
</g>
<g id="Layer_33">
</g>
<g id="Layer_32">
</g>
<g id="Layer_31">
</g>
<g id="Layer_29">
</g>
<g id="Layer_28">
	<g>
		
			<ellipse transform="matrix(0.1546 -0.988 0.988 0.1546 -129.5506 170.4637)" style="fill:#E9681A;" cx="34.833" cy="160.933" rx="30.428" ry="30.428"/>
		
			<ellipse transform="matrix(0.997 -0.0777 0.0777 0.997 -14.7568 17.7203)" style="fill:#E9681A;" cx="220.332" cy="198.489" rx="19.593" ry="19.593"/>
		<g>
			<defs>
				
					<ellipse id="XMLID_26_" transform="matrix(0.1099 -0.9939 0.9939 0.1099 -33.7244 265.5931)" cx="131.434" cy="151.627" rx="96.805" ry="96.805"/>
			</defs>
			<use xlink:href="#XMLID_26_"  style="overflow:visible;fill:#ECD1BE;"/>
			<clipPath id="XMLID_7_">
				<use xlink:href="#XMLID_26_"  style="overflow:visible;"/>
			</clipPath>
		</g>
		<path d="M74.114,190.524c-1.591,14.383,8.779,27.332,23.162,28.923s27.332-8.779,28.923-23.162L74.114,190.524z"/>
		<ellipse transform="matrix(0.1099 -0.9939 0.9939 0.1099 -51.0031 304.062)" cx="144.274" cy="180.509" rx="5.335" ry="5.335"/>
		<polyline style="fill:none;stroke:#000000;stroke-width:4;stroke-miterlimit:10;" points="105.863,134.188 92.951,178.056 
			110.548,180.003 		"/>
		<ellipse transform="matrix(0.1099 -0.9939 0.9939 0.1099 -110.3227 208.57)" cx="61.295" cy="165.885" rx="5.335" ry="5.335"/>
		
			<ellipse transform="matrix(0.748 -0.6637 0.6637 0.748 -99.4743 158.9451)" style="fill:#F6B7A1;" cx="159.563" cy="210.461" rx="17.31" ry="17.31"/>
		<path style="fill:#E9681A;stroke:#E9681A;stroke-width:0.5893;stroke-miterlimit:10;" d="M160.84,153.208l-17.71-3.941
			c-1.269-0.282-2.076-1.552-1.794-2.82v0c0.282-1.269,1.552-2.076,2.82-1.794l17.71,3.941c1.269,0.282,2.076,1.552,1.794,2.82l0,0
			C163.378,152.683,162.109,153.49,160.84,153.208z"/>
		<path style="fill:#E9681A;stroke:#E9681A;stroke-width:0.5893;stroke-miterlimit:10;" d="M79.25,139.033l-17.925-2.805
			c-1.284-0.201-2.171-1.416-1.97-2.701l0,0c0.201-1.284,1.416-2.171,2.701-1.97l17.925,2.805c1.284,0.201,2.171,1.416,1.97,2.701h0
			C81.75,138.348,80.534,139.234,79.25,139.033z"/>
		
			<ellipse transform="matrix(0.1546 -0.988 0.988 0.1546 -5.0217 136.8508)" style="fill:#E9681A;" cx="77.456" cy="71.36" rx="30.428" ry="30.428"/>
		
			<ellipse transform="matrix(0.1546 -0.988 0.988 0.1546 4.5202 181.4355)" style="fill:#E9681A;" cx="108.28" cy="88.076" rx="30.428" ry="30.428"/>
		
			<ellipse transform="matrix(0.1546 -0.988 0.988 0.1546 -22.1708 147.9709)" style="fill:#E9681A;" cx="75.38" cy="86.941" rx="30.428" ry="30.428"/>
		
			<ellipse transform="matrix(0.1546 -0.988 0.988 0.1546 30.2109 232.9247)" style="fill:#E9681A;" cx="151.212" cy="98.809" rx="30.428" ry="30.428"/>
		
			<ellipse transform="matrix(0.1546 -0.988 0.988 0.1546 36.9094 280.2406)" style="fill:#E9681A;" cx="182.21" cy="118.553" rx="30.428" ry="30.428"/>
		
			<ellipse transform="matrix(0.1546 -0.988 0.988 0.1546 -89.3086 128.4985)" style="fill:#E9681A;" cx="30.432" cy="116.436" rx="30.428" ry="30.428"/>
		
			<ellipse transform="matrix(0.1546 -0.988 0.988 0.1546 30.5603 340.3205)" style="fill:#E9681A;" cx="214.143" cy="152.303" rx="30.428" ry="30.428"/>
		
			<ellipse transform="matrix(0.1546 -0.988 0.988 0.1546 22.9202 390.0545)" style="fill:#E9681A;" cx="239.384" cy="181.634" rx="30.428" ry="30.428"/>
		
			<ellipse transform="matrix(0.1546 -0.988 0.988 0.1546 58.8194 377.3759)" style="fill:#E9681A;" cx="249.925" cy="154.317" rx="30.428" ry="30.428"/>
		
			<ellipse transform="matrix(0.1546 -0.988 0.988 0.1546 75.091 295.8887)" style="fill:#E9681A;" cx="210.445" cy="104.066" rx="30.428" ry="30.428"/>
		
			<ellipse transform="matrix(0.1546 -0.988 0.988 0.1546 74.0057 228.567)" style="fill:#E9681A;" cx="170.563" cy="71.039" rx="30.428" ry="30.428"/>
		
			<ellipse transform="matrix(0.1546 -0.988 0.988 0.1546 75.1831 342.3137)" style="fill:#E9681A;" cx="237.619" cy="127.224" rx="30.428" ry="30.428"/>
		
			<ellipse transform="matrix(0.1546 -0.988 0.988 0.1546 106.9993 301.1869)" style="fill:#E9681A;" cx="229.495" cy="88.07" rx="30.428" ry="30.428"/>
		
			<ellipse transform="matrix(0.1546 -0.988 0.988 0.1546 116.3387 240.9486)" style="fill:#E9681A;" cx="198.965" cy="52.493" rx="30.428" ry="30.428"/>
		
			<ellipse transform="matrix(0.1546 -0.988 0.988 0.1546 100.7067 347.2562)" style="fill:#E9681A;" cx="253.269" cy="114.781" rx="30.428" ry="30.428"/>
		
			<ellipse transform="matrix(0.1546 -0.988 0.988 0.1546 93.8992 185.4456)" style="fill:#E9681A;" cx="155.313" cy="37.854" rx="30.428" ry="30.428"/>
		
			<ellipse transform="matrix(0.1546 -0.988 0.988 0.1546 61.1438 132.3222)" style="fill:#E9681A;" cx="107.893" cy="30.432" rx="30.428" ry="30.428"/>
		
			<ellipse transform="matrix(0.1546 -0.988 0.988 0.1546 -4.6734 100.9635)" style="fill:#E9681A;" cx="56.66" cy="53.213" rx="30.428" ry="30.428"/>
		
			<ellipse transform="matrix(0.1546 -0.988 0.988 0.1546 42.5627 170.6175)" style="fill:#E9681A;" cx="120.98" cy="60.438" rx="30.428" ry="30.428"/>
		
			<ellipse transform="matrix(0.1546 -0.988 0.988 0.1546 -42.4762 107.9702)" style="fill:#E9681A;" cx="41.853" cy="78.806" rx="30.428" ry="30.428"/>
		
			<ellipse transform="matrix(0.2705 -0.9627 0.9627 0.2705 -64.9207 270.4283)" style="fill:none;stroke:#61C0DD;stroke-width:5;stroke-miterlimit:10;" cx="145.991" cy="178.054" rx="21.731" ry="21.731"/>
		
			<ellipse transform="matrix(0.2705 -0.9627 0.9627 0.2705 -112.7644 180.4016)" style="fill:none;stroke:#61C0DD;stroke-width:5;stroke-miterlimit:10;" cx="62.662" cy="164.612" rx="21.731" ry="21.731"/>
		
			<line style="fill:none;stroke:#61C0DD;stroke-width:5;stroke-miterlimit:10;" x1="167.569" y1="175.372" x2="212.696" y2="188.535"/>
		
			<ellipse transform="matrix(0.1546 -0.988 0.988 0.1546 -12.1631 395.4894)" style="fill:#E9681A;" cx="225.018" cy="204.852" rx="30.428" ry="30.428"/>
		
			<line style="fill:#E9681A;stroke:#61C0DD;stroke-width:2.3572;stroke-miterlimit:10;" x1="84.185" y1="155.647" x2="129.51" y2="163.919"/>
	</g>
</g>
<g id="Layer_27">
</g>
<g id="Layer_99">
</g>
<g id="Layer_26">
</g>
<g id="Layer_25">
</g>
<g id="Layer_24">
</g>
<g id="Layer_23">
</g>
<g id="Layer_22">
</g>
<g id="Layer_21">
</g>
<g id="Layer_20">
</g>
<g id="Layer_19">
</g>
<g id="Layer_18">
</g>
<g id="Layer_17">
</g>
<g id="Layer_16">
</g>
<g id="Layer_15">
</g>
<g id="Layer_14">
</g>
<g id="Layer_13">
</g>
<g id="Layer_12">
</g>
<g id="Layer_11">
</g>
<g id="Layer_10">
</g>
<g id="Layer_9">
</g>
<g id="Layer_8">
</g>
<g id="Layer_7">
</g>
<g id="Layer_6">
</g>
<g id="Layer_5">
</g>
<g id="Layer_4">
</g>
<g id="Layer_3">
</g>
<g id="Layer_2">
</g>
</svg>
