<?xml version="1.0" encoding="iso-8859-1"?>
<!-- Generator: Adobe Illustrator 21.1.0, SVG Export Plug-In . SVG Version: 6.00 Build 0)  -->
<svg version="1.0" xmlns="http://www.w3.org/2000/svg" xmlns:xlink="http://www.w3.org/1999/xlink" x="0px" y="0px"
	 viewBox="0 0 415.744 266.655" style="enable-background:new 0 0 415.744 266.655;" xml:space="preserve">
<g id="Layer_97">
</g>
<g id="Layer_96">
</g>
<g id="Layer_95">
</g>
<g id="Layer_94">
</g>
<g id="Layer_93">
</g>
<g id="Layer_92">
</g>
<g id="Layer_91">
</g>
<g id="Layer_90">
</g>
<g id="Layer_89">
</g>
<g id="Layer_88">
</g>
<g id="Layer_87">
</g>
<g id="Layer_86">
</g>
<g id="Layer_85">
</g>
<g id="Layer_84">
</g>
<g id="Layer_83">
</g>
<g id="Layer_82">
</g>
<g id="Layer_81">
</g>
<g id="Layer_80">
</g>
<g id="Layer_79">
</g>
<g id="Layer_78">
</g>
<g id="Layer_77">
</g>
<g id="Layer_76">
</g>
<g id="Layer_75">
</g>
<g id="Layer_74">
</g>
<g id="Layer_73">
</g>
<g id="Layer_72">
</g>
<g id="Layer_71">
</g>
<g id="Layer_69">
</g>
<g id="Layer_68">
</g>
<g id="Layer_67">
</g>
<g id="Layer_66">
</g>
<g id="Layer_65">
</g>
<g id="Layer_64">
</g>
<g id="Layer_63">
</g>
<g id="Layer_62">
</g>
<g id="Layer_61">
</g>
<g id="Layer_60">
</g>
<g id="Layer_59">
</g>
<g id="Layer_58">
</g>
<g id="Layer_57">
</g>
<g id="Layer_56">
</g>
<g id="Layer_55">
</g>
<g id="Layer_54">
</g>
<g id="Layer_53">
</g>
<g id="Layer_52">
</g>
<g id="Layer_51">
</g>
<g id="Layer_50">
</g>
<g id="Layer_49">
</g>
<g id="Layer_48">
</g>
<g id="Layer_98">
</g>
<g id="Layer_47">
</g>
<g id="Layer_46">
</g>
<g id="Layer_45">
</g>
<g id="Layer_44">
</g>
<g id="Layer_43">
</g>
<g id="Layer_42">
</g>
<g id="Layer_41">
</g>
<g id="Layer_40">
</g>
<g id="Layer_39">
</g>
<g id="Layer_38">
</g>
<g id="Layer_37">
</g>
<g id="Layer_36">
</g>
<g id="Layer_35">
</g>
<g id="Layer_34">
</g>
<g id="Layer_33">
</g>
<g id="Layer_32">
</g>
<g id="Layer_31">
</g>
<g id="Layer_29">
</g>
<g id="Layer_28">
</g>
<g id="Layer_27">
</g>
<g id="Layer_99">
</g>
<g id="Layer_26">
</g>
<g id="Layer_25">
</g>
<g id="Layer_24">
</g>
<g id="Layer_23">
</g>
<g id="Layer_22">
</g>
<g id="Layer_21">
</g>
<g id="Layer_20">
</g>
<g id="Layer_19">
</g>
<g id="Layer_18">
</g>
<g id="Layer_17">
</g>
<g id="Layer_16">
</g>
<g id="Layer_15">
</g>
<g id="Layer_14">
</g>
<g id="Layer_13">
</g>
<g id="Layer_12">
	<g>
		<path style="fill:none;stroke:#AEAFAE;stroke-width:10;stroke-linecap:round;stroke-miterlimit:10;" d="M111.963,174.049
			l-11.678,6.6c-7.988,4.514-18.124,1.658-22.58-6.362l-27.73-49.915c-4.433-7.979-14.495-10.854-22.474-6.421l0,0
			c-7.979,4.433-10.854,14.495-6.421,22.474l53.15,95.672c4.433,7.979,1.558,18.041-6.421,22.474l-1.803,1.002
			c-7.979,4.433-18.041,1.558-22.474-6.421L5,183.795"/>
		<path style="fill:#1D1E1C;" d="M115.444,151.128l15.523,27.942l-8.618,4.788c-1.941,1.078-4.388,0.379-5.466-1.562l-11.619-20.914
			c-1.078-1.941-0.379-4.388,1.562-5.466L115.444,151.128z"/>
		<path style="fill:#D6D6D6;" d="M385.86,11.634l8.189,14.741c3.158,5.685,1.11,12.853-4.575,16.011l-135.898,75.498l-19.626-35.327
			L369.849,7.06C375.534,3.902,382.702,5.95,385.86,11.634z"/>
		<path style="fill:#E74626;" d="M242.703,71.252l23.315,41.968l-127.613,70.895c-2.786,1.548-6.3,0.544-7.848-2.242l-17.709-31.877
			c-1.548-2.786-0.544-6.3,2.242-7.848L242.703,71.252z"/>
		
			<line style="fill:#E84780;stroke:#1D1E1C;stroke-width:6;stroke-linecap:round;stroke-miterlimit:10;" x1="274.749" y1="133.802" x2="231.062" y2="55.165"/>
		<path style="fill:#D6D6D6;" d="M414.066,2.513l1.063,1.913c1.31,2.357,0.46,5.33-1.897,6.64l-31.871,17.706l-5.806-10.45
			l31.871-17.706C409.783-0.694,412.756,0.155,414.066,2.513z"/>
		
			<ellipse transform="matrix(0.8742 -0.4856 0.4856 0.8742 -5.7139 143.922)" style="fill:#828383;" cx="274.854" cy="82.986" rx="7.328" ry="7.328"/>
	</g>
</g>
<g id="Layer_11">
</g>
<g id="Layer_10">
</g>
<g id="Layer_9">
</g>
<g id="Layer_8">
</g>
<g id="Layer_7">
</g>
<g id="Layer_6">
</g>
<g id="Layer_5">
</g>
<g id="Layer_4">
</g>
<g id="Layer_3">
</g>
<g id="Layer_2">
</g>
</svg>
