<?xml version="1.0" encoding="iso-8859-1"?>
<!-- Generator: Adobe Illustrator 21.1.0, SVG Export Plug-In . SVG Version: 6.00 Build 0)  -->
<svg version="1.0" xmlns="http://www.w3.org/2000/svg" xmlns:xlink="http://www.w3.org/1999/xlink" x="0px" y="0px"
	 viewBox="0 0 223.2 197.746" style="enable-background:new 0 0 223.2 197.746;" xml:space="preserve">
<g id="Layer_97">
</g>
<g id="Layer_96">
</g>
<g id="Layer_95">
</g>
<g id="Layer_94">
</g>
<g id="Layer_93">
</g>
<g id="Layer_92">
</g>
<g id="Layer_91">
</g>
<g id="Layer_90">
</g>
<g id="Layer_89">
</g>
<g id="Layer_88">
</g>
<g id="Layer_87">
</g>
<g id="Layer_86">
</g>
<g id="Layer_85">
</g>
<g id="Layer_84">
</g>
<g id="Layer_83">
</g>
<g id="Layer_82">
</g>
<g id="Layer_81">
</g>
<g id="Layer_80">
</g>
<g id="Layer_79">
</g>
<g id="Layer_78">
</g>
<g id="Layer_77">
</g>
<g id="Layer_76">
</g>
<g id="Layer_75">
</g>
<g id="Layer_74">
</g>
<g id="Layer_73">
</g>
<g id="Layer_72">
</g>
<g id="Layer_71">
</g>
<g id="Layer_69">
</g>
<g id="Layer_68">
</g>
<g id="Layer_67">
</g>
<g id="Layer_66">
</g>
<g id="Layer_65">
</g>
<g id="Layer_64">
</g>
<g id="Layer_63">
</g>
<g id="Layer_62">
</g>
<g id="Layer_61">
</g>
<g id="Layer_60">
</g>
<g id="Layer_59">
</g>
<g id="Layer_58">
</g>
<g id="Layer_57">
</g>
<g id="Layer_56">
</g>
<g id="Layer_55">
</g>
<g id="Layer_54">
</g>
<g id="Layer_53">
</g>
<g id="Layer_52">
</g>
<g id="Layer_51">
</g>
<g id="Layer_50">
</g>
<g id="Layer_49">
</g>
<g id="Layer_48">
</g>
<g id="Layer_98">
</g>
<g id="Layer_47">
</g>
<g id="Layer_46">
</g>
<g id="Layer_45">
</g>
<g id="Layer_44">
</g>
<g id="Layer_43">
</g>
<g id="Layer_42">
</g>
<g id="Layer_41">
</g>
<g id="Layer_40">
</g>
<g id="Layer_39">
</g>
<g id="Layer_38">
</g>
<g id="Layer_37">
</g>
<g id="Layer_36">
</g>
<g id="Layer_35">
</g>
<g id="Layer_34">
</g>
<g id="Layer_33">
</g>
<g id="Layer_32">
</g>
<g id="Layer_31">
</g>
<g id="Layer_29">
</g>
<g id="Layer_28">
</g>
<g id="Layer_27">
</g>
<g id="Layer_99">
</g>
<g id="Layer_26">
</g>
<g id="Layer_25">
</g>
<g id="Layer_24">
	<g>
		
			<ellipse transform="matrix(0.9934 -0.1148 0.1148 0.9934 -13.1117 3.3497)" style="fill:#EDD1BF;" cx="22.528" cy="115.516" rx="22.526" ry="22.526"/>
		<g>
			<defs>
				
					<ellipse id="XMLID_21_" transform="matrix(0.9934 -0.1148 0.1148 0.9934 -10.5282 14.9257)" cx="124.327" cy="98.873" rx="98.864" ry="98.864"/>
			</defs>
			<use xlink:href="#XMLID_21_"  style="overflow:visible;fill:#ECD1BE;"/>
			<clipPath id="XMLID_7_">
				<use xlink:href="#XMLID_21_"  style="overflow:visible;"/>
			</clipPath>
			<path style="clip-path:url(#XMLID_7_);fill:#EEB001;" d="M17.796,83.473l12.021,47.859l16.575-3.453l-7.048-44.405
				c0,0,39.471-0.488,48.937-5.368L78.068,65.906c0,0,43.675,1.487,53.754-4.624l-6.719-8.551c0,0,64.029,4.88,65.851,0V37.603
				c0,0,17.128,6.832,19.314,3.904l-40.911-53.098l-94.543-2.531L26.447,12.717L6.077,65.418L17.796,83.473z"/>
		</g>
		
			<ellipse transform="matrix(0.4862 -0.8739 0.8739 0.4862 -84.8808 157.7175)" style="fill:#F6B7A1;" cx="91.674" cy="151.037" rx="18.607" ry="18.607"/>
		<path d="M178.599,127.789c1.696,14.681-8.829,27.957-23.51,29.653s-27.957-8.829-29.653-23.51L178.599,127.789z"/>
		<polyline style="fill:none;stroke:#000000;stroke-width:5;stroke-miterlimit:10;" points="144.876,69.867 158.282,114.604 
			140.32,116.679 		"/>
		<ellipse transform="matrix(0.9934 -0.1148 0.1148 0.9934 -10.0487 22.9513)" cx="194.247" cy="98.722" rx="5.448" ry="5.448"/>
		<ellipse transform="matrix(0.9934 -0.1148 0.1148 0.9934 -12.3213 12.7841)" cx="104.836" cy="113.37" rx="5.448" ry="5.448"/>
	</g>
</g>
<g id="Layer_23">
</g>
<g id="Layer_22">
</g>
<g id="Layer_21">
</g>
<g id="Layer_20">
</g>
<g id="Layer_19">
</g>
<g id="Layer_18">
</g>
<g id="Layer_17">
</g>
<g id="Layer_16">
</g>
<g id="Layer_15">
</g>
<g id="Layer_14">
</g>
<g id="Layer_13">
</g>
<g id="Layer_12">
</g>
<g id="Layer_11">
</g>
<g id="Layer_10">
</g>
<g id="Layer_9">
</g>
<g id="Layer_8">
</g>
<g id="Layer_7">
</g>
<g id="Layer_6">
</g>
<g id="Layer_5">
</g>
<g id="Layer_4">
</g>
<g id="Layer_3">
</g>
<g id="Layer_2">
</g>
</svg>
