<?xml version="1.0" encoding="iso-8859-1"?>
<!-- Generator: Adobe Illustrator 21.1.0, SVG Export Plug-In . SVG Version: 6.00 Build 0)  -->
<svg version="1.0" xmlns="http://www.w3.org/2000/svg" xmlns:xlink="http://www.w3.org/1999/xlink" x="0px" y="0px"
	 viewBox="0 0 315.802 323.008" style="enable-background:new 0 0 315.802 323.008;" xml:space="preserve">
<g id="Layer_97">
</g>
<g id="Layer_96">
</g>
<g id="Layer_95">
</g>
<g id="Layer_94">
</g>
<g id="Layer_93">
</g>
<g id="Layer_92">
</g>
<g id="Layer_91">
</g>
<g id="Layer_90">
</g>
<g id="Layer_89">
</g>
<g id="Layer_88">
</g>
<g id="Layer_87">
</g>
<g id="Layer_86">
</g>
<g id="Layer_85">
</g>
<g id="Layer_84">
</g>
<g id="Layer_83">
</g>
<g id="Layer_82">
</g>
<g id="Layer_81">
</g>
<g id="Layer_80">
</g>
<g id="Layer_79">
</g>
<g id="Layer_78">
</g>
<g id="Layer_77">
</g>
<g id="Layer_76">
</g>
<g id="Layer_75">
</g>
<g id="Layer_74">
</g>
<g id="Layer_73">
</g>
<g id="Layer_72">
</g>
<g id="Layer_71">
</g>
<g id="Layer_69">
</g>
<g id="Layer_68">
</g>
<g id="Layer_67">
</g>
<g id="Layer_66">
</g>
<g id="Layer_65">
</g>
<g id="Layer_64">
</g>
<g id="Layer_63">
</g>
<g id="Layer_62">
</g>
<g id="Layer_61">
</g>
<g id="Layer_60">
</g>
<g id="Layer_59">
</g>
<g id="Layer_58">
</g>
<g id="Layer_57">
</g>
<g id="Layer_56">
</g>
<g id="Layer_55">
</g>
<g id="Layer_54">
</g>
<g id="Layer_53">
</g>
<g id="Layer_52">
</g>
<g id="Layer_51">
</g>
<g id="Layer_50">
</g>
<g id="Layer_49">
</g>
<g id="Layer_48">
</g>
<g id="Layer_98">
</g>
<g id="Layer_47">
</g>
<g id="Layer_46">
</g>
<g id="Layer_45">
</g>
<g id="Layer_44">
</g>
<g id="Layer_43">
</g>
<g id="Layer_42">
</g>
<g id="Layer_41">
</g>
<g id="Layer_40">
</g>
<g id="Layer_39">
</g>
<g id="Layer_38">
</g>
<g id="Layer_37">
</g>
<g id="Layer_36">
</g>
<g id="Layer_35">
</g>
<g id="Layer_34">
</g>
<g id="Layer_33">
</g>
<g id="Layer_32">
</g>
<g id="Layer_31">
</g>
<g id="Layer_29">
</g>
<g id="Layer_28">
</g>
<g id="Layer_27">
</g>
<g id="Layer_99">
</g>
<g id="Layer_26">
</g>
<g id="Layer_25">
</g>
<g id="Layer_24">
</g>
<g id="Layer_23">
</g>
<g id="Layer_22">
</g>
<g id="Layer_21">
</g>
<g id="Layer_20">
	<g>
		<path style="fill:#27131D;" d="M24.649,132.841c-0.477,4.129-8.66,7.328-8.798,11.41c-0.238,7.054,0.021,14.028,0.749,20.883
			c7.249,68.251,60.93,124.821,131.963,133.029c13.479,1.558,26.747,1.277,39.553-0.642c4.513-0.677,7.342-11.959,11.73-13.034
			c5.675-1.39,12.862,7.296,18.284,5.272c5.132-1.915,10.141-4.106,15.005-6.556c6.016-3.03,11.812-6.456,17.35-10.248
			c4.734-3.242-0.537-12.233,3.796-15.991c2.673-2.318,15.081,0.751,17.587-1.752c3.115-3.111,6.096-6.362,8.933-9.743
			c3.35-3.993-9.527-14.355-6.597-18.699c2.251-3.337,20.4-0.588,22.385-4.118c2.207-3.923,4.244-7.961,6.101-12.106
			c2.08-4.642,3.935-9.418,5.547-14.315c1.578-4.792-9.109-11.064-8.008-16.077c1.088-4.951,13.97-8.64,14.564-13.783
			c0.447-3.872,0.743-7.727,0.892-11.559c0.198-5.106,0.136-10.17-0.177-15.179c-0.441-7.067-8.547-13.976-9.952-20.782
			c-1.133-5.492,4.598-10.932,2.874-16.208c-1.762-5.394-3.825-10.664-6.169-15.788c-1.917-4.189-10.514-7.162-12.799-11.143
			c-3.877-6.756-1.777-14.314-6.638-20.379c-5.092-6.353-15.792-4.971-21.858-10.433c-2.616-2.355-0.223-11.944-3.006-14.115
			c-4.243-3.311-8.675-6.402-13.281-9.254c-5.497-3.403-12.506,4.475-18.471,1.786c-5.072-2.286-9.039-15.243-14.416-16.969
			c-4.453-1.429-9.004-2.66-13.645-3.679c-4.951-1.088-10.003-1.936-15.147-2.53c-6.88-0.795-11.675,7.139-18.412,7.275
			c-4.462,0.09-10.916-7.871-15.291-7.392c-7.038,0.771-13.951,2.037-20.698,3.764c-6.513,1.667-5.921,11.82-12.088,14.319
			c-5.487,2.223-17.773-3.291-22.933-0.452c-3.422,1.883-6.767,3.897-10.026,6.035c-5.581,3.662-5.153,13.902-10.197,18.267
			c-4.338,3.754-14.224,1.546-18.114,5.779c-3.9,4.244-7.563,8.72-10.966,13.408c-3.637,5.011-0.191,15.28-3.202,20.754
			c-2.277,4.139-11.151,3.389-13.04,7.768c-2.379,5.514-4.44,11.21-6.16,17.07C19.497,114.839,25.652,124.165,24.649,132.841z"/>
		
			<ellipse transform="matrix(0.1148 -0.9934 0.9934 0.1148 -130.5498 296.8882)" style="fill:#805249;" cx="101.311" cy="221.696" rx="101.302" ry="101.302"/>
		
			<ellipse transform="matrix(0.1148 -0.9934 0.9934 0.1148 -54.9076 419.2134)" style="fill:#805249;" cx="207.77" cy="240.416" rx="23.081" ry="23.081"/>
		<path style="fill:#FFFFFF;" d="M45.7,248.449c-1.738,15.043,9.047,28.646,24.089,30.384c15.043,1.738,28.646-9.047,30.384-24.089
			L45.7,248.449z"/>
		<polyline style="fill:none;stroke:#000000;stroke-width:5;stroke-miterlimit:10;" points="76.134,184.186 62.397,230.025 
			80.802,232.152 		"/>
		<ellipse transform="matrix(0.1148 -0.9934 0.9934 0.1148 -193.8161 225.5803)" cx="29.667" cy="221.542" rx="5.582" ry="5.582"/>
		<ellipse transform="matrix(0.1148 -0.9934 0.9934 0.1148 -127.6271 329.877)" cx="121.283" cy="236.551" rx="5.582" ry="5.582"/>
	</g>
</g>
<g id="Layer_19">
</g>
<g id="Layer_18">
</g>
<g id="Layer_17">
</g>
<g id="Layer_16">
</g>
<g id="Layer_15">
</g>
<g id="Layer_14">
</g>
<g id="Layer_13">
</g>
<g id="Layer_12">
</g>
<g id="Layer_11">
</g>
<g id="Layer_10">
</g>
<g id="Layer_9">
</g>
<g id="Layer_8">
</g>
<g id="Layer_7">
</g>
<g id="Layer_6">
</g>
<g id="Layer_5">
</g>
<g id="Layer_4">
</g>
<g id="Layer_3">
</g>
<g id="Layer_2">
</g>
</svg>
