<?xml version="1.0" encoding="iso-8859-1"?>
<!-- Generator: Adobe Illustrator 21.1.0, SVG Export Plug-In . SVG Version: 6.00 Build 0)  -->
<svg version="1.0" xmlns="http://www.w3.org/2000/svg" xmlns:xlink="http://www.w3.org/1999/xlink" x="0px" y="0px"
	 viewBox="0 0 388.243 244.085" style="enable-background:new 0 0 388.243 244.085;" xml:space="preserve">
<g id="Layer_97">
</g>
<g id="Layer_96">
</g>
<g id="Layer_95">
</g>
<g id="Layer_94">
</g>
<g id="Layer_93">
</g>
<g id="Layer_92">
</g>
<g id="Layer_91">
</g>
<g id="Layer_90">
</g>
<g id="Layer_89">
</g>
<g id="Layer_88">
</g>
<g id="Layer_87">
</g>
<g id="Layer_86">
</g>
<g id="Layer_85">
</g>
<g id="Layer_84">
</g>
<g id="Layer_83">
</g>
<g id="Layer_82">
</g>
<g id="Layer_81">
</g>
<g id="Layer_80">
</g>
<g id="Layer_79">
</g>
<g id="Layer_78">
</g>
<g id="Layer_77">
</g>
<g id="Layer_76">
</g>
<g id="Layer_75">
</g>
<g id="Layer_74">
</g>
<g id="Layer_73">
</g>
<g id="Layer_72">
</g>
<g id="Layer_71">
</g>
<g id="Layer_69">
</g>
<g id="Layer_68">
</g>
<g id="Layer_67">
</g>
<g id="Layer_66">
</g>
<g id="Layer_65">
</g>
<g id="Layer_64">
</g>
<g id="Layer_63">
</g>
<g id="Layer_62">
</g>
<g id="Layer_61">
</g>
<g id="Layer_60">
</g>
<g id="Layer_59">
</g>
<g id="Layer_58">
</g>
<g id="Layer_57">
</g>
<g id="Layer_56">
</g>
<g id="Layer_55">
</g>
<g id="Layer_54">
</g>
<g id="Layer_53">
</g>
<g id="Layer_52">
</g>
<g id="Layer_51">
</g>
<g id="Layer_50">
</g>
<g id="Layer_49">
</g>
<g id="Layer_48">
</g>
<g id="Layer_98">
</g>
<g id="Layer_47">
</g>
<g id="Layer_46">
</g>
<g id="Layer_45">
</g>
<g id="Layer_44">
</g>
<g id="Layer_43">
</g>
<g id="Layer_42">
</g>
<g id="Layer_41">
</g>
<g id="Layer_40">
</g>
<g id="Layer_39">
</g>
<g id="Layer_38">
</g>
<g id="Layer_37">
</g>
<g id="Layer_36">
</g>
<g id="Layer_35">
</g>
<g id="Layer_34">
</g>
<g id="Layer_33">
</g>
<g id="Layer_32">
</g>
<g id="Layer_31">
</g>
<g id="Layer_29">
</g>
<g id="Layer_28">
</g>
<g id="Layer_27">
</g>
<g id="Layer_99">
</g>
<g id="Layer_26">
</g>
<g id="Layer_25">
</g>
<g id="Layer_24">
</g>
<g id="Layer_23">
</g>
<g id="Layer_22">
</g>
<g id="Layer_21">
</g>
<g id="Layer_20">
</g>
<g id="Layer_19">
</g>
<g id="Layer_18">
</g>
<g id="Layer_17">
</g>
<g id="Layer_16">
</g>
<g id="Layer_15">
</g>
<g id="Layer_14">
</g>
<g id="Layer_13">
</g>
<g id="Layer_12">
</g>
<g id="Layer_11">
</g>
<g id="Layer_10">
</g>
<g id="Layer_9">
</g>
<g id="Layer_8">
</g>
<g id="Layer_7">
</g>
<g id="Layer_6">
</g>
<g id="Layer_5">
</g>
<g id="Layer_4">
	<g>
		<path style="fill:#1D1E1C;" d="M357.472,244.085H30.771C13.847,244.085,0,230.238,0,213.315V30.771C0,13.847,13.847,0,30.771,0
			h326.701c16.924,0,30.771,13.847,30.771,30.771v182.544C388.243,230.238,374.396,244.085,357.472,244.085z"/>
		<path style="fill:#5B5A58;" d="M333.875,213.919H54.368c-13.525,0-24.592-11.066-24.592-24.592V54.368
			c0-13.525,11.066-24.592,24.592-24.592h279.508c13.525,0,24.591,11.066,24.591,24.592v134.959
			C358.467,202.852,347.4,213.919,333.875,213.919z"/>
		<rect x="148.628" y="147.733" style="fill:#FFFFFF;" width="83.826" height="8.302"/>
		
			<rect x="170.021" y="101.583" transform="matrix(8.141316e-11 -1 1 8.141316e-11 87.8236 298.735)" style="fill:#FFFFFF;" width="46.518" height="7.745"/>
		<rect x="135.447" y="139.128" style="fill:#FFFFFF;" width="13.182" height="8.302"/>
		<rect x="232.455" y="139.128" style="fill:#FFFFFF;" width="13.182" height="8.302"/>
		<rect x="176.225" y="73.895" style="fill:#FFFFFF;" width="13.182" height="8.302"/>
		<rect x="96.715" y="88.587" style="fill:#FFFFFF;" width="30.433" height="8.302"/>
		<rect x="253.151" y="88.587" style="fill:#FFFFFF;" width="30.433" height="8.302"/>
		<rect x="260.125" y="112.325" style="fill:#FFFFFF;" width="13.182" height="11.356"/>
		<rect x="103.306" y="112.325" style="fill:#FFFFFF;" width="13.182" height="11.356"/>
		<rect x="80.673" y="140.94" style="fill:#E84780;" width="24.284" height="20.921"/>
		<rect x="272.795" y="140.94" style="fill:#E84780;" width="24.284" height="20.921"/>
	</g>
</g>
<g id="Layer_3">
</g>
<g id="Layer_2">
</g>
</svg>
