<?xml version="1.0" encoding="iso-8859-1"?>
<!-- Generator: Adobe Illustrator 21.1.0, SVG Export Plug-In . SVG Version: 6.00 Build 0)  -->
<svg version="1.0" xmlns="http://www.w3.org/2000/svg" xmlns:xlink="http://www.w3.org/1999/xlink" x="0px" y="0px"
	 viewBox="0 0 246.35 244.47" style="enable-background:new 0 0 246.35 244.47;" xml:space="preserve">
<g id="Layer_97">
</g>
<g id="Layer_96">
</g>
<g id="Layer_95">
</g>
<g id="Layer_94">
</g>
<g id="Layer_93">
</g>
<g id="Layer_92">
</g>
<g id="Layer_91">
</g>
<g id="Layer_90">
</g>
<g id="Layer_89">
</g>
<g id="Layer_88">
</g>
<g id="Layer_87">
</g>
<g id="Layer_86">
</g>
<g id="Layer_85">
</g>
<g id="Layer_84">
</g>
<g id="Layer_83">
</g>
<g id="Layer_82">
</g>
<g id="Layer_81">
</g>
<g id="Layer_80">
</g>
<g id="Layer_79">
</g>
<g id="Layer_78">
</g>
<g id="Layer_77">
</g>
<g id="Layer_76">
</g>
<g id="Layer_75">
</g>
<g id="Layer_74">
</g>
<g id="Layer_73">
</g>
<g id="Layer_72">
</g>
<g id="Layer_71">
</g>
<g id="Layer_69">
</g>
<g id="Layer_68">
</g>
<g id="Layer_67">
</g>
<g id="Layer_66">
</g>
<g id="Layer_65">
</g>
<g id="Layer_64">
</g>
<g id="Layer_63">
</g>
<g id="Layer_62">
</g>
<g id="Layer_61">
</g>
<g id="Layer_60">
</g>
<g id="Layer_59">
</g>
<g id="Layer_58">
</g>
<g id="Layer_57">
</g>
<g id="Layer_56">
</g>
<g id="Layer_55">
</g>
<g id="Layer_54">
</g>
<g id="Layer_53">
</g>
<g id="Layer_52">
</g>
<g id="Layer_51">
</g>
<g id="Layer_50">
</g>
<g id="Layer_49">
</g>
<g id="Layer_48">
</g>
<g id="Layer_98">
</g>
<g id="Layer_47">
</g>
<g id="Layer_46">
</g>
<g id="Layer_45">
</g>
<g id="Layer_44">
</g>
<g id="Layer_43">
</g>
<g id="Layer_42">
</g>
<g id="Layer_41">
</g>
<g id="Layer_40">
</g>
<g id="Layer_39">
</g>
<g id="Layer_38">
</g>
<g id="Layer_37">
</g>
<g id="Layer_36">
</g>
<g id="Layer_35">
</g>
<g id="Layer_34">
</g>
<g id="Layer_33">
</g>
<g id="Layer_32">
</g>
<g id="Layer_31">
	<g>
		<path style="fill:#5AAEE1;" d="M233.174,244.47H13.176C5.899,244.47,0,238.571,0,231.294V34.214C0,15.396,15.396,0,34.214,0
			h177.923c18.817,0,34.214,15.396,34.214,34.214v197.081C246.35,238.571,240.451,244.47,233.174,244.47z"/>
		<path style="fill:#E8E8E8;" d="M209.936,162.888H32.914c-9.356,0-17.01-7.655-17.01-17.01V35.247c0-9.356,7.655-17.01,17.01-17.01
			h177.022c9.356,0,17.01,7.655,17.01,17.01v110.632C226.946,155.234,219.291,162.888,209.936,162.888z"/>
		<rect x="83.005" y="114.141" style="fill:#1D1E1C;" width="76.132" height="7.54"/>
		
			<rect x="102.434" y="72.227" transform="matrix(8.167695e-11 -1 1 8.167695e-11 47.8135 199.3015)" style="fill:#1D1E1C;" width="42.247" height="7.034"/>
		<rect x="71.034" y="106.325" style="fill:#1D1E1C;" width="11.972" height="7.54"/>
		<path style="fill:#1D1E1C;" d="M214.345,201.123h-72.823c-1.935,0-3.518-1.583-3.518-3.518v-0.248
			c0-1.935,1.583-3.518,3.518-3.518h72.823c1.935,0,3.518,1.583,3.518,3.518v0.248C217.863,199.54,216.28,201.123,214.345,201.123z"
			/>
		<path style="fill:#1D1E1C;" d="M36.105,201.123h-9.02c-1.935,0-3.518-1.583-3.518-3.518v-0.248c0-1.935,1.583-3.518,3.518-3.518
			h9.02c1.935,0,3.518,1.583,3.518,3.518v0.248C39.623,199.54,38.04,201.123,36.105,201.123z"/>
		<rect x="159.137" y="106.325" style="fill:#1D1E1C;" width="11.972" height="7.54"/>
		<rect x="108.069" y="47.081" style="fill:#1D1E1C;" width="11.972" height="7.54"/>
		<rect x="35.857" y="60.424" style="fill:#1D1E1C;" width="27.64" height="7.54"/>
		<rect x="177.934" y="60.424" style="fill:#1D1E1C;" width="27.64" height="7.54"/>
		<rect x="184.267" y="81.982" style="fill:#1D1E1C;" width="11.972" height="10.314"/>
		<rect x="41.843" y="81.982" style="fill:#1D1E1C;" width="11.972" height="10.314"/>
		<path style="fill:#1D1E1C;" d="M222.518,204.038h-38.251v-13.113h38.251c2.445,0,4.428,1.982,4.428,4.428v4.258
			C226.946,202.055,224.964,204.038,222.518,204.038z"/>
		<rect x="26.052" y="112.735" style="fill:#F6B7A0;" width="22.055" height="19.001"/>
		<rect x="191.01" y="112.735" style="fill:#F6B7A0;" width="22.055" height="19.001"/>
	</g>
</g>
<g id="Layer_29">
</g>
<g id="Layer_28">
</g>
<g id="Layer_27">
</g>
<g id="Layer_99">
</g>
<g id="Layer_26">
</g>
<g id="Layer_25">
</g>
<g id="Layer_24">
</g>
<g id="Layer_23">
</g>
<g id="Layer_22">
</g>
<g id="Layer_21">
</g>
<g id="Layer_20">
</g>
<g id="Layer_19">
</g>
<g id="Layer_18">
</g>
<g id="Layer_17">
</g>
<g id="Layer_16">
</g>
<g id="Layer_15">
</g>
<g id="Layer_14">
</g>
<g id="Layer_13">
</g>
<g id="Layer_12">
</g>
<g id="Layer_11">
</g>
<g id="Layer_10">
</g>
<g id="Layer_9">
</g>
<g id="Layer_8">
</g>
<g id="Layer_7">
</g>
<g id="Layer_6">
</g>
<g id="Layer_5">
</g>
<g id="Layer_4">
</g>
<g id="Layer_3">
</g>
<g id="Layer_2">
</g>
</svg>
