<?xml version="1.0" encoding="iso-8859-1"?>
<!-- Generator: Adobe Illustrator 21.1.0, SVG Export Plug-In . SVG Version: 6.00 Build 0)  -->
<svg version="1.0" xmlns="http://www.w3.org/2000/svg" xmlns:xlink="http://www.w3.org/1999/xlink" x="0px" y="0px"
	 viewBox="0 0 191.774 283.092" style="enable-background:new 0 0 191.774 283.092;" xml:space="preserve">
<g id="Layer_97">
</g>
<g id="Layer_96">
</g>
<g id="Layer_95">
</g>
<g id="Layer_94">
</g>
<g id="Layer_93">
</g>
<g id="Layer_92">
</g>
<g id="Layer_91">
</g>
<g id="Layer_90">
</g>
<g id="Layer_89">
</g>
<g id="Layer_88">
</g>
<g id="Layer_87">
</g>
<g id="Layer_86">
</g>
<g id="Layer_85">
</g>
<g id="Layer_84">
</g>
<g id="Layer_83">
</g>
<g id="Layer_82">
</g>
<g id="Layer_81">
</g>
<g id="Layer_80">
</g>
<g id="Layer_79">
</g>
<g id="Layer_78">
</g>
<g id="Layer_77">
</g>
<g id="Layer_76">
</g>
<g id="Layer_75">
</g>
<g id="Layer_74">
</g>
<g id="Layer_73">
</g>
<g id="Layer_72">
</g>
<g id="Layer_71">
</g>
<g id="Layer_69">
</g>
<g id="Layer_68">
</g>
<g id="Layer_67">
</g>
<g id="Layer_66">
</g>
<g id="Layer_65">
</g>
<g id="Layer_64">
</g>
<g id="Layer_63">
</g>
<g id="Layer_62">
</g>
<g id="Layer_61">
</g>
<g id="Layer_60">
</g>
<g id="Layer_59">
</g>
<g id="Layer_58">
</g>
<g id="Layer_57">
</g>
<g id="Layer_56">
</g>
<g id="Layer_55">
</g>
<g id="Layer_54">
</g>
<g id="Layer_53">
</g>
<g id="Layer_52">
</g>
<g id="Layer_51">
</g>
<g id="Layer_50">
</g>
<g id="Layer_49">
</g>
<g id="Layer_48">
</g>
<g id="Layer_98">
</g>
<g id="Layer_47">
</g>
<g id="Layer_46">
</g>
<g id="Layer_45">
</g>
<g id="Layer_44">
</g>
<g id="Layer_43">
</g>
<g id="Layer_42">
</g>
<g id="Layer_41">
</g>
<g id="Layer_40">
</g>
<g id="Layer_39">
</g>
<g id="Layer_38">
</g>
<g id="Layer_37">
</g>
<g id="Layer_36">
</g>
<g id="Layer_35">
</g>
<g id="Layer_34">
</g>
<g id="Layer_33">
	<g>
		<path style="fill:#ADAEAD;" d="M156.176,282.713l-119.683,0.379c-19.641,0.062-35.762-15.957-35.824-35.598L0,36.203
			C-0.062,16.562,15.957,0.441,35.598,0.379L155.281,0c19.641-0.062,35.762,15.957,35.824,35.598l0.669,211.291
			C191.836,266.53,175.817,282.651,156.176,282.713z"/>
		<path style="fill:#E8E8E8;" d="M156.259,141.355l-103.472,0.328c-11.208,0.035-20.408-9.106-20.443-20.314l-0.257-81.23
			C32.051,28.93,41.192,19.731,52.4,19.695l103.472-0.328c11.208-0.035,20.408,9.106,20.443,20.314l0.257,81.23
			C176.609,132.12,167.467,141.32,156.259,141.355z"/>
		
			<ellipse transform="matrix(1 -0.0032 0.0032 1 -0.5282 0.4753)" style="fill:#E8E8E8;" cx="149.883" cy="167.088" rx="9.09" ry="9.09"/>
		
			<ellipse transform="matrix(1 -0.0032 0.0032 1 -0.6319 0.4758)" style="fill:#E8E8E8;" cx="149.986" cy="199.841" rx="9.09" ry="9.09"/>
		
			<ellipse transform="matrix(1 -0.0032 0.0032 1 -0.5803 0.4151)" style="fill:#E8E8E8;" cx="130.828" cy="183.525" rx="9.09" ry="9.09"/>
		
			<ellipse transform="matrix(1 -0.0032 0.0032 1 -0.5798 0.5361)" style="fill:#E8E8E8;" cx="169.04" cy="183.404" rx="9.09" ry="9.09"/>
		<path style="fill:#1D1E1C;" d="M16.718,189.734l-0.033-10.571c-0.004-1.41,1.145-2.567,2.555-2.571l42.254-0.134
			c1.41-0.004,2.567,1.145,2.571,2.555l0.033,10.571c0.004,1.41-1.145,2.567-2.555,2.571l-42.254,0.134
			C17.88,192.293,16.723,191.144,16.718,189.734z"/>
		<path style="fill:#1D1E1C;" d="M45.752,208.047l-10.571,0.033c-1.41,0.004-2.567-1.145-2.571-2.555l-0.134-42.254
			c-0.004-1.41,1.145-2.567,2.555-2.571l10.571-0.033c1.41-0.004,2.567,1.145,2.571,2.555l0.134,42.254
			C48.312,206.885,47.162,208.042,45.752,208.047z"/>
		<path style="fill:#1D1E1C;" d="M85.598,223.639l-13.673,0.043c-1.533,0.005-2.792-1.246-2.797-2.779v0
			c-0.005-1.533,1.246-2.792,2.779-2.797l13.673-0.043c1.533-0.005,2.792,1.246,2.797,2.779l0,0
			C88.382,222.375,87.131,223.634,85.598,223.639z"/>
		<path style="fill:#1D1E1C;" d="M112.381,223.554l-13.673,0.043c-1.533,0.005-2.792-1.246-2.797-2.779l0,0
			c-0.005-1.533,1.246-2.792,2.779-2.797l13.673-0.043c1.533-0.005,2.792,1.246,2.797,2.779l0,0
			C115.165,222.29,113.915,223.549,112.381,223.554z"/>
		<path style="fill:#1D1E1C;" d="M19.012,33.498l0.043,13.673c0.005,1.533-1.246,2.792-2.779,2.797h0
			c-1.533,0.005-2.792-1.246-2.797-2.779l-0.043-13.673c-0.005-1.533,1.246-2.792,2.779-2.797h0
			C17.748,30.714,19.007,31.964,19.012,33.498z"/>
		<path style="fill:#1D1E1C;" d="M19.101,61.692l0.043,13.673c0.005,1.533-1.246,2.792-2.779,2.797h0
			c-1.533,0.005-2.792-1.246-2.797-2.779L13.525,61.71c-0.005-1.533,1.246-2.792,2.779-2.797h0
			C17.837,58.908,19.096,60.159,19.101,61.692z"/>
		<path style="fill:#1D1E1C;" d="M19.19,89.887l0.043,13.673c0.005,1.533-1.246,2.792-2.779,2.797h0
			c-1.533,0.005-2.792-1.246-2.797-2.779l-0.043-13.673c-0.005-1.533,1.246-2.792,2.779-2.797h0
			C17.927,87.103,19.185,88.353,19.19,89.887z"/>
		<path style="fill:#1D1E1C;" d="M19.279,118.081l0.043,13.673c0.005,1.533-1.246,2.792-2.779,2.797h0
			c-1.533,0.005-2.792-1.246-2.797-2.779l-0.043-13.673c-0.005-1.533,1.246-2.792,2.779-2.797h0
			C18.016,115.297,19.274,116.548,19.279,118.081z"/>
	</g>
</g>
<g id="Layer_32">
</g>
<g id="Layer_31">
</g>
<g id="Layer_29">
</g>
<g id="Layer_28">
</g>
<g id="Layer_27">
</g>
<g id="Layer_99">
</g>
<g id="Layer_26">
</g>
<g id="Layer_25">
</g>
<g id="Layer_24">
</g>
<g id="Layer_23">
</g>
<g id="Layer_22">
</g>
<g id="Layer_21">
</g>
<g id="Layer_20">
</g>
<g id="Layer_19">
</g>
<g id="Layer_18">
</g>
<g id="Layer_17">
</g>
<g id="Layer_16">
</g>
<g id="Layer_15">
</g>
<g id="Layer_14">
</g>
<g id="Layer_13">
</g>
<g id="Layer_12">
</g>
<g id="Layer_11">
</g>
<g id="Layer_10">
</g>
<g id="Layer_9">
</g>
<g id="Layer_8">
</g>
<g id="Layer_7">
</g>
<g id="Layer_6">
</g>
<g id="Layer_5">
</g>
<g id="Layer_4">
</g>
<g id="Layer_3">
</g>
<g id="Layer_2">
</g>
</svg>
