<?xml version="1.0" encoding="iso-8859-1"?>
<!-- Generator: Adobe Illustrator 21.1.0, SVG Export Plug-In . SVG Version: 6.00 Build 0)  -->
<svg version="1.0" xmlns="http://www.w3.org/2000/svg" xmlns:xlink="http://www.w3.org/1999/xlink" x="0px" y="0px"
	 viewBox="0 0 233.312 274.125" style="enable-background:new 0 0 233.312 274.125;" xml:space="preserve">
<g id="Layer_97">
</g>
<g id="Layer_96">
</g>
<g id="Layer_95">
</g>
<g id="Layer_94">
</g>
<g id="Layer_93">
</g>
<g id="Layer_92">
</g>
<g id="Layer_91">
</g>
<g id="Layer_90">
</g>
<g id="Layer_89">
</g>
<g id="Layer_88">
</g>
<g id="Layer_87">
</g>
<g id="Layer_86">
</g>
<g id="Layer_85">
</g>
<g id="Layer_84">
</g>
<g id="Layer_83">
</g>
<g id="Layer_82">
</g>
<g id="Layer_81">
</g>
<g id="Layer_80">
</g>
<g id="Layer_79">
</g>
<g id="Layer_78">
</g>
<g id="Layer_77">
</g>
<g id="Layer_76">
</g>
<g id="Layer_75">
</g>
<g id="Layer_74">
</g>
<g id="Layer_73">
</g>
<g id="Layer_72">
</g>
<g id="Layer_71">
</g>
<g id="Layer_69">
</g>
<g id="Layer_68">
</g>
<g id="Layer_67">
</g>
<g id="Layer_66">
</g>
<g id="Layer_65">
</g>
<g id="Layer_64">
</g>
<g id="Layer_63">
</g>
<g id="Layer_62">
</g>
<g id="Layer_61">
</g>
<g id="Layer_60">
</g>
<g id="Layer_59">
</g>
<g id="Layer_58">
</g>
<g id="Layer_57">
</g>
<g id="Layer_56">
</g>
<g id="Layer_55">
</g>
<g id="Layer_54">
</g>
<g id="Layer_53">
</g>
<g id="Layer_52">
</g>
<g id="Layer_51">
</g>
<g id="Layer_50">
</g>
<g id="Layer_49">
</g>
<g id="Layer_48">
</g>
<g id="Layer_98">
</g>
<g id="Layer_47">
</g>
<g id="Layer_46">
</g>
<g id="Layer_45">
</g>
<g id="Layer_44">
</g>
<g id="Layer_43">
</g>
<g id="Layer_42">
</g>
<g id="Layer_41">
</g>
<g id="Layer_40">
</g>
<g id="Layer_39">
</g>
<g id="Layer_38">
</g>
<g id="Layer_37">
</g>
<g id="Layer_36">
</g>
<g id="Layer_35">
</g>
<g id="Layer_34">
</g>
<g id="Layer_33">
</g>
<g id="Layer_32">
</g>
<g id="Layer_31">
</g>
<g id="Layer_29">
</g>
<g id="Layer_28">
</g>
<g id="Layer_27">
</g>
<g id="Layer_99">
</g>
<g id="Layer_26">
</g>
<g id="Layer_25">
</g>
<g id="Layer_24">
</g>
<g id="Layer_23">
</g>
<g id="Layer_22">
</g>
<g id="Layer_21">
</g>
<g id="Layer_20">
</g>
<g id="Layer_19">
</g>
<g id="Layer_18">
</g>
<g id="Layer_17">
</g>
<g id="Layer_16">
</g>
<g id="Layer_15">
</g>
<g id="Layer_14">
</g>
<g id="Layer_13">
</g>
<g id="Layer_12">
</g>
<g id="Layer_11">
</g>
<g id="Layer_10">
</g>
<g id="Layer_9">
</g>
<g id="Layer_8">
</g>
<g id="Layer_7">
</g>
<g id="Layer_6">
	<g>
		<rect x="95.236" y="68.917" style="fill:#ECE8E8;" width="35.737" height="90.97"/>
		<path style="fill:#D5D5D5;" d="M168.235,207.983H63.547c-14.127,0-25.686-13.472-25.686-29.939v-3.202
			c0-16.466,11.559-29.939,25.686-29.939h104.688c14.127,0,25.686,13.472,25.686,29.939v3.202
			C193.921,194.511,182.362,207.983,168.235,207.983z"/>
		<path style="fill:#3EB8C6;" d="M208.715,274.125H24.597C11.069,274.125,0,263.057,0,249.528l0-35.712
			c0-13.528,11.069-24.597,24.597-24.597h184.118c13.528,0,24.597,11.069,24.597,24.597v35.712
			C233.312,263.057,222.243,274.125,208.715,274.125z"/>
		<circle style="fill:#E74627;" cx="110.674" cy="42.573" r="42.573"/>
		<circle style="fill:#E74627;" cx="45.473" cy="231.672" r="19.229"/>
		<circle style="fill:#F1F0F1;" cx="95.236" cy="231.672" r="19.229"/>
		<path style="fill:#ECE8E8;" d="M186.78,226.726H156.55c-3.928,0-7.141-3.214-7.141-7.141v0c0-3.928,3.214-7.141,7.141-7.141
			h30.229c3.928,0,7.141,3.214,7.141,7.141v0C193.921,223.513,190.707,226.726,186.78,226.726z"/>
		<path style="fill:#1D1E1C;" d="M186.78,251.348H156.55c-3.928,0-7.141-3.214-7.141-7.141v0c0-3.928,3.214-7.141,7.141-7.141
			h30.229c3.928,0,7.141,3.214,7.141,7.141v0C193.921,248.134,190.707,251.348,186.78,251.348z"/>
	</g>
</g>
<g id="Layer_5">
</g>
<g id="Layer_4">
</g>
<g id="Layer_3">
</g>
<g id="Layer_2">
</g>
</svg>
