<?xml version="1.0" encoding="iso-8859-1"?>
<!-- Generator: Adobe Illustrator 21.1.0, SVG Export Plug-In . SVG Version: 6.00 Build 0)  -->
<svg version="1.0" xmlns="http://www.w3.org/2000/svg" xmlns:xlink="http://www.w3.org/1999/xlink" x="0px" y="0px"
	 viewBox="0 0 329.177 178.436" style="enable-background:new 0 0 329.177 178.436;" xml:space="preserve">
<g id="Layer_97">
</g>
<g id="Layer_96">
</g>
<g id="Layer_95">
</g>
<g id="Layer_94">
</g>
<g id="Layer_93">
</g>
<g id="Layer_92">
</g>
<g id="Layer_91">
</g>
<g id="Layer_90">
</g>
<g id="Layer_89">
</g>
<g id="Layer_88">
</g>
<g id="Layer_87">
</g>
<g id="Layer_86">
</g>
<g id="Layer_85">
</g>
<g id="Layer_84">
</g>
<g id="Layer_83">
</g>
<g id="Layer_82">
</g>
<g id="Layer_81">
</g>
<g id="Layer_80">
</g>
<g id="Layer_79">
</g>
<g id="Layer_78">
</g>
<g id="Layer_77">
</g>
<g id="Layer_76">
</g>
<g id="Layer_75">
</g>
<g id="Layer_74">
</g>
<g id="Layer_73">
</g>
<g id="Layer_72">
</g>
<g id="Layer_71">
</g>
<g id="Layer_69">
</g>
<g id="Layer_68">
</g>
<g id="Layer_67">
</g>
<g id="Layer_66">
</g>
<g id="Layer_65">
</g>
<g id="Layer_64">
</g>
<g id="Layer_63">
</g>
<g id="Layer_62">
</g>
<g id="Layer_61">
</g>
<g id="Layer_60">
</g>
<g id="Layer_59">
</g>
<g id="Layer_58">
</g>
<g id="Layer_57">
</g>
<g id="Layer_56">
</g>
<g id="Layer_55">
</g>
<g id="Layer_54">
</g>
<g id="Layer_53">
</g>
<g id="Layer_52">
</g>
<g id="Layer_51">
</g>
<g id="Layer_50">
</g>
<g id="Layer_49">
</g>
<g id="Layer_48">
</g>
<g id="Layer_98">
</g>
<g id="Layer_47">
</g>
<g id="Layer_46">
</g>
<g id="Layer_45">
</g>
<g id="Layer_44">
</g>
<g id="Layer_43">
	<g>
		<path style="fill:#E74626;" d="M311.261,178.436H17.916C8.062,178.436,0,170.374,0,160.52V17.916C0,8.062,8.062,0,17.916,0
			h293.345c9.854,0,17.916,8.062,17.916,17.916V160.52C329.177,170.374,321.115,178.436,311.261,178.436z"/>
		<path style="fill:#1D1E1C;" d="M242.229,153.943H82.34c-3.6,0-6.518-2.918-6.518-6.518v-23.556c0-3.6,2.918-6.518,6.518-6.518
			h159.889c3.6,0,6.518,2.918,6.518,6.518v23.556C248.747,151.025,245.829,153.943,242.229,153.943z"/>
		<path style="fill:#F1F0F1;" d="M291.135,153.943h-30.596c-1.656,0-2.998-1.342-2.998-2.998v-30.596
			c0-1.656,1.342-2.998,2.998-2.998h30.596c1.656,0,2.998,1.342,2.998,2.998v30.596
			C294.133,152.601,292.791,153.943,291.135,153.943z"/>
		<path style="fill:#F1F0F1;" d="M64.204,153.943H33.609c-1.656,0-2.998-1.342-2.998-2.998v-30.596c0-1.656,1.342-2.998,2.998-2.998
			h30.596c1.656,0,2.998,1.342,2.998,2.998v30.596C67.203,152.601,65.86,153.943,64.204,153.943z"/>
		<path style="fill:#F1F0F1;" d="M64.204,106.288H33.609c-1.656,0-2.998-1.342-2.998-2.998V72.694c0-1.656,1.342-2.998,2.998-2.998
			h30.596c1.656,0,2.998,1.342,2.998,2.998v30.596C67.203,104.945,65.86,106.288,64.204,106.288z"/>
		<path style="fill:#F1F0F1;" d="M109.59,106.288H78.995c-1.656,0-2.998-1.342-2.998-2.998V72.694c0-1.656,1.342-2.998,2.998-2.998
			h30.596c1.656,0,2.998,1.342,2.998,2.998v30.596C112.589,104.945,111.246,106.288,109.59,106.288z"/>
		<path style="fill:#F1F0F1;" d="M154.977,106.288h-30.596c-1.656,0-2.998-1.342-2.998-2.998V72.694
			c0-1.656,1.342-2.998,2.998-2.998h30.596c1.656,0,2.998,1.342,2.998,2.998v30.596
			C157.975,104.945,156.633,106.288,154.977,106.288z"/>
		<path style="fill:#F1F0F1;" d="M200.363,106.288h-30.596c-1.656,0-2.998-1.342-2.998-2.998V72.694
			c0-1.656,1.342-2.998,2.998-2.998h30.596c1.656,0,2.998,1.342,2.998,2.998v30.596
			C203.361,104.945,202.019,106.288,200.363,106.288z"/>
		<path style="fill:#F1F0F1;" d="M245.749,106.288h-30.596c-1.656,0-2.998-1.342-2.998-2.998V72.694
			c0-1.656,1.342-2.998,2.998-2.998h30.596c1.656,0,2.998,1.342,2.998,2.998v30.596
			C248.747,104.945,247.405,106.288,245.749,106.288z"/>
		<path style="fill:#F1F0F1;" d="M291.135,106.288h-30.596c-1.656,0-2.998-1.342-2.998-2.998V72.694
			c0-1.656,1.342-2.998,2.998-2.998h30.596c1.656,0,2.998,1.342,2.998,2.998v30.596
			C294.133,104.945,292.791,106.288,291.135,106.288z"/>
		<path style="fill:#F1F0F1;" d="M64.204,60.902H33.609c-1.656,0-2.998-1.342-2.998-2.998V27.308c0-1.656,1.342-2.998,2.998-2.998
			h30.596c1.656,0,2.998,1.342,2.998,2.998v30.596C67.203,59.559,65.86,60.902,64.204,60.902z"/>
		<path style="fill:#F1F0F1;" d="M109.59,60.902H78.995c-1.656,0-2.998-1.342-2.998-2.998V27.308c0-1.656,1.342-2.998,2.998-2.998
			h30.596c1.656,0,2.998,1.342,2.998,2.998v30.596C112.589,59.559,111.246,60.902,109.59,60.902z"/>
		<path style="fill:#F1F0F1;" d="M154.977,60.902h-30.596c-1.656,0-2.998-1.342-2.998-2.998V27.308c0-1.656,1.342-2.998,2.998-2.998
			h30.596c1.656,0,2.998,1.342,2.998,2.998v30.596C157.975,59.559,156.633,60.902,154.977,60.902z"/>
		<path style="fill:#F1F0F1;" d="M200.363,60.902h-30.596c-1.656,0-2.998-1.342-2.998-2.998V27.308c0-1.656,1.342-2.998,2.998-2.998
			h30.596c1.656,0,2.998,1.342,2.998,2.998v30.596C203.361,59.559,202.019,60.902,200.363,60.902z"/>
		<path style="fill:#F1F0F1;" d="M245.749,60.902h-30.596c-1.656,0-2.998-1.342-2.998-2.998V27.308c0-1.656,1.342-2.998,2.998-2.998
			h30.596c1.656,0,2.998,1.342,2.998,2.998v30.596C248.747,59.559,247.405,60.902,245.749,60.902z"/>
		<path style="fill:#F1F0F1;" d="M291.135,60.902h-30.596c-1.656,0-2.998-1.342-2.998-2.998V27.308c0-1.656,1.342-2.998,2.998-2.998
			h30.596c1.656,0,2.998,1.342,2.998,2.998v30.596C294.133,59.559,292.791,60.902,291.135,60.902z"/>
	</g>
</g>
<g id="Layer_42">
</g>
<g id="Layer_41">
</g>
<g id="Layer_40">
</g>
<g id="Layer_39">
</g>
<g id="Layer_38">
</g>
<g id="Layer_37">
</g>
<g id="Layer_36">
</g>
<g id="Layer_35">
</g>
<g id="Layer_34">
</g>
<g id="Layer_33">
</g>
<g id="Layer_32">
</g>
<g id="Layer_31">
</g>
<g id="Layer_29">
</g>
<g id="Layer_28">
</g>
<g id="Layer_27">
</g>
<g id="Layer_99">
</g>
<g id="Layer_26">
</g>
<g id="Layer_25">
</g>
<g id="Layer_24">
</g>
<g id="Layer_23">
</g>
<g id="Layer_22">
</g>
<g id="Layer_21">
</g>
<g id="Layer_20">
</g>
<g id="Layer_19">
</g>
<g id="Layer_18">
</g>
<g id="Layer_17">
</g>
<g id="Layer_16">
</g>
<g id="Layer_15">
</g>
<g id="Layer_14">
</g>
<g id="Layer_13">
</g>
<g id="Layer_12">
</g>
<g id="Layer_11">
</g>
<g id="Layer_10">
</g>
<g id="Layer_9">
</g>
<g id="Layer_8">
</g>
<g id="Layer_7">
</g>
<g id="Layer_6">
</g>
<g id="Layer_5">
</g>
<g id="Layer_4">
</g>
<g id="Layer_3">
</g>
<g id="Layer_2">
</g>
</svg>
