<?xml version="1.0" encoding="iso-8859-1"?>
<!-- Generator: Adobe Illustrator 21.1.0, SVG Export Plug-In . SVG Version: 6.00 Build 0)  -->
<svg version="1.0" xmlns="http://www.w3.org/2000/svg" xmlns:xlink="http://www.w3.org/1999/xlink" x="0px" y="0px"
	 viewBox="0 0 306.488 240.436" style="enable-background:new 0 0 306.488 240.436;" xml:space="preserve">
<g id="Layer_97">
</g>
<g id="Layer_96">
</g>
<g id="Layer_95">
</g>
<g id="Layer_94">
</g>
<g id="Layer_93">
</g>
<g id="Layer_92">
</g>
<g id="Layer_91">
</g>
<g id="Layer_90">
</g>
<g id="Layer_89">
</g>
<g id="Layer_88">
</g>
<g id="Layer_87">
</g>
<g id="Layer_86">
</g>
<g id="Layer_85">
</g>
<g id="Layer_84">
</g>
<g id="Layer_83">
</g>
<g id="Layer_82">
</g>
<g id="Layer_81">
</g>
<g id="Layer_80">
</g>
<g id="Layer_79">
</g>
<g id="Layer_78">
</g>
<g id="Layer_77">
</g>
<g id="Layer_76">
</g>
<g id="Layer_75">
</g>
<g id="Layer_74">
</g>
<g id="Layer_73">
</g>
<g id="Layer_72">
</g>
<g id="Layer_71">
</g>
<g id="Layer_69">
</g>
<g id="Layer_68">
</g>
<g id="Layer_67">
</g>
<g id="Layer_66">
</g>
<g id="Layer_65">
</g>
<g id="Layer_64">
</g>
<g id="Layer_63">
</g>
<g id="Layer_62">
</g>
<g id="Layer_61">
</g>
<g id="Layer_60">
</g>
<g id="Layer_59">
</g>
<g id="Layer_58">
</g>
<g id="Layer_57">
</g>
<g id="Layer_56">
</g>
<g id="Layer_55">
</g>
<g id="Layer_54">
</g>
<g id="Layer_53">
</g>
<g id="Layer_52">
</g>
<g id="Layer_51">
</g>
<g id="Layer_50">
</g>
<g id="Layer_49">
</g>
<g id="Layer_48">
</g>
<g id="Layer_98">
</g>
<g id="Layer_47">
</g>
<g id="Layer_46">
</g>
<g id="Layer_45">
</g>
<g id="Layer_44">
</g>
<g id="Layer_43">
</g>
<g id="Layer_42">
</g>
<g id="Layer_41">
</g>
<g id="Layer_40">
</g>
<g id="Layer_39">
</g>
<g id="Layer_38">
</g>
<g id="Layer_37">
</g>
<g id="Layer_36">
</g>
<g id="Layer_35">
</g>
<g id="Layer_34">
</g>
<g id="Layer_33">
</g>
<g id="Layer_32">
</g>
<g id="Layer_31">
</g>
<g id="Layer_29">
</g>
<g id="Layer_28">
</g>
<g id="Layer_27">
</g>
<g id="Layer_99">
</g>
<g id="Layer_26">
</g>
<g id="Layer_25">
</g>
<g id="Layer_24">
</g>
<g id="Layer_23">
</g>
<g id="Layer_22">
</g>
<g id="Layer_21">
</g>
<g id="Layer_20">
</g>
<g id="Layer_19">
</g>
<g id="Layer_18">
</g>
<g id="Layer_17">
</g>
<g id="Layer_16">
</g>
<g id="Layer_15">
</g>
<g id="Layer_14">
</g>
<g id="Layer_13">
</g>
<g id="Layer_12">
</g>
<g id="Layer_11">
</g>
<g id="Layer_10">
</g>
<g id="Layer_9">
</g>
<g id="Layer_8">
</g>
<g id="Layer_7">
	<g>
		<path style="fill:#4BAB33;" d="M279.716,240.436H34.911c-14.724,0-26.772-12.047-26.772-26.772V26.772
			C8.139,12.047,20.186,0,34.911,0h244.805c14.724,0,26.772,12.047,26.772,26.772v186.892
			C306.488,228.388,294.44,240.436,279.716,240.436z M32.748,12.572c-5.178,0-9.376,4.198-9.376,9.376s4.198,9.376,9.376,9.376
			s9.376-4.198,9.376-9.376S37.926,12.572,32.748,12.572z M279.408,12.572c-5.178,0-9.376,4.198-9.376,9.376
			s4.198,9.376,9.376,9.376c5.178,0,9.376-4.198,9.376-9.376S284.587,12.572,279.408,12.572z M32.748,210.256
			c-5.178,0-9.376,4.198-9.376,9.376s4.198,9.376,9.376,9.376s9.376-4.198,9.376-9.376S37.926,210.256,32.748,210.256z
			 M279.408,210.256c-5.178,0-9.376,4.198-9.376,9.376s4.198,9.376,9.376,9.376c5.178,0,9.376-4.198,9.376-9.376
			S284.587,210.256,279.408,210.256z M238.328,226.983v-68.636c0-2.459-2.012-4.471-4.471-4.471h0c-2.459,0-4.471,2.012-4.471,4.471
			v68.636c0,2.459,2.012,4.471,4.471,4.471h0C236.316,231.454,238.328,229.442,238.328,226.983z"/>
		<path style="fill:#1D1E1C;" d="M204.192,197.954H51.753c-2.192,0-3.969-1.777-3.969-3.969V61.9c0-2.192,1.777-3.969,3.969-3.969
			h152.439c2.192,0,3.969,1.777,3.969,3.969v132.085C208.162,196.177,206.384,197.954,204.192,197.954z"/>
		<path style="fill:#1D1E1C;" d="M256.736,22.589v11.86c0,4.519-3.698,8.217-8.217,8.217H66.309c-4.519,0-8.217-3.698-8.217-8.217
			v-11.86c0-4.519,3.698-8.217,8.217-8.217h182.21C253.038,14.372,256.736,18.07,256.736,22.589z"/>
		<path style="fill:#ECE9E9;" d="M123.231,77.66h-10.038c-0.938,0-1.698-0.76-1.698-1.698V65.925c0-0.938,0.76-1.698,1.698-1.698
			h10.038c0.938,0,1.698,0.76,1.698,1.698v10.038C124.928,76.9,124.168,77.66,123.231,77.66z"/>
		<path style="fill:#ECE9E9;" d="M104.177,77.66H94.139c-0.938,0-1.698-0.76-1.698-1.698V65.925c0-0.938,0.76-1.698,1.698-1.698
			h10.038c0.938,0,1.698,0.76,1.698,1.698v10.038C105.874,76.9,105.114,77.66,104.177,77.66z"/>
		<path style="fill:#ECE9E9;" d="M85.123,77.66H75.085c-0.938,0-1.698-0.76-1.698-1.698V65.925c0-0.938,0.76-1.698,1.698-1.698
			h10.038c0.938,0,1.698,0.76,1.698,1.698v10.038C86.821,76.9,86.061,77.66,85.123,77.66z"/>
		<path style="fill:#ECE9E9;" d="M66.069,77.66H56.031c-0.938,0-1.698-0.76-1.698-1.698V65.925c0-0.938,0.76-1.698,1.698-1.698
			h10.038c0.938,0,1.698,0.76,1.698,1.698v10.038C67.767,76.9,67.007,77.66,66.069,77.66z"/>
		<path style="fill:#ECE9E9;" d="M199.446,77.66h-10.038c-0.938,0-1.698-0.76-1.698-1.698V65.925c0-0.938,0.76-1.698,1.698-1.698
			h10.038c0.938,0,1.698,0.76,1.698,1.698v10.038C201.144,76.9,200.383,77.66,199.446,77.66z"/>
		<path style="fill:#ECE9E9;" d="M180.392,77.66h-10.038c-0.938,0-1.698-0.76-1.698-1.698V65.925c0-0.938,0.76-1.698,1.698-1.698
			h10.038c0.938,0,1.698,0.76,1.698,1.698v10.038C182.09,76.9,181.33,77.66,180.392,77.66z"/>
		<path style="fill:#ECE9E9;" d="M161.338,77.66h-10.038c-0.938,0-1.698-0.76-1.698-1.698V65.925c0-0.938,0.76-1.698,1.698-1.698
			h10.038c0.938,0,1.698,0.76,1.698,1.698v10.038C163.036,76.9,162.276,77.66,161.338,77.66z"/>
		<path style="fill:#ECE9E9;" d="M142.284,77.66h-10.038c-0.938,0-1.698-0.76-1.698-1.698V65.925c0-0.938,0.76-1.698,1.698-1.698
			h10.038c0.938,0,1.698,0.76,1.698,1.698v10.038C143.982,76.9,143.222,77.66,142.284,77.66z"/>
		<path style="fill:#ECE9E9;" d="M123.231,96.714h-10.038c-0.938,0-1.698-0.76-1.698-1.698V84.979c0-0.938,0.76-1.698,1.698-1.698
			h10.038c0.938,0,1.698,0.76,1.698,1.698v10.038C124.928,95.954,124.168,96.714,123.231,96.714z"/>
		<path style="fill:#ECE9E9;" d="M104.177,96.714H94.139c-0.938,0-1.698-0.76-1.698-1.698V84.979c0-0.938,0.76-1.698,1.698-1.698
			h10.038c0.938,0,1.698,0.76,1.698,1.698v10.038C105.874,95.954,105.114,96.714,104.177,96.714z"/>
		<path style="fill:#ECE9E9;" d="M85.123,96.714H75.085c-0.938,0-1.698-0.76-1.698-1.698V84.979c0-0.938,0.76-1.698,1.698-1.698
			h10.038c0.938,0,1.698,0.76,1.698,1.698v10.038C86.821,95.954,86.061,96.714,85.123,96.714z"/>
		<path style="fill:#ECE9E9;" d="M66.069,96.714H56.031c-0.938,0-1.698-0.76-1.698-1.698V84.979c0-0.938,0.76-1.698,1.698-1.698
			h10.038c0.938,0,1.698,0.76,1.698,1.698v10.038C67.767,95.954,67.007,96.714,66.069,96.714z"/>
		<path style="fill:#ECE9E9;" d="M199.446,96.714h-10.038c-0.938,0-1.698-0.76-1.698-1.698V84.979c0-0.938,0.76-1.698,1.698-1.698
			h10.038c0.938,0,1.698,0.76,1.698,1.698v10.038C201.144,95.954,200.383,96.714,199.446,96.714z"/>
		<path style="fill:#ECE9E9;" d="M180.392,96.714h-10.038c-0.938,0-1.698-0.76-1.698-1.698V84.979c0-0.938,0.76-1.698,1.698-1.698
			h10.038c0.938,0,1.698,0.76,1.698,1.698v10.038C182.09,95.954,181.33,96.714,180.392,96.714z"/>
		<path style="fill:#ECE9E9;" d="M161.338,96.714h-10.038c-0.938,0-1.698-0.76-1.698-1.698V84.979c0-0.938,0.76-1.698,1.698-1.698
			h10.038c0.938,0,1.698,0.76,1.698,1.698v10.038C163.036,95.954,162.276,96.714,161.338,96.714z"/>
		<path style="fill:#ECE9E9;" d="M142.284,96.714h-10.038c-0.938,0-1.698-0.76-1.698-1.698V84.979c0-0.938,0.76-1.698,1.698-1.698
			h10.038c0.938,0,1.698,0.76,1.698,1.698v10.038C143.982,95.954,143.222,96.714,142.284,96.714z"/>
		<path style="fill:#ECE9E9;" d="M123.231,115.768h-10.038c-0.938,0-1.698-0.76-1.698-1.698v-10.038c0-0.938,0.76-1.698,1.698-1.698
			h10.038c0.938,0,1.698,0.76,1.698,1.698v10.038C124.928,115.008,124.168,115.768,123.231,115.768z"/>
		<path style="fill:#ECE9E9;" d="M104.177,115.768H94.139c-0.938,0-1.698-0.76-1.698-1.698v-10.038c0-0.938,0.76-1.698,1.698-1.698
			h10.038c0.938,0,1.698,0.76,1.698,1.698v10.038C105.874,115.008,105.114,115.768,104.177,115.768z"/>
		<path style="fill:#ECE9E9;" d="M85.123,115.768H75.085c-0.938,0-1.698-0.76-1.698-1.698v-10.038c0-0.938,0.76-1.698,1.698-1.698
			h10.038c0.938,0,1.698,0.76,1.698,1.698v10.038C86.821,115.008,86.061,115.768,85.123,115.768z"/>
		<path style="fill:#ECE9E9;" d="M66.069,115.768H56.031c-0.938,0-1.698-0.76-1.698-1.698v-10.038c0-0.938,0.76-1.698,1.698-1.698
			h10.038c0.938,0,1.698,0.76,1.698,1.698v10.038C67.767,115.008,67.007,115.768,66.069,115.768z"/>
		<path style="fill:#ECE9E9;" d="M199.446,115.768h-10.038c-0.938,0-1.698-0.76-1.698-1.698v-10.038c0-0.938,0.76-1.698,1.698-1.698
			h10.038c0.938,0,1.698,0.76,1.698,1.698v10.038C201.144,115.008,200.383,115.768,199.446,115.768z"/>
		<path style="fill:#ECE9E9;" d="M180.392,115.768h-10.038c-0.938,0-1.698-0.76-1.698-1.698v-10.038c0-0.938,0.76-1.698,1.698-1.698
			h10.038c0.938,0,1.698,0.76,1.698,1.698v10.038C182.09,115.008,181.33,115.768,180.392,115.768z"/>
		<path style="fill:#ECE9E9;" d="M161.338,115.768h-10.038c-0.938,0-1.698-0.76-1.698-1.698v-10.038c0-0.938,0.76-1.698,1.698-1.698
			h10.038c0.938,0,1.698,0.76,1.698,1.698v10.038C163.036,115.008,162.276,115.768,161.338,115.768z"/>
		<path style="fill:#ECE9E9;" d="M142.284,115.768h-10.038c-0.938,0-1.698-0.76-1.698-1.698v-10.038c0-0.938,0.76-1.698,1.698-1.698
			h10.038c0.938,0,1.698,0.76,1.698,1.698v10.038C143.982,115.008,143.222,115.768,142.284,115.768z"/>
		<path style="fill:#ECE9E9;" d="M123.231,134.822h-10.038c-0.938,0-1.698-0.76-1.698-1.698v-10.038c0-0.938,0.76-1.698,1.698-1.698
			h10.038c0.938,0,1.698,0.76,1.698,1.698v10.038C124.928,134.062,124.168,134.822,123.231,134.822z"/>
		<path style="fill:#ECE9E9;" d="M104.177,134.822H94.139c-0.938,0-1.698-0.76-1.698-1.698v-10.038c0-0.938,0.76-1.698,1.698-1.698
			h10.038c0.938,0,1.698,0.76,1.698,1.698v10.038C105.874,134.062,105.114,134.822,104.177,134.822z"/>
		<path style="fill:#ECE9E9;" d="M85.123,134.822H75.085c-0.938,0-1.698-0.76-1.698-1.698v-10.038c0-0.938,0.76-1.698,1.698-1.698
			h10.038c0.938,0,1.698,0.76,1.698,1.698v10.038C86.821,134.062,86.061,134.822,85.123,134.822z"/>
		<path style="fill:#ECE9E9;" d="M66.069,134.822H56.031c-0.938,0-1.698-0.76-1.698-1.698v-10.038c0-0.938,0.76-1.698,1.698-1.698
			h10.038c0.938,0,1.698,0.76,1.698,1.698v10.038C67.767,134.062,67.007,134.822,66.069,134.822z"/>
		<path style="fill:#ECE9E9;" d="M199.446,134.822h-10.038c-0.938,0-1.698-0.76-1.698-1.698v-10.038c0-0.938,0.76-1.698,1.698-1.698
			h10.038c0.938,0,1.698,0.76,1.698,1.698v10.038C201.144,134.062,200.383,134.822,199.446,134.822z"/>
		<path style="fill:#ECE9E9;" d="M180.392,134.822h-10.038c-0.938,0-1.698-0.76-1.698-1.698v-10.038c0-0.938,0.76-1.698,1.698-1.698
			h10.038c0.938,0,1.698,0.76,1.698,1.698v10.038C182.09,134.062,181.33,134.822,180.392,134.822z"/>
		<path style="fill:#ECE9E9;" d="M161.338,134.822h-10.038c-0.938,0-1.698-0.76-1.698-1.698v-10.038c0-0.938,0.76-1.698,1.698-1.698
			h10.038c0.938,0,1.698,0.76,1.698,1.698v10.038C163.036,134.062,162.276,134.822,161.338,134.822z"/>
		<path style="fill:#ECE9E9;" d="M142.284,134.822h-10.038c-0.938,0-1.698-0.76-1.698-1.698v-10.038c0-0.938,0.76-1.698,1.698-1.698
			h10.038c0.938,0,1.698,0.76,1.698,1.698v10.038C143.982,134.062,143.222,134.822,142.284,134.822z"/>
		<path style="fill:#ECE9E9;" d="M123.231,153.876h-10.038c-0.938,0-1.698-0.76-1.698-1.698V142.14c0-0.938,0.76-1.698,1.698-1.698
			h10.038c0.938,0,1.698,0.76,1.698,1.698v10.038C124.928,153.116,124.168,153.876,123.231,153.876z"/>
		<path style="fill:#ECE9E9;" d="M104.177,153.876H94.139c-0.938,0-1.698-0.76-1.698-1.698V142.14c0-0.938,0.76-1.698,1.698-1.698
			h10.038c0.938,0,1.698,0.76,1.698,1.698v10.038C105.874,153.116,105.114,153.876,104.177,153.876z"/>
		<path style="fill:#ECE9E9;" d="M85.123,153.876H75.085c-0.938,0-1.698-0.76-1.698-1.698V142.14c0-0.938,0.76-1.698,1.698-1.698
			h10.038c0.938,0,1.698,0.76,1.698,1.698v10.038C86.821,153.116,86.061,153.876,85.123,153.876z"/>
		<path style="fill:#ECE9E9;" d="M66.069,153.876H56.031c-0.938,0-1.698-0.76-1.698-1.698V142.14c0-0.938,0.76-1.698,1.698-1.698
			h10.038c0.938,0,1.698,0.76,1.698,1.698v10.038C67.767,153.116,67.007,153.876,66.069,153.876z"/>
		<path style="fill:#ECE9E9;" d="M199.446,153.876h-10.038c-0.938,0-1.698-0.76-1.698-1.698V142.14c0-0.938,0.76-1.698,1.698-1.698
			h10.038c0.938,0,1.698,0.76,1.698,1.698v10.038C201.144,153.116,200.383,153.876,199.446,153.876z"/>
		<path style="fill:#ECE9E9;" d="M180.392,153.876h-10.038c-0.938,0-1.698-0.76-1.698-1.698V142.14c0-0.938,0.76-1.698,1.698-1.698
			h10.038c0.938,0,1.698,0.76,1.698,1.698v10.038C182.09,153.116,181.33,153.876,180.392,153.876z"/>
		<path style="fill:#ECE9E9;" d="M161.338,153.876h-10.038c-0.938,0-1.698-0.76-1.698-1.698V142.14c0-0.938,0.76-1.698,1.698-1.698
			h10.038c0.938,0,1.698,0.76,1.698,1.698v10.038C163.036,153.116,162.276,153.876,161.338,153.876z"/>
		<path style="fill:#ECE9E9;" d="M142.284,153.876h-10.038c-0.938,0-1.698-0.76-1.698-1.698V142.14c0-0.938,0.76-1.698,1.698-1.698
			h10.038c0.938,0,1.698,0.76,1.698,1.698v10.038C143.982,153.116,143.222,153.876,142.284,153.876z"/>
		<path style="fill:#ECE9E9;" d="M123.231,172.93h-10.038c-0.938,0-1.698-0.76-1.698-1.698v-10.038c0-0.938,0.76-1.698,1.698-1.698
			h10.038c0.938,0,1.698,0.76,1.698,1.698v10.038C124.928,172.169,124.168,172.93,123.231,172.93z"/>
		<path style="fill:#ECE9E9;" d="M104.177,172.93H94.139c-0.938,0-1.698-0.76-1.698-1.698v-10.038c0-0.938,0.76-1.698,1.698-1.698
			h10.038c0.938,0,1.698,0.76,1.698,1.698v10.038C105.874,172.169,105.114,172.93,104.177,172.93z"/>
		<path style="fill:#ECE9E9;" d="M85.123,172.93H75.085c-0.938,0-1.698-0.76-1.698-1.698v-10.038c0-0.938,0.76-1.698,1.698-1.698
			h10.038c0.938,0,1.698,0.76,1.698,1.698v10.038C86.821,172.169,86.061,172.93,85.123,172.93z"/>
		<path style="fill:#ECE9E9;" d="M66.069,172.93H56.031c-0.938,0-1.698-0.76-1.698-1.698v-10.038c0-0.938,0.76-1.698,1.698-1.698
			h10.038c0.938,0,1.698,0.76,1.698,1.698v10.038C67.767,172.169,67.007,172.93,66.069,172.93z"/>
		<path style="fill:#ECE9E9;" d="M199.446,172.93h-10.038c-0.938,0-1.698-0.76-1.698-1.698v-10.038c0-0.938,0.76-1.698,1.698-1.698
			h10.038c0.938,0,1.698,0.76,1.698,1.698v10.038C201.144,172.169,200.383,172.93,199.446,172.93z"/>
		<path style="fill:#ECE9E9;" d="M180.392,172.93h-10.038c-0.938,0-1.698-0.76-1.698-1.698v-10.038c0-0.938,0.76-1.698,1.698-1.698
			h10.038c0.938,0,1.698,0.76,1.698,1.698v10.038C182.09,172.169,181.33,172.93,180.392,172.93z"/>
		<path style="fill:#ECE9E9;" d="M161.338,172.93h-10.038c-0.938,0-1.698-0.76-1.698-1.698v-10.038c0-0.938,0.76-1.698,1.698-1.698
			h10.038c0.938,0,1.698,0.76,1.698,1.698v10.038C163.036,172.169,162.276,172.93,161.338,172.93z"/>
		<path style="fill:#ECE9E9;" d="M142.284,172.93h-10.038c-0.938,0-1.698-0.76-1.698-1.698v-10.038c0-0.938,0.76-1.698,1.698-1.698
			h10.038c0.938,0,1.698,0.76,1.698,1.698v10.038C143.982,172.169,143.222,172.93,142.284,172.93z"/>
		<path style="fill:#ECE9E9;" d="M123.231,191.983h-10.038c-0.938,0-1.698-0.76-1.698-1.698v-10.038c0-0.938,0.76-1.698,1.698-1.698
			h10.038c0.938,0,1.698,0.76,1.698,1.698v10.038C124.928,191.223,124.168,191.983,123.231,191.983z"/>
		<path style="fill:#ECE9E9;" d="M104.177,191.983H94.139c-0.938,0-1.698-0.76-1.698-1.698v-10.038c0-0.938,0.76-1.698,1.698-1.698
			h10.038c0.938,0,1.698,0.76,1.698,1.698v10.038C105.874,191.223,105.114,191.983,104.177,191.983z"/>
		<path style="fill:#ECE9E9;" d="M85.123,191.983H75.085c-0.938,0-1.698-0.76-1.698-1.698v-10.038c0-0.938,0.76-1.698,1.698-1.698
			h10.038c0.938,0,1.698,0.76,1.698,1.698v10.038C86.821,191.223,86.061,191.983,85.123,191.983z"/>
		<path style="fill:#ECE9E9;" d="M66.069,191.983H56.031c-0.938,0-1.698-0.76-1.698-1.698v-10.038c0-0.938,0.76-1.698,1.698-1.698
			h10.038c0.938,0,1.698,0.76,1.698,1.698v10.038C67.767,191.223,67.007,191.983,66.069,191.983z"/>
		<path style="fill:#ECE9E9;" d="M199.446,191.983h-10.038c-0.938,0-1.698-0.76-1.698-1.698v-10.038c0-0.938,0.76-1.698,1.698-1.698
			h10.038c0.938,0,1.698,0.76,1.698,1.698v10.038C201.144,191.223,200.383,191.983,199.446,191.983z"/>
		<path style="fill:#ECE9E9;" d="M180.392,191.983h-10.038c-0.938,0-1.698-0.76-1.698-1.698v-10.038c0-0.938,0.76-1.698,1.698-1.698
			h10.038c0.938,0,1.698,0.76,1.698,1.698v10.038C182.09,191.223,181.33,191.983,180.392,191.983z"/>
		<path style="fill:#ECE9E9;" d="M161.338,191.983h-10.038c-0.938,0-1.698-0.76-1.698-1.698v-10.038c0-0.938,0.76-1.698,1.698-1.698
			h10.038c0.938,0,1.698,0.76,1.698,1.698v10.038C163.036,191.223,162.276,191.983,161.338,191.983z"/>
		<path style="fill:#ECE9E9;" d="M142.284,191.983h-10.038c-0.938,0-1.698-0.76-1.698-1.698v-10.038c0-0.938,0.76-1.698,1.698-1.698
			h10.038c0.938,0,1.698,0.76,1.698,1.698v10.038C143.982,191.223,143.222,191.983,142.284,191.983z"/>
		<path style="fill:#FFFFFF;" d="M17.137,180.467H0V78.301h17.137c4.872,0,8.822,3.95,8.822,8.822v84.522
			C25.959,176.517,22.01,180.467,17.137,180.467z"/>
		<path style="fill:#1D1E1C;" d="M240.261,92.919h-8.232c-1.453,0-2.642-1.189-2.642-2.642V75.078c0-1.453,1.189-2.642,2.642-2.642
			h8.232c1.453,0,2.642,1.189,2.642,2.642v15.199C242.903,91.73,241.714,92.919,240.261,92.919z"/>
		<path style="fill:#1D1E1C;" d="M275.316,164.829v8.232c0,1.453-1.189,2.642-2.642,2.642h-15.199c-1.453,0-2.642-1.189-2.642-2.642
			v-8.232c0-1.453,1.189-2.642,2.642-2.642h15.199C274.127,162.187,275.316,163.376,275.316,164.829z"/>
		<path style="fill:#1D1E1C;" d="M274.451,92.919h-11.717c-1.499,0-2.726-1.227-2.726-2.726V78.475c0-1.499,1.227-2.726,2.726-2.726
			h11.717c1.499,0,2.726,1.227,2.726,2.726v11.717C277.177,91.692,275.95,92.919,274.451,92.919z"/>
		<path style="fill:#1D1E1C;" d="M240.008,132.356h-11.717c-1.499,0-2.726-1.227-2.726-2.726v-11.717
			c0-1.499,1.227-2.726,2.726-2.726h11.717c1.499,0,2.726,1.227,2.726,2.726v11.717
			C242.734,131.129,241.508,132.356,240.008,132.356z"/>
		<circle style="fill:#1D1E1C;" cx="257.625" cy="197.954" r="12.929"/>
		<path style="fill:#1D1E1C;" d="M126.798,229.588H112.52c-1.827,0-3.322-1.495-3.322-3.322v-14.278
			c0-1.827,1.495-3.322,3.322-3.322h14.278c1.827,0,3.322,1.495,3.322,3.322v14.278C130.12,228.093,128.625,229.588,126.798,229.588
			z"/>
		<path style="fill:#FFFFFF;" d="M196.461,203.667c0.307-0.009,0.568,0.174,0.851,0.263c0.692-0.223,0.85,0.082,1.19,0.207
			c0.755-0.157,0.984,0.185,1.346,0.546l0.421-0.008c1.138,0.661,1.702,2.006,1.903,2.698c0.2-0.692,0.766-2.037,1.904-2.698
			l0.421,0.008c0.362-0.361,0.591-0.703,1.346-0.546c0.34-0.124,0.498-0.429,1.19-0.207c0.432-0.135,0.81-0.491,1.382-0.046
			c0.481-0.183,0.948-0.246,1.365,0.126c0.644-0.082,0.854,0.088,1.012,0.286c0.142-0.003,1.059-0.143,1.479,0.475
			c1.057-0.123,1.391,0.612,1.013,1.298c0.216,0.329,0.44,0.654-0.065,1.282c0.179,0.349,0.068,0.729-0.353,1.187
			c0.111,0.491-0.107,0.838-0.499,1.108c0.073,0.672-0.626,1.063-0.835,1.202c-0.08,0.392-0.247,0.761-1.046,0.966
			c-0.132,0.584-0.612,0.685-1.076,0.807c1.536,0.88,2.853,2.037,2.844,4.876l0.225,0.395c1.761,1.055,3.346,4.446,0.868,7.202
			c-0.162,0.863-0.433,1.482-0.675,2.168c-0.362,2.764-2.721,4.058-3.343,4.211c-0.912,0.684-1.883,1.333-3.197,1.788
			c-1.239,1.258-2.581,1.738-3.93,1.737c-0.02,0-0.04,0-0.04,0c-1.369,0.001-2.711-0.479-3.95-1.737
			c-1.314-0.455-2.285-1.104-3.197-1.788c-0.622-0.153-2.981-1.447-3.343-4.211c-0.242-0.686-0.513-1.305-0.675-2.168
			c-2.478-2.756-0.893-6.147,0.868-7.202l0.225-0.395c-0.009-2.839,1.308-3.996,2.844-4.876c-0.465-0.123-0.945-0.223-1.076-0.807
			c-0.799-0.204-0.966-0.574-1.046-0.966c-0.209-0.139-0.908-0.53-0.835-1.202c-0.391-0.27-0.61-0.617-0.499-1.108
			c-0.421-0.459-0.531-0.838-0.353-1.187c-0.505-0.627-0.281-0.953-0.065-1.282c-0.378-0.686-0.044-1.421,1.012-1.298
			c0.421-0.618,1.338-0.478,1.479-0.475c0.159-0.198,0.368-0.368,1.012-0.286c0.417-0.372,0.884-0.309,1.365-0.126
			C196.128,203.731,196.301,203.672,196.461,203.667L196.461,203.667z M194.218,206.575c2.349,0.786,4.469,1.834,6.244,3.276
			c2.086-0.971,0.648-3.42-0.37-4.392c-0.052,0.257-0.11,0.419-0.177,0.467c-0.331-0.355-0.602-0.719-1.028-1.06
			c-0.001,0.201,0.101,0.418-0.153,0.578c-0.229-0.308-0.538-0.582-0.948-0.815c0.198,0.341,0.034,0.444-0.072,0.586
			c-0.313-0.269-0.611-0.541-1.189-0.752c0.158,0.192,0.379,0.38,0.145,0.601c-0.323-0.202-0.648-0.403-1.414-0.546
			c0.173,0.193,0.53,0.385,0.313,0.578c-0.405-0.155-0.854-0.267-1.35-0.332c0.238,0.195,0.436,0.387,0.241,0.538
			c-0.434-0.133-1.031-0.313-1.615-0.158l0.37,0.372c0.041,0.05-0.865,0.039-1.462,0.047c0.218,0.303,0.441,0.596,0.57,1.116
			c-0.059,0.06-0.355,0.027-0.635,0c0.286,0.603,0.784,0.755,0.9,1.013c-0.175,0.132-0.418,0.098-0.683,0.008
			c0.206,0.425,0.639,0.716,0.98,1.06c-0.086,0.061-0.237,0.098-0.595,0.055c0.316,0.335,0.697,0.642,1.149,0.918
			c-0.08,0.092-0.355,0.089-0.611,0.095c0.409,0.401,0.936,0.608,1.43,0.871c-0.246,0.168-0.422,0.129-0.611,0.127
			c0.349,0.287,0.943,0.436,1.494,0.609c-0.105,0.163-0.21,0.207-0.434,0.253c0.584,0.323,1.419,0.175,1.655,0.34
			c-0.057,0.162-0.217,0.268-0.41,0.356c0.939,0.055,3.509-0.034,4.001-1.979C198.993,209.348,197.238,208.108,194.218,206.575
			L194.218,206.575z M210.212,206.574c-3.019,1.534-4.775,2.774-5.737,3.83c0.493,1.944,3.062,2.033,4.001,1.979
			c-0.192-0.088-0.353-0.194-0.41-0.356c0.236-0.165,1.072-0.017,1.655-0.34c-0.224-0.046-0.329-0.09-0.434-0.253
			c0.551-0.173,1.145-0.322,1.494-0.609c-0.188,0.002-0.365,0.042-0.611-0.127c0.494-0.262,1.021-0.47,1.43-0.871
			c-0.255-0.006-0.531-0.003-0.611-0.095c0.452-0.276,0.833-0.583,1.149-0.918c-0.357,0.042-0.508,0.006-0.595-0.055
			c0.342-0.345,0.774-0.636,0.98-1.06c-0.265,0.09-0.508,0.125-0.683-0.008c0.116-0.258,0.613-0.41,0.9-1.013
			c-0.279,0.027-0.575,0.06-0.635,0c0.13-0.52,0.352-0.813,0.57-1.116c-0.598-0.009-1.503,0.002-1.462-0.047l0.37-0.372
			c-0.584-0.155-1.181,0.025-1.615,0.158c-0.195-0.151,0.003-0.343,0.241-0.538c-0.496,0.065-0.945,0.178-1.35,0.332
			c-0.217-0.193,0.141-0.385,0.313-0.578c-0.767,0.143-1.091,0.345-1.414,0.546c-0.234-0.221-0.013-0.409,0.145-0.601
			c-0.578,0.211-0.876,0.483-1.189,0.752c-0.106-0.141-0.27-0.245-0.072-0.586c-0.41,0.233-0.719,0.508-0.948,0.815
			c-0.254-0.159-0.151-0.377-0.153-0.578c-0.427,0.342-0.697,0.705-1.028,1.06c-0.067-0.048-0.125-0.21-0.177-0.467
			c-1.017,0.972-2.455,3.421-0.37,4.392C205.743,208.408,207.863,207.36,210.212,206.574L210.212,206.574z M205.867,226.339
			c-0.01-1.814-1.638-3.277-3.636-3.268c-1.998,0.01-3.608,1.488-3.598,3.303c0,0.012,0,0.023,0,0.035
			c0.011,1.814,1.638,3.277,3.636,3.268c1.998-0.01,3.609-1.488,3.598-3.303C205.867,226.362,205.867,226.35,205.867,226.339z
			 M200.227,216.988c-1.499-0.967-3.658-0.343-4.824,1.394c-1.165,1.737-0.895,3.93,0.603,4.897l0,0
			c1.499,0.967,3.658,0.343,4.824-1.394C201.996,220.148,201.726,217.956,200.227,216.988L200.227,216.988z M204.273,216.813
			c-1.499,0.967-1.769,3.16-0.603,4.897c1.166,1.737,3.325,2.361,4.824,1.394l0,0c1.499-0.967,1.769-3.16,0.603-4.897
			C207.931,216.47,205.771,215.846,204.273,216.813L204.273,216.813z M192.059,224.597c1.317,0.576,2.388-6.445,0.77-6.018
			C190.144,220.09,190.611,223.45,192.059,224.597z M211.529,218.492c-1.618-0.427-0.546,6.594,0.77,6.018
			C213.747,223.363,214.214,220.002,211.529,218.492L211.529,218.492z M211.124,217.406c0.094-2.983-2.23-4.617-5.022-4.152
			C205.073,213.424,211.032,218.549,211.124,217.406z M198.386,213.166c-2.793-0.464-5.116,1.17-5.022,4.152
			C193.456,218.462,199.415,213.336,198.386,213.166z M202.234,212.471c-1.667-0.043-3.266,1.218-3.27,1.95
			c-0.005,0.889,1.318,1.799,3.281,1.822c2.005,0.014,3.285-0.728,3.291-1.646C205.544,213.557,203.713,212.455,202.234,212.471
			L202.234,212.471z M202.362,230.696c-1.444-0.036-3.659,0.57-3.632,1.345c-0.023,0.529,1.739,2.055,3.535,1.979
			c1.735,0.029,3.527-1.494,3.503-2.169C205.765,231.157,203.815,230.634,202.362,230.696L202.362,230.696z M196.985,226.581
			c-1.187-1.357-2.73-2.166-3.728-1.567c-0.668,0.5-0.79,2.204,0.161,3.878c1.41,1.995,3.393,2.195,4.21,1.709
			C198.491,229.965,198.019,227.808,196.985,226.581L196.985,226.581z M207.401,226.191c-1.119,1.291-1.743,3.647-0.926,4.405
			c0.781,0.589,2.877,0.507,4.425-1.609c1.124-1.421,0.747-3.794,0.105-4.425C210.051,223.837,208.681,224.767,207.401,226.191
			L207.401,226.191z"/>
	</g>
</g>
<g id="Layer_6">
</g>
<g id="Layer_5">
</g>
<g id="Layer_4">
</g>
<g id="Layer_3">
</g>
<g id="Layer_2">
</g>
</svg>
