<?xml version="1.0" encoding="iso-8859-1"?>
<!-- Generator: Adobe Illustrator 21.1.0, SVG Export Plug-In . SVG Version: 6.00 Build 0)  -->
<svg version="1.0" xmlns="http://www.w3.org/2000/svg" xmlns:xlink="http://www.w3.org/1999/xlink" x="0px" y="0px"
	 viewBox="0 0 266.663 237.754" style="enable-background:new 0 0 266.663 237.754;" xml:space="preserve">
<g id="Layer_97">
</g>
<g id="Layer_96">
</g>
<g id="Layer_95">
</g>
<g id="Layer_94">
</g>
<g id="Layer_93">
</g>
<g id="Layer_92">
</g>
<g id="Layer_91">
</g>
<g id="Layer_90">
</g>
<g id="Layer_89">
</g>
<g id="Layer_88">
</g>
<g id="Layer_87">
</g>
<g id="Layer_86">
</g>
<g id="Layer_85">
</g>
<g id="Layer_84">
</g>
<g id="Layer_83">
</g>
<g id="Layer_82">
</g>
<g id="Layer_81">
</g>
<g id="Layer_80">
</g>
<g id="Layer_79">
</g>
<g id="Layer_78">
</g>
<g id="Layer_77">
</g>
<g id="Layer_76">
</g>
<g id="Layer_75">
</g>
<g id="Layer_74">
</g>
<g id="Layer_73">
</g>
<g id="Layer_72">
</g>
<g id="Layer_71">
</g>
<g id="Layer_69">
</g>
<g id="Layer_68">
</g>
<g id="Layer_67">
</g>
<g id="Layer_66">
</g>
<g id="Layer_65">
</g>
<g id="Layer_64">
</g>
<g id="Layer_63">
</g>
<g id="Layer_62">
</g>
<g id="Layer_61">
</g>
<g id="Layer_60">
</g>
<g id="Layer_59">
</g>
<g id="Layer_58">
</g>
<g id="Layer_57">
</g>
<g id="Layer_56">
</g>
<g id="Layer_55">
</g>
<g id="Layer_54">
</g>
<g id="Layer_53">
</g>
<g id="Layer_52">
</g>
<g id="Layer_51">
</g>
<g id="Layer_50">
</g>
<g id="Layer_49">
</g>
<g id="Layer_48">
</g>
<g id="Layer_98">
</g>
<g id="Layer_47">
</g>
<g id="Layer_46">
</g>
<g id="Layer_45">
</g>
<g id="Layer_44">
</g>
<g id="Layer_43">
</g>
<g id="Layer_42">
</g>
<g id="Layer_41">
</g>
<g id="Layer_40">
</g>
<g id="Layer_39">
</g>
<g id="Layer_38">
</g>
<g id="Layer_37">
</g>
<g id="Layer_36">
</g>
<g id="Layer_35">
</g>
<g id="Layer_34">
</g>
<g id="Layer_33">
</g>
<g id="Layer_32">
</g>
<g id="Layer_31">
</g>
<g id="Layer_29">
</g>
<g id="Layer_28">
</g>
<g id="Layer_27">
</g>
<g id="Layer_99">
</g>
<g id="Layer_26">
</g>
<g id="Layer_25">
</g>
<g id="Layer_24">
</g>
<g id="Layer_23">
</g>
<g id="Layer_22">
</g>
<g id="Layer_21">
</g>
<g id="Layer_20">
</g>
<g id="Layer_19">
</g>
<g id="Layer_18">
	<g>
		
			<ellipse transform="matrix(0.9151 -0.4033 0.4033 0.9151 -26.7812 107.813)" style="fill:#ECD1BE;" cx="242.602" cy="117.496" rx="24.055" ry="24.055"/>
		<g>
			<defs>
				
					<ellipse id="XMLID_11_" transform="matrix(0.9743 -0.2252 0.2252 0.9743 -23.7171 29.8242)" cx="118.877" cy="118.877" rx="118.851" ry="118.851"/>
			</defs>
			<use xlink:href="#XMLID_11_"  style="overflow:visible;fill:#ECD1BE;"/>
			<clipPath id="XMLID_7_">
				<use xlink:href="#XMLID_11_"  style="overflow:visible;"/>
			</clipPath>
			<path style="clip-path:url(#XMLID_7_);fill:#27131D;" d="M191.903,22.434c0,0-185.222,114.457-214.768,82.866l22.133-82.777
				l82.07-55.109l65.856-3.463L191.903,22.434z"/>
		</g>
		<path d="M68.898,187.175c4.001,17.31,21.276,28.098,38.586,24.098c17.31-4.001,28.098-21.276,24.098-38.586L68.898,187.175z"/>
		<ellipse transform="matrix(0.9743 -0.2252 0.2252 0.9743 -27.6431 36.9736)" cx="148.254" cy="139.662" rx="6.55" ry="6.55"/>
		<polyline style="fill:none;stroke:#000000;stroke-width:5;stroke-miterlimit:10;" points="82.167,113.607 85.031,169.678 
			106.21,164.783 		"/>
		<ellipse transform="matrix(0.9743 -0.2252 0.2252 0.9743 -35.7932 13.986)" cx="43.412" cy="163.894" rx="6.55" ry="6.55"/>
		<path style="fill:#27131D;" d="M169.341,22.813l33.94,61.734c2.789,5.073,8.177,8.166,13.964,8.016l17.431-0.451L217.418,28.9
			c-1.537-5.629-6.86-9.369-12.677-8.906L169.341,22.813z"/>
		
			<ellipse transform="matrix(0.1184 -0.993 0.993 0.1184 -7.9838 270.3306)" style="fill:none;stroke:#E84780;stroke-width:10;stroke-miterlimit:10;" cx="148.254" cy="139.662" rx="26.892" ry="26.892"/>
		
			<ellipse transform="matrix(0.1184 -0.993 0.993 0.1184 -124.4706 187.5886)" style="fill:none;stroke:#E84780;stroke-width:10;stroke-miterlimit:10;" cx="43.412" cy="163.894" rx="26.892" ry="26.892"/>
		
			<line style="fill:none;stroke:#E84780;stroke-width:3.492;stroke-miterlimit:10;" x1="121.551" y1="136.477" x2="65.953" y2="149.231"/>
		
			<line style="fill:none;stroke:#E84780;stroke-width:10;stroke-linecap:round;stroke-miterlimit:10;" x1="241.148" y1="87.31" x2="172.958" y2="124.417"/>
		<path style="fill:#27131D;stroke:#27131D;stroke-width:0.5678;stroke-miterlimit:10;" d="M48.953,118.709l-27.625,8.653
			c-1.979,0.62-4.106-0.492-4.726-2.471l0,0c-0.62-1.979,0.492-4.106,2.471-4.726l27.625-8.653c1.979-0.62,4.106,0.492,4.726,2.471
			l0,0C52.044,115.963,50.932,118.089,48.953,118.709z"/>
		<path style="fill:#27131D;stroke:#27131D;stroke-width:0.5678;stroke-miterlimit:10;" d="M156.144,91.149l-28.746,3.418
			c-2.06,0.245-3.945-1.24-4.19-3.299v0c-0.245-2.06,1.24-3.945,3.299-4.19l28.746-3.418c2.06-0.245,3.945,1.24,4.19,3.299v0
			C159.688,89.018,158.203,90.904,156.144,91.149z"/>
	</g>
</g>
<g id="Layer_17">
</g>
<g id="Layer_16">
</g>
<g id="Layer_15">
</g>
<g id="Layer_14">
</g>
<g id="Layer_13">
</g>
<g id="Layer_12">
</g>
<g id="Layer_11">
</g>
<g id="Layer_10">
</g>
<g id="Layer_9">
</g>
<g id="Layer_8">
</g>
<g id="Layer_7">
</g>
<g id="Layer_6">
</g>
<g id="Layer_5">
</g>
<g id="Layer_4">
</g>
<g id="Layer_3">
</g>
<g id="Layer_2">
</g>
</svg>
