<?xml version="1.0" encoding="iso-8859-1"?>
<!-- Generator: Adobe Illustrator 21.1.0, SVG Export Plug-In . SVG Version: 6.00 Build 0)  -->
<svg version="1.0" xmlns="http://www.w3.org/2000/svg" xmlns:xlink="http://www.w3.org/1999/xlink" x="0px" y="0px"
	 viewBox="0 0 243.725 212.068" style="enable-background:new 0 0 243.725 212.068;" xml:space="preserve">
<g id="Layer_97">
</g>
<g id="Layer_96">
</g>
<g id="Layer_95">
</g>
<g id="Layer_94">
</g>
<g id="Layer_93">
</g>
<g id="Layer_92">
</g>
<g id="Layer_91">
</g>
<g id="Layer_90">
</g>
<g id="Layer_89">
</g>
<g id="Layer_88">
</g>
<g id="Layer_87">
</g>
<g id="Layer_86">
</g>
<g id="Layer_85">
</g>
<g id="Layer_84">
</g>
<g id="Layer_83">
</g>
<g id="Layer_82">
</g>
<g id="Layer_81">
</g>
<g id="Layer_80">
</g>
<g id="Layer_79">
</g>
<g id="Layer_78">
</g>
<g id="Layer_77">
</g>
<g id="Layer_76">
</g>
<g id="Layer_75">
</g>
<g id="Layer_74">
</g>
<g id="Layer_73">
</g>
<g id="Layer_72">
</g>
<g id="Layer_71">
</g>
<g id="Layer_69">
</g>
<g id="Layer_68">
</g>
<g id="Layer_67">
</g>
<g id="Layer_66">
</g>
<g id="Layer_65">
</g>
<g id="Layer_64">
</g>
<g id="Layer_63">
</g>
<g id="Layer_62">
</g>
<g id="Layer_61">
</g>
<g id="Layer_60">
</g>
<g id="Layer_59">
</g>
<g id="Layer_58">
</g>
<g id="Layer_57">
</g>
<g id="Layer_56">
</g>
<g id="Layer_55">
</g>
<g id="Layer_54">
</g>
<g id="Layer_53">
</g>
<g id="Layer_52">
</g>
<g id="Layer_51">
</g>
<g id="Layer_50">
</g>
<g id="Layer_49">
</g>
<g id="Layer_48">
</g>
<g id="Layer_98">
</g>
<g id="Layer_47">
</g>
<g id="Layer_46">
</g>
<g id="Layer_45">
</g>
<g id="Layer_44">
</g>
<g id="Layer_43">
</g>
<g id="Layer_42">
</g>
<g id="Layer_41">
</g>
<g id="Layer_40">
</g>
<g id="Layer_39">
</g>
<g id="Layer_38">
</g>
<g id="Layer_37">
</g>
<g id="Layer_36">
</g>
<g id="Layer_35">
</g>
<g id="Layer_34">
</g>
<g id="Layer_33">
</g>
<g id="Layer_32">
</g>
<g id="Layer_31">
</g>
<g id="Layer_29">
</g>
<g id="Layer_28">
</g>
<g id="Layer_27">
</g>
<g id="Layer_99">
</g>
<g id="Layer_26">
	<g>
		<circle style="fill:#1A1A1A;" cx="37.735" cy="52.641" r="37.735"/>
		
			<ellipse transform="matrix(0.9151 -0.4033 0.4033 0.9151 -33.4093 101.4276)" style="fill:#FCDBBB;" cx="224.126" cy="130.041" rx="19.593" ry="19.593"/>
		<g>
			<defs>
				
					<ellipse id="XMLID_22_" transform="matrix(0.9743 -0.2252 0.2252 0.9743 -22.748 31.0486)" cx="124.729" cy="115.241" rx="96.805" ry="96.805"/>
			</defs>
			<use xlink:href="#XMLID_22_"  style="overflow:visible;fill:#FCDBBB;"/>
			<clipPath id="XMLID_7_">
				<use xlink:href="#XMLID_22_"  style="overflow:visible;"/>
			</clipPath>
			<path style="clip-path:url(#XMLID_7_);fill:#1A1A1A;" d="M5.91,104.388L86.847,4.97l90.715,8.328l57.33,50.122l-10.378,47.529
				l-43.848-24.025c-6.238-3.418-11.402-8.503-14.915-14.688l-2.383-4.195c-2.13-3.751-6.352-5.8-10.617-5.153L5.91,104.388z"/>
		</g>
		<path d="M84.02,173.678c3.259,14.099,17.33,22.886,31.428,19.628c14.099-3.259,22.886-17.33,19.628-31.428L84.02,173.678z"/>
		<ellipse transform="matrix(0.9743 -0.2252 0.2252 0.9743 -26.5779 36.9439)" cx="148.656" cy="134.977" rx="5.335" ry="5.335"/>
		<polyline style="fill:none;stroke:#000000;stroke-width:5;stroke-miterlimit:10;" points="94.828,107.248 97.161,152.917 
			114.411,148.93 		"/>
		<ellipse transform="matrix(0.9743 -0.2252 0.2252 0.9743 -32.5841 18.1482)" cx="63.261" cy="151.908" rx="5.335" ry="5.335"/>
		
			<ellipse transform="matrix(0.4862 -0.8739 0.8739 0.4862 -53.3525 232.1649)" style="fill:#F6B7A1;" cx="170.744" cy="161.451" rx="17.31" ry="17.31"/>
		<circle style="fill:#1A1A1A;" cx="204.528" cy="37.735" r="37.735"/>
		
			<ellipse transform="matrix(0.3347 -0.9423 0.9423 0.3347 10.7136 313.7027)" style="fill:#EEB001;" cx="227.522" cy="149.264" rx="5.966" ry="5.966"/>
		<path style="fill:#1A1A1A;stroke:#1A1A1A;stroke-width:0.5893;stroke-miterlimit:10;" d="M155.034,118.044l-18.016,2.142
			c-1.291,0.153-2.473-0.777-2.626-2.068v0c-0.153-1.291,0.777-2.473,2.068-2.626l18.016-2.142c1.291-0.153,2.473,0.777,2.626,2.068
			v0C157.256,116.709,156.325,117.89,155.034,118.044z"/>
		<path style="fill:#1A1A1A;stroke:#1A1A1A;stroke-width:0.5893;stroke-miterlimit:10;" d="M70.02,130.011l-18.016,2.142
			c-1.291,0.153-2.473-0.777-2.626-2.068l0,0c-0.153-1.291,0.777-2.473,2.068-2.626l18.016-2.142
			c1.291-0.153,2.473,0.777,2.626,2.068v0C72.241,128.676,71.311,129.858,70.02,130.011z"/>
		
			<ellipse transform="matrix(0.3347 -0.9423 0.9423 0.3347 -137.0283 141.6003)" style="fill:#EEB001;" cx="31.768" cy="167.844" rx="5.966" ry="5.966"/>
	</g>
</g>
<g id="Layer_25">
</g>
<g id="Layer_24">
</g>
<g id="Layer_23">
</g>
<g id="Layer_22">
</g>
<g id="Layer_21">
</g>
<g id="Layer_20">
</g>
<g id="Layer_19">
</g>
<g id="Layer_18">
</g>
<g id="Layer_17">
</g>
<g id="Layer_16">
</g>
<g id="Layer_15">
</g>
<g id="Layer_14">
</g>
<g id="Layer_13">
</g>
<g id="Layer_12">
</g>
<g id="Layer_11">
</g>
<g id="Layer_10">
</g>
<g id="Layer_9">
</g>
<g id="Layer_8">
</g>
<g id="Layer_7">
</g>
<g id="Layer_6">
</g>
<g id="Layer_5">
</g>
<g id="Layer_4">
</g>
<g id="Layer_3">
</g>
<g id="Layer_2">
</g>
</svg>
