<?xml version="1.0" encoding="iso-8859-1"?>
<!-- Generator: Adobe Illustrator 21.1.0, SVG Export Plug-In . SVG Version: 6.00 Build 0)  -->
<svg version="1.0" xmlns="http://www.w3.org/2000/svg" xmlns:xlink="http://www.w3.org/1999/xlink" x="0px" y="0px"
	 viewBox="0 0 655.108 313.509" style="enable-background:new 0 0 655.108 313.509;" xml:space="preserve">
<g id="Layer_97">
</g>
<g id="Layer_96">
</g>
<g id="Layer_95">
</g>
<g id="Layer_94">
</g>
<g id="Layer_93">
</g>
<g id="Layer_92">
</g>
<g id="Layer_91">
</g>
<g id="Layer_90">
</g>
<g id="Layer_89">
</g>
<g id="Layer_88">
</g>
<g id="Layer_87">
	<g>
		<path style="fill:#D6D6D6;" d="M62.284,277.543c-0.303-2.252,4.364-11.764,4.364-11.764l8.853,4.273L62.284,277.543z"/>
		<polygon style="fill:#D6D6D6;" points="104.556,263.703 16.684,313.509 11.992,298.058 96.718,249.875 		"/>
		<polyline style="fill:#FFFFFF;" points="48.557,274.621 49.371,284.638 41.517,280.109 		"/>
		<polyline style="fill:#FFFFFF;" points="43.07,277.635 43.899,287.835 35.901,283.223 		"/>
		<polyline style="fill:#FFFFFF;" points="37.03,281.059 37.859,291.259 29.861,286.647 		"/>
		<polyline style="fill:#FFFFFF;" points="30.791,284.595 31.62,294.795 23.622,290.183 		"/>
		<polyline style="fill:#FFFFFF;" points="24.75,288.019 25.579,298.219 17.581,293.607 		"/>
		<polyline style="fill:#FFFFFF;" points="18.611,291.499 19.439,301.699 11.441,297.087 		"/>
		<polygon style="fill:#C6C5C5;" points="83.985,236.47 0,284.074 7.767,297.776 91.823,250.298 		"/>
		
			<rect x="85.385" y="248.945" transform="matrix(0.87 -0.4931 0.4931 0.87 -113.7261 78.0312)" style="fill:#C6C5C5;" width="11.416" height="11.416"/>
		<path style="fill:#C6C5C5;" d="M91.209,240.421c5.419,9.561,2.062,21.706-7.5,27.125c-9.561,5.419-21.706,2.062-27.125-7.5"/>
		<polyline style="fill:#FFFFFF;" points="45.851,278.907 37.675,273.064 37.527,282.128 		"/>
		<polyline style="fill:#FFFFFF;" points="40.447,282.067 32.121,276.115 31.97,285.347 		"/>
		<polyline style="fill:#FFFFFF;" points="34.406,285.491 26.08,279.539 25.929,288.771 		"/>
		<polyline style="fill:#FFFFFF;" points="28.168,289.027 19.842,283.076 19.69,292.307 		"/>
		<polyline style="fill:#FFFFFF;" points="22.127,292.451 13.801,286.499 13.65,295.731 		"/>
		<polyline style="fill:#FFFFFF;" points="15.987,295.931 7.661,289.98 7.51,299.211 		"/>
		<path style="fill:#D6D6D6;" d="M600.826,50.084c-1.777-1.417-12.335-2.299-12.335-2.299l-0.882,9.79L600.826,50.084z"/>
		<polygon style="fill:#D6D6D6;" points="567.236,79.242 655.108,29.435 644.262,17.473 559.398,65.414 		"/>
		<polyline style="fill:#FFFFFF;" points="605.371,36.805 613.546,42.648 613.695,33.584 		"/>
		<polyline style="fill:#FFFFFF;" points="610.774,33.646 619.1,39.597 619.252,30.365 		"/>
		<polyline style="fill:#FFFFFF;" points="616.815,30.222 625.141,36.173 625.292,26.941 		"/>
		<polyline style="fill:#FFFFFF;" points="623.054,26.685 631.38,32.637 631.531,23.405 		"/>
		<polyline style="fill:#FFFFFF;" points="629.094,23.262 637.421,29.213 637.572,19.981 		"/>
		<polygon style="fill:#C6C5C5;" points="554.439,47.604 638.424,0 646.191,13.703 562.277,61.432 		"/>
		<path style="fill:#E74626;" d="M164.518,228.276L106.92,266.13c-3.453,2.269-8.104,1.146-10.142-2.448l-13.9-24.523
			c-2.094-3.694-0.524-8.387,3.371-10.079l63.44-27.548c3.352-1.455,7.261-0.148,9.063,3.031l8.058,14.217
			C168.667,222.055,167.664,226.208,164.518,228.276z"/>
		<path style="fill:#E74626;" d="M183.715,210.356l-19.337,10.96l-9.409-16.6l19.337-10.96c2.017-1.143,4.579-0.435,5.722,1.582
			l5.269,9.296C186.44,206.651,185.731,209.212,183.715,210.356z"/>
		
			<ellipse transform="matrix(0.87 -0.4931 0.4931 0.87 -117.2643 72.008)" style="fill:#1D1E1C;" cx="77.903" cy="258.35" rx="3.75" ry="3.75"/>
		
			<rect x="560.68" y="57.334" transform="matrix(-0.87 0.4931 -0.4931 -0.87 1090.2144 -161.4026)" style="fill:#C6C5C5;" width="11.416" height="11.416"/>
		<path style="fill:#C6C5C5;" d="M554.117,55.831c5.419,9.561,17.564,12.919,27.125,7.5s12.919-17.564,7.5-27.125"/>
		<path style="fill:#E74626;" d="M504.397,113.647l62.066-29.973c3.72-1.797,5.146-6.364,3.109-9.959l-13.9-24.523
			c-2.094-3.694-6.927-4.758-10.378-2.285L489.07,87.187c-2.97,2.128-3.857,6.154-2.055,9.333l8.058,14.217
			C496.929,114.011,501.007,115.284,504.397,113.647z"/>
		<path style="fill:#E74626;" d="M479.161,120.912l19.337-10.96l-9.409-16.6l-19.337,10.96c-2.017,1.143-2.725,3.705-1.582,5.722
			l5.269,9.296C474.582,121.347,477.144,122.055,479.161,120.912z"/>
		<g>
			<path style="fill:#E74626;" d="M475.045,118.045L324.209,203.54c-10.441,5.918-23.75,2.237-29.668-8.204
				c-5.918-10.441-2.239-23.749,8.202-29.667l64.579-36.604c4.641-2.63,6.276-8.544,3.645-13.184l-1.364-2.406
				c-2.607-4.599-8.49-6.254-13.111-3.687l-171.146,95.044l-5.869-10.573l171.146-95.044c10.4-5.774,23.634-2.053,29.5,8.297
				l1.364,2.406c5.918,10.441,2.239,23.749-8.202,29.667l-64.579,36.604c-4.641,2.63-6.276,8.544-3.645,13.184
				s8.545,6.277,13.185,3.647l150.836-85.495L475.045,118.045z"/>
		</g>
		<path style="fill:none;stroke:#000000;stroke-width:1.3105;stroke-linecap:round;stroke-miterlimit:10;" d="M567.32,51.296
			l10.988-4.809c0.398-0.174,0.8,0.234,0.621,0.629l-4.066,8.992"/>
		<polyline style="fill:#FFFFFF;" points="610.438,36.685 609.624,26.669 617.477,31.198 		"/>
		<polyline style="fill:#FFFFFF;" points="615.924,33.672 615.096,23.471 623.094,28.083 		"/>
		<polyline style="fill:#FFFFFF;" points="621.965,30.248 621.136,20.047 629.134,24.659 		"/>
	</g>
</g>
<g id="Layer_86">
</g>
<g id="Layer_85">
</g>
<g id="Layer_84">
</g>
<g id="Layer_83">
</g>
<g id="Layer_82">
</g>
<g id="Layer_81">
</g>
<g id="Layer_80">
</g>
<g id="Layer_79">
</g>
<g id="Layer_78">
</g>
<g id="Layer_77">
</g>
<g id="Layer_76">
</g>
<g id="Layer_75">
</g>
<g id="Layer_74">
</g>
<g id="Layer_73">
</g>
<g id="Layer_72">
</g>
<g id="Layer_71">
</g>
<g id="Layer_69">
</g>
<g id="Layer_68">
</g>
<g id="Layer_67">
</g>
<g id="Layer_66">
</g>
<g id="Layer_65">
</g>
<g id="Layer_64">
</g>
<g id="Layer_63">
</g>
<g id="Layer_62">
</g>
<g id="Layer_61">
</g>
<g id="Layer_60">
</g>
<g id="Layer_59">
</g>
<g id="Layer_58">
</g>
<g id="Layer_57">
</g>
<g id="Layer_56">
</g>
<g id="Layer_55">
</g>
<g id="Layer_54">
</g>
<g id="Layer_53">
</g>
<g id="Layer_52">
</g>
<g id="Layer_51">
</g>
<g id="Layer_50">
</g>
<g id="Layer_49">
</g>
<g id="Layer_48">
</g>
<g id="Layer_98">
</g>
<g id="Layer_47">
</g>
<g id="Layer_46">
</g>
<g id="Layer_45">
</g>
<g id="Layer_44">
</g>
<g id="Layer_43">
</g>
<g id="Layer_42">
</g>
<g id="Layer_41">
</g>
<g id="Layer_40">
</g>
<g id="Layer_39">
</g>
<g id="Layer_38">
</g>
<g id="Layer_37">
</g>
<g id="Layer_36">
</g>
<g id="Layer_35">
</g>
<g id="Layer_34">
</g>
<g id="Layer_33">
</g>
<g id="Layer_32">
</g>
<g id="Layer_31">
</g>
<g id="Layer_29">
</g>
<g id="Layer_28">
</g>
<g id="Layer_27">
</g>
<g id="Layer_99">
</g>
<g id="Layer_26">
</g>
<g id="Layer_25">
</g>
<g id="Layer_24">
</g>
<g id="Layer_23">
</g>
<g id="Layer_22">
</g>
<g id="Layer_21">
</g>
<g id="Layer_20">
</g>
<g id="Layer_19">
</g>
<g id="Layer_18">
</g>
<g id="Layer_17">
</g>
<g id="Layer_16">
</g>
<g id="Layer_15">
</g>
<g id="Layer_14">
</g>
<g id="Layer_13">
</g>
<g id="Layer_12">
</g>
<g id="Layer_11">
</g>
<g id="Layer_10">
</g>
<g id="Layer_9">
</g>
<g id="Layer_8">
</g>
<g id="Layer_7">
</g>
<g id="Layer_6">
</g>
<g id="Layer_5">
</g>
<g id="Layer_4">
</g>
<g id="Layer_3">
</g>
<g id="Layer_2">
</g>
</svg>
