<?xml version="1.0" encoding="iso-8859-1"?>
<!-- Generator: Adobe Illustrator 21.1.0, SVG Export Plug-In . SVG Version: 6.00 Build 0)  -->
<svg version="1.0" xmlns="http://www.w3.org/2000/svg" xmlns:xlink="http://www.w3.org/1999/xlink" x="0px" y="0px"
	 viewBox="0 0 249.618 116.133" style="enable-background:new 0 0 249.618 116.133;" xml:space="preserve">
<g id="Layer_97">
</g>
<g id="Layer_96">
</g>
<g id="Layer_95">
</g>
<g id="Layer_94">
</g>
<g id="Layer_93">
</g>
<g id="Layer_92">
</g>
<g id="Layer_91">
</g>
<g id="Layer_90">
</g>
<g id="Layer_89">
</g>
<g id="Layer_88">
</g>
<g id="Layer_87">
</g>
<g id="Layer_86">
</g>
<g id="Layer_85">
</g>
<g id="Layer_84">
</g>
<g id="Layer_83">
</g>
<g id="Layer_82">
</g>
<g id="Layer_81">
</g>
<g id="Layer_80">
</g>
<g id="Layer_79">
</g>
<g id="Layer_78">
</g>
<g id="Layer_77">
</g>
<g id="Layer_76">
</g>
<g id="Layer_75">
</g>
<g id="Layer_74">
</g>
<g id="Layer_73">
</g>
<g id="Layer_72">
</g>
<g id="Layer_71">
</g>
<g id="Layer_69">
</g>
<g id="Layer_68">
</g>
<g id="Layer_67">
</g>
<g id="Layer_66">
	<g>
		<path style="fill:#5AAEE1;" d="M249.618,96.091H0V8.59C0,3.846,3.846,0,8.59,0h232.437c4.744,0,8.59,3.846,8.59,8.59V96.091z"/>
		<rect y="76.439" style="fill:#1D1E1C;" width="249.618" height="19.652"/>
		<path style="fill:#1D1E1C;" d="M50.965,61.283H23.39c-1.37,0-2.48-1.11-2.48-2.48V19.591c0-1.37,1.11-2.48,2.48-2.48h27.574
			c1.37,0,2.48,1.11,2.48,2.48v39.212C53.445,60.173,52.334,61.283,50.965,61.283z"/>
		<path style="fill:#1D1E1C;" d="M93.873,61.283H66.299c-1.37,0-2.48-1.11-2.48-2.48V19.591c0-1.37,1.11-2.48,2.48-2.48h27.574
			c1.37,0,2.48,1.11,2.48,2.48v39.212C96.353,60.173,95.243,61.283,93.873,61.283z"/>
		<path style="fill:#1D1E1C;" d="M182.929,61.283h-27.574c-1.37,0-2.48-1.11-2.48-2.48V19.591c0-1.37,1.11-2.48,2.48-2.48h27.574
			c1.37,0,2.48,1.11,2.48,2.48v39.212C185.409,60.173,184.299,61.283,182.929,61.283z"/>
		<path style="fill:#1D1E1C;" d="M225.837,61.283h-27.574c-1.37,0-2.48-1.11-2.48-2.48V19.591c0-1.37,1.11-2.48,2.48-2.48h27.574
			c1.37,0,2.48,1.11,2.48,2.48v39.212C228.318,60.173,227.207,61.283,225.837,61.283z"/>
		
			<line style="fill:#1D1E1C;stroke:#1D1E1C;stroke-width:6;stroke-linecap:round;stroke-miterlimit:10;" x1="3.031" y1="91.925" x2="3.031" y2="113.133"/>
		
			<line style="fill:#1D1E1C;stroke:#1D1E1C;stroke-width:6;stroke-linecap:round;stroke-miterlimit:10;" x1="16.347" y1="91.925" x2="16.347" y2="113.133"/>
		
			<line style="fill:#1D1E1C;stroke:#1D1E1C;stroke-width:6;stroke-linecap:round;stroke-miterlimit:10;" x1="29.664" y1="91.925" x2="29.664" y2="113.133"/>
		
			<line style="fill:#1D1E1C;stroke:#1D1E1C;stroke-width:6;stroke-linecap:round;stroke-miterlimit:10;" x1="42.98" y1="91.925" x2="42.98" y2="113.133"/>
		
			<line style="fill:#1D1E1C;stroke:#1D1E1C;stroke-width:6;stroke-linecap:round;stroke-miterlimit:10;" x1="190.94" y1="91.925" x2="190.94" y2="113.133"/>
		
			<line style="fill:#1D1E1C;stroke:#1D1E1C;stroke-width:6;stroke-linecap:round;stroke-miterlimit:10;" x1="177.623" y1="91.925" x2="177.623" y2="113.133"/>
		
			<line style="fill:#1D1E1C;stroke:#1D1E1C;stroke-width:6;stroke-linecap:round;stroke-miterlimit:10;" x1="204.256" y1="91.925" x2="204.256" y2="113.133"/>
		
			<line style="fill:#1D1E1C;stroke:#1D1E1C;stroke-width:6;stroke-linecap:round;stroke-miterlimit:10;" x1="217.573" y1="91.925" x2="217.573" y2="113.133"/>
		
			<line style="fill:#1D1E1C;stroke:#1D1E1C;stroke-width:6;stroke-linecap:round;stroke-miterlimit:10;" x1="230.889" y1="91.925" x2="230.889" y2="113.133"/>
		
			<line style="fill:#1D1E1C;stroke:#1D1E1C;stroke-width:6;stroke-linecap:round;stroke-miterlimit:10;" x1="56.296" y1="91.925" x2="56.296" y2="113.133"/>
		
			<line style="fill:#1D1E1C;stroke:#1D1E1C;stroke-width:6;stroke-linecap:round;stroke-miterlimit:10;" x1="69.613" y1="91.925" x2="69.613" y2="113.133"/>
		
			<line style="fill:#1D1E1C;stroke:#1D1E1C;stroke-width:6;stroke-linecap:round;stroke-miterlimit:10;" x1="84.409" y1="91.925" x2="84.409" y2="113.133"/>
		
			<line style="fill:#1D1E1C;stroke:#1D1E1C;stroke-width:6;stroke-linecap:round;stroke-miterlimit:10;" x1="97.725" y1="91.925" x2="97.725" y2="113.133"/>
		
			<line style="fill:#1D1E1C;stroke:#1D1E1C;stroke-width:6;stroke-linecap:round;stroke-miterlimit:10;" x1="111.041" y1="91.925" x2="111.041" y2="113.133"/>
	</g>
</g>
<g id="Layer_65">
</g>
<g id="Layer_64">
</g>
<g id="Layer_63">
</g>
<g id="Layer_62">
</g>
<g id="Layer_61">
</g>
<g id="Layer_60">
</g>
<g id="Layer_59">
</g>
<g id="Layer_58">
</g>
<g id="Layer_57">
</g>
<g id="Layer_56">
</g>
<g id="Layer_55">
</g>
<g id="Layer_54">
</g>
<g id="Layer_53">
</g>
<g id="Layer_52">
</g>
<g id="Layer_51">
</g>
<g id="Layer_50">
</g>
<g id="Layer_49">
</g>
<g id="Layer_48">
</g>
<g id="Layer_98">
</g>
<g id="Layer_47">
</g>
<g id="Layer_46">
</g>
<g id="Layer_45">
</g>
<g id="Layer_44">
</g>
<g id="Layer_43">
</g>
<g id="Layer_42">
</g>
<g id="Layer_41">
</g>
<g id="Layer_40">
</g>
<g id="Layer_39">
</g>
<g id="Layer_38">
</g>
<g id="Layer_37">
</g>
<g id="Layer_36">
</g>
<g id="Layer_35">
</g>
<g id="Layer_34">
</g>
<g id="Layer_33">
</g>
<g id="Layer_32">
</g>
<g id="Layer_31">
</g>
<g id="Layer_29">
</g>
<g id="Layer_28">
</g>
<g id="Layer_27">
</g>
<g id="Layer_99">
</g>
<g id="Layer_26">
</g>
<g id="Layer_25">
</g>
<g id="Layer_24">
</g>
<g id="Layer_23">
</g>
<g id="Layer_22">
</g>
<g id="Layer_21">
</g>
<g id="Layer_20">
</g>
<g id="Layer_19">
</g>
<g id="Layer_18">
</g>
<g id="Layer_17">
</g>
<g id="Layer_16">
</g>
<g id="Layer_15">
</g>
<g id="Layer_14">
</g>
<g id="Layer_13">
</g>
<g id="Layer_12">
</g>
<g id="Layer_11">
</g>
<g id="Layer_10">
</g>
<g id="Layer_9">
</g>
<g id="Layer_8">
</g>
<g id="Layer_7">
</g>
<g id="Layer_6">
</g>
<g id="Layer_5">
</g>
<g id="Layer_4">
</g>
<g id="Layer_3">
</g>
<g id="Layer_2">
</g>
</svg>
