<?xml version="1.0" encoding="iso-8859-1"?>
<!-- Generator: Adobe Illustrator 21.1.0, SVG Export Plug-In . SVG Version: 6.00 Build 0)  -->
<svg version="1.0" xmlns="http://www.w3.org/2000/svg" xmlns:xlink="http://www.w3.org/1999/xlink" x="0px" y="0px"
	 viewBox="0 0 162.128 261.262" style="enable-background:new 0 0 162.128 261.262;" xml:space="preserve">
<g id="Layer_97">
</g>
<g id="Layer_96">
</g>
<g id="Layer_95">
</g>
<g id="Layer_94">
</g>
<g id="Layer_93">
</g>
<g id="Layer_92">
</g>
<g id="Layer_91">
</g>
<g id="Layer_90">
</g>
<g id="Layer_89">
</g>
<g id="Layer_88">
</g>
<g id="Layer_87">
</g>
<g id="Layer_86">
</g>
<g id="Layer_85">
</g>
<g id="Layer_84">
</g>
<g id="Layer_83">
</g>
<g id="Layer_82">
</g>
<g id="Layer_81">
</g>
<g id="Layer_80">
</g>
<g id="Layer_79">
</g>
<g id="Layer_78">
</g>
<g id="Layer_77">
</g>
<g id="Layer_76">
</g>
<g id="Layer_75">
</g>
<g id="Layer_74">
</g>
<g id="Layer_73">
</g>
<g id="Layer_72">
</g>
<g id="Layer_71">
</g>
<g id="Layer_69">
</g>
<g id="Layer_68">
</g>
<g id="Layer_67">
</g>
<g id="Layer_66">
</g>
<g id="Layer_65">
</g>
<g id="Layer_64">
</g>
<g id="Layer_63">
</g>
<g id="Layer_62">
</g>
<g id="Layer_61">
</g>
<g id="Layer_60">
</g>
<g id="Layer_59">
</g>
<g id="Layer_58">
</g>
<g id="Layer_57">
</g>
<g id="Layer_56">
</g>
<g id="Layer_55">
</g>
<g id="Layer_54">
</g>
<g id="Layer_53">
</g>
<g id="Layer_52">
</g>
<g id="Layer_51">
</g>
<g id="Layer_50">
</g>
<g id="Layer_49">
</g>
<g id="Layer_48">
</g>
<g id="Layer_98">
</g>
<g id="Layer_47">
</g>
<g id="Layer_46">
</g>
<g id="Layer_45">
</g>
<g id="Layer_44">
</g>
<g id="Layer_43">
</g>
<g id="Layer_42">
</g>
<g id="Layer_41">
</g>
<g id="Layer_40">
</g>
<g id="Layer_39">
</g>
<g id="Layer_38">
</g>
<g id="Layer_37">
</g>
<g id="Layer_36">
</g>
<g id="Layer_35">
</g>
<g id="Layer_34">
</g>
<g id="Layer_33">
</g>
<g id="Layer_32">
</g>
<g id="Layer_31">
</g>
<g id="Layer_29">
</g>
<g id="Layer_28">
</g>
<g id="Layer_27">
</g>
<g id="Layer_99">
</g>
<g id="Layer_26">
</g>
<g id="Layer_25">
</g>
<g id="Layer_24">
</g>
<g id="Layer_23">
</g>
<g id="Layer_22">
</g>
<g id="Layer_21">
</g>
<g id="Layer_20">
</g>
<g id="Layer_19">
</g>
<g id="Layer_18">
</g>
<g id="Layer_17">
</g>
<g id="Layer_16">
</g>
<g id="Layer_15">
</g>
<g id="Layer_14">
</g>
<g id="Layer_13">
</g>
<g id="Layer_12">
</g>
<g id="Layer_11">
</g>
<g id="Layer_10">
	<g>
		<path style="fill:#C6C6C5;" d="M65.959,21.478H27.098V7.421C27.098,3.323,30.42,0,34.519,0h24.018
			c4.099,0,7.421,3.323,7.421,7.421V21.478z"/>
		<path style="fill:#C6C6C5;" d="M137.708,21.478H98.847V7.421c0-4.099,3.323-7.421,7.421-7.421h24.018
			c4.099,0,7.421,3.323,7.421,7.421V21.478z"/>
		<path style="fill:#1D1E1C;" d="M128.931,261.262H33.196C14.938,261.262,0,246.323,0,228.065V51.275
			c0-18.258,14.938-33.196,33.196-33.196h95.735c18.258,0,33.196,14.938,33.196,33.196v176.79
			C162.128,246.323,147.189,261.262,128.931,261.262z"/>
		<path style="fill:#F5A12D;" d="M162.128,119.295H0V37.917c0-11.881,9.721-21.602,21.602-21.602h118.923
			c11.881,0,21.602,9.721,21.602,21.602V119.295z"/>
		
			<line style="fill:#E84780;stroke:#1D1E1C;stroke-width:7;stroke-linecap:round;stroke-miterlimit:10;" x1="45.114" y1="40.312" x2="45.114" y2="67.805"/>
		
			<line style="fill:#E84780;stroke:#1D1E1C;stroke-width:7;stroke-linecap:round;stroke-miterlimit:10;" x1="31.367" y1="54.059" x2="58.86" y2="54.059"/>
		
			<line style="fill:#E84780;stroke:#1D1E1C;stroke-width:7;stroke-linecap:round;stroke-miterlimit:10;" x1="103.117" y1="54.059" x2="130.609" y2="54.059"/>
	</g>
</g>
<g id="Layer_9">
</g>
<g id="Layer_8">
</g>
<g id="Layer_7">
</g>
<g id="Layer_6">
</g>
<g id="Layer_5">
</g>
<g id="Layer_4">
</g>
<g id="Layer_3">
</g>
<g id="Layer_2">
</g>
</svg>
