<?xml version="1.0" encoding="iso-8859-1"?>
<!-- Generator: Adobe Illustrator 21.1.0, SVG Export Plug-In . SVG Version: 6.00 Build 0)  -->
<svg version="1.0" xmlns="http://www.w3.org/2000/svg" xmlns:xlink="http://www.w3.org/1999/xlink" x="0px" y="0px"
	 viewBox="0 0 400.108 168.483" style="enable-background:new 0 0 400.108 168.483;" xml:space="preserve">
<g id="Layer_97">
</g>
<g id="Layer_96">
</g>
<g id="Layer_95">
</g>
<g id="Layer_94">
</g>
<g id="Layer_93">
</g>
<g id="Layer_92">
</g>
<g id="Layer_91">
</g>
<g id="Layer_90">
</g>
<g id="Layer_89">
</g>
<g id="Layer_88">
</g>
<g id="Layer_87">
</g>
<g id="Layer_86">
</g>
<g id="Layer_85">
</g>
<g id="Layer_84">
</g>
<g id="Layer_83">
</g>
<g id="Layer_82">
</g>
<g id="Layer_81">
</g>
<g id="Layer_80">
</g>
<g id="Layer_79">
</g>
<g id="Layer_78">
</g>
<g id="Layer_77">
</g>
<g id="Layer_76">
</g>
<g id="Layer_75">
</g>
<g id="Layer_74">
</g>
<g id="Layer_73">
</g>
<g id="Layer_72">
</g>
<g id="Layer_71">
</g>
<g id="Layer_69">
</g>
<g id="Layer_68">
</g>
<g id="Layer_67">
</g>
<g id="Layer_66">
</g>
<g id="Layer_65">
</g>
<g id="Layer_64">
</g>
<g id="Layer_63">
</g>
<g id="Layer_62">
</g>
<g id="Layer_61">
</g>
<g id="Layer_60">
</g>
<g id="Layer_59">
</g>
<g id="Layer_58">
</g>
<g id="Layer_57">
</g>
<g id="Layer_56">
</g>
<g id="Layer_55">
</g>
<g id="Layer_54">
</g>
<g id="Layer_53">
</g>
<g id="Layer_52">
</g>
<g id="Layer_51">
</g>
<g id="Layer_50">
</g>
<g id="Layer_49">
</g>
<g id="Layer_48">
</g>
<g id="Layer_98">
</g>
<g id="Layer_47">
</g>
<g id="Layer_46">
</g>
<g id="Layer_45">
</g>
<g id="Layer_44">
</g>
<g id="Layer_43">
</g>
<g id="Layer_42">
</g>
<g id="Layer_41">
</g>
<g id="Layer_40">
</g>
<g id="Layer_39">
</g>
<g id="Layer_38">
</g>
<g id="Layer_37">
</g>
<g id="Layer_36">
</g>
<g id="Layer_35">
</g>
<g id="Layer_34">
</g>
<g id="Layer_33">
</g>
<g id="Layer_32">
</g>
<g id="Layer_31">
</g>
<g id="Layer_29">
</g>
<g id="Layer_28">
</g>
<g id="Layer_27">
</g>
<g id="Layer_99">
</g>
<g id="Layer_26">
</g>
<g id="Layer_25">
</g>
<g id="Layer_24">
</g>
<g id="Layer_23">
</g>
<g id="Layer_22">
</g>
<g id="Layer_21">
</g>
<g id="Layer_20">
</g>
<g id="Layer_19">
</g>
<g id="Layer_18">
</g>
<g id="Layer_17">
</g>
<g id="Layer_16">
</g>
<g id="Layer_15">
</g>
<g id="Layer_14">
</g>
<g id="Layer_13">
</g>
<g id="Layer_12">
</g>
<g id="Layer_11">
</g>
<g id="Layer_10">
</g>
<g id="Layer_9">
</g>
<g id="Layer_8">
</g>
<g id="Layer_7">
</g>
<g id="Layer_6">
</g>
<g id="Layer_5">
</g>
<g id="Layer_4">
</g>
<g id="Layer_3">
	<g>
		<path style="fill:#4BAB33;" d="M368.053,160.079l-338.888,0.024c-16.102,0.001-29.157-13.051-29.158-29.154L0,29.182
			C-0.001,13.08,13.051,0.025,29.154,0.024L368.041,0c16.102-0.001,29.157,13.051,29.158,29.154l0.007,101.768
			C397.207,147.024,384.155,160.078,368.053,160.079z M24.644,13.105c-4.826,0-8.738,3.913-8.737,8.738
			c0,4.826,3.913,8.738,8.738,8.737c4.826,0,8.738-3.913,8.737-8.738C33.382,17.017,29.47,13.105,24.644,13.105z M27.741,128.226
			c-4.826,0-8.738,3.913-8.737,8.738s3.913,8.738,8.738,8.737c4.826,0,8.738-3.913,8.737-8.738
			C36.479,132.137,32.567,128.225,27.741,128.226z M372.033,13.092c-4.826,0-8.738,3.912-8.738,8.738s3.912,8.738,8.738,8.738
			c4.826,0,8.738-3.912,8.738-8.738S376.859,13.092,372.033,13.092z M372.033,128.213c-4.826,0-8.738,3.912-8.738,8.738
			s3.912,8.738,8.738,8.738c4.826,0,8.738-3.912,8.738-8.738S376.859,128.213,372.033,128.213z"/>
		<path style="fill:#1D1E1C;" d="M191.058,122.263h-38.983c-8.538,0-15.46-6.922-15.46-15.46V67.819
			c0-8.538,6.922-15.46,15.46-15.46h38.983c8.538,0,15.46,6.922,15.46,15.46v38.983
			C206.518,115.341,199.596,122.263,191.058,122.263z"/>
		<path style="fill:#D5D5D5;" d="M107.71,167.106H69.294c-5.069,0-9.217-4.148-9.217-9.217v-27.673c0-5.069,4.148-9.217,9.217-9.217
			h38.416c5.069,0,9.217,4.148,9.217,9.217v27.673C116.926,162.959,112.779,167.106,107.71,167.106z"/>
		<path style="fill:#C6C5C5;" d="M70.391,108.541H27.303c-6.268,0-11.396-5.128-11.396-11.396V59.114
			c0-6.268,5.128-11.396,11.396-11.396h43.088c6.268,0,11.396,5.128,11.396,11.396v38.032
			C81.787,103.413,76.659,108.541,70.391,108.541z"/>
		<path style="fill:#F5A12D;" d="M342.559,18.904v5.952c0,5.067-4.146,9.213-9.213,9.213H61.927c-5.067,0-9.213-4.146-9.213-9.213
			v-5.952c0-5.067,4.146-9.213,9.213-9.213l271.419,0C338.413,9.69,342.559,13.836,342.559,18.904z"/>
		<path style="fill:#D5D5D5;" d="M329.962,167.737h-35.39c-4.152,0-7.549-3.397-7.549-7.549v-19.731
			c0-4.152,3.397-7.549,7.549-7.549h35.39c4.152,0,7.549,3.397,7.549,7.549v19.731C337.511,164.339,334.114,167.737,329.962,167.737
			z"/>
		<path style="fill:#D5D5D5;" d="M260.988,168.483h-35.39c-4.152,0-7.549-3.397-7.549-7.549v-19.731
			c0-4.152,3.397-7.549,7.549-7.549h35.39c4.152,0,7.549,3.397,7.549,7.549v19.731C268.538,165.085,265.14,168.483,260.988,168.483z
			"/>
		<path style="fill:#D5D5D5;" d="M397.201,114.523h-15.868c-4.033,0-7.333-3.3-7.333-7.333V50.347c0-4.033,3.3-7.333,7.333-7.333
			h15.868V114.523z"/>
		<path style="fill:#1D1E1C;" d="M397.756,114.523h-7.175V43.014h7.175c1.299,0,2.352,1.053,2.352,2.352v66.805
			C400.108,113.47,399.055,114.523,397.756,114.523z"/>
		<path style="fill:#1D1E1C;" d="M391.673,53.749l-2.959-1.627c-0.624-0.343-1.011-0.998-1.011-1.71v-7.398h3.97V53.749z"/>
		<path style="fill:#1D1E1C;" d="M391.673,103.788l-2.959,1.627c-0.624,0.343-1.011,0.998-1.011,1.71v7.398h3.97V103.788z"/>
		<path style="fill:#1D1E1C;" d="M326.822,103.422h-18.064c-3.956,0-7.164-3.207-7.164-7.164V78.195
			c0-3.956,3.207-7.164,7.164-7.164h18.064c3.956,0,7.164,3.207,7.164,7.164v18.064
			C333.986,100.215,330.778,103.422,326.822,103.422z"/>
		<path style="fill:#FFFFFF;" d="M250.027,46.001c0.485-0.015,0.897,0.275,1.345,0.415c1.094-0.352,1.343,0.13,1.88,0.326
			c1.192-0.248,1.554,0.292,2.126,0.862l0.665-0.013c1.797,1.043,2.688,3.168,3.005,4.26c0.317-1.092,1.21-3.217,3.007-4.26
			l0.665,0.013c0.571-0.57,0.934-1.11,2.125-0.862c0.537-0.196,0.787-0.678,1.88-0.326c0.682-0.213,1.279-0.775,2.182-0.073
			c0.76-0.289,1.497-0.389,2.156,0.199c1.018-0.13,1.348,0.138,1.599,0.451c0.224-0.005,1.672-0.226,2.336,0.75
			c1.67-0.195,2.197,0.967,1.6,2.05c0.34,0.52,0.694,1.033-0.103,2.024c0.282,0.552,0.107,1.151-0.557,1.875
			c0.175,0.776-0.169,1.323-0.787,1.75c0.116,1.062-0.988,1.679-1.318,1.899c-0.126,0.619-0.39,1.202-1.652,1.525
			c-0.208,0.922-0.966,1.081-1.7,1.275c2.426,1.389,4.506,3.217,4.492,7.7l0.356,0.624c2.782,1.666,5.284,7.022,1.371,11.375
			c-0.256,1.363-0.684,2.341-1.066,3.424c-0.571,4.365-4.297,6.408-5.28,6.65c-1.44,1.08-2.974,2.106-5.049,2.824
			c-1.956,1.988-4.076,2.745-6.207,2.744c-0.031,0-0.063,0-0.094,0c-2.131,0.001-4.251-0.756-6.208-2.744
			c-2.076-0.718-3.609-1.743-5.049-2.824c-0.983-0.242-4.709-2.286-5.28-6.65c-0.382-1.083-0.81-2.062-1.066-3.424
			c-3.913-4.353-1.411-9.708,1.371-11.374l0.356-0.624c-0.014-4.484,2.066-6.311,4.492-7.7c-0.734-0.193-1.492-0.353-1.7-1.275
			c-1.261-0.323-1.525-0.907-1.652-1.525c-0.33-0.22-1.434-0.837-1.318-1.899c-0.618-0.427-0.963-0.974-0.787-1.75
			c-0.664-0.725-0.839-1.323-0.557-1.875c-0.797-0.991-0.444-1.505-0.103-2.024c-0.598-1.083-0.07-2.245,1.599-2.05
			c0.664-0.976,2.113-0.754,2.336-0.75c0.251-0.313,0.581-0.582,1.599-0.451c0.659-0.588,1.396-0.487,2.156-0.199
			C249.5,46.101,249.774,46.009,250.027,46.001L250.027,46.001z M246.483,50.592c3.71,1.242,7.058,2.897,9.862,5.174
			c3.294-1.534,1.023-5.402-0.584-6.937c-0.081,0.405-0.174,0.662-0.279,0.737c-0.523-0.561-0.951-1.135-1.624-1.675
			c-0.002,0.317,0.16,0.661-0.241,0.913c-0.361-0.486-0.849-0.919-1.497-1.287c0.312,0.538,0.054,0.702-0.114,0.925
			c-0.495-0.424-0.965-0.854-1.878-1.187c0.25,0.304,0.598,0.601,0.228,0.95c-0.51-0.318-1.023-0.636-2.233-0.862
			c0.273,0.304,0.837,0.608,0.495,0.913c-0.64-0.244-1.348-0.422-2.132-0.525c0.375,0.309,0.688,0.611,0.381,0.85
			c-0.685-0.211-1.629-0.495-2.551-0.25l0.584,0.587c0.065,0.079-1.366,0.061-2.31,0.075c0.345,0.479,0.696,0.941,0.901,1.762
			c-0.094,0.095-0.561,0.042-1.003,0c0.452,0.952,1.238,1.192,1.421,1.6c-0.276,0.209-0.66,0.155-1.079,0.012
			c0.326,0.671,1.009,1.131,1.548,1.675c-0.137,0.097-0.375,0.155-0.939,0.088c0.499,0.53,1.101,1.014,1.815,1.45
			c-0.126,0.146-0.561,0.14-0.964,0.15c0.647,0.633,1.479,0.961,2.259,1.375c-0.389,0.266-0.667,0.204-0.964,0.2
			c0.552,0.453,1.49,0.689,2.36,0.962c-0.165,0.257-0.331,0.328-0.685,0.4c0.922,0.51,2.242,0.277,2.614,0.537
			c-0.09,0.256-0.343,0.423-0.647,0.562c1.484,0.086,5.542-0.054,6.32-3.125C254.026,54.973,251.254,53.013,246.483,50.592
			L246.483,50.592z M271.745,50.592c-4.769,2.422-7.541,4.381-9.06,6.05c0.778,3.071,4.836,3.211,6.32,3.125
			c-0.304-0.139-0.557-0.306-0.647-0.562c0.372-0.261,1.693-0.027,2.614-0.537c-0.354-0.072-0.52-0.143-0.685-0.4
			c0.871-0.273,1.809-0.509,2.36-0.962c-0.298,0.004-0.576,0.066-0.964-0.2c0.78-0.414,1.612-0.742,2.259-1.375
			c-0.403-0.01-0.838-0.004-0.964-0.15c0.714-0.436,1.316-0.92,1.815-1.45c-0.564,0.067-0.803,0.009-0.939-0.088
			c0.54-0.544,1.223-1.004,1.548-1.675c-0.419,0.142-0.802,0.197-1.079-0.012c0.183-0.408,0.969-0.648,1.421-1.6
			c-0.441,0.042-0.909,0.095-1.002,0c0.205-0.822,0.556-1.284,0.901-1.762c-0.944-0.014-2.374,0.004-2.31-0.075l0.584-0.587
			c-0.922-0.245-1.866,0.039-2.551,0.25c-0.307-0.239,0.005-0.541,0.381-0.85c-0.784,0.103-1.492,0.28-2.132,0.525
			c-0.342-0.304,0.222-0.608,0.495-0.912c-1.211,0.226-1.724,0.544-2.233,0.862c-0.37-0.349-0.021-0.646,0.228-0.95
			c-0.913,0.333-1.383,0.763-1.878,1.187c-0.168-0.223-0.426-0.387-0.114-0.925c-0.648,0.368-1.136,0.802-1.497,1.287
			c-0.401-0.252-0.239-0.595-0.241-0.912c-0.674,0.54-1.101,1.114-1.624,1.675c-0.105-0.076-0.198-0.332-0.279-0.737
			c-1.607,1.536-3.878,5.404-0.584,6.937C264.687,53.489,268.035,51.833,271.745,50.592L271.745,50.592z M264.883,81.808
			c-0.017-2.866-2.588-5.176-5.743-5.161c-3.155,0.015-5.699,2.35-5.683,5.216c0,0.018,0,0.036,0,0.055
			c0.017,2.866,2.588,5.176,5.743,5.161c3.155-0.015,5.699-2.35,5.683-5.216C264.883,81.844,264.883,81.826,264.883,81.808z
			 M255.975,67.04c-2.367-1.528-5.778-0.542-7.619,2.202c-1.841,2.744-1.414,6.206,0.953,7.734l0,0
			c2.367,1.528,5.778,0.542,7.619-2.202C258.769,72.03,258.342,68.567,255.975,67.04L255.975,67.04z M262.364,66.763
			c-2.367,1.528-2.794,4.99-0.953,7.734c1.841,2.744,5.252,3.73,7.619,2.202l0,0c2.367-1.528,2.794-4.99,0.953-7.734
			S264.731,65.236,262.364,66.763L262.364,66.763z M243.074,79.057c2.079,0.91,3.772-10.179,1.217-9.504
			C240.05,71.938,240.787,77.245,243.074,79.057z M273.825,69.415c-2.556-0.675-0.863,10.415,1.217,9.505
			C277.329,77.108,278.066,71.8,273.825,69.415L273.825,69.415z M273.186,67.7c0.148-4.711-3.522-7.292-7.932-6.558
			C263.629,61.41,273.041,69.505,273.186,67.7z M253.068,61.003c-4.411-0.734-8.08,1.848-7.932,6.558
			C245.281,69.367,254.693,61.272,253.068,61.003z M259.144,59.905c-2.632-0.067-5.159,1.924-5.165,3.08
			c-0.007,1.404,2.081,2.841,5.183,2.878c3.167,0.022,5.188-1.15,5.198-2.599C264.372,61.621,261.48,59.879,259.144,59.905
			L259.144,59.905z M259.347,88.69c-2.281-0.056-5.778,0.9-5.736,2.125c-0.036,0.835,2.746,3.245,5.584,3.125
			c2.74,0.046,5.571-2.36,5.533-3.425C264.722,89.418,261.642,88.591,259.347,88.69L259.347,88.69z M250.854,82.19
			c-1.875-2.143-4.311-3.421-5.888-2.475c-1.054,0.79-1.248,3.481,0.254,6.125c2.227,3.151,5.36,3.467,6.65,2.7
			C253.233,87.535,252.488,84.129,250.854,82.19L250.854,82.19z M267.305,81.575c-1.768,2.04-2.752,5.76-1.463,6.958
			c1.233,0.931,4.543,0.801,6.989-2.541c1.776-2.244,1.181-5.993,0.166-6.988C271.491,77.856,269.328,79.325,267.305,81.575
			L267.305,81.575z"/>
	</g>
</g>
<g id="Layer_2">
</g>
</svg>
