<?xml version="1.0" encoding="iso-8859-1"?>
<!-- Generator: Adobe Illustrator 21.1.0, SVG Export Plug-In . SVG Version: 6.00 Build 0)  -->
<svg version="1.0" xmlns="http://www.w3.org/2000/svg" xmlns:xlink="http://www.w3.org/1999/xlink" x="0px" y="0px"
	 viewBox="0 0 251.196 229.817" style="enable-background:new 0 0 251.196 229.817;" xml:space="preserve">
<g id="Layer_97">
</g>
<g id="Layer_96">
</g>
<g id="Layer_95">
</g>
<g id="Layer_94">
</g>
<g id="Layer_93">
</g>
<g id="Layer_92">
</g>
<g id="Layer_91">
</g>
<g id="Layer_90">
</g>
<g id="Layer_89">
</g>
<g id="Layer_88">
</g>
<g id="Layer_87">
</g>
<g id="Layer_86">
</g>
<g id="Layer_85">
</g>
<g id="Layer_84">
</g>
<g id="Layer_83">
</g>
<g id="Layer_82">
</g>
<g id="Layer_81">
</g>
<g id="Layer_80">
</g>
<g id="Layer_79">
</g>
<g id="Layer_78">
</g>
<g id="Layer_77">
</g>
<g id="Layer_76">
</g>
<g id="Layer_75">
</g>
<g id="Layer_74">
</g>
<g id="Layer_73">
</g>
<g id="Layer_72">
</g>
<g id="Layer_71">
</g>
<g id="Layer_69">
</g>
<g id="Layer_68">
</g>
<g id="Layer_67">
</g>
<g id="Layer_66">
</g>
<g id="Layer_65">
</g>
<g id="Layer_64">
</g>
<g id="Layer_63">
</g>
<g id="Layer_62">
</g>
<g id="Layer_61">
</g>
<g id="Layer_60">
</g>
<g id="Layer_59">
</g>
<g id="Layer_58">
</g>
<g id="Layer_57">
</g>
<g id="Layer_56">
</g>
<g id="Layer_55">
</g>
<g id="Layer_54">
</g>
<g id="Layer_53">
</g>
<g id="Layer_52">
</g>
<g id="Layer_51">
</g>
<g id="Layer_50">
</g>
<g id="Layer_49">
</g>
<g id="Layer_48">
</g>
<g id="Layer_98">
</g>
<g id="Layer_47">
</g>
<g id="Layer_46">
</g>
<g id="Layer_45">
</g>
<g id="Layer_44">
</g>
<g id="Layer_43">
</g>
<g id="Layer_42">
</g>
<g id="Layer_41">
</g>
<g id="Layer_40">
</g>
<g id="Layer_39">
</g>
<g id="Layer_38">
</g>
<g id="Layer_37">
</g>
<g id="Layer_36">
</g>
<g id="Layer_35">
</g>
<g id="Layer_34">
</g>
<g id="Layer_33">
</g>
<g id="Layer_32">
</g>
<g id="Layer_31">
</g>
<g id="Layer_29">
</g>
<g id="Layer_28">
</g>
<g id="Layer_27">
</g>
<g id="Layer_99">
</g>
<g id="Layer_26">
</g>
<g id="Layer_25">
</g>
<g id="Layer_24">
</g>
<g id="Layer_23">
</g>
<g id="Layer_22">
</g>
<g id="Layer_21">
</g>
<g id="Layer_20">
</g>
<g id="Layer_19">
</g>
<g id="Layer_18">
</g>
<g id="Layer_17">
</g>
<g id="Layer_16">
</g>
<g id="Layer_15">
	<g>
		<g>
			<defs>
				
					<ellipse id="XMLID_2_" transform="matrix(0.339 -0.9408 0.9408 0.339 -18.0188 204.1708)" cx="136.288" cy="114.908" rx="114.877" ry="114.877"/>
			</defs>
			<use xlink:href="#XMLID_2_"  style="overflow:visible;fill:#EDD2BE;"/>
			<clipPath id="XMLID_7_">
				<use xlink:href="#XMLID_2_"  style="overflow:visible;"/>
			</clipPath>
			<path style="clip-path:url(#XMLID_7_);fill:#D6D6D6;" d="M77.241,13.986c0,0,164.666,131.056,196.64,104.118l-11.766-81.98
				l-72.459-62.287l-62.809-10.862L77.241,13.986z"/>
		</g>
		
			<ellipse transform="matrix(0.339 -0.9408 0.9408 0.339 -60.75 79.4728)" style="fill:#EDD2BE;" cx="26.181" cy="82.969" rx="26.174" ry="26.174"/>
		<path d="M178.214,181.99c-5.821,16.155-23.637,24.532-39.792,18.711c-16.155-5.821-24.532-23.637-18.711-39.792L178.214,181.99z"
			/>
		<ellipse transform="matrix(0.339 -0.9408 0.9408 0.339 -53.831 186.3698)" cx="105.714" cy="131.493" rx="6.331" ry="6.331"/>
		<polyline style="fill:none;stroke:#000000;stroke-width:5;stroke-miterlimit:10;" points="179.716,101.37 170.548,154.856 
			150.782,147.734 		"/>
		<ellipse transform="matrix(0.339 -0.9408 0.9408 0.339 -22.3249 301.7315)" cx="203.563" cy="166.753" rx="6.331" ry="6.331"/>
		<path style="fill:#D6D6D6;" d="M92.792,25.396l-36.5,50.978c-1.465,2.046-3.949,3.104-6.44,2.741L36.702,77.2
			c-4.319-0.629-6.906-5.141-5.265-9.186l22.135-54.588c1.215-2.996,4.389-4.705,7.559-4.068l27.515,5.525
			C93.434,15.845,95.635,21.426,92.792,25.396z"/>
		
			<ellipse transform="matrix(0.4862 -0.8739 0.8739 0.4862 -104.8804 143.4493)" style="fill:#F6B7A1;" cx="69.541" cy="160.909" rx="20.545" ry="20.545"/>
	</g>
</g>
<g id="Layer_14">
</g>
<g id="Layer_13">
</g>
<g id="Layer_12">
</g>
<g id="Layer_11">
</g>
<g id="Layer_10">
</g>
<g id="Layer_9">
</g>
<g id="Layer_8">
</g>
<g id="Layer_7">
</g>
<g id="Layer_6">
</g>
<g id="Layer_5">
</g>
<g id="Layer_4">
</g>
<g id="Layer_3">
</g>
<g id="Layer_2">
</g>
</svg>
