<?xml version="1.0" encoding="iso-8859-1"?>
<!-- Generator: Adobe Illustrator 21.1.0, SVG Export Plug-In . SVG Version: 6.00 Build 0)  -->
<svg version="1.0" xmlns="http://www.w3.org/2000/svg" xmlns:xlink="http://www.w3.org/1999/xlink" x="0px" y="0px"
	 viewBox="0 0 221.797 197.746" style="enable-background:new 0 0 221.797 197.746;" xml:space="preserve">
<g id="Layer_97">
</g>
<g id="Layer_96">
</g>
<g id="Layer_95">
</g>
<g id="Layer_94">
</g>
<g id="Layer_93">
</g>
<g id="Layer_92">
</g>
<g id="Layer_91">
</g>
<g id="Layer_90">
</g>
<g id="Layer_89">
</g>
<g id="Layer_88">
</g>
<g id="Layer_87">
</g>
<g id="Layer_86">
</g>
<g id="Layer_85">
</g>
<g id="Layer_84">
</g>
<g id="Layer_83">
</g>
<g id="Layer_82">
</g>
<g id="Layer_81">
</g>
<g id="Layer_80">
</g>
<g id="Layer_79">
</g>
<g id="Layer_78">
</g>
<g id="Layer_77">
</g>
<g id="Layer_76">
</g>
<g id="Layer_75">
</g>
<g id="Layer_74">
</g>
<g id="Layer_73">
</g>
<g id="Layer_72">
</g>
<g id="Layer_71">
</g>
<g id="Layer_69">
</g>
<g id="Layer_68">
</g>
<g id="Layer_67">
</g>
<g id="Layer_66">
</g>
<g id="Layer_65">
</g>
<g id="Layer_64">
</g>
<g id="Layer_63">
</g>
<g id="Layer_62">
</g>
<g id="Layer_61">
</g>
<g id="Layer_60">
</g>
<g id="Layer_59">
</g>
<g id="Layer_58">
</g>
<g id="Layer_57">
</g>
<g id="Layer_56">
</g>
<g id="Layer_55">
</g>
<g id="Layer_54">
</g>
<g id="Layer_53">
</g>
<g id="Layer_52">
</g>
<g id="Layer_51">
</g>
<g id="Layer_50">
</g>
<g id="Layer_49">
</g>
<g id="Layer_48">
</g>
<g id="Layer_98">
</g>
<g id="Layer_47">
</g>
<g id="Layer_46">
</g>
<g id="Layer_45">
</g>
<g id="Layer_44">
</g>
<g id="Layer_43">
</g>
<g id="Layer_42">
</g>
<g id="Layer_41">
</g>
<g id="Layer_40">
</g>
<g id="Layer_39">
</g>
<g id="Layer_38">
</g>
<g id="Layer_37">
</g>
<g id="Layer_36">
</g>
<g id="Layer_35">
</g>
<g id="Layer_34">
</g>
<g id="Layer_33">
</g>
<g id="Layer_32">
</g>
<g id="Layer_31">
</g>
<g id="Layer_29">
</g>
<g id="Layer_28">
</g>
<g id="Layer_27">
</g>
<g id="Layer_99">
</g>
<g id="Layer_26">
</g>
<g id="Layer_25">
</g>
<g id="Layer_24">
</g>
<g id="Layer_23">
	<g>
		<g>
			<defs>
				
					<ellipse id="XMLID_14_" transform="matrix(0.9934 -0.1148 0.1148 0.9934 -10.5375 14.7646)" cx="122.923" cy="98.873" rx="98.864" ry="98.864"/>
			</defs>
			<use xlink:href="#XMLID_14_"  style="overflow:visible;fill:#805249;"/>
			<clipPath id="XMLID_7_">
				<use xlink:href="#XMLID_14_"  style="overflow:visible;"/>
			</clipPath>
			<path style="clip-path:url(#XMLID_7_);fill:#764A44;" d="M22.667,107.921c0,0,50.086-11.215,59.155-52.984s-80.214,0-80.214,0
				L22.667,107.921z"/>
			<polygon style="clip-path:url(#XMLID_7_);fill:#764A44;" points="201.552,25.886 21.063,63.197 80.814,-8.378 160.741,-8.378 			
				"/>
		</g>
		
			<ellipse transform="matrix(0.9934 -0.1148 0.1148 0.9934 -13.4909 3.3716)" style="fill:#805249;" cx="22.528" cy="118.819" rx="22.526" ry="22.526"/>
		<path style="fill:#FFFFFF;" d="M177.196,127.789c1.696,14.681-8.829,27.957-23.51,29.653c-14.681,1.696-27.957-8.829-29.653-23.51
			L177.196,127.789z"/>
		<polyline style="fill:none;stroke:#000000;stroke-width:5;stroke-miterlimit:10;" points="143.472,69.867 156.878,114.604 
			138.916,116.679 		"/>
		<ellipse transform="matrix(0.9934 -0.1148 0.1148 0.9934 -10.0579 22.7901)" cx="192.844" cy="98.722" rx="5.448" ry="5.448"/>
		<ellipse transform="matrix(0.9934 -0.1148 0.1148 0.9934 -12.3305 12.623)" cx="103.432" cy="113.37" rx="5.448" ry="5.448"/>
		
			<ellipse transform="matrix(0.9934 -0.1148 0.1148 0.9934 -15.4117 11.8849)" style="fill:#5B332F;" cx="95.483" cy="139.752" rx="2.724" ry="2.724"/>
		
			<ellipse transform="matrix(0.9934 -0.1148 0.1148 0.9934 -15.6807 13.1202)" style="fill:#5B332F;" cx="106.074" cy="142.706" rx="2.724" ry="2.724"/>
		
			<ellipse transform="matrix(0.9934 -0.1148 0.1148 0.9934 -16.534 12.2375)" style="fill:#5B332F;" cx="97.984" cy="149.673" rx="2.724" ry="2.724"/>
		
			<ellipse transform="matrix(0.1148 -0.9934 0.9934 0.1148 67.1263 312.5664)" style="fill:#5B332F;" cx="208.946" cy="118.618" rx="2.724" ry="2.724"/>
		
			<ellipse transform="matrix(0.1148 -0.9934 0.9934 0.1148 57.6061 302.1749)" style="fill:#5B332F;" cx="198.355" cy="118.764" rx="2.724" ry="2.724"/>
		
			<ellipse transform="matrix(0.1148 -0.9934 0.9934 0.1148 52.5725 316.0758)" style="fill:#5B332F;" cx="203.639" cy="128.539" rx="2.724" ry="2.724"/>
		<path style="stroke:#000000;stroke-width:0.8839;stroke-miterlimit:10;" d="M90.501,101.85l16.296-5.105
			c1.168-0.366,1.824-1.62,1.458-2.788v0c-0.366-1.168-1.62-1.824-2.788-1.458l-16.296,5.105c-1.168,0.366-1.824,1.62-1.458,2.788
			l0,0C88.079,101.56,89.333,102.216,90.501,101.85z"/>
		<path style="stroke:#000000;stroke-width:0.8839;stroke-miterlimit:10;" d="M179.111,84.305l16.998-1.645
			c1.218-0.118,2.118-1.211,2-2.429l0,0c-0.118-1.218-1.211-2.118-2.429-2l-16.998,1.645c-1.218,0.118-2.118,1.211-2,2.429l0,0
			C176.8,83.523,177.893,84.423,179.111,84.305z"/>
		
			<ellipse transform="matrix(0.3347 -0.9423 0.9423 0.3347 -116.4648 114.5732)" style="fill:#EEB001;" cx="22.909" cy="139.767" rx="5.966" ry="5.966"/>
	</g>
</g>
<g id="Layer_22">
</g>
<g id="Layer_21">
</g>
<g id="Layer_20">
</g>
<g id="Layer_19">
</g>
<g id="Layer_18">
</g>
<g id="Layer_17">
</g>
<g id="Layer_16">
</g>
<g id="Layer_15">
</g>
<g id="Layer_14">
</g>
<g id="Layer_13">
</g>
<g id="Layer_12">
</g>
<g id="Layer_11">
</g>
<g id="Layer_10">
</g>
<g id="Layer_9">
</g>
<g id="Layer_8">
</g>
<g id="Layer_7">
</g>
<g id="Layer_6">
</g>
<g id="Layer_5">
</g>
<g id="Layer_4">
</g>
<g id="Layer_3">
</g>
<g id="Layer_2">
</g>
</svg>
