<?xml version="1.0" encoding="iso-8859-1"?>
<!-- Generator: Adobe Illustrator 21.1.0, SVG Export Plug-In . SVG Version: 6.00 Build 0)  -->
<svg version="1.0" xmlns="http://www.w3.org/2000/svg" xmlns:xlink="http://www.w3.org/1999/xlink" x="0px" y="0px"
	 viewBox="0 0 366.388 222.932" style="enable-background:new 0 0 366.388 222.932;" xml:space="preserve">
<g id="Layer_97">
</g>
<g id="Layer_96">
</g>
<g id="Layer_95">
</g>
<g id="Layer_94">
</g>
<g id="Layer_93">
</g>
<g id="Layer_92">
</g>
<g id="Layer_91">
</g>
<g id="Layer_90">
</g>
<g id="Layer_89">
</g>
<g id="Layer_88">
</g>
<g id="Layer_87">
</g>
<g id="Layer_86">
</g>
<g id="Layer_85">
</g>
<g id="Layer_84">
</g>
<g id="Layer_83">
</g>
<g id="Layer_82">
</g>
<g id="Layer_81">
</g>
<g id="Layer_80">
</g>
<g id="Layer_79">
</g>
<g id="Layer_78">
</g>
<g id="Layer_77">
</g>
<g id="Layer_76">
</g>
<g id="Layer_75">
</g>
<g id="Layer_74">
</g>
<g id="Layer_73">
</g>
<g id="Layer_72">
</g>
<g id="Layer_71">
</g>
<g id="Layer_69">
</g>
<g id="Layer_68">
</g>
<g id="Layer_67">
</g>
<g id="Layer_66">
</g>
<g id="Layer_65">
</g>
<g id="Layer_64">
</g>
<g id="Layer_63">
</g>
<g id="Layer_62">
</g>
<g id="Layer_61">
</g>
<g id="Layer_60">
</g>
<g id="Layer_59">
</g>
<g id="Layer_58">
</g>
<g id="Layer_57">
</g>
<g id="Layer_56">
</g>
<g id="Layer_55">
</g>
<g id="Layer_54">
</g>
<g id="Layer_53">
</g>
<g id="Layer_52">
</g>
<g id="Layer_51">
</g>
<g id="Layer_50">
</g>
<g id="Layer_49">
</g>
<g id="Layer_48">
</g>
<g id="Layer_98">
</g>
<g id="Layer_47">
</g>
<g id="Layer_46">
</g>
<g id="Layer_45">
</g>
<g id="Layer_44">
</g>
<g id="Layer_43">
</g>
<g id="Layer_42">
</g>
<g id="Layer_41">
</g>
<g id="Layer_40">
</g>
<g id="Layer_39">
</g>
<g id="Layer_38">
</g>
<g id="Layer_37">
</g>
<g id="Layer_36">
</g>
<g id="Layer_35">
</g>
<g id="Layer_34">
</g>
<g id="Layer_33">
</g>
<g id="Layer_32">
</g>
<g id="Layer_31">
</g>
<g id="Layer_29">
</g>
<g id="Layer_28">
</g>
<g id="Layer_27">
</g>
<g id="Layer_99">
</g>
<g id="Layer_26">
</g>
<g id="Layer_25">
</g>
<g id="Layer_24">
</g>
<g id="Layer_23">
</g>
<g id="Layer_22">
</g>
<g id="Layer_21">
</g>
<g id="Layer_20">
</g>
<g id="Layer_19">
</g>
<g id="Layer_18">
</g>
<g id="Layer_17">
</g>
<g id="Layer_16">
</g>
<g id="Layer_15">
</g>
<g id="Layer_14">
</g>
<g id="Layer_13">
</g>
<g id="Layer_12">
</g>
<g id="Layer_11">
</g>
<g id="Layer_10">
</g>
<g id="Layer_9">
</g>
<g id="Layer_8">
	<g>
		<path style="fill:#F5E95F;" d="M117.959,66.133c0,32.574-26.406,58.98-58.98,58.98c-4.957,0-9.772-0.612-14.372-1.763
			s-8.412-5.153-12.513-7.314c-4.401-2.32-9.048-2.871-12.703-6.182c-3.489-3.161-6.597-6.734-9.249-10.641
			c-2.262-3.334-1.878-8.366-3.428-12.14c-1.862-4.532-5.49-7.893-6.172-12.909C0.185,71.538,0,68.857,0,66.133
			c0-7.041,3.555-14.305,5.819-20.565c2.263-6.261,3.235-11.518,7.353-16.589c3.256-4.01,7.029-7.584,11.216-10.621
			c3.841-2.786,8.621-3.532,13.082-5.336c5.139-2.078,10.046-5.041,15.785-5.593c1.884-0.181,3.794-0.274,5.725-0.274
			c6.016,0,11.242,2.999,16.71,4.673c5.468,1.674,11.178,2.023,15.842,5.116C107.458,27.503,117.959,45.592,117.959,66.133z"/>
		<path style="fill:#F5E95F;" d="M366.388,66.133c0,32.574-26.406,58.98-58.98,58.98c-4.957,0-9.772-0.612-14.372-1.763
			c-4.6-1.152-8.412-5.153-12.513-7.314c-4.401-2.32-9.048-2.871-12.703-6.182c-3.489-3.161-6.597-6.734-9.249-10.641
			c-2.262-3.334-1.878-8.366-3.428-12.14c-1.862-4.532-5.49-7.893-6.172-12.909c-0.357-2.626-0.542-5.306-0.542-8.03
			c0-7.041,3.555-14.305,5.819-20.565c2.263-6.261,3.235-11.518,7.353-16.589c3.256-4.01,7.029-7.584,11.216-10.621
			c3.841-2.786,8.621-3.532,13.082-5.336c5.139-2.078,10.046-5.041,15.785-5.593c1.884-0.181,3.794-0.274,5.725-0.274
			c6.016,0,11.242,2.999,16.71,4.673c5.468,1.674,11.178,2.023,15.842,5.116C355.887,27.503,366.388,45.592,366.388,66.133z"/>
		<circle style="fill:#D9C52A;" cx="58.98" cy="65.641" r="32.558"/>
		<circle style="fill:#D9C52A;" cx="309.797" cy="65.641" r="32.558"/>
		<path style="fill:#F5E95F;" d="M322.028,111.51c0,10.493-1.777,20.648-5.1,30.274c-1.153,3.34-8.889,6.34-10.404,9.545
			c-1.903,4.026,2.313,8.214-0.127,11.999c-2.076,3.219-4.339,6.346-6.778,9.37c-2.853,3.538-8.683,3.631-11.998,6.873
			c-2.825,2.763-3.075,8.717-6.209,11.244c-3.583,2.888-7.36,5.615-11.314,8.168c-3.092,1.996-6.293,3.886-9.593,5.662
			c-6.155,3.312-13.097,1.62-19.893,4.098c-4.862,1.773-9.433,7.931-14.575,9.238c-5.677,1.444-11.514,2.594-17.482,3.428
			c-5.813,0.813-11.752,1.327-17.791,1.521c-1.821,0.059-3.651-3.636-5.49-3.636c-12.942,0-25.464,2.258-37.33-0.481
			c-6.838-1.579-13.459-3.58-19.816-5.968c-5.796-2.177-11.378-8.761-16.703-11.552c-4.794-2.512-9.378-1.176-13.737-4.143
			c-5.662-3.854-7.926-8.074-12.758-12.616c-3.824-3.595-8.561-10.093-11.803-14.069c-3.291-4.036-8.086-5.556-10.721-9.938
			c-3.207-5.334-4.322-11.188-6.464-16.959c-3.798-10.236-7.425-20.814-7.425-32.06c0-34.44,19.148-65.233,49.236-85.688
			c4.887-3.322,14.776-3.782,20.205-6.53c6.177-3.127,7.967-8.453,14.748-10.757c6.349-2.157,13.526-0.017,20.317-1.381
			c4.86-0.976,9.237-5.66,14.286-6.2C173.189,0.324,179.184,0,185.273,0c1.399,0,6.445,0.148,7.834,0.182
			c10.502,0.257,17.055,1.349,26.833,3.432c7.47,1.591,13.359,6.56,20.274,9.109c5.721,2.109,12.565,1.655,17.834,4.36
			C296.487,36.821,322.028,71.733,322.028,111.51z"/>
		<ellipse transform="matrix(0.9922 -0.1243 0.1243 0.9922 -14.2713 14.0564)" cx="105.505" cy="121.392" rx="7.744" ry="7.744"/>
		<ellipse transform="matrix(0.9922 -0.1243 0.1243 0.9922 -13.0544 33.5601)" cx="262.408" cy="121.392" rx="7.744" ry="7.744"/>
		
			<line style="fill:none;stroke:#000000;stroke-width:6;stroke-linecap:round;stroke-miterlimit:10;" x1="185.273" y1="129.137" x2="185.273" y2="168.63"/>
		<path style="fill:#56322B;" d="M203.52,134.483h-35.897c-9.343,0-16.987-7.644-16.987-16.987v0
			c0-9.343,7.644-16.987,16.987-16.987h35.897c9.343,0,16.987,7.644,16.987,16.987v0
			C220.507,126.839,212.862,134.483,203.52,134.483z"/>
		<path style="fill:none;stroke:#000000;stroke-width:6;stroke-linecap:round;stroke-miterlimit:10;" d="M158.061,165.456
			c16.966,7.342,36.213,7.342,53.18,0"/>
	</g>
</g>
<g id="Layer_7">
</g>
<g id="Layer_6">
</g>
<g id="Layer_5">
</g>
<g id="Layer_4">
</g>
<g id="Layer_3">
</g>
<g id="Layer_2">
</g>
</svg>
