<?xml version="1.0" encoding="iso-8859-1"?>
<!-- Generator: Adobe Illustrator 21.1.0, SVG Export Plug-In . SVG Version: 6.00 Build 0)  -->
<svg version="1.0" xmlns="http://www.w3.org/2000/svg" xmlns:xlink="http://www.w3.org/1999/xlink" x="0px" y="0px"
	 viewBox="0 0 307.921 288.435" style="enable-background:new 0 0 307.921 288.435;" xml:space="preserve">
<g id="Layer_97">
</g>
<g id="Layer_96">
</g>
<g id="Layer_95">
</g>
<g id="Layer_94">
</g>
<g id="Layer_93">
</g>
<g id="Layer_92">
</g>
<g id="Layer_91">
</g>
<g id="Layer_90">
</g>
<g id="Layer_89">
</g>
<g id="Layer_88">
</g>
<g id="Layer_87">
</g>
<g id="Layer_86">
</g>
<g id="Layer_85">
</g>
<g id="Layer_84">
</g>
<g id="Layer_83">
</g>
<g id="Layer_82">
</g>
<g id="Layer_81">
</g>
<g id="Layer_80">
</g>
<g id="Layer_79">
</g>
<g id="Layer_78">
</g>
<g id="Layer_77">
</g>
<g id="Layer_76">
</g>
<g id="Layer_75">
</g>
<g id="Layer_74">
</g>
<g id="Layer_73">
</g>
<g id="Layer_72">
</g>
<g id="Layer_71">
</g>
<g id="Layer_69">
</g>
<g id="Layer_68">
</g>
<g id="Layer_67">
</g>
<g id="Layer_66">
</g>
<g id="Layer_65">
</g>
<g id="Layer_64">
</g>
<g id="Layer_63">
</g>
<g id="Layer_62">
</g>
<g id="Layer_61">
</g>
<g id="Layer_60">
</g>
<g id="Layer_59">
</g>
<g id="Layer_58">
</g>
<g id="Layer_57">
</g>
<g id="Layer_56">
</g>
<g id="Layer_55">
</g>
<g id="Layer_54">
</g>
<g id="Layer_53">
</g>
<g id="Layer_52">
</g>
<g id="Layer_51">
</g>
<g id="Layer_50">
</g>
<g id="Layer_49">
</g>
<g id="Layer_48">
</g>
<g id="Layer_98">
</g>
<g id="Layer_47">
</g>
<g id="Layer_46">
</g>
<g id="Layer_45">
</g>
<g id="Layer_44">
</g>
<g id="Layer_43">
</g>
<g id="Layer_42">
</g>
<g id="Layer_41">
</g>
<g id="Layer_40">
</g>
<g id="Layer_39">
</g>
<g id="Layer_38">
</g>
<g id="Layer_37">
</g>
<g id="Layer_36">
</g>
<g id="Layer_35">
</g>
<g id="Layer_34">
</g>
<g id="Layer_33">
</g>
<g id="Layer_32">
</g>
<g id="Layer_31">
</g>
<g id="Layer_29">
</g>
<g id="Layer_28">
</g>
<g id="Layer_27">
</g>
<g id="Layer_99">
</g>
<g id="Layer_26">
</g>
<g id="Layer_25">
</g>
<g id="Layer_24">
</g>
<g id="Layer_23">
</g>
<g id="Layer_22">
</g>
<g id="Layer_21">
</g>
<g id="Layer_20">
</g>
<g id="Layer_19">
</g>
<g id="Layer_18">
</g>
<g id="Layer_17">
	<g>
		
			<ellipse transform="matrix(0.3347 -0.9423 0.9423 0.3347 -23.7401 121.4562)" style="fill:#E9681A;" cx="74.146" cy="77.541" rx="76.893" ry="73.769"/>
		
			<ellipse transform="matrix(0.3347 -0.9423 0.9423 0.3347 31.1065 197.1996)" style="fill:#E9681A;" cx="155.211" cy="76.57" rx="76.893" ry="73.769"/>
		
			<ellipse transform="matrix(0.3347 -0.9423 0.9423 0.3347 45.2693 298.1359)" style="fill:#E9681A;" cx="233.776" cy="117.008" rx="76.893" ry="73.769"/>
		
			<ellipse transform="matrix(0.2071 -0.9783 0.9783 0.2071 -63.5536 281.6652)" style="fill:#ECD1BE;" cx="141.992" cy="180.041" rx="108.372" ry="108.372"/>
		
			<ellipse transform="matrix(0.3347 -0.9423 0.9423 0.3347 -144.3917 231.9528)" style="fill:#E84780;" cx="92.074" cy="218.235" rx="6.707" ry="6.707"/>
		
			<ellipse transform="matrix(0.3347 -0.9423 0.9423 0.3347 -139.1632 244.1154)" style="fill:#E84780;" cx="103.302" cy="220.614" rx="6.707" ry="6.707"/>
		
			<ellipse transform="matrix(0.3347 -0.9423 0.9423 0.3347 -84.8841 403.5628)" style="fill:#2EB1AA;" cx="243.363" cy="261.897" rx="10.123" ry="10.123"/>
		
			<ellipse transform="matrix(0.3347 -0.9423 0.9423 0.3347 -178.18 152.6208)" style="fill:#2EB1AA;" cx="18.997" cy="202.498" rx="9.368" ry="9.368"/>
		
			<ellipse transform="matrix(0.2071 -0.9783 0.9783 0.2071 -25.0521 412.2198)" style="fill:#ECD1BE;" cx="241.786" cy="221.565" rx="24.692" ry="24.692"/>
		<path d="M73.233,213.466c-3.355,15.848,6.773,31.416,22.621,34.771s31.416-6.773,34.771-22.621L73.233,213.466z"/>
		<ellipse transform="matrix(0.2071 -0.9783 0.9783 0.2071 -80.3881 318.7639)" cx="156.462" cy="208.976" rx="5.972" ry="5.972"/>
		<polyline style="fill:none;stroke:#000000;stroke-width:5;stroke-miterlimit:10;" points="112.072,148.04 92.859,195.491 
			112.25,199.616 		"/>
		<ellipse transform="matrix(0.2071 -0.9783 0.9783 0.2071 -136.6172 208.7411)" cx="60.471" cy="188.654" rx="5.972" ry="5.972"/>
		<path style="fill:#E9681A;" d="M249.088,197.127C135.226,187.881,58.481,59.347,58.481,59.347l76.338-19.264l165.029,87.862
			L249.088,197.127z"/>
		<path style="fill:#E9681A;stroke:#E9681A;stroke-width:0.6577;stroke-miterlimit:10;" d="M75.772,172.375l-25.27-7.626
			c-1.811-0.546-2.845-2.475-2.299-4.285l0,0c0.546-1.811,2.475-2.845,4.285-2.299l25.27,7.626c1.811,0.546,2.845,2.475,2.299,4.285
			h0C79.511,171.887,77.583,172.922,75.772,172.375z"/>
		
			<ellipse transform="matrix(0.4862 -0.8739 0.8739 0.4862 -133.9784 274.6647)" style="fill:#F6B7A1;" cx="166.571" cy="251.26" rx="20.545" ry="20.545"/>
		<path style="fill:#E9681A;stroke:#E9681A;stroke-width:0.6577;stroke-miterlimit:10;" d="M173.93,198.141l-25.27-7.626
			c-1.811-0.546-2.845-2.475-2.299-4.285l0,0c0.546-1.811,2.475-2.845,4.285-2.299l25.27,7.626c1.811,0.546,2.845,2.475,2.299,4.285
			v0C177.669,197.653,175.74,198.687,173.93,198.141z"/>
	</g>
</g>
<g id="Layer_16">
</g>
<g id="Layer_15">
</g>
<g id="Layer_14">
</g>
<g id="Layer_13">
</g>
<g id="Layer_12">
</g>
<g id="Layer_11">
</g>
<g id="Layer_10">
</g>
<g id="Layer_9">
</g>
<g id="Layer_8">
</g>
<g id="Layer_7">
</g>
<g id="Layer_6">
</g>
<g id="Layer_5">
</g>
<g id="Layer_4">
</g>
<g id="Layer_3">
</g>
<g id="Layer_2">
</g>
</svg>
