<?xml version="1.0" encoding="iso-8859-1"?>
<!-- Generator: Adobe Illustrator 21.1.0, SVG Export Plug-In . SVG Version: 6.00 Build 0)  -->
<svg version="1.0" xmlns="http://www.w3.org/2000/svg" xmlns:xlink="http://www.w3.org/1999/xlink" x="0px" y="0px"
	 viewBox="0 0 257.178 192.176" style="enable-background:new 0 0 257.178 192.176;" xml:space="preserve">
<g id="Layer_97">
</g>
<g id="Layer_96">
</g>
<g id="Layer_95">
</g>
<g id="Layer_94">
</g>
<g id="Layer_93">
</g>
<g id="Layer_92">
</g>
<g id="Layer_91">
</g>
<g id="Layer_90">
</g>
<g id="Layer_89">
</g>
<g id="Layer_88">
</g>
<g id="Layer_87">
</g>
<g id="Layer_86">
	<g>
		<path style="fill:#1D1E1C;" d="M0,123.092v61.934c0,5.893,6.737,9.247,11.439,5.695l58.275-44.025L0,123.092z"/>
		<path style="fill:#1D1E1C;" d="M238.331,156.616H18.847C8.481,156.616,0,148.135,0,137.77V18.847C0,8.481,8.481,0,18.847,0
			h219.484c10.366,0,18.847,8.481,18.847,18.847V137.77C257.178,148.135,248.697,156.616,238.331,156.616z"/>
		<path style="fill:#FFFFFF;" d="M152.194,92.069H42.856c-6.374,0-11.542-5.168-11.542-11.542V79.5
			c0-6.374,5.168-11.542,11.542-11.542h109.338c6.374,0,11.542,5.168,11.542,11.542v1.027
			C163.736,86.902,158.569,92.069,152.194,92.069z"/>
		<path style="fill:#FFE83F;" d="M207.762,91.381h-20.996c-6.658,0-12.056-5.397-12.056-12.056v0
			c0-6.658,5.397-12.056,12.056-12.056h20.996c6.658,0,12.056,5.397,12.056,12.056v0C219.818,85.983,214.421,91.381,207.762,91.381z
			"/>
		<path style="fill:#FFE83F;" d="M120.77,50.673H43.379c-6.663,0-12.065-5.402-12.065-12.065v0c0-6.663,5.402-12.065,12.065-12.065
			h77.391c6.663,0,12.065,5.402,12.065,12.065v0C132.835,45.272,127.433,50.673,120.77,50.673z"/>
		<path style="fill:#FFFFFF;" d="M207.753,49.984h-53.182c-6.663,0-12.065-5.402-12.065-12.065v0
			c0-6.663,5.402-12.065,12.065-12.065h53.182c6.663,0,12.065,5.402,12.065,12.065v0C219.818,44.582,214.416,49.984,207.753,49.984z
			"/>
		<path style="fill:#FFE83F;" d="M120.77,134.505H43.379c-6.663,0-12.065-5.402-12.065-12.065v0c0-6.663,5.402-12.065,12.065-12.065
			h77.391c6.663,0,12.065,5.402,12.065,12.065v0C132.835,129.104,127.433,134.505,120.77,134.505z"/>
		<path style="fill:#FFFFFF;" d="M207.753,133.816h-53.182c-6.663,0-12.065-5.402-12.065-12.065v0
			c0-6.663,5.402-12.065,12.065-12.065h53.182c6.663,0,12.065,5.402,12.065,12.065v0
			C219.818,128.414,214.416,133.816,207.753,133.816z"/>
	</g>
</g>
<g id="Layer_85">
</g>
<g id="Layer_84">
</g>
<g id="Layer_83">
</g>
<g id="Layer_82">
</g>
<g id="Layer_81">
</g>
<g id="Layer_80">
</g>
<g id="Layer_79">
</g>
<g id="Layer_78">
</g>
<g id="Layer_77">
</g>
<g id="Layer_76">
</g>
<g id="Layer_75">
</g>
<g id="Layer_74">
</g>
<g id="Layer_73">
</g>
<g id="Layer_72">
</g>
<g id="Layer_71">
</g>
<g id="Layer_69">
</g>
<g id="Layer_68">
</g>
<g id="Layer_67">
</g>
<g id="Layer_66">
</g>
<g id="Layer_65">
</g>
<g id="Layer_64">
</g>
<g id="Layer_63">
</g>
<g id="Layer_62">
</g>
<g id="Layer_61">
</g>
<g id="Layer_60">
</g>
<g id="Layer_59">
</g>
<g id="Layer_58">
</g>
<g id="Layer_57">
</g>
<g id="Layer_56">
</g>
<g id="Layer_55">
</g>
<g id="Layer_54">
</g>
<g id="Layer_53">
</g>
<g id="Layer_52">
</g>
<g id="Layer_51">
</g>
<g id="Layer_50">
</g>
<g id="Layer_49">
</g>
<g id="Layer_48">
</g>
<g id="Layer_98">
</g>
<g id="Layer_47">
</g>
<g id="Layer_46">
</g>
<g id="Layer_45">
</g>
<g id="Layer_44">
</g>
<g id="Layer_43">
</g>
<g id="Layer_42">
</g>
<g id="Layer_41">
</g>
<g id="Layer_40">
</g>
<g id="Layer_39">
</g>
<g id="Layer_38">
</g>
<g id="Layer_37">
</g>
<g id="Layer_36">
</g>
<g id="Layer_35">
</g>
<g id="Layer_34">
</g>
<g id="Layer_33">
</g>
<g id="Layer_32">
</g>
<g id="Layer_31">
</g>
<g id="Layer_29">
</g>
<g id="Layer_28">
</g>
<g id="Layer_27">
</g>
<g id="Layer_99">
</g>
<g id="Layer_26">
</g>
<g id="Layer_25">
</g>
<g id="Layer_24">
</g>
<g id="Layer_23">
</g>
<g id="Layer_22">
</g>
<g id="Layer_21">
</g>
<g id="Layer_20">
</g>
<g id="Layer_19">
</g>
<g id="Layer_18">
</g>
<g id="Layer_17">
</g>
<g id="Layer_16">
</g>
<g id="Layer_15">
</g>
<g id="Layer_14">
</g>
<g id="Layer_13">
</g>
<g id="Layer_12">
</g>
<g id="Layer_11">
</g>
<g id="Layer_10">
</g>
<g id="Layer_9">
</g>
<g id="Layer_8">
</g>
<g id="Layer_7">
</g>
<g id="Layer_6">
</g>
<g id="Layer_5">
</g>
<g id="Layer_4">
</g>
<g id="Layer_3">
</g>
<g id="Layer_2">
</g>
</svg>
