<?xml version="1.0" encoding="iso-8859-1"?>
<!-- Generator: Adobe Illustrator 21.1.0, SVG Export Plug-In . SVG Version: 6.00 Build 0)  -->
<svg version="1.0" xmlns="http://www.w3.org/2000/svg" xmlns:xlink="http://www.w3.org/1999/xlink" x="0px" y="0px"
	 viewBox="0 0 245.57 231.879" style="enable-background:new 0 0 245.57 231.879;" xml:space="preserve">
<g id="Layer_97">
</g>
<g id="Layer_96">
</g>
<g id="Layer_95">
</g>
<g id="Layer_94">
</g>
<g id="Layer_93">
</g>
<g id="Layer_92">
</g>
<g id="Layer_91">
</g>
<g id="Layer_90">
</g>
<g id="Layer_89">
</g>
<g id="Layer_88">
</g>
<g id="Layer_87">
</g>
<g id="Layer_86">
</g>
<g id="Layer_85">
</g>
<g id="Layer_84">
</g>
<g id="Layer_83">
</g>
<g id="Layer_82">
</g>
<g id="Layer_81">
</g>
<g id="Layer_80">
</g>
<g id="Layer_79">
</g>
<g id="Layer_78">
</g>
<g id="Layer_77">
</g>
<g id="Layer_76">
</g>
<g id="Layer_75">
</g>
<g id="Layer_74">
</g>
<g id="Layer_73">
</g>
<g id="Layer_72">
</g>
<g id="Layer_71">
</g>
<g id="Layer_69">
</g>
<g id="Layer_68">
</g>
<g id="Layer_67">
</g>
<g id="Layer_66">
</g>
<g id="Layer_65">
</g>
<g id="Layer_64">
</g>
<g id="Layer_63">
</g>
<g id="Layer_62">
</g>
<g id="Layer_61">
</g>
<g id="Layer_60">
</g>
<g id="Layer_59">
</g>
<g id="Layer_58">
</g>
<g id="Layer_57">
</g>
<g id="Layer_56">
</g>
<g id="Layer_55">
</g>
<g id="Layer_54">
</g>
<g id="Layer_53">
</g>
<g id="Layer_52">
</g>
<g id="Layer_51">
</g>
<g id="Layer_50">
</g>
<g id="Layer_49">
</g>
<g id="Layer_48">
</g>
<g id="Layer_98">
</g>
<g id="Layer_47">
</g>
<g id="Layer_46">
</g>
<g id="Layer_45">
</g>
<g id="Layer_44">
</g>
<g id="Layer_43">
</g>
<g id="Layer_42">
</g>
<g id="Layer_41">
</g>
<g id="Layer_40">
</g>
<g id="Layer_39">
</g>
<g id="Layer_38">
</g>
<g id="Layer_37">
</g>
<g id="Layer_36">
</g>
<g id="Layer_35">
</g>
<g id="Layer_34">
</g>
<g id="Layer_33">
</g>
<g id="Layer_32">
</g>
<g id="Layer_31">
</g>
<g id="Layer_29">
</g>
<g id="Layer_28">
</g>
<g id="Layer_27">
	<g>
		
			<ellipse transform="matrix(0.0912 -0.9958 0.9958 0.0912 29.2723 378.6641)" style="fill:#A67C52;" cx="222.109" cy="173.294" rx="23.46" ry="23.46"/>
		<g>
			<defs>
				
					<ellipse id="XMLID_33_" transform="matrix(0.2757 -0.9612 0.9612 0.2757 -27.4711 195.4213)" cx="115.94" cy="115.94" rx="115.91" ry="115.91"/>
			</defs>
			<use xlink:href="#XMLID_33_"  style="overflow:visible;fill:#A67C52;"/>
			<clipPath id="XMLID_7_">
				<use xlink:href="#XMLID_33_"  style="overflow:visible;"/>
			</clipPath>
			<path style="clip-path:url(#XMLID_7_);fill:#27131D;" d="M223.843,68.237c0,0-212.11,9.987-222.362-30.933l58.036-60.124
				l96.063-8.172L213.381-2.79L223.843,68.237z"/>
		</g>
		<path d="M41.005,150.542c-4.777,16.655,4.852,34.029,21.507,38.805s34.029-4.852,38.805-21.507L41.005,150.542z"/>
		<ellipse transform="matrix(0.2757 -0.9612 0.9612 0.2757 -46.8444 232.9566)" cx="131.16" cy="147.563" rx="6.388" ry="6.388"/>
		<polyline style="fill:none;stroke:#000000;stroke-width:5.6618;stroke-miterlimit:10;" points="87.125,94.078 63.042,143.252 
			83.42,149.096 		"/>
		<ellipse transform="matrix(0.2757 -0.9612 0.9612 0.2757 -92.0977 115.0338)" cx="30.284" cy="118.63" rx="6.388" ry="6.388"/>
		<path style="fill:#27131D;" d="M204.422,57.887l-0.261,68.705c-0.021,5.646,3.11,10.832,8.117,13.443l15.079,7.861l15.187-62.073
			c1.352-5.528-1.418-11.236-6.598-13.593L204.422,57.887z"/>
		<g>
			<path style="fill:#F5A12D;" d="M124.161,177.041c-3.814-0.905-7.449-2.561-10.723-4.925c-6.56-4.734-10.881-11.738-12.174-19.724
				c-1.289-7.984,0.606-15.995,5.341-22.552c9.774-13.54,28.735-16.608,42.277-6.834c6.56,4.734,10.881,11.739,12.173,19.725
				c1.289,7.984-0.606,15.995-5.341,22.552c-4.736,6.56-11.739,10.883-19.723,12.172
				C131.993,178.103,127.987,177.95,124.161,177.041z M136.313,125.997c-8.475-2.012-17.723,1.101-23.13,8.59l0,0
				c-3.465,4.802-4.854,10.665-3.91,16.512c0.947,5.846,4.111,10.974,8.912,14.44c4.805,3.466,10.668,4.854,16.513,3.911
				c5.845-0.945,10.975-4.111,14.44-8.912c3.465-4.802,4.854-10.665,3.91-16.512c-0.946-5.847-4.111-10.975-8.912-14.442
				C141.713,127.835,139.052,126.648,136.313,125.997z"/>
		</g>
		<g>
			<path style="fill:#F5A12D;" d="M23.284,148.109c-3.814-0.905-7.449-2.561-10.723-4.925c-13.539-9.772-16.603-28.737-6.832-42.277
				l0,0c4.736-6.56,11.739-10.883,19.723-12.172c7.984-1.291,15.993,0.606,22.553,5.34c6.56,4.734,10.881,11.738,12.174,19.724
				c1.289,7.984-0.606,15.995-5.341,22.552c-4.732,6.559-11.736,10.883-19.724,12.174C31.115,149.171,27.11,149.018,23.284,148.109z
				 M12.305,105.654c-7.154,9.913-4.908,23.799,5.002,30.953c4.805,3.466,10.668,4.856,16.514,3.909
				c5.848-0.945,10.975-4.109,14.44-8.912c3.465-4.802,4.854-10.665,3.91-16.512c-0.947-5.846-4.111-10.974-8.912-14.44
				c-4.805-3.466-10.668-4.854-16.513-3.911C20.9,97.687,15.773,100.853,12.305,105.654L12.305,105.654z"/>
		</g>
		<g>
			
				<rect x="79.113" y="96.686" transform="matrix(0.2773 -0.9608 0.9608 0.2773 -59.5124 169.8839)" style="fill:#F5A12D;" width="8.112" height="55.631"/>
		</g>
		<g>
			<path style="fill:#F5A12D;" d="M158.499,150.194c-1.798-0.427-3.13-2.051-3.117-3.979c0.019-2.24,1.849-4.041,4.091-4.022
				l75.71,0.613c2.234,0.024,4.038,1.848,4.023,4.088c-0.019,2.24-1.849,4.041-4.091,4.022l-75.71-0.613
				C159.095,150.302,158.79,150.264,158.499,150.194z"/>
		</g>
		<path style="fill:#27131D;stroke:#27131D;stroke-width:1.3189;stroke-miterlimit:10;" d="M56.386,82.717l-27.653-5.689
			c-1.981-0.408-3.269-2.362-2.861-4.343l0,0c0.408-1.981,2.362-3.269,4.343-2.861l27.653,5.689
			c1.981,0.408,3.269,2.362,2.861,4.343v0C60.322,81.837,58.367,83.124,56.386,82.717z"/>
		<path style="fill:#27131D;stroke:#27131D;stroke-width:1.3189;stroke-miterlimit:10;" d="M160.839,109.922l-26.132-10.684
			c-1.872-0.765-2.778-2.924-2.012-4.796v0c0.765-1.872,2.924-2.778,4.796-2.012l26.132,10.684c1.872,0.765,2.778,2.924,2.012,4.796
			l0,0C164.87,109.782,162.711,110.688,160.839,109.922z"/>
	</g>
</g>
<g id="Layer_99">
</g>
<g id="Layer_26">
</g>
<g id="Layer_25">
</g>
<g id="Layer_24">
</g>
<g id="Layer_23">
</g>
<g id="Layer_22">
</g>
<g id="Layer_21">
</g>
<g id="Layer_20">
</g>
<g id="Layer_19">
</g>
<g id="Layer_18">
</g>
<g id="Layer_17">
</g>
<g id="Layer_16">
</g>
<g id="Layer_15">
</g>
<g id="Layer_14">
</g>
<g id="Layer_13">
</g>
<g id="Layer_12">
</g>
<g id="Layer_11">
</g>
<g id="Layer_10">
</g>
<g id="Layer_9">
</g>
<g id="Layer_8">
</g>
<g id="Layer_7">
</g>
<g id="Layer_6">
</g>
<g id="Layer_5">
</g>
<g id="Layer_4">
</g>
<g id="Layer_3">
</g>
<g id="Layer_2">
</g>
</svg>
