<?xml version="1.0" encoding="iso-8859-1"?>
<!-- Generator: Adobe Illustrator 21.1.0, SVG Export Plug-In . SVG Version: 6.00 Build 0)  -->
<svg version="1.0" xmlns="http://www.w3.org/2000/svg" xmlns:xlink="http://www.w3.org/1999/xlink" x="0px" y="0px"
	 viewBox="0 0 242.743 248.132" style="enable-background:new 0 0 242.743 248.132;" xml:space="preserve">
<g id="Layer_97">
</g>
<g id="Layer_96">
</g>
<g id="Layer_95">
</g>
<g id="Layer_94">
</g>
<g id="Layer_93">
</g>
<g id="Layer_92">
</g>
<g id="Layer_91">
</g>
<g id="Layer_90">
</g>
<g id="Layer_89">
</g>
<g id="Layer_88">
</g>
<g id="Layer_87">
</g>
<g id="Layer_86">
</g>
<g id="Layer_85">
</g>
<g id="Layer_84">
</g>
<g id="Layer_83">
</g>
<g id="Layer_82">
</g>
<g id="Layer_81">
</g>
<g id="Layer_80">
</g>
<g id="Layer_79">
</g>
<g id="Layer_78">
</g>
<g id="Layer_77">
</g>
<g id="Layer_76">
</g>
<g id="Layer_75">
</g>
<g id="Layer_74">
</g>
<g id="Layer_73">
</g>
<g id="Layer_72">
</g>
<g id="Layer_71">
</g>
<g id="Layer_69">
</g>
<g id="Layer_68">
</g>
<g id="Layer_67">
</g>
<g id="Layer_66">
</g>
<g id="Layer_65">
</g>
<g id="Layer_64">
</g>
<g id="Layer_63">
</g>
<g id="Layer_62">
</g>
<g id="Layer_61">
</g>
<g id="Layer_60">
</g>
<g id="Layer_59">
</g>
<g id="Layer_58">
</g>
<g id="Layer_57">
</g>
<g id="Layer_56">
</g>
<g id="Layer_55">
</g>
<g id="Layer_54">
</g>
<g id="Layer_53">
</g>
<g id="Layer_52">
</g>
<g id="Layer_51">
</g>
<g id="Layer_50">
</g>
<g id="Layer_49">
</g>
<g id="Layer_48">
</g>
<g id="Layer_98">
</g>
<g id="Layer_47">
</g>
<g id="Layer_46">
</g>
<g id="Layer_45">
</g>
<g id="Layer_44">
</g>
<g id="Layer_43">
</g>
<g id="Layer_42">
</g>
<g id="Layer_41">
</g>
<g id="Layer_40">
</g>
<g id="Layer_39">
</g>
<g id="Layer_38">
</g>
<g id="Layer_37">
</g>
<g id="Layer_36">
</g>
<g id="Layer_35">
</g>
<g id="Layer_34">
</g>
<g id="Layer_33">
</g>
<g id="Layer_32">
</g>
<g id="Layer_31">
</g>
<g id="Layer_29">
</g>
<g id="Layer_28">
</g>
<g id="Layer_27">
</g>
<g id="Layer_99">
</g>
<g id="Layer_26">
</g>
<g id="Layer_25">
</g>
<g id="Layer_24">
</g>
<g id="Layer_23">
</g>
<g id="Layer_22">
</g>
<g id="Layer_21">
</g>
<g id="Layer_20">
</g>
<g id="Layer_19">
	<g>
		
			<ellipse transform="matrix(0.9723 -0.2337 0.2337 0.9723 -28.838 35.1411)" style="fill:#ECD1BE;" cx="133.883" cy="139.273" rx="108.835" ry="108.835"/>
		<path style="fill:#2EB1AA;" d="M58.093,144.946c9.38-1.505,33.15-8.297,36.184-38.589c0.111-1.111,1.161-1.884,2.242-1.603
			l36.544,9.493c1.217,0.316,2.362-0.711,2.18-1.955l-6.206-42.242c-0.152-1.031,1.015-1.735,1.856-1.119l42.097,30.783
			c0.978,0.715,2.369,0.282,2.768-0.862l12.466-35.745c0.427-1.223,1.548-2.069,2.841-2.144l21.2-1.221
			c1.479-0.085,2.544-1.438,2.269-2.894c-1.341-7.1-6.722-25.926-26.561-31.428c-0.863-0.239-1.401-1.098-1.184-1.966l5.535-22.207
			c0.221-0.886-0.764-1.581-1.524-1.075l-14.918,9.912c0,0-88.899-18.568-157.944,45.212c-0.738,0.682-1.448,1.385-2.131,2.107
			c-15.415,16.318-13.223,42.523,3.64,57.34l32.309,28.387C53.494,144.655,55.81,145.313,58.093,144.946z"/>
		<ellipse transform="matrix(0.9723 -0.2337 0.2337 0.9723 -36.0559 32.3073)" cx="118.315" cy="168.317" rx="5.998" ry="5.998"/>
		<polyline style="fill:none;stroke:#000000;stroke-width:5;stroke-miterlimit:10;" points="161.212,105.949 181.798,153.06 
			162.444,157.711 		"/>
		<ellipse transform="matrix(0.9723 -0.2337 0.2337 0.9723 -28.0228 54.0582)" cx="214.125" cy="145.291" rx="5.998" ry="5.998"/>
		<path style="fill:#2EB1AA;stroke:#2EB1AA;stroke-width:0.5;stroke-miterlimit:10;" d="M101.206,157.286l22.957-13.254
			c1.645-0.95,2.214-3.072,1.264-4.717l0,0c-0.95-1.645-3.072-2.214-4.717-1.264l-22.957,13.254
			c-1.645,0.95-2.214,3.072-1.264,4.717v0C97.439,157.667,99.562,158.236,101.206,157.286z"/>
		<path style="fill:#2EB1AA;stroke:#2EB1AA;stroke-width:0.5;stroke-miterlimit:10;" d="M196.427,120.587h26.509
			c1.899,0,3.453-1.554,3.453-3.453v0c0-1.899-1.554-3.453-3.453-3.453h-26.509c-1.899,0-3.453,1.554-3.453,3.453v0
			C192.974,119.033,194.528,120.587,196.427,120.587z"/>
		
			<ellipse transform="matrix(0.8486 -0.529 0.529 0.8486 -69.6122 116.3402)" style="fill:#E84780;" cx="168.486" cy="179.81" rx="7.922" ry="7.922"/>
		
			<ellipse transform="matrix(0.8486 -0.529 0.529 0.8486 -65.9029 122.256)" style="fill:#E84780;" cx="180.678" cy="176.286" rx="7.922" ry="7.922"/>
		<path d="M201.231,169.675c4.355,15.675-4.821,31.912-20.496,36.268c-15.675,4.355-31.912-4.821-36.268-20.496L201.231,169.675z"/>
		
			<ellipse transform="matrix(0.9743 -0.2252 0.2252 0.9743 -41.6895 11.7713)" style="fill:#ECD1BE;" cx="30.755" cy="188.633" rx="30.748" ry="30.748"/>
		<circle style="fill:#221E20;" cx="35.009" cy="142.622" r="1.433"/>
		<circle style="fill:#221E20;" cx="35.009" cy="151.29" r="1.433"/>
		<circle style="fill:#221E20;" cx="42.492" cy="147.668" r="1.433"/>
		
			<ellipse transform="matrix(0.4862 -0.8739 0.8739 0.4862 -125.266 201.9621)" style="fill:#F6B7A1;" cx="109.104" cy="207.5" rx="20.545" ry="20.545"/>
	</g>
</g>
<g id="Layer_18">
</g>
<g id="Layer_17">
</g>
<g id="Layer_16">
</g>
<g id="Layer_15">
</g>
<g id="Layer_14">
</g>
<g id="Layer_13">
</g>
<g id="Layer_12">
</g>
<g id="Layer_11">
</g>
<g id="Layer_10">
</g>
<g id="Layer_9">
</g>
<g id="Layer_8">
</g>
<g id="Layer_7">
</g>
<g id="Layer_6">
</g>
<g id="Layer_5">
</g>
<g id="Layer_4">
</g>
<g id="Layer_3">
</g>
<g id="Layer_2">
</g>
</svg>
