<?xml version="1.0" encoding="iso-8859-1"?>
<!-- Generator: Adobe Illustrator 21.1.0, SVG Export Plug-In . SVG Version: 6.00 Build 0)  -->
<svg version="1.0" xmlns="http://www.w3.org/2000/svg" xmlns:xlink="http://www.w3.org/1999/xlink" x="0px" y="0px"
	 viewBox="0 0 292.584 306.913" style="enable-background:new 0 0 292.584 306.913;" xml:space="preserve">
<g id="Layer_97">
</g>
<g id="Layer_96">
</g>
<g id="Layer_95">
</g>
<g id="Layer_94">
</g>
<g id="Layer_93">
</g>
<g id="Layer_92">
</g>
<g id="Layer_91">
</g>
<g id="Layer_90">
</g>
<g id="Layer_89">
</g>
<g id="Layer_88">
</g>
<g id="Layer_87">
</g>
<g id="Layer_86">
</g>
<g id="Layer_85">
</g>
<g id="Layer_84">
</g>
<g id="Layer_83">
</g>
<g id="Layer_82">
</g>
<g id="Layer_81">
</g>
<g id="Layer_80">
</g>
<g id="Layer_79">
</g>
<g id="Layer_78">
</g>
<g id="Layer_77">
</g>
<g id="Layer_76">
</g>
<g id="Layer_75">
</g>
<g id="Layer_74">
</g>
<g id="Layer_73">
</g>
<g id="Layer_72">
</g>
<g id="Layer_71">
</g>
<g id="Layer_69">
</g>
<g id="Layer_68">
</g>
<g id="Layer_67">
</g>
<g id="Layer_66">
</g>
<g id="Layer_65">
</g>
<g id="Layer_64">
</g>
<g id="Layer_63">
</g>
<g id="Layer_62">
</g>
<g id="Layer_61">
</g>
<g id="Layer_60">
</g>
<g id="Layer_59">
</g>
<g id="Layer_58">
</g>
<g id="Layer_57">
</g>
<g id="Layer_56">
</g>
<g id="Layer_55">
</g>
<g id="Layer_54">
</g>
<g id="Layer_53">
</g>
<g id="Layer_52">
</g>
<g id="Layer_51">
</g>
<g id="Layer_50">
</g>
<g id="Layer_49">
</g>
<g id="Layer_48">
</g>
<g id="Layer_98">
</g>
<g id="Layer_47">
</g>
<g id="Layer_46">
</g>
<g id="Layer_45">
</g>
<g id="Layer_44">
</g>
<g id="Layer_43">
</g>
<g id="Layer_42">
</g>
<g id="Layer_41">
</g>
<g id="Layer_40">
</g>
<g id="Layer_39">
</g>
<g id="Layer_38">
</g>
<g id="Layer_37">
</g>
<g id="Layer_36">
</g>
<g id="Layer_35">
</g>
<g id="Layer_34">
</g>
<g id="Layer_33">
</g>
<g id="Layer_32">
</g>
<g id="Layer_31">
</g>
<g id="Layer_29">
</g>
<g id="Layer_28">
</g>
<g id="Layer_27">
</g>
<g id="Layer_99">
</g>
<g id="Layer_26">
</g>
<g id="Layer_25">
</g>
<g id="Layer_24">
</g>
<g id="Layer_23">
</g>
<g id="Layer_22">
</g>
<g id="Layer_21">
</g>
<g id="Layer_20">
</g>
<g id="Layer_19">
</g>
<g id="Layer_18">
</g>
<g id="Layer_17">
</g>
<g id="Layer_16">
</g>
<g id="Layer_15">
</g>
<g id="Layer_14">
	<g>
		<g>
			<defs>
				<path id="XMLID_8_" d="M5.378,213.045L5.378,213.045c-5.742-1.916-7.257-9.329-2.727-13.343l109.208-96.787L227.056,0.819
					c1.868-1.655,4.828-0.668,5.327,1.777l30.819,150.812l29.216,142.971c1.212,5.93-4.45,10.949-10.192,9.033l0,0
					C181.087,314.697,79.916,280.547,5.378,213.045z"/>
			</defs>
			<use xlink:href="#XMLID_8_"  style="overflow:visible;fill:#F5A12D;"/>
			<clipPath id="XMLID_7_">
				<use xlink:href="#XMLID_8_"  style="overflow:visible;"/>
			</clipPath>
			<path style="clip-path:url(#XMLID_7_);fill:#FFCF11;" d="M23.328,169.439l4.338,14.728c0.847,2.877,3.291,4.999,6.259,5.433
				l8.713,1.275c2.921,0.427,5.339,2.49,6.221,5.308l1.15,3.674c1.027,3.279,4.105,5.478,7.54,5.386l3.912-0.105
				c3.313-0.089,6.31,1.957,7.435,5.074l1.353,3.75c1.236,3.426,4.708,5.514,8.314,5l8.691-1.239
				c3.203-0.457,6.349,1.142,7.869,3.998l3.237,6.083c1.594,2.995,4.963,4.591,8.29,3.926l5.298-1.058
				c2.809-0.561,5.698,0.487,7.493,2.719l7.711,9.585c1.826,2.269,4.777,3.312,7.623,2.692l8.438-1.837
				c2.708-0.589,5.523,0.324,7.368,2.391l5.774,6.468c2.101,2.354,5.427,3.184,8.388,2.094l14.259-5.249
				c2.679-0.986,5.683-0.406,7.802,1.505l8.52,7.685c2.283,2.06,5.574,2.56,8.367,1.272l6.892-3.179
				c3.136-1.447,6.852-0.623,9.084,2.013l0.955,1.128c2.569,3.034,7.027,3.608,10.281,1.324l1.49-1.046
				c3.377-2.371,8.024-1.652,10.527,1.629l2.107,2.763c2.836,3.719,8.309,4.063,11.589,0.729l0,0
				c2.914-2.962,7.656-3.071,10.703-0.246l5.25,4.867c3.084,2.859,7.893,2.708,10.792-0.338l5.398-5.672
				c1.337-1.405,2.094-3.264,2.118-5.204l0.313-25.443c0.042-3.426-2.189-6.467-5.47-7.454L30.538,149.082
				c-5.616-1.69-10.978,3.279-9.721,9.007l2.376,10.826C23.232,169.091,23.277,169.266,23.328,169.439z"/>
			<path style="clip-path:url(#XMLID_7_);fill:#FFCF11;" d="M24.821,154.608l12.478,14.136l24.342,9.497l19.182,15.685l25.477,9.188
				l23.101,20.431l14.956,4.646l18.462,9.598c0,0,17.846-1.955,19.393-1.439c1.547,0.516,25.684,6.506,25.684,6.506l33.937,2.382
				l20.218,1.243l16.197-6.288l23.517,6.815L242.866-29.866L199.194,0.956L24.821,154.608z"/>
		</g>
		
			<ellipse transform="matrix(0.3165 -0.9486 0.9486 0.3165 47.3179 253.6855)" style="fill:#E74626;" cx="199.694" cy="94.008" rx="27.618" ry="27.618"/>
		
			<ellipse transform="matrix(0.3165 -0.9486 0.9486 0.3165 -65.2256 229.3118)" style="fill:#E74626;" cx="126.509" cy="159.917" rx="27.618" ry="27.618"/>
		
			<ellipse transform="matrix(0.3165 -0.9486 0.9486 0.3165 -46.8898 376.8962)" style="fill:#E74626;" cx="238.088" cy="220.986" rx="27.618" ry="27.618"/>
		<path style="fill:#A2C41D;" d="M158.542,135.173l-23.327-14.786c-2.829-1.793-3.676-5.574-1.883-8.403v0
			c1.793-2.829,5.574-3.676,8.403-1.883l23.327,14.786c2.829,1.793,3.676,5.574,1.883,8.403v0
			C165.152,136.119,161.371,136.966,158.542,135.173z"/>
		<path style="fill:#A2C41D;" d="M227.124,153.599l-27.61,0.704c-3.348,0.085-6.157-2.584-6.242-5.932v0
			c-0.085-3.348,2.584-6.157,5.932-6.242l27.609-0.704c3.348-0.085,6.157,2.584,6.242,5.932v0
			C233.141,150.704,230.472,153.513,227.124,153.599z"/>
		<path style="fill:#A2C41D;" d="M164.42,199.171l-14.786,23.327c-1.793,2.829-5.574,3.676-8.403,1.883l0,0
			c-2.829-1.793-3.676-5.574-1.883-8.403l14.786-23.327c1.793-2.829,5.574-3.676,8.403-1.883l0,0
			C165.366,192.561,166.213,196.342,164.42,199.171z"/>
		
			<ellipse transform="matrix(0.67 -0.7424 0.7424 0.67 28.0552 175.5941)" style="fill:#ECE9E9;" cx="211.525" cy="56.242" rx="13.317" ry="20.484"/>
		<path style="fill:#ECE9E9;" d="M193.633,75.628L193.633,75.628c-3.337-3.011-3.6-8.157-0.589-11.494l2.313-2.563
			c3.011-3.337,8.157-3.6,11.494-0.589l0,0c3.337,3.011,3.6,8.157,0.589,11.494l-2.313,2.563
			C202.116,78.375,196.97,78.639,193.633,75.628z"/>
		
			<ellipse transform="matrix(0.67 -0.7424 0.7424 0.67 -104.0018 114.5087)" style="fill:#ECE9E9;" cx="76.791" cy="174.229" rx="13.317" ry="20.484"/>
		<path style="fill:#ECE9E9;" d="M58.9,193.615L58.9,193.615c-3.337-3.011-3.6-8.157-0.589-11.494l2.313-2.563
			c3.011-3.337,8.157-3.6,11.494-0.589h0c3.337,3.011,3.6,8.157,0.589,11.494l-2.313,2.563
			C67.382,196.362,62.236,196.626,58.9,193.615z"/>
		
			<ellipse transform="matrix(0.9982 -0.0593 0.0593 0.9982 -10.6063 12.2433)" style="fill:#ECE9E9;" cx="200.866" cy="184.725" rx="13.317" ry="20.484"/>
		<path style="fill:#ECE9E9;" d="M174.516,185.995L174.516,185.995c-0.267-4.486,3.154-8.34,7.641-8.606l3.446-0.205
			c4.486-0.267,8.34,3.154,8.606,7.641v0c0.267,4.486-3.154,8.34-7.641,8.606l-3.446,0.205
			C178.636,193.903,174.783,190.482,174.516,185.995z"/>
	</g>
</g>
<g id="Layer_13">
</g>
<g id="Layer_12">
</g>
<g id="Layer_11">
</g>
<g id="Layer_10">
</g>
<g id="Layer_9">
</g>
<g id="Layer_8">
</g>
<g id="Layer_7">
</g>
<g id="Layer_6">
</g>
<g id="Layer_5">
</g>
<g id="Layer_4">
</g>
<g id="Layer_3">
</g>
<g id="Layer_2">
</g>
</svg>
