<?xml version="1.0" encoding="iso-8859-1"?>
<!-- Generator: Adobe Illustrator 21.1.0, SVG Export Plug-In . SVG Version: 6.00 Build 0)  -->
<svg version="1.0" xmlns="http://www.w3.org/2000/svg" xmlns:xlink="http://www.w3.org/1999/xlink" x="0px" y="0px"
	 viewBox="0 0 298.349 240.436" style="enable-background:new 0 0 298.349 240.436;" xml:space="preserve">
<g id="Layer_97">
</g>
<g id="Layer_96">
</g>
<g id="Layer_95">
</g>
<g id="Layer_94">
</g>
<g id="Layer_93">
</g>
<g id="Layer_92">
</g>
<g id="Layer_91">
</g>
<g id="Layer_90">
</g>
<g id="Layer_89">
</g>
<g id="Layer_88">
</g>
<g id="Layer_87">
</g>
<g id="Layer_86">
</g>
<g id="Layer_85">
</g>
<g id="Layer_84">
</g>
<g id="Layer_83">
</g>
<g id="Layer_82">
</g>
<g id="Layer_81">
</g>
<g id="Layer_80">
</g>
<g id="Layer_79">
</g>
<g id="Layer_78">
</g>
<g id="Layer_77">
</g>
<g id="Layer_76">
</g>
<g id="Layer_75">
</g>
<g id="Layer_74">
</g>
<g id="Layer_73">
</g>
<g id="Layer_72">
</g>
<g id="Layer_71">
</g>
<g id="Layer_69">
</g>
<g id="Layer_68">
</g>
<g id="Layer_67">
</g>
<g id="Layer_66">
</g>
<g id="Layer_65">
</g>
<g id="Layer_64">
</g>
<g id="Layer_63">
</g>
<g id="Layer_62">
</g>
<g id="Layer_61">
</g>
<g id="Layer_60">
</g>
<g id="Layer_59">
</g>
<g id="Layer_58">
</g>
<g id="Layer_57">
</g>
<g id="Layer_56">
</g>
<g id="Layer_55">
</g>
<g id="Layer_54">
</g>
<g id="Layer_53">
</g>
<g id="Layer_52">
</g>
<g id="Layer_51">
</g>
<g id="Layer_50">
</g>
<g id="Layer_49">
</g>
<g id="Layer_48">
</g>
<g id="Layer_98">
</g>
<g id="Layer_47">
</g>
<g id="Layer_46">
</g>
<g id="Layer_45">
</g>
<g id="Layer_44">
</g>
<g id="Layer_43">
</g>
<g id="Layer_42">
</g>
<g id="Layer_41">
</g>
<g id="Layer_40">
</g>
<g id="Layer_39">
</g>
<g id="Layer_38">
</g>
<g id="Layer_37">
</g>
<g id="Layer_36">
</g>
<g id="Layer_35">
</g>
<g id="Layer_34">
</g>
<g id="Layer_33">
</g>
<g id="Layer_32">
</g>
<g id="Layer_31">
</g>
<g id="Layer_29">
</g>
<g id="Layer_28">
</g>
<g id="Layer_27">
</g>
<g id="Layer_99">
</g>
<g id="Layer_26">
</g>
<g id="Layer_25">
</g>
<g id="Layer_24">
</g>
<g id="Layer_23">
</g>
<g id="Layer_22">
</g>
<g id="Layer_21">
</g>
<g id="Layer_20">
</g>
<g id="Layer_19">
</g>
<g id="Layer_18">
</g>
<g id="Layer_17">
</g>
<g id="Layer_16">
</g>
<g id="Layer_15">
</g>
<g id="Layer_14">
</g>
<g id="Layer_13">
</g>
<g id="Layer_12">
</g>
<g id="Layer_11">
</g>
<g id="Layer_10">
</g>
<g id="Layer_9">
</g>
<g id="Layer_8">
</g>
<g id="Layer_7">
</g>
<g id="Layer_6">
</g>
<g id="Layer_5">
	<g>
		<path style="fill:#1D1E1C;" d="M271.577,240.436H26.772C12.047,240.436,0,228.388,0,213.664V26.772C0,12.047,12.047,0,26.772,0
			h244.805c14.724,0,26.772,12.047,26.772,26.772v186.892C298.349,228.388,286.302,240.436,271.577,240.436z M29.372,205.492
			c-5.178,0-9.376,4.198-9.376,9.376s4.198,9.376,9.376,9.376s9.376-4.198,9.376-9.376S34.551,205.492,29.372,205.492z
			 M266.506,205.492c-5.178,0-9.376,4.198-9.376,9.376s4.198,9.376,9.376,9.376c5.178,0,9.376-4.198,9.376-9.376
			S271.684,205.492,266.506,205.492z M29.372,14.954c-5.178,0-9.376,4.198-9.376,9.376s4.198,9.376,9.376,9.376
			s9.376-4.198,9.376-9.376S34.551,14.954,29.372,14.954z M51.852,9.768c-2.864,0-5.186,2.322-5.186,5.186s2.322,5.186,5.186,5.186
			s5.186-2.322,5.186-5.186S54.716,9.768,51.852,9.768z M242.39,9.768c-2.864,0-5.186,2.322-5.186,5.186s2.322,5.186,5.186,5.186
			s5.186-2.322,5.186-5.186S245.254,9.768,242.39,9.768z M242.39,205.07c-2.864,0-5.186,2.322-5.186,5.186
			c0,2.864,2.322,5.186,5.186,5.186s5.186-2.322,5.186-5.186C247.576,207.391,245.254,205.07,242.39,205.07z M266.506,14.954
			c-5.178,0-9.376,4.198-9.376,9.376s4.198,9.376,9.376,9.376c5.178,0,9.376-4.198,9.376-9.376S271.684,14.954,266.506,14.954z"/>
		<path style="fill:#5AAEE1;" d="M194.124,191.204H31.237c-9.321,0-16.946-7.626-16.946-16.946V62.085
			c0-9.321,7.626-16.946,16.946-16.946h162.887c9.321,0,16.946,7.626,16.946,16.946v112.173
			C211.07,183.578,203.444,191.204,194.124,191.204z"/>
		<path style="fill:#F5A12D;" d="M86.562,240.436H58.505v-18.72c0-1.339,1.096-2.435,2.435-2.435h23.186
			c1.339,0,2.435,1.096,2.435,2.435V240.436z"/>
		<path style="fill:#F5A12D;" d="M131.815,240.436h-28.057v-18.72c0-1.339,1.096-2.435,2.435-2.435h23.186
			c1.339,0,2.435,1.096,2.435,2.435V240.436z"/>
		<path style="fill:#F5A12D;" d="M179.45,240.436h-28.057v-18.72c0-1.339,1.096-2.435,2.435-2.435h23.186
			c1.339,0,2.435,1.096,2.435,2.435V240.436z"/>
		<path style="fill:#F5A12D;" d="M224.702,240.436h-28.057v-18.72c0-1.339,1.096-2.435,2.435-2.435h23.186
			c1.339,0,2.435,1.096,2.435,2.435V240.436z"/>
		<path style="fill:#FFFFFF;" d="M236.825,164.834h-8.984c-1.733,0-3.138-1.405-3.138-3.138V77.393c0-1.733,1.405-3.138,3.138-3.138
			h8.984c1.733,0,3.138,1.405,3.138,3.138v84.303C239.963,163.43,238.558,164.834,236.825,164.834z"/>
		<path style="fill:#FFFFFF;" d="M258.023,183.293L258.023,183.293c-1.809,0-3.275-1.466-3.275-3.275v-11.909
			c0-1.809,1.466-3.275,3.275-3.275l0,0c1.809,0,3.275,1.466,3.275,3.275v11.909C261.298,181.827,259.831,183.293,258.023,183.293z"
			/>
		<path style="fill:#FFFFFF;" d="M258.023,142.803L258.023,142.803c-1.809,0-3.275-1.466-3.275-3.275V127.62
			c0-1.809,1.466-3.275,3.275-3.275l0,0c1.809,0,3.275,1.466,3.275,3.275v11.909C261.298,141.337,259.831,142.803,258.023,142.803z"
			/>
		<path style="fill:#FFFFFF;" d="M258.023,104.696L258.023,104.696c-1.809,0-3.275-1.466-3.275-3.275V89.512
			c0-1.809,1.466-3.275,3.275-3.275l0,0c1.809,0,3.275,1.466,3.275,3.275v11.909C261.298,103.23,259.831,104.696,258.023,104.696z"
			/>
		<path style="fill:#FFFFFF;" d="M258.023,66.588L258.023,66.588c-1.809,0-3.275-1.466-3.275-3.275V51.405
			c0-1.809,1.466-3.275,3.275-3.275l0,0c1.809,0,3.275,1.466,3.275,3.275v11.909C261.298,65.122,259.831,66.588,258.023,66.588z"/>
		<path style="fill:#177490;" d="M118.253,166.07h-11.145c-1.274,0-2.307-1.033-2.307-2.307V77.844c0-1.274,1.033-2.307,2.307-2.307
			h11.145c1.274,0,2.307,1.033,2.307,2.307v85.919C120.56,165.037,119.527,166.07,118.253,166.07z"/>
		<path style="fill:#177490;" d="M92.939,70.161H82.901c-0.938,0-1.698-0.76-1.698-1.698V58.425c0-0.938,0.76-1.698,1.698-1.698
			h10.038c0.938,0,1.698,0.76,1.698,1.698v10.038C94.636,69.401,93.876,70.161,92.939,70.161z"/>
		<path style="fill:#177490;" d="M92.939,87.688H82.901c-0.938,0-1.698-0.76-1.698-1.698V75.953c0-0.938,0.76-1.698,1.698-1.698
			h10.038c0.938,0,1.698,0.76,1.698,1.698v10.038C94.636,86.928,93.876,87.688,92.939,87.688z"/>
		<path style="fill:#177490;" d="M92.939,105.216H82.901c-0.938,0-1.698-0.76-1.698-1.698V93.481c0-0.938,0.76-1.698,1.698-1.698
			h10.038c0.938,0,1.698,0.76,1.698,1.698v10.038C94.636,104.456,93.876,105.216,92.939,105.216z"/>
		<path style="fill:#177490;" d="M92.939,122.744H82.901c-0.938,0-1.698-0.76-1.698-1.698v-10.038c0-0.938,0.76-1.698,1.698-1.698
			h10.038c0.938,0,1.698,0.76,1.698,1.698v10.038C94.636,121.984,93.876,122.744,92.939,122.744z"/>
		<path style="fill:#177490;" d="M92.939,140.271H82.901c-0.938,0-1.698-0.76-1.698-1.698v-10.038c0-0.938,0.76-1.698,1.698-1.698
			h10.038c0.938,0,1.698,0.76,1.698,1.698v10.038C94.636,139.511,93.876,140.271,92.939,140.271z"/>
		<path style="fill:#177490;" d="M92.939,157.799H82.901c-0.938,0-1.698-0.76-1.698-1.698v-10.038c0-0.938,0.76-1.698,1.698-1.698
			h10.038c0.938,0,1.698,0.76,1.698,1.698v10.038C94.636,157.039,93.876,157.799,92.939,157.799z"/>
		<path style="fill:#177490;" d="M92.939,175.997H82.901c-0.938,0-1.698-0.76-1.698-1.698v-10.038c0-0.938,0.76-1.698,1.698-1.698
			h10.038c0.938,0,1.698,0.76,1.698,1.698V174.3C94.636,175.237,93.876,175.997,92.939,175.997z"/>
		<path style="fill:#177490;" d="M73.885,70.161H63.847c-0.938,0-1.698-0.76-1.698-1.698V58.425c0-0.938,0.76-1.698,1.698-1.698
			h10.038c0.938,0,1.698,0.76,1.698,1.698v10.038C75.583,69.401,74.822,70.161,73.885,70.161z"/>
		<path style="fill:#177490;" d="M73.885,87.688H63.847c-0.938,0-1.698-0.76-1.698-1.698V75.953c0-0.938,0.76-1.698,1.698-1.698
			h10.038c0.938,0,1.698,0.76,1.698,1.698v10.038C75.583,86.928,74.822,87.688,73.885,87.688z"/>
		<path style="fill:#177490;" d="M73.885,105.216H63.847c-0.938,0-1.698-0.76-1.698-1.698V93.481c0-0.938,0.76-1.698,1.698-1.698
			h10.038c0.938,0,1.698,0.76,1.698,1.698v10.038C75.583,104.456,74.822,105.216,73.885,105.216z"/>
		<path style="fill:#177490;" d="M73.885,122.744H63.847c-0.938,0-1.698-0.76-1.698-1.698v-10.038c0-0.938,0.76-1.698,1.698-1.698
			h10.038c0.938,0,1.698,0.76,1.698,1.698v10.038C75.583,121.984,74.822,122.744,73.885,122.744z"/>
		<path style="fill:#177490;" d="M73.885,140.271H63.847c-0.938,0-1.698-0.76-1.698-1.698v-10.038c0-0.938,0.76-1.698,1.698-1.698
			h10.038c0.938,0,1.698,0.76,1.698,1.698v10.038C75.583,139.511,74.822,140.271,73.885,140.271z"/>
		<path style="fill:#177490;" d="M73.885,157.799H63.847c-0.938,0-1.698-0.76-1.698-1.698v-10.038c0-0.938,0.76-1.698,1.698-1.698
			h10.038c0.938,0,1.698,0.76,1.698,1.698v10.038C75.583,157.039,74.822,157.799,73.885,157.799z"/>
		<path style="fill:#177490;" d="M73.885,175.997H63.847c-0.938,0-1.698-0.76-1.698-1.698v-10.038c0-0.938,0.76-1.698,1.698-1.698
			h10.038c0.938,0,1.698,0.76,1.698,1.698V174.3C75.583,175.237,74.822,175.997,73.885,175.997z"/>
		<path style="fill:#177490;" d="M54.831,70.161H44.793c-0.938,0-1.698-0.76-1.698-1.698V58.425c0-0.938,0.76-1.698,1.698-1.698
			h10.038c0.938,0,1.698,0.76,1.698,1.698v10.038C56.529,69.401,55.769,70.161,54.831,70.161z"/>
		<path style="fill:#177490;" d="M54.831,87.688H44.793c-0.938,0-1.698-0.76-1.698-1.698V75.953c0-0.938,0.76-1.698,1.698-1.698
			h10.038c0.938,0,1.698,0.76,1.698,1.698v10.038C56.529,86.928,55.769,87.688,54.831,87.688z"/>
		<path style="fill:#177490;" d="M54.831,105.216H44.793c-0.938,0-1.698-0.76-1.698-1.698V93.481c0-0.938,0.76-1.698,1.698-1.698
			h10.038c0.938,0,1.698,0.76,1.698,1.698v10.038C56.529,104.456,55.769,105.216,54.831,105.216z"/>
		<path style="fill:#177490;" d="M54.831,122.744H44.793c-0.938,0-1.698-0.76-1.698-1.698v-10.038c0-0.938,0.76-1.698,1.698-1.698
			h10.038c0.938,0,1.698,0.76,1.698,1.698v10.038C56.529,121.984,55.769,122.744,54.831,122.744z"/>
		<path style="fill:#177490;" d="M54.831,140.271H44.793c-0.938,0-1.698-0.76-1.698-1.698v-10.038c0-0.938,0.76-1.698,1.698-1.698
			h10.038c0.938,0,1.698,0.76,1.698,1.698v10.038C56.529,139.511,55.769,140.271,54.831,140.271z"/>
		<path style="fill:#177490;" d="M54.831,157.799H44.793c-0.938,0-1.698-0.76-1.698-1.698v-10.038c0-0.938,0.76-1.698,1.698-1.698
			h10.038c0.938,0,1.698,0.76,1.698,1.698v10.038C56.529,157.039,55.769,157.799,54.831,157.799z"/>
		<path style="fill:#177490;" d="M54.831,175.997H44.793c-0.938,0-1.698-0.76-1.698-1.698v-10.038c0-0.938,0.76-1.698,1.698-1.698
			h10.038c0.938,0,1.698,0.76,1.698,1.698V174.3C56.529,175.237,55.769,175.997,54.831,175.997z"/>
		<path style="fill:#177490;" d="M35.777,70.161H25.74c-0.938,0-1.698-0.76-1.698-1.698V58.425c0-0.938,0.76-1.698,1.698-1.698
			h10.038c0.938,0,1.698,0.76,1.698,1.698v10.038C37.475,69.401,36.715,70.161,35.777,70.161z"/>
		<path style="fill:#177490;" d="M35.777,87.688H25.74c-0.938,0-1.698-0.76-1.698-1.698V75.953c0-0.938,0.76-1.698,1.698-1.698
			h10.038c0.938,0,1.698,0.76,1.698,1.698v10.038C37.475,86.928,36.715,87.688,35.777,87.688z"/>
		<path style="fill:#177490;" d="M35.777,105.216H25.74c-0.938,0-1.698-0.76-1.698-1.698V93.481c0-0.938,0.76-1.698,1.698-1.698
			h10.038c0.938,0,1.698,0.76,1.698,1.698v10.038C37.475,104.456,36.715,105.216,35.777,105.216z"/>
		<path style="fill:#177490;" d="M35.777,122.744H25.74c-0.938,0-1.698-0.76-1.698-1.698v-10.038c0-0.938,0.76-1.698,1.698-1.698
			h10.038c0.938,0,1.698,0.76,1.698,1.698v10.038C37.475,121.984,36.715,122.744,35.777,122.744z"/>
		<path style="fill:#177490;" d="M35.777,140.271H25.74c-0.938,0-1.698-0.76-1.698-1.698v-10.038c0-0.938,0.76-1.698,1.698-1.698
			h10.038c0.938,0,1.698,0.76,1.698,1.698v10.038C37.475,139.511,36.715,140.271,35.777,140.271z"/>
		<path style="fill:#177490;" d="M35.777,157.799H25.74c-0.938,0-1.698-0.76-1.698-1.698v-10.038c0-0.938,0.76-1.698,1.698-1.698
			h10.038c0.938,0,1.698,0.76,1.698,1.698v10.038C37.475,157.039,36.715,157.799,35.777,157.799z"/>
		<path style="fill:#177490;" d="M35.777,175.997H25.74c-0.938,0-1.698-0.76-1.698-1.698v-10.038c0-0.938,0.76-1.698,1.698-1.698
			h10.038c0.938,0,1.698,0.76,1.698,1.698V174.3C37.475,175.237,36.715,175.997,35.777,175.997z"/>
		<path style="fill:#177490;" d="M197.735,70.161h-10.038c-0.938,0-1.698-0.76-1.698-1.698V58.425c0-0.938,0.76-1.698,1.698-1.698
			h10.038c0.938,0,1.698,0.76,1.698,1.698v10.038C199.432,69.401,198.672,70.161,197.735,70.161z"/>
		<path style="fill:#177490;" d="M197.735,87.688h-10.038c-0.938,0-1.698-0.76-1.698-1.698V75.953c0-0.938,0.76-1.698,1.698-1.698
			h10.038c0.938,0,1.698,0.76,1.698,1.698v10.038C199.432,86.928,198.672,87.688,197.735,87.688z"/>
		<path style="fill:#177490;" d="M197.735,105.216h-10.038c-0.938,0-1.698-0.76-1.698-1.698V93.481c0-0.938,0.76-1.698,1.698-1.698
			h10.038c0.938,0,1.698,0.76,1.698,1.698v10.038C199.432,104.456,198.672,105.216,197.735,105.216z"/>
		<path style="fill:#177490;" d="M197.735,122.744h-10.038c-0.938,0-1.698-0.76-1.698-1.698v-10.038c0-0.938,0.76-1.698,1.698-1.698
			h10.038c0.938,0,1.698,0.76,1.698,1.698v10.038C199.432,121.984,198.672,122.744,197.735,122.744z"/>
		<path style="fill:#177490;" d="M197.735,140.271h-10.038c-0.938,0-1.698-0.76-1.698-1.698v-10.038c0-0.938,0.76-1.698,1.698-1.698
			h10.038c0.938,0,1.698,0.76,1.698,1.698v10.038C199.432,139.511,198.672,140.271,197.735,140.271z"/>
		<path style="fill:#177490;" d="M197.735,157.799h-10.038c-0.938,0-1.698-0.76-1.698-1.698v-10.038c0-0.938,0.76-1.698,1.698-1.698
			h10.038c0.938,0,1.698,0.76,1.698,1.698v10.038C199.432,157.039,198.672,157.799,197.735,157.799z"/>
		<path style="fill:#177490;" d="M197.735,175.997h-10.038c-0.938,0-1.698-0.76-1.698-1.698v-10.038c0-0.938,0.76-1.698,1.698-1.698
			h10.038c0.938,0,1.698,0.76,1.698,1.698V174.3C199.432,175.237,198.672,175.997,197.735,175.997z"/>
		<path style="fill:#177490;" d="M178.681,70.161h-10.038c-0.938,0-1.698-0.76-1.698-1.698V58.425c0-0.938,0.76-1.698,1.698-1.698
			h10.038c0.938,0,1.698,0.76,1.698,1.698v10.038C180.379,69.401,179.618,70.161,178.681,70.161z"/>
		<path style="fill:#177490;" d="M178.681,87.688h-10.038c-0.938,0-1.698-0.76-1.698-1.698V75.953c0-0.938,0.76-1.698,1.698-1.698
			h10.038c0.938,0,1.698,0.76,1.698,1.698v10.038C180.379,86.928,179.618,87.688,178.681,87.688z"/>
		<path style="fill:#177490;" d="M178.681,105.216h-10.038c-0.938,0-1.698-0.76-1.698-1.698V93.481c0-0.938,0.76-1.698,1.698-1.698
			h10.038c0.938,0,1.698,0.76,1.698,1.698v10.038C180.379,104.456,179.618,105.216,178.681,105.216z"/>
		<path style="fill:#177490;" d="M178.681,122.744h-10.038c-0.938,0-1.698-0.76-1.698-1.698v-10.038c0-0.938,0.76-1.698,1.698-1.698
			h10.038c0.938,0,1.698,0.76,1.698,1.698v10.038C180.379,121.984,179.618,122.744,178.681,122.744z"/>
		<path style="fill:#177490;" d="M178.681,140.271h-10.038c-0.938,0-1.698-0.76-1.698-1.698v-10.038c0-0.938,0.76-1.698,1.698-1.698
			h10.038c0.938,0,1.698,0.76,1.698,1.698v10.038C180.379,139.511,179.618,140.271,178.681,140.271z"/>
		<path style="fill:#177490;" d="M178.681,157.799h-10.038c-0.938,0-1.698-0.76-1.698-1.698v-10.038c0-0.938,0.76-1.698,1.698-1.698
			h10.038c0.938,0,1.698,0.76,1.698,1.698v10.038C180.379,157.039,179.618,157.799,178.681,157.799z"/>
		<path style="fill:#177490;" d="M178.681,175.997h-10.038c-0.938,0-1.698-0.76-1.698-1.698v-10.038c0-0.938,0.76-1.698,1.698-1.698
			h10.038c0.938,0,1.698,0.76,1.698,1.698V174.3C180.379,175.237,179.618,175.997,178.681,175.997z"/>
		<path style="fill:#177490;" d="M159.627,70.161h-10.038c-0.938,0-1.698-0.76-1.698-1.698V58.425c0-0.938,0.76-1.698,1.698-1.698
			h10.038c0.938,0,1.698,0.76,1.698,1.698v10.038C161.325,69.401,160.565,70.161,159.627,70.161z"/>
		<path style="fill:#177490;" d="M159.627,87.688h-10.038c-0.938,0-1.698-0.76-1.698-1.698V75.953c0-0.938,0.76-1.698,1.698-1.698
			h10.038c0.938,0,1.698,0.76,1.698,1.698v10.038C161.325,86.928,160.565,87.688,159.627,87.688z"/>
		<path style="fill:#177490;" d="M159.627,105.216h-10.038c-0.938,0-1.698-0.76-1.698-1.698V93.481c0-0.938,0.76-1.698,1.698-1.698
			h10.038c0.938,0,1.698,0.76,1.698,1.698v10.038C161.325,104.456,160.565,105.216,159.627,105.216z"/>
		<path style="fill:#177490;" d="M159.627,122.744h-10.038c-0.938,0-1.698-0.76-1.698-1.698v-10.038c0-0.938,0.76-1.698,1.698-1.698
			h10.038c0.938,0,1.698,0.76,1.698,1.698v10.038C161.325,121.984,160.565,122.744,159.627,122.744z"/>
		<path style="fill:#177490;" d="M159.627,140.271h-10.038c-0.938,0-1.698-0.76-1.698-1.698v-10.038c0-0.938,0.76-1.698,1.698-1.698
			h10.038c0.938,0,1.698,0.76,1.698,1.698v10.038C161.325,139.511,160.565,140.271,159.627,140.271z"/>
		<path style="fill:#177490;" d="M159.627,157.799h-10.038c-0.938,0-1.698-0.76-1.698-1.698v-10.038c0-0.938,0.76-1.698,1.698-1.698
			h10.038c0.938,0,1.698,0.76,1.698,1.698v10.038C161.325,157.039,160.565,157.799,159.627,157.799z"/>
		<path style="fill:#177490;" d="M159.627,175.997h-10.038c-0.938,0-1.698-0.76-1.698-1.698v-10.038c0-0.938,0.76-1.698,1.698-1.698
			h10.038c0.938,0,1.698,0.76,1.698,1.698V174.3C161.325,175.237,160.565,175.997,159.627,175.997z"/>
		<path style="fill:#177490;" d="M140.573,70.161h-10.038c-0.938,0-1.698-0.76-1.698-1.698V58.425c0-0.938,0.76-1.698,1.698-1.698
			h10.038c0.938,0,1.698,0.76,1.698,1.698v10.038C142.271,69.401,141.511,70.161,140.573,70.161z"/>
		<path style="fill:#177490;" d="M140.573,87.688h-10.038c-0.938,0-1.698-0.76-1.698-1.698V75.953c0-0.938,0.76-1.698,1.698-1.698
			h10.038c0.938,0,1.698,0.76,1.698,1.698v10.038C142.271,86.928,141.511,87.688,140.573,87.688z"/>
		<path style="fill:#177490;" d="M140.573,105.216h-10.038c-0.938,0-1.698-0.76-1.698-1.698V93.481c0-0.938,0.76-1.698,1.698-1.698
			h10.038c0.938,0,1.698,0.76,1.698,1.698v10.038C142.271,104.456,141.511,105.216,140.573,105.216z"/>
		<path style="fill:#177490;" d="M140.573,122.744h-10.038c-0.938,0-1.698-0.76-1.698-1.698v-10.038c0-0.938,0.76-1.698,1.698-1.698
			h10.038c0.938,0,1.698,0.76,1.698,1.698v10.038C142.271,121.984,141.511,122.744,140.573,122.744z"/>
		<path style="fill:#177490;" d="M140.573,140.271h-10.038c-0.938,0-1.698-0.76-1.698-1.698v-10.038c0-0.938,0.76-1.698,1.698-1.698
			h10.038c0.938,0,1.698,0.76,1.698,1.698v10.038C142.271,139.511,141.511,140.271,140.573,140.271z"/>
		<path style="fill:#177490;" d="M140.573,157.799h-10.038c-0.938,0-1.698-0.76-1.698-1.698v-10.038c0-0.938,0.76-1.698,1.698-1.698
			h10.038c0.938,0,1.698,0.76,1.698,1.698v10.038C142.271,157.039,141.511,157.799,140.573,157.799z"/>
		<path style="fill:#177490;" d="M140.573,175.997h-10.038c-0.938,0-1.698-0.76-1.698-1.698v-10.038c0-0.938,0.76-1.698,1.698-1.698
			h10.038c0.938,0,1.698,0.76,1.698,1.698V174.3C142.271,175.237,141.511,175.997,140.573,175.997z"/>
	</g>
</g>
<g id="Layer_4">
</g>
<g id="Layer_3">
</g>
<g id="Layer_2">
</g>
</svg>
