<?xml version="1.0" encoding="iso-8859-1"?>
<!-- Generator: Adobe Illustrator 21.1.0, SVG Export Plug-In . SVG Version: 6.00 Build 0)  -->
<svg version="1.0" xmlns="http://www.w3.org/2000/svg" xmlns:xlink="http://www.w3.org/1999/xlink" x="0px" y="0px"
	 viewBox="0 0 212.773 204.896" style="enable-background:new 0 0 212.773 204.896;" xml:space="preserve">
<g id="Layer_97">
</g>
<g id="Layer_96">
</g>
<g id="Layer_95">
</g>
<g id="Layer_94">
</g>
<g id="Layer_93">
</g>
<g id="Layer_92">
</g>
<g id="Layer_91">
</g>
<g id="Layer_90">
</g>
<g id="Layer_89">
</g>
<g id="Layer_88">
</g>
<g id="Layer_87">
</g>
<g id="Layer_86">
</g>
<g id="Layer_85">
</g>
<g id="Layer_84">
</g>
<g id="Layer_83">
</g>
<g id="Layer_82">
</g>
<g id="Layer_81">
</g>
<g id="Layer_80">
</g>
<g id="Layer_79">
</g>
<g id="Layer_78">
</g>
<g id="Layer_77">
</g>
<g id="Layer_76">
</g>
<g id="Layer_75">
</g>
<g id="Layer_74">
</g>
<g id="Layer_73">
</g>
<g id="Layer_72">
</g>
<g id="Layer_71">
</g>
<g id="Layer_69">
</g>
<g id="Layer_68">
</g>
<g id="Layer_67">
</g>
<g id="Layer_66">
</g>
<g id="Layer_65">
</g>
<g id="Layer_64">
</g>
<g id="Layer_63">
</g>
<g id="Layer_62">
</g>
<g id="Layer_61">
</g>
<g id="Layer_60">
</g>
<g id="Layer_59">
</g>
<g id="Layer_58">
</g>
<g id="Layer_57">
</g>
<g id="Layer_56">
</g>
<g id="Layer_55">
</g>
<g id="Layer_54">
</g>
<g id="Layer_53">
</g>
<g id="Layer_52">
</g>
<g id="Layer_51">
</g>
<g id="Layer_50">
</g>
<g id="Layer_49">
</g>
<g id="Layer_48">
</g>
<g id="Layer_98">
</g>
<g id="Layer_47">
</g>
<g id="Layer_46">
</g>
<g id="Layer_45">
</g>
<g id="Layer_44">
</g>
<g id="Layer_43">
</g>
<g id="Layer_42">
</g>
<g id="Layer_41">
</g>
<g id="Layer_40">
</g>
<g id="Layer_39">
</g>
<g id="Layer_38">
</g>
<g id="Layer_37">
</g>
<g id="Layer_36">
</g>
<g id="Layer_35">
</g>
<g id="Layer_34">
</g>
<g id="Layer_33">
</g>
<g id="Layer_32">
</g>
<g id="Layer_31">
</g>
<g id="Layer_29">
</g>
<g id="Layer_28">
</g>
<g id="Layer_27">
</g>
<g id="Layer_99">
</g>
<g id="Layer_26">
</g>
<g id="Layer_25">
	<g>
		
			<ellipse transform="matrix(0.9761 -0.2174 0.2174 0.9761 -30.4219 8.2388)" style="fill:#ECD1BE;" cx="22.24" cy="142.408" rx="22.235" ry="22.235"/>
		
			<ellipse transform="matrix(0.9761 -0.2174 0.2174 0.9761 -20.5662 27.5967)" style="fill:#ECD1BE;" cx="115.163" cy="107.286" rx="97.589" ry="97.589"/>
		<path style="fill:#FFFFFF;" d="M172.851,134.499c3.669,14.119-4.802,28.539-18.921,32.208
			c-14.119,3.669-28.539-4.802-32.208-18.921L172.851,134.499z"/>
		<ellipse transform="matrix(0.9761 -0.2174 0.2174 0.9761 -26.3433 24.5741)" cx="98.534" cy="132.035" rx="5.378" ry="5.378"/>
		<polyline style="fill:none;stroke:#000000;stroke-width:5;stroke-miterlimit:10;" points="137.93,76.764 155.679,119.31 
			138.257,123.19 		"/>
		<ellipse transform="matrix(0.9761 -0.2174 0.2174 0.9761 -20.107 42.8608)" cx="184.778" cy="112.83" rx="5.378" ry="5.378"/>
		<path style="fill:#683B37;" d="M202.609,55.57c-12.771,3.661-51.478,14.055-90.018,17.358
			c-11.924,1.022-23.545-4.142-31.016-13.492l0,0c0,0-8.186,33.412-28.781,44.861c-5.489,3.051-9.808,7.835-11.719,13.818
			l-3.979,12.456c-0.288,0.9-1.053,1.566-1.984,1.725l-10.702,1.832c-1.244,0.213-2.455-0.523-2.839-1.726L1.035,68.047
			c-0.529-1.657,0.624-3.375,2.358-3.514l14.16-1.132L31.97,43.194C43.107,27.583,58.848,15.846,76.989,9.628l13.599-4.661
			c16.069-5.508,33.35-6.456,49.924-2.737l0,0c21.42,4.805,40.413,17.118,53.543,34.711l10.206,13.676
			C205.592,52.399,204.748,54.956,202.609,55.57z"/>
		
			<ellipse transform="matrix(0.9934 -0.1148 0.1148 0.9934 -17.0832 11.014)" style="fill:#D7A483;" cx="87.086" cy="153.83" rx="2.724" ry="2.724"/>
		
			<ellipse transform="matrix(0.9934 -0.1148 0.1148 0.9934 -17.3522 12.2493)" style="fill:#D7A483;" cx="97.677" cy="156.783" rx="2.724" ry="2.724"/>
		
			<ellipse transform="matrix(0.9934 -0.1148 0.1148 0.9934 -18.2055 11.3666)" style="fill:#D7A483;" cx="89.587" cy="163.751" rx="2.724" ry="2.724"/>
		
			<ellipse transform="matrix(0.1148 -0.9934 0.9934 0.1148 43.2237 313.8979)" style="fill:#D7A483;" cx="197.742" cy="132.696" rx="2.724" ry="2.724"/>
		
			<ellipse transform="matrix(0.1148 -0.9934 0.9934 0.1148 33.7036 303.5064)" style="fill:#D7A483;" cx="187.151" cy="132.842" rx="2.724" ry="2.724"/>
		
			<ellipse transform="matrix(0.1148 -0.9934 0.9934 0.1148 28.67 317.4073)" style="fill:#D7A483;" cx="192.434" cy="142.617" rx="2.724" ry="2.724"/>
	</g>
</g>
<g id="Layer_24">
</g>
<g id="Layer_23">
</g>
<g id="Layer_22">
</g>
<g id="Layer_21">
</g>
<g id="Layer_20">
</g>
<g id="Layer_19">
</g>
<g id="Layer_18">
</g>
<g id="Layer_17">
</g>
<g id="Layer_16">
</g>
<g id="Layer_15">
</g>
<g id="Layer_14">
</g>
<g id="Layer_13">
</g>
<g id="Layer_12">
</g>
<g id="Layer_11">
</g>
<g id="Layer_10">
</g>
<g id="Layer_9">
</g>
<g id="Layer_8">
</g>
<g id="Layer_7">
</g>
<g id="Layer_6">
</g>
<g id="Layer_5">
</g>
<g id="Layer_4">
</g>
<g id="Layer_3">
</g>
<g id="Layer_2">
</g>
</svg>
