<?xml version="1.0" encoding="iso-8859-1"?>
<!-- Generator: Adobe Illustrator 21.1.0, SVG Export Plug-In . SVG Version: 6.00 Build 0)  -->
<svg version="1.0" id="Layer_1" xmlns="http://www.w3.org/2000/svg" xmlns:xlink="http://www.w3.org/1999/xlink" x="0px" y="0px"
	 viewBox="0 0 595.28 841.89" style="enable-background:new 0 0 595.28 841.89;" xml:space="preserve">
<ellipse transform="matrix(0.5507 -0.8347 0.8347 0.5507 -3.3696 364.6209)" style="fill:#EA691B;" cx="337.028" cy="185.441" rx="36.284" ry="34.81"/>
<ellipse transform="matrix(0.5507 -0.8347 0.8347 0.5507 6.0859 399.6292)" style="fill:#EA691B;" cx="374.276" cy="194.161" rx="36.284" ry="34.81"/>
<ellipse transform="matrix(0.5507 -0.8347 0.8347 0.5507 -2.6752 438.1695)" style="fill:#EA691B;" cx="405.698" cy="221.57" rx="36.284" ry="34.81"/>
<ellipse transform="matrix(0.4355 -0.9002 0.9002 0.4355 -14.8478 456.4637)" style="fill:#EED3BF;" cx="356.522" cy="240.07" rx="51.138" ry="51.138"/>
<ellipse transform="matrix(0.5507 -0.8347 0.8347 0.5507 -62.3186 388.068)" style="fill:#E94880;" cx="329.335" cy="251.925" rx="3.165" ry="3.165"/>
<ellipse transform="matrix(0.5507 -0.8347 0.8347 0.5507 -62.0975 393.1969)" style="fill:#E94880;" cx="334.21" cy="254.284" rx="3.165" ry="3.165"/>
<ellipse transform="matrix(0.5507 -0.8347 0.8347 0.5507 -64.3707 458.4707)" style="fill:#8D86BF;" cx="393.709" cy="289.032" rx="4.777" ry="4.777"/>
<ellipse transform="matrix(0.5507 -0.8347 0.8347 0.5507 -63.6461 354.6578)" style="fill:#8D86BF;" cx="297.635" cy="236.453" rx="4.421" ry="4.421"/>
<ellipse transform="matrix(0.4355 -0.9002 0.9002 0.4355 -18.9707 510.5023)" style="fill:#EED3BF;" cx="397.546" cy="270.377" rx="11.652" ry="11.652"/>
<path style="fill:#020203;" d="M321.242,247.609c-3.329,6.881-0.449,15.158,6.432,18.487c6.881,3.329,15.158,0.449,18.487-6.432
	L321.242,247.609z"/>
<ellipse transform="matrix(0.4355 -0.9002 0.9002 0.4355 -26.3581 467.8933)" style="fill:#020203;" cx="359.88" cy="254.962" rx="2.818" ry="2.818"/>
<polyline style="fill:none;stroke:#020203;stroke-width:2.8572;stroke-miterlimit:10;" points="346.431,222.036 332.263,241.603 
	340.683,245.676 "/>
<ellipse transform="matrix(0.4355 -0.9002 0.9002 0.4355 -31.7362 418.9914)" style="fill:#020203;" cx="318.201" cy="234.799" rx="2.818" ry="2.818"/>
<path style="fill:#EA691B;" d="M403.654,260.006c-51.118-17.109-71.746-84.672-71.746-84.672l37.151-0.195l65.672,58.911
	L403.654,260.006z"/>
<path style="fill:#EA691B;" d="M369.855,250.791l-10.715-6.351c-0.768-0.455-1.024-1.455-0.569-2.223v0
	c0.455-0.768,1.455-1.024,2.223-0.569l10.715,6.351c0.768,0.455,1.024,1.455,0.569,2.223l0,0
	C371.623,250.99,370.622,251.246,369.855,250.791z"/>
<path style="fill:#EA691B;" d="M327.59,226.889l-10.715-6.351c-0.768-0.455-1.024-1.455-0.569-2.223v0
	c0.455-0.768,1.455-1.024,2.223-0.569l10.715,6.351c0.768,0.455,1.024,1.455,0.569,2.223h0
	C329.358,227.088,328.357,227.344,327.59,226.889z"/>
<ellipse transform="matrix(0.9022 -0.4312 0.4312 0.9022 30.4124 160.4478)" style="fill:#81655A;" cx="369.078" cy="13.149" rx="10.718" ry="10.718"/>
<ellipse transform="matrix(0.9022 -0.4312 0.4312 0.9022 20.2831 142.268)" style="fill:#81655A;" cx="323.917" cy="26.399" rx="47.041" ry="47.041"/>
<path style="fill:#020203;" d="M371.056,23.638l-12.045,3.901l-6.726-20.768c0,0-12.922,9.821-24.682-2.876l-10.906,14.804
	L306.071,0.804l-6.321,23.987l-15.602-9.641l-9.14,6.583c0,0-6.937-10.233,0.166-19.377l-9.354-7.035l8.816-0.842
	c0,0,24.779-30.444,65.322-27.844c7.8,0.5,14.497,5.74,16.905,13.175L371.056,23.638z"/>
<path style="fill:#FFFFFF;" d="M309.595,54.945c2.808,6.447,10.31,9.397,16.757,6.59s9.397-10.31,6.59-16.757L309.595,54.945z"/>
<ellipse transform="matrix(0.9022 -0.4312 0.4312 0.9022 19.1922 148.4709)" style="fill:#020203;" cx="337.053" cy="31.906" rx="2.592" ry="2.592"/>
<polyline style="fill:none;stroke:#020203;stroke-width:2.2661;stroke-miterlimit:10;" points="305.669,22.658 311.592,44.076 
	319.354,40.366 "/>
<ellipse transform="matrix(0.9022 -0.4312 0.4312 0.9022 7.5149 133.6954)" style="fill:#020203;" cx="298.626" cy="50.273" rx="2.592" ry="2.592"/>
<path style="fill:#020203;stroke:#020203;stroke-width:0.7554;stroke-miterlimit:10;" d="M340.302,23.711l-10.717,4.051
	c-0.768,0.29-1.634-0.1-1.924-0.868v0c-0.29-0.768,0.1-1.634,0.868-1.924l10.717-4.051c0.768-0.29,1.634,0.1,1.924,0.868v0
	C341.46,22.555,341.069,23.421,340.302,23.711z"/>
<path style="fill:#020203;stroke:#020203;stroke-width:0.7554;stroke-miterlimit:10;" d="M300.266,40.992l-10.339,4.938
	c-0.741,0.354-1.636,0.037-1.99-0.704l0,0c-0.354-0.741-0.037-1.636,0.704-1.99l10.339-4.938c0.741-0.354,1.636-0.037,1.99,0.704v0
	C301.323,39.743,301.007,40.638,300.266,40.992z"/>
<circle style="fill:#F7B8A2;" cx="359.05" cy="273.922" r="8.966"/>
<path style="fill:#AEAFAE;" d="M270.383,199.822l-109.065-22.009c-3.607-0.728-5.942-4.243-5.214-7.85l19.716-97.704
	c1.883-9.329,11.055-15.421,20.384-13.539l88.206,17.8c9.329,1.883,15.421,11.055,13.539,20.384l-19.716,97.704
	C277.505,198.216,273.991,200.55,270.383,199.822z"/>
<path style="fill:#E9E9E9;" d="M267.024,157.053l-87.759-17.71c-4.638-0.936-7.667-5.497-6.731-10.135l11.068-54.846
	c0.936-4.638,5.497-7.667,10.135-6.731l87.759,17.71c4.638,0.936,7.667,5.497,6.731,10.135l-11.068,54.846
	C276.223,154.96,271.662,157.989,267.024,157.053z"/>
<rect x="208.217" y="123.958" transform="matrix(0.9802 0.1978 -0.1978 0.9802 29.3919 -42.5085)" style="fill:#1E1F1D;" width="38.503" height="3.813"/>
<rect x="222.237" y="103.43" transform="matrix(0.1978 -0.9802 0.9802 0.1978 83.7159 312.7152)" style="fill:#1E1F1D;" width="21.367" height="3.558"/>
<rect x="203.385" y="115.676" transform="matrix(0.9802 0.1978 -0.1978 0.9802 27.3376 -38.5069)" style="fill:#1E1F1D;" width="6.055" height="3.813"/>
<path style="fill:#1E1F1D;" d="M265.385,176.449l-36.102-7.285c-0.959-0.194-1.586-1.137-1.392-2.096l0.025-0.123
	c0.194-0.959,1.137-1.586,2.096-1.392l36.102,7.285c0.959,0.194,1.586,1.137,1.392,2.096l-0.025,0.123
	C267.288,176.016,266.344,176.643,265.385,176.449z"/>
<path style="fill:#1E1F1D;" d="M177.022,158.618l-4.472-0.902c-0.959-0.194-1.586-1.137-1.392-2.096l0.025-0.123
	c0.194-0.959,1.137-1.586,2.096-1.392l4.472,0.902c0.959,0.194,1.586,1.137,1.392,2.096l-0.025,0.123
	C178.924,158.185,177.981,158.811,177.022,158.618z"/>
<rect x="247.062" y="124.49" transform="matrix(0.9802 0.1978 -0.1978 0.9802 29.9442 -46.9725)" style="fill:#1E1F1D;" width="6.055" height="3.813"/>
<rect x="227.672" y="90.011" transform="matrix(0.9802 0.1978 -0.1978 0.9802 22.7406 -43.8182)" style="fill:#1E1F1D;" width="6.055" height="3.813"/>
<rect x="190.459" y="90.185" transform="matrix(0.9802 0.1978 -0.1978 0.9802 22.1182 -37.2376)" style="fill:#1E1F1D;" width="13.979" height="3.813"/>
<rect x="260.894" y="104.399" transform="matrix(0.9802 0.1978 -0.1978 0.9802 26.3215 -50.8894)" style="fill:#1E1F1D;" width="13.979" height="3.813"/>
<rect x="261.817" y="114.923" transform="matrix(0.9802 0.1978 -0.1978 0.9802 28.4819 -50.0664)" style="fill:#1E1F1D;" width="6.055" height="5.216"/>
<rect x="191.21" y="100.674" transform="matrix(0.9802 0.1978 -0.1978 0.9802 24.2683 -36.3811)" style="fill:#1E1F1D;" width="6.055" height="5.216"/>
<path style="fill:#1E1F1D;" d="M269.145,178.711l-18.963-3.827l1.312-6.501l18.963,3.827c1.212,0.245,1.997,1.426,1.752,2.638
	l-0.426,2.111C271.539,178.172,270.358,178.956,269.145,178.711z"/>
<rect x="182.181" y="115.278" transform="matrix(0.9802 0.1978 -0.1978 0.9802 27.4635 -34.7677)" style="fill:#E94880;" width="11.154" height="9.61"/>
<rect x="259.237" y="130.827" transform="matrix(0.9802 0.1978 -0.1978 0.9802 32.0619 -49.7028)" style="fill:#E94880;" width="11.154" height="9.61"/>
<g>
	<defs>
		<polygon id="XMLID_102_" points="87.046,77.59 69.171,100.532 88.756,181.395 112.009,175.763 		"/>
	</defs>
	<use xlink:href="#XMLID_102_"  style="overflow:visible;fill:#E9E9E9;"/>
	<clipPath id="XMLID_3_">
		<use xlink:href="#XMLID_102_"  style="overflow:visible;"/>
	</clipPath>
	
		<line style="clip-path:url(#XMLID_3_);fill:#FFFFFF;stroke:#D6D7D7;stroke-width:2.5393;stroke-miterlimit:10;" x1="72.192" y1="90.796" x2="94.241" y2="181.828"/>
	
		<line style="clip-path:url(#XMLID_3_);fill:#FFFFFF;stroke:#D6D7D7;stroke-width:2.5393;stroke-miterlimit:10;" x1="77.55" y1="85.131" x2="100.598" y2="180.289"/>
	
		<line style="clip-path:url(#XMLID_3_);fill:#FFFFFF;stroke:#D6D7D7;stroke-width:2.5393;stroke-miterlimit:10;" x1="82.708" y1="78.641" x2="106.955" y2="178.749"/>
</g>
<g>
	<defs>
		<path id="XMLID_101_" d="M87.061,77.587l29.069-7.041c1.165-0.282,2.338,0.434,2.621,1.599l5.205,21.489
			c0.282,1.165-0.434,2.338-1.599,2.621l-29.069,7.041"/>
	</defs>
	<use xlink:href="#XMLID_101_"  style="overflow:visible;fill:#D6D7D7;"/>
	<clipPath id="XMLID_4_">
		<use xlink:href="#XMLID_101_"  style="overflow:visible;"/>
	</clipPath>
	
		<line style="clip-path:url(#XMLID_4_);fill:#FFFFFF;stroke:#C7C7C6;stroke-width:2.5398;stroke-miterlimit:10;" x1="73.086" y1="101.31" x2="140.344" y2="85.019"/>
	
		<line style="clip-path:url(#XMLID_4_);fill:#FFFFFF;stroke:#C7C7C6;stroke-width:2.5398;stroke-miterlimit:10;" x1="71.546" y1="94.953" x2="138.804" y2="78.662"/>
	
		<line style="clip-path:url(#XMLID_4_);fill:#FFFFFF;stroke:#C7C7C6;stroke-width:2.5398;stroke-miterlimit:10;" x1="70.006" y1="88.596" x2="137.265" y2="72.306"/>
</g>
<path style="fill:#4CAC33;" d="M146.966,100.133l-31.998,7.75c-4.095,0.992-8.257-1.547-9.249-5.642l-7.75-31.998
	c-0.992-4.095,1.547-8.257,5.642-9.249l31.998-7.75c4.095-0.992,8.257,1.547,9.249,5.642l7.75,31.998
	C153.6,94.979,151.061,99.141,146.966,100.133z"/>
<path style="fill:#1E1F1D;" d="M139.365,93.538l-20.937,5.071c-2.679,0.649-5.402-1.012-6.051-3.692l-5.071-20.937
	c-0.649-2.679,1.012-5.402,3.692-6.051l20.937-5.071c2.679-0.649,5.402,1.012,6.051,3.692l5.071,20.937
	C143.706,90.166,142.045,92.889,139.365,93.538z"/>
<ellipse transform="matrix(0.9719 -0.2354 0.2354 0.9719 -15.5758 31.7053)" style="fill:#FFFFFF;" cx="125.006" cy="81.09" rx="9.602" ry="9.602"/>
<path style="fill:#3FB9C8;" d="M291.72,280.19l-29.906,25.292c-4.908,4.151-12.319,3.531-16.47-1.377l-44.65-52.796
	c-4.151-4.908-3.531-12.319,1.377-16.47l29.906-25.292c4.908-4.151,12.319-3.531,16.47,1.377l44.65,52.796
	C297.248,268.628,296.628,276.039,291.72,280.19z"/>
<path style="fill:#E9E9E9;" d="M261.981,244.756l-25.855,21.866c-2.801,2.369-7.03,2.015-9.399-0.786l-17.166-20.297
	c-2.369-2.801-2.015-7.03,0.786-9.399l25.855-21.866c2.801-2.369,7.03-2.015,9.399,0.786l17.166,20.297
	C265.135,238.158,264.782,242.388,261.981,244.756z"/>
<ellipse transform="matrix(0.7636 -0.6457 0.6457 0.7636 -100.2323 231.3527)" style="fill:#E9E9E9;" cx="265.801" cy="252.546" rx="2.975" ry="2.975"/>
<ellipse transform="matrix(0.7636 -0.6457 0.6457 0.7636 -103.8806 237.7573)" style="fill:#E9E9E9;" cx="272.722" cy="260.73" rx="2.975" ry="2.975"/>
<ellipse transform="matrix(0.7636 -0.6457 0.6457 0.7636 -105.7925 232.4268)" style="fill:#E9E9E9;" cx="264.488" cy="260.675" rx="2.975" ry="2.975"/>
<ellipse transform="matrix(0.7636 -0.6457 0.6457 0.7636 -98.3205 236.6832)" style="fill:#E9E9E9;" cx="274.036" cy="252.6" rx="2.975" ry="2.975"/>
<path style="fill:#1E1F1D;" d="M237.205,286.254l-2.234-2.641c-0.298-0.352-0.253-0.884,0.099-1.182l10.558-8.929
	c0.352-0.298,0.884-0.253,1.182,0.099l2.234,2.641c0.298,0.352,0.253,0.884-0.099,1.182l-10.558,8.929
	C238.035,286.651,237.503,286.607,237.205,286.254z"/>
<path style="fill:#1E1F1D;" d="M248.335,284.73l-2.641,2.234c-0.352,0.298-0.884,0.253-1.182-0.099l-8.929-10.558
	c-0.298-0.352-0.253-0.884,0.099-1.182l2.641-2.234c0.352-0.298,0.884-0.253,1.182,0.099l8.929,10.558
	C248.732,283.9,248.687,284.432,248.335,284.73z"/>
<path style="fill:#1E1F1D;" d="M261.601,280.248l-3.417,2.889c-0.383,0.324-0.962,0.276-1.286-0.107l0,0
	c-0.324-0.383-0.276-0.962,0.107-1.286l3.417-2.889c0.383-0.324,0.962-0.276,1.286,0.107l0,0
	C262.032,279.345,261.984,279.924,261.601,280.248z"/>
<path style="fill:#1E1F1D;" d="M268.293,274.588l-3.417,2.889c-0.383,0.324-0.962,0.276-1.286-0.107l0,0
	c-0.324-0.383-0.276-0.962,0.108-1.286l3.417-2.889c0.383-0.324,0.962-0.276,1.286,0.107l0,0
	C268.725,273.685,268.676,274.264,268.293,274.588z"/>
<path style="fill:#1E1F1D;" d="M204.888,246.628l2.889,3.417c0.324,0.383,0.276,0.962-0.107,1.286v0
	c-0.383,0.324-0.962,0.276-1.286-0.107l-2.889-3.417c-0.324-0.383-0.276-0.962,0.107-1.286l0,0
	C203.985,246.196,204.564,246.245,204.888,246.628z"/>
<path style="fill:#1E1F1D;" d="M210.846,253.673l2.889,3.417c0.324,0.383,0.276,0.962-0.107,1.286l0,0
	c-0.383,0.324-0.962,0.276-1.286-0.107l-2.889-3.417c-0.324-0.383-0.276-0.962,0.107-1.286l0,0
	C209.943,253.241,210.522,253.29,210.846,253.673z"/>
<path style="fill:#1E1F1D;" d="M216.804,260.718l2.889,3.417c0.324,0.383,0.276,0.962-0.107,1.286l0,0
	c-0.383,0.324-0.962,0.276-1.286-0.107l-2.889-3.417c-0.324-0.383-0.276-0.962,0.107-1.286l0,0
	C215.901,260.287,216.48,260.335,216.804,260.718z"/>
<path style="fill:#1E1F1D;" d="M222.762,267.763l2.889,3.417c0.324,0.383,0.276,0.962-0.107,1.286l0,0
	c-0.383,0.324-0.962,0.276-1.286-0.108l-2.889-3.417c-0.324-0.383-0.276-0.962,0.107-1.286l0,0
	C221.859,267.332,222.438,267.38,222.762,267.763z"/>
<path style="fill:#C7C7C6;" d="M439.66-1.19l-9.436-6.756l2.444-3.413c0.713-0.995,2.097-1.224,3.092-0.512l5.832,4.176
	c0.995,0.713,1.224,2.097,0.512,3.092L439.66-1.19z"/>
<path style="fill:#C7C7C6;" d="M457.082,11.284l-9.436-6.756l2.444-3.413c0.713-0.995,2.097-1.224,3.092-0.512l5.832,4.176
	c0.995,0.713,1.224,2.097,0.512,3.092L457.082,11.284z"/>
<path style="fill:#1E1F1D;" d="M413.234,67.961l-23.188-16.602c-4.449-3.186-5.483-9.433-2.298-13.882L418.75-5.821
	c3.186-4.449,9.433-5.483,13.882-2.298l23.188,16.602c4.449,3.186,5.483,9.433,2.298,13.882l-31.001,43.298
	C423.93,70.113,417.683,71.147,413.234,67.961z"/>
<path style="fill:#F6A32E;" d="M446.006,39.281l-39.367-28.187l14.148-19.76c2.066-2.885,6.116-3.555,9.001-1.49l28.877,20.676
	c2.885,2.066,3.555,6.116,1.49,9.001L446.006,39.281z"/>
<line style="fill:#E94880;stroke:#1E1F1D;stroke-width:2.2555;stroke-linecap:round;stroke-miterlimit:10;" x1="431.324" y1="-0.241" x2="426.544" y2="6.435"/>
<line style="fill:#E94880;stroke:#1E1F1D;stroke-width:2.2555;stroke-linecap:round;stroke-miterlimit:10;" x1="425.596" y1="0.707" x2="432.272" y2="5.487"/>
<line style="fill:#E94880;stroke:#1E1F1D;stroke-width:2.2555;stroke-linecap:round;stroke-miterlimit:10;" x1="443.018" y1="13.181" x2="449.694" y2="17.961"/>
<rect x="-24.695" y="4.298" transform="matrix(-0.7019 -0.7123 0.7123 -0.7019 -63.7888 69.2003)" style="fill:#FFD114;" width="14.563" height="87.3"/>
<rect x="5.31" y="10.958" transform="matrix(-0.7019 -0.7123 0.7123 -0.7019 8.4797 40.1112)" style="fill:#E94880;" width="14.647" height="14.647"/>
<g>
	<defs>
		<polygon id="XMLID_96_" points="-57.477,87.436 -55.542,80.422 -53.608,73.408 -48.501,78.591 -43.394,83.773 -50.435,85.605 		
			"/>
	</defs>
	<use xlink:href="#XMLID_96_"  style="overflow:visible;fill:#F6F4CA;"/>
	<clipPath id="XMLID_5_">
		<use xlink:href="#XMLID_96_"  style="overflow:visible;"/>
	</clipPath>
	<polygon style="clip-path:url(#XMLID_5_);fill:#1E1F1D;" points="-48.722,89.024 -58.936,78.659 -63.19,89.202 -54.877,93.156 	"/>
</g>
<line style="fill:#1E1F1D;stroke:#1E1F1D;stroke-width:2.3594;stroke-miterlimit:10;" x1="-48.501" y1="78.591" x2="7.417" y2="23.421"/>
<rect x="1.123" y="19.782" transform="matrix(-0.7019 -0.7123 0.7123 -0.7019 -1.585 44.1508)" style="fill:#C7C7C6;" width="14.647" height="5.25"/>
<path style="fill:#D6D7D7;" d="M426.987,151.941l37.319,35.526c0.749,0.713,0.908,1.769,0.36,2.381l0,0
	c-0.569,0.635-1.679,0.548-2.456-0.191l-37.319-35.526c-0.763-0.726-0.912-1.805-0.333-2.41l0,0
	C425.137,151.116,426.224,151.215,426.987,151.941z"/>
<path style="fill:#D6D7D7;" d="M434.175,144.426l37.319,35.526c0.749,0.713,0.908,1.769,0.36,2.381l0,0
	c-0.569,0.635-1.679,0.548-2.456-0.191l-37.319-35.526c-0.763-0.726-0.912-1.805-0.333-2.41l0,0
	C432.324,143.602,433.412,143.7,434.175,144.426z"/>
<path style="fill:#62C1DE;" d="M453.26,156.801l-14.723,15.609l-15.875-14.973c-4.168-3.931-4.36-10.496-0.429-14.663l0.488-0.517
	c3.931-4.168,10.496-4.36,14.663-0.429L453.26,156.801z"/>
<path style="fill:#62C1DE;" d="M455.471,155.118L455.471,155.118c1.032,0.985,1.07,2.62,0.086,3.652l-15.018,15.738
	c-0.985,1.032-2.62,1.07-3.652,0.086l0,0c-1.032-0.985-1.07-2.62-0.086-3.652l15.018-15.738
	C452.804,154.171,454.439,154.133,455.471,155.118z"/>
<rect x="-38.214" y="94.005" transform="matrix(0.2217 -0.9751 0.9751 0.2217 -98.6966 107.749)" style="fill:#FFD114;" width="112.731" height="43.396"/>
<rect x="-21.383" y="115.092" transform="matrix(0.2217 -0.9751 0.9751 0.2217 -89.3291 127.1394)" style="fill:#1E1F1D;" width="112.731" height="8.875"/>
<rect x="-1.867" y="143.433" transform="matrix(0.2217 -0.9751 0.9751 0.2217 -145.3244 124.738)" style="fill:#1E1F1D;" width="14.693" height="19.949"/>
<rect x="2.43" y="124.537" transform="matrix(0.2217 -0.9751 0.9751 0.2217 -123.5552 114.2213)" style="fill:#1E1F1D;" width="14.693" height="19.949"/>
<rect x="11.347" y="85.32" transform="matrix(0.2217 -0.9751 0.9751 0.2217 -78.3733 92.3941)" style="fill:#1E1F1D;" width="14.693" height="19.949"/>
<rect x="15.643" y="66.424" transform="matrix(0.2217 -0.9751 0.9751 0.2217 -56.6041 81.8774)" style="fill:#1E1F1D;" width="14.693" height="19.949"/>
<line style="fill:#1E1F1D;stroke:#1E1F1D;stroke-width:2.6728;stroke-linecap:round;stroke-miterlimit:10;" x1="25.341" y1="173.46" x2="34.68" y2="175.583"/>
<line style="fill:#1E1F1D;stroke:#1E1F1D;stroke-width:2.6728;stroke-linecap:round;stroke-miterlimit:10;" x1="26.675" y1="167.596" x2="36.014" y2="169.719"/>
<line style="fill:#1E1F1D;stroke:#1E1F1D;stroke-width:2.6728;stroke-linecap:round;stroke-miterlimit:10;" x1="28.008" y1="161.732" x2="37.347" y2="163.855"/>
<line style="fill:#1E1F1D;stroke:#1E1F1D;stroke-width:2.6728;stroke-linecap:round;stroke-miterlimit:10;" x1="29.341" y1="155.867" x2="38.681" y2="157.991"/>
<line style="fill:#1E1F1D;stroke:#1E1F1D;stroke-width:2.6728;stroke-linecap:round;stroke-miterlimit:10;" x1="44.157" y1="90.71" x2="53.496" y2="92.833"/>
<line style="fill:#1E1F1D;stroke:#1E1F1D;stroke-width:2.6728;stroke-linecap:round;stroke-miterlimit:10;" x1="42.823" y1="96.574" x2="52.162" y2="98.698"/>
<line style="fill:#1E1F1D;stroke:#1E1F1D;stroke-width:2.6728;stroke-linecap:round;stroke-miterlimit:10;" x1="45.49" y1="84.846" x2="54.829" y2="86.969"/>
<line style="fill:#1E1F1D;stroke:#1E1F1D;stroke-width:2.6728;stroke-linecap:round;stroke-miterlimit:10;" x1="46.823" y1="78.982" x2="56.163" y2="81.105"/>
<line style="fill:#1E1F1D;stroke:#1E1F1D;stroke-width:2.6728;stroke-linecap:round;stroke-miterlimit:10;" x1="48.157" y1="73.117" x2="57.496" y2="75.241"/>
<line style="fill:#1E1F1D;stroke:#1E1F1D;stroke-width:2.6728;stroke-linecap:round;stroke-miterlimit:10;" x1="30.675" y1="150.003" x2="40.014" y2="152.127"/>
<line style="fill:#1E1F1D;stroke:#1E1F1D;stroke-width:2.6728;stroke-linecap:round;stroke-miterlimit:10;" x1="32.008" y1="144.139" x2="41.347" y2="146.263"/>
<line style="fill:#1E1F1D;stroke:#1E1F1D;stroke-width:2.6728;stroke-linecap:round;stroke-miterlimit:10;" x1="33.49" y1="137.623" x2="42.829" y2="139.747"/>
<line style="fill:#1E1F1D;stroke:#1E1F1D;stroke-width:2.6728;stroke-linecap:round;stroke-miterlimit:10;" x1="34.823" y1="131.759" x2="44.162" y2="133.883"/>
<line style="fill:#1E1F1D;stroke:#1E1F1D;stroke-width:2.6728;stroke-linecap:round;stroke-miterlimit:10;" x1="36.156" y1="125.895" x2="45.496" y2="128.018"/>
<line style="fill:#E9E9E9;stroke:#1E1F1D;stroke-width:3.6717;stroke-linecap:round;stroke-miterlimit:10;" x1="437.175" y1="85.404" x2="494.509" y2="77.229"/>
<line style="fill:#E9E9E9;stroke:#1E1F1D;stroke-width:3.6717;stroke-linecap:round;stroke-miterlimit:10;" x1="438.211" y1="92.674" x2="495.546" y2="84.499"/>
<line style="fill:#E9E9E9;stroke:#1E1F1D;stroke-width:3.6717;stroke-linecap:round;stroke-miterlimit:10;" x1="439.248" y1="99.943" x2="496.582" y2="91.769"/>
<line style="fill:#E9E9E9;stroke:#1E1F1D;stroke-width:3.6717;stroke-linecap:round;stroke-miterlimit:10;" x1="440.284" y1="107.213" x2="497.619" y2="99.039"/>
<line style="fill:#E9E9E9;stroke:#1E1F1D;stroke-width:3.6717;stroke-linecap:round;stroke-miterlimit:10;" x1="460.579" y1="122.443" x2="452.405" y2="65.109"/>
<line style="fill:#E9E9E9;stroke:#1E1F1D;stroke-width:3.6717;stroke-linecap:round;stroke-miterlimit:10;" x1="467.849" y1="121.406" x2="459.675" y2="64.072"/>
<line style="fill:#E9E9E9;stroke:#1E1F1D;stroke-width:3.6717;stroke-linecap:round;stroke-miterlimit:10;" x1="475.119" y1="120.37" x2="466.944" y2="63.036"/>
<line style="fill:#E9E9E9;stroke:#1E1F1D;stroke-width:3.6717;stroke-linecap:round;stroke-miterlimit:10;" x1="482.389" y1="119.333" x2="474.214" y2="61.999"/>
<path style="fill:#62C1DE;" d="M488.209,110.057l-34.679,4.944c-1.909,0.272-3.677-1.055-3.949-2.964l-4.944-34.679
	c-0.272-1.909,1.055-3.677,2.964-3.949l34.679-4.944c1.909-0.272,3.677,1.055,3.949,2.964l4.944,34.679
	C491.445,108.016,490.118,109.784,488.209,110.057z"/>
<path style="fill:#E9E9E9;" d="M479.675,103.399l-19.812,2.825c-1.752,0.25-3.376-0.968-3.625-2.721l-2.825-19.812
	c-0.25-1.752,0.968-3.376,2.721-3.625l19.812-2.825c1.752-0.25,3.376,0.968,3.625,2.721l2.825,19.812
	C482.646,101.527,481.428,103.15,479.675,103.399z"/>
<path style="fill:#D6D7D7;" d="M28.174,199.088l-35.239,58.958c-0.707,1.183-2.034,1.701-2.991,1.167h0
	c-0.992-0.554-1.206-2.022-0.472-3.249l35.239-58.958c0.72-1.205,2.079-1.716,3.036-1.141h0
	C28.703,196.44,28.894,197.883,28.174,199.088z"/>
<path style="fill:#D6D7D7;" d="M40.056,206.228L4.817,265.186c-0.707,1.183-2.034,1.701-2.991,1.167h0
	c-0.992-0.554-1.206-2.022-0.472-3.249l35.239-58.958c0.72-1.205,2.079-1.716,3.036-1.141h0
	C40.585,203.58,40.776,205.023,40.056,206.228z"/>
<path style="fill:#E94880;" d="M29.569,234.678l-24.62-14.561l14.809-25.039c3.888-6.573,12.368-8.75,18.941-4.863l0.816,0.483
	c6.573,3.888,8.75,12.368,4.863,18.941L29.569,234.678z"/>
<path style="fill:#E94880;" d="M32.379,237.106L32.379,237.106c-0.978,1.631-3.093,2.161-4.724,1.184L2.78,223.381
	c-1.631-0.978-2.161-3.093-1.184-4.724h0c0.978-1.631,3.093-2.161,4.724-1.184l24.875,14.908
	C32.827,233.359,33.357,235.474,32.379,237.106z"/>
<polygon style="fill:#FFD114;" points="459.8,215.851 479.336,224.642 463.488,244.78 472.604,248.883 441.823,274.914 
	452.168,251.923 445.122,248.471 "/>
<path style="fill:#72716F;" d="M80.616,52.373c3.076-1.223,6.179-2.38,9.272-3.562c-0.731-2.715-1.463-5.429-2.193-8.144
	c-0.204-0.76-0.511-1.537,0.33-2.155c1.545-1.493,3.126-2.954,4.62-4.495c0.668-0.69,1.256-0.73,2.118-0.426
	c2.377,0.836,4.822,1.493,7.18,2.374c1.05,0.393,1.579,0.154,1.978-0.771c0.166-0.385,0.331-0.77,0.497-1.156l-0.012-0.115
	l0.097-0.066c0.256-0.533,0.513-1.066,0.769-1.599c0.007-0.031,0.013-0.062,0.02-0.093c0.012-0.025,0.026-0.049,0.038-0.073
	c1.513-3.099,1.501-3.09-1.447-4.822c-1.913-1.124-4.605-1.873-5.481-3.548c-0.91-1.741,0.04-4.396-0.006-6.646
	c-0.028-1.347,0.578-1.964,1.727-2.468c2.286-1.002,4.509-2.146,6.789-3.162c0.742-0.33,0.865-0.673,0.596-1.394
	c-1.027-2.755-2.039-5.517-2.964-8.307c-0.312-0.94-0.745-1.017-1.624-0.773c-2.405,0.667-4.851,1.19-7.253,1.866
	c-1.105,0.311-1.852,0.11-2.584-0.765c-1.217-1.455-2.518-2.847-3.856-4.196c-0.658-0.664-0.736-1.253-0.394-2.112
	c0.891-2.236,1.613-4.536,2.536-6.759c0.489-1.179,0.457-1.794-0.892-2.328c-2.473-0.978-4.872-2.143-7.253-3.322
	c-1.002-0.496-1.554-0.508-2.164,0.599c-1.224,2.22-2.653,4.332-3.944,6.517c-0.424,0.718-0.866,1.042-1.769,0.964
	c-1.977-0.17-3.969-0.258-5.956-0.244c-1.103,0.007-1.68-0.429-2.107-1.367c-1.04-2.283-2.201-4.513-3.204-6.811
	c-0.399-0.913-0.841-0.952-1.689-0.634c-3.1,1.161-6.226,2.256-9.341,3.376c0.674,2.73,1.349,5.459,2.023,8.189
	c0.189,0.764,0.479,1.547-0.375,2.149c-1.576,1.462-3.186,2.891-4.711,4.402c-0.682,0.676-1.271,0.704-2.126,0.384
	c-2.358-0.884-4.789-1.591-7.127-2.52c-1.042-0.414-1.575-0.185-1.993,0.731c-0.174,0.382-0.347,0.764-0.521,1.146l0.009,0.115
	l-0.098,0.064c-0.267,0.528-0.535,1.056-0.802,1.583c-0.025,0.108-0.051,0.215-0.076,0.323c-0.211,0.407-0.419,0.815-0.611,1.23
	c-1.448,3.128-1.436,3.119,1.547,4.79c1.937,1.085,4.644,1.779,5.555,3.436c0.947,1.722,0.051,4.395,0.144,6.643
	c0.056,1.346-0.537,1.974-1.676,2.501c-2.265,1.048-4.464,2.236-6.723,3.298c-0.735,0.345-0.851,0.69-0.567,1.405
	c1.084,2.733,2.154,5.473,3.137,8.243c0.331,0.934,0.766,1.001,1.64,0.74c2.392-0.715,4.826-1.287,7.215-2.011
	c1.099-0.333,1.85-0.147,2.6,0.712c1.248,1.43,2.577,2.795,3.943,4.116c0.672,0.65,0.762,1.237,0.438,2.103
	c-0.844,2.253-1.519,4.567-2.395,6.807c-0.465,1.189-0.42,1.803,0.941,2.309c2.493,0.928,4.917,2.044,7.323,3.174
	c1.012,0.475,1.564,0.476,2.152-0.643c1.177-2.244,2.563-4.383,3.809-6.594c0.41-0.726,0.844-1.059,1.749-0.999
	c1.981,0.13,3.975,0.178,5.962,0.124c1.102-0.03,1.689,0.395,2.136,1.323c1.087,2.261,2.294,4.467,3.346,6.744
	C79.332,52.677,79.775,52.707,80.616,52.373z M66.673,26.465c-4.928-2.442-7.335-7.552-5.956-12.651
	c0.061-0.225,0.128-0.449,0.193-0.674c0.471-0.683,0.804-1.472,1.561-1.934c3.222-3.8,8.92-4.928,13.316-2.637
	c4.875,2.541,7.174,7.7,5.69,12.771c-0.042,0.142-0.088,0.283-0.131,0.424c-0.402,0.649-0.725,1.357-1.411,1.795
	C76.791,27.423,71.116,28.666,66.673,26.465z"/>
<ellipse transform="matrix(0.1148 -0.9934 0.9934 0.1148 354.4545 751.4203)" style="fill:#EDD2C0;" cx="598.854" cy="176.823" rx="12.664" ry="12.664"/>
<g>
	<defs>
		
			<ellipse id="XMLID_9_" transform="matrix(0.1148 -0.9934 0.9934 0.1148 313.0874 686.2845)" cx="541.623" cy="167.467" rx="55.581" ry="55.581"/>
	</defs>
	<use xlink:href="#XMLID_9_"  style="overflow:visible;fill:#EED2BF;"/>
	<clipPath id="XMLID_6_">
		<use xlink:href="#XMLID_9_"  style="overflow:visible;"/>
	</clipPath>
	<path style="clip-path:url(#XMLID_6_);fill:#EEB003;" d="M601.515,158.809l-6.758,26.906l-9.318-1.941l3.962-24.965
		c0,0-22.191-0.274-27.512-3.018l5.741-6.858c0,0-24.554,0.836-30.22-2.6l3.778-4.807c0,0-35.997,2.743-37.021,0v-8.504
		c0,0-9.629,3.841-10.858,2.195l23-29.852l53.152-1.423l27.191,15.089l11.452,29.629L601.515,158.809z"/>
</g>
<ellipse transform="matrix(0.8739 -0.4862 0.4862 0.8739 -25.0413 297.0691)" style="fill:#F7B8A2;" cx="559.98" cy="196.793" rx="10.461" ry="10.461"/>
<path style="fill:#020203;" d="M511.111,183.724c-0.954,8.253,4.964,15.717,13.217,16.671c8.253,0.954,15.717-4.964,16.671-13.217
	L511.111,183.724z"/>
<polyline style="fill:none;stroke:#020203;stroke-width:3.1853;stroke-miterlimit:10;" points="530.07,151.16 522.533,176.311 
	532.632,177.478 "/>
<ellipse transform="matrix(0.1148 -0.9934 0.9934 0.1148 278.3749 647.1599)" style="fill:#020203;" cx="502.313" cy="167.382" rx="3.063" ry="3.063"/>
<ellipse transform="matrix(0.1148 -0.9934 0.9934 0.1148 314.6909 704.3846)" style="fill:#020203;" cx="552.581" cy="175.617" rx="3.063" ry="3.063"/>
<path style="fill:#3FB9C8;" d="M636.921,284.813H509.626c-3.476,0-6.32-2.844-6.32-6.32V240.64c0-3.476,2.844-6.32,6.32-6.32
	h127.295c3.476,0,6.32,2.844,6.32,6.32v37.853C643.24,281.969,640.396,284.813,636.921,284.813z"/>
<circle style="fill:#FFFFFF;" cx="611.778" cy="253.24" r="5.741"/>
<circle style="fill:#1E1F1D;" cx="622.768" cy="265.392" r="5.741"/>
<path style="fill:#1E1F1D;" d="M526.542,247.535h4.845c1.304,0,2.371,1.067,2.371,2.371v20.231c0,1.304-1.067,2.371-2.371,2.371
	h-4.845c-1.304,0-2.371-1.067-2.371-2.371v-20.231C524.171,248.602,525.238,247.535,526.542,247.535z"/>
<path style="fill:#1E1F1D;" d="M516.477,262.445V257.6c0-1.304,1.067-2.372,2.372-2.372l20.231,0c1.304,0,2.372,1.067,2.372,2.371
	v4.845c0,1.304-1.067,2.371-2.372,2.371h-20.231C517.545,264.816,516.477,263.749,516.477,262.445z"/>
<path style="fill:#1E1F1D;" d="M569.877,268.426h-8.043c-0.902,0-1.64-0.738-1.64-1.64l0,0c0-0.902,0.738-1.64,1.64-1.64h8.043
	c0.902,0,1.64,0.738,1.64,1.64l0,0C571.517,267.688,570.779,268.426,569.877,268.426z"/>
<path style="fill:#1E1F1D;" d="M585.631,268.426h-8.042c-0.902,0-1.64-0.738-1.64-1.64l0,0c0-0.902,0.738-1.64,1.64-1.64h8.042
	c0.902,0,1.64,0.738,1.64,1.64l0,0C587.27,267.688,586.532,268.426,585.631,268.426z"/>
<g>
	<path style="fill:#28131E;" d="M162.898,229.989c0.159,1.372,2.878,2.435,2.924,3.792c0.079,2.344-0.007,4.662-0.249,6.94
		c-2.409,22.683-20.249,41.483-43.857,44.211c-4.48,0.518-8.889,0.424-13.145-0.213c-1.5-0.225-2.44-3.975-3.898-4.332
		c-1.886-0.462-4.275,2.425-6.077,1.752c-1.706-0.637-3.37-1.365-4.987-2.179c-1.999-1.007-3.926-2.145-5.766-3.406
		c-1.573-1.077,0.178-4.066-1.262-5.315c-0.888-0.771-5.012,0.25-5.845-0.582c-1.035-1.034-2.026-2.114-2.969-3.238
		c-1.113-1.327,3.166-4.771,2.192-6.214c-0.748-1.109-6.78-0.195-7.44-1.368c-0.733-1.304-1.41-2.646-2.028-4.023
		c-0.691-1.543-1.308-3.13-1.844-4.757c-0.525-1.593,3.027-3.677,2.661-5.343c-0.361-1.645-4.643-2.871-4.84-4.581
		c-0.149-1.287-0.247-2.568-0.296-3.842c-0.066-1.697-0.045-3.38,0.059-5.045c0.147-2.349,2.841-4.645,3.307-6.907
		c0.377-1.825-1.528-3.633-0.955-5.387c0.586-1.793,1.271-3.544,2.05-5.247c0.637-1.392,3.494-2.38,4.254-3.703
		c1.288-2.245,0.591-4.757,2.206-6.773c1.692-2.111,5.248-1.652,7.264-3.467c0.869-0.783,0.074-3.969,0.999-4.691
		c1.41-1.1,2.883-2.128,4.414-3.075c1.827-1.131,4.156,1.487,6.139,0.594c1.686-0.76,3.004-5.066,4.791-5.64
		c1.48-0.475,2.992-0.884,4.535-1.223c1.645-0.361,3.324-0.643,5.034-0.841c2.287-0.264,3.88,2.373,6.119,2.418
		c1.483,0.03,3.628-2.616,5.082-2.457c2.339,0.256,4.636,0.677,6.879,1.251c2.164,0.554,1.968,3.928,4.017,4.759
		c1.824,0.739,5.907-1.094,7.622-0.15c1.137,0.626,2.249,1.295,3.332,2.006c1.855,1.217,1.712,4.62,3.389,6.071
		c1.442,1.248,4.727,0.514,6.02,1.921c1.296,1.411,2.514,2.898,3.644,4.456c1.209,1.666,0.063,5.078,1.064,6.897
		c0.757,1.376,3.706,1.126,4.334,2.582c0.79,1.832,1.476,3.726,2.047,5.673C164.61,224.006,162.565,227.106,162.898,229.989z"/>
	
		<ellipse transform="matrix(0.9934 -0.1148 0.1148 0.9934 -28.8831 17.4908)" style="fill:#815349;" cx="137.42" cy="259.519" rx="33.667" ry="33.667"/>
	
		<ellipse transform="matrix(0.9934 -0.1148 0.1148 0.9934 -29.8311 13.4704)" style="fill:#815349;" cx="102.04" cy="265.741" rx="7.671" ry="7.671"/>
	<path style="fill:#FFFFFF;" d="M155.902,268.41c0.578,4.999-3.007,9.52-8.006,10.098c-4.999,0.578-9.52-3.007-10.098-8.006
		L155.902,268.41z"/>
	<polyline style="fill:none;stroke:#020203;stroke-width:2.4375;stroke-miterlimit:10;" points="145.788,247.053 150.353,262.287 
		144.236,262.994 	"/>
	
		<ellipse transform="matrix(0.9934 -0.1148 0.1148 0.9934 -28.7198 20.2237)" style="fill:#020203;" cx="161.231" cy="259.468" rx="1.855" ry="1.855"/>
	
		<ellipse transform="matrix(0.9934 -0.1148 0.1148 0.9934 -29.4937 16.7615)" style="fill:#020203;" cx="130.783" cy="264.456" rx="1.855" ry="1.855"/>
</g>
<g>
	<path style="fill:#4EAC33;" d="M411.898,127.575l-92.673,6.953c-4.403,0.33-8.241-2.971-8.571-7.375l-2.088-27.83
		c-0.33-4.403,2.971-8.241,7.375-8.571l92.673-6.953c4.403-0.33,8.241,2.971,8.571,7.375l2.088,27.83
		C419.603,123.407,416.301,127.244,411.898,127.575z M314.975,94.422c-1.32,0.099-2.309,1.249-2.21,2.569
		c0.099,1.32,1.249,2.309,2.569,2.21c1.32-0.099,2.309-1.249,2.21-2.569S316.295,94.322,314.975,94.422z M318.182,125.839
		c-1.32,0.099-2.309,1.249-2.21,2.569c0.099,1.32,1.249,2.309,2.569,2.21c1.32-0.099,2.309-1.249,2.21-2.569
		C320.651,126.73,319.501,125.74,318.182,125.839z M409.973,87.297c-1.32,0.099-2.309,1.249-2.21,2.569
		c0.099,1.32,1.249,2.309,2.569,2.21c1.32-0.099,2.309-1.249,2.21-2.569C412.443,88.188,411.293,87.198,409.973,87.297z
		 M412.333,118.779c-1.32,0.099-2.309,1.249-2.21,2.569c0.099,1.32,1.249,2.309,2.569,2.21c1.32-0.099,2.309-1.249,2.21-2.569
		C414.803,119.669,413.653,118.68,412.333,118.779z"/>
	<path style="fill:#1E1F1D;" d="M362.721,120.861l-10.661,0.799c-2.335,0.175-4.37-1.576-4.545-3.911l-0.799-10.66
		c-0.175-2.335,1.576-4.37,3.911-4.545l10.66-0.799c2.335-0.175,4.37,1.576,4.545,3.911l0.799,10.66
		C366.807,118.651,365.056,120.686,362.721,120.861z"/>
	<path style="fill:#D6D6D6;" d="M340.847,134.833l-10.505,0.787c-1.386,0.104-2.605-0.945-2.709-2.332l-0.567-7.568
		c-0.104-1.386,0.945-2.605,2.332-2.709l10.505-0.787c1.386-0.104,2.605,0.945,2.709,2.332l0.567,7.568
		C343.283,133.509,342.233,134.729,340.847,134.833z"/>
	<path style="fill:#C7C6C6;" d="M329.441,119.582l-11.783,0.883c-1.714,0.128-3.221-1.169-3.35-2.883l-0.78-10.4
		c-0.128-1.714,1.169-3.221,2.883-3.35l11.783-0.883c1.714-0.128,3.221,1.169,3.35,2.883l0.78,10.4
		C332.453,117.946,331.156,119.454,329.441,119.582z"/>
	<path style="fill:#F6A22E;" d="M402.032,89.491l0.122,1.628c0.104,1.386-0.945,2.604-2.331,2.708L325.6,99.39
		c-1.386,0.104-2.604-0.945-2.708-2.331l-0.122-1.628c-0.104-1.386,0.945-2.604,2.331-2.708l74.223-5.563
		C400.71,87.056,401.928,88.105,402.032,89.491z"/>
	<path style="fill:#D6D6D6;" d="M401.638,130.449l-9.678,0.725c-1.135,0.085-2.134-0.774-2.219-1.91l-0.404-5.396
		c-0.085-1.135,0.774-2.134,1.91-2.219l9.678-0.725c1.135-0.085,2.134,0.774,2.219,1.91l0.404,5.396
		C403.633,129.365,402.774,130.364,401.638,130.449z"/>
	<path style="fill:#D6D6D6;" d="M382.792,132.067l-9.678,0.725c-1.135,0.085-2.134-0.774-2.219-1.91l-0.404-5.396
		c-0.085-1.135,0.774-2.134,1.91-2.219l9.678-0.725c1.135-0.085,2.134,0.774,2.219,1.91l0.404,5.396
		C384.786,130.983,383.927,131.982,382.792,132.067z"/>
	<path style="fill:#D6D6D6;" d="M418.935,114.519l-4.339,0.325c-1.103,0.083-2.073-0.752-2.156-1.855l-1.165-15.545
		c-0.083-1.103,0.752-2.073,1.855-2.156l4.339-0.325L418.935,114.519z"/>
	<path style="fill:#1E1F1D;" d="M419.087,114.508l-1.962,0.147L415.659,95.1l1.962-0.147c0.355-0.027,0.665,0.24,0.691,0.595
		l1.369,18.269C419.708,114.171,419.442,114.481,419.087,114.508z"/>
	<path style="fill:#1E1F1D;" d="M416.178,98.013l-0.842-0.384c-0.178-0.081-0.297-0.252-0.311-0.447l-0.152-2.023l1.086-0.081
		L416.178,98.013z"/>
	<path style="fill:#1E1F1D;" d="M417.203,111.697l-0.776,0.506c-0.163,0.107-0.256,0.294-0.241,0.488l0.152,2.023l1.086-0.081
		L417.203,111.697z"/>
	<path style="fill:#1E1F1D;" d="M399.461,112.926l-4.94,0.37c-1.082,0.081-2.025-0.73-2.106-1.812l-0.37-4.94
		c-0.081-1.082,0.73-2.025,1.812-2.106l4.94-0.37c1.082-0.081,2.025,0.73,2.106,1.812l0.37,4.94
		C401.355,111.902,400.543,112.845,399.461,112.926z"/>
	<path style="fill:#FFFFFF;" d="M377.284,98.797c0.132-0.014,0.251,0.057,0.376,0.086c0.292-0.119,0.37,0.008,0.521,0.051
		c0.321-0.092,0.431,0.048,0.599,0.192l0.181-0.017c0.513,0.248,0.8,0.811,0.909,1.103c0.064-0.305,0.265-0.905,0.735-1.227
		l0.182-0.01c0.145-0.168,0.233-0.323,0.564-0.279c0.143-0.065,0.201-0.202,0.507-0.128c0.182-0.072,0.334-0.238,0.595-0.065
		c0.202-0.095,0.401-0.137,0.594,0.01c0.276-0.056,0.372,0.01,0.447,0.091c0.061-0.006,0.453-0.096,0.654,0.157
		c0.453-0.087,0.621,0.219,0.479,0.528c0.104,0.135,0.211,0.268,0.013,0.556c0.088,0.145,0.053,0.312-0.114,0.524
		c0.064,0.209-0.019,0.365-0.179,0.495c0.053,0.288-0.236,0.479-0.322,0.546c-0.022,0.172-0.082,0.337-0.42,0.451
		c-0.038,0.256-0.242,0.315-0.439,0.383c0.692,0.33,1.298,0.787,1.386,2.014l0.11,0.163c0.795,0.399,1.589,1.812,0.608,3.083
		c-0.042,0.378-0.139,0.654-0.221,0.958c-0.067,1.205-1.044,1.841-1.307,1.927c-0.372,0.325-0.77,0.637-1.323,0.876
		c-0.494,0.584-1.058,0.834-1.641,0.878c-0.009,0.001-0.017,0.001-0.026,0.002c-0.583,0.044-1.178-0.12-1.754-0.623
		c-0.582-0.154-1.023-0.403-1.439-0.669c-0.274-0.046-1.335-0.528-1.58-1.71c-0.127-0.288-0.264-0.547-0.362-0.915
		c-1.159-1.11-0.585-2.626,0.142-3.139l0.084-0.178c-0.096-1.226,0.436-1.768,1.071-2.198c-0.205-0.038-0.415-0.066-0.491-0.314
		c-0.352-0.062-0.436-0.217-0.483-0.383c-0.095-0.053-0.409-0.2-0.399-0.492c-0.178-0.104-0.283-0.247-0.251-0.462
		c-0.197-0.185-0.257-0.345-0.191-0.501c-0.238-0.255-0.152-0.402-0.07-0.551c-0.186-0.284-0.065-0.612,0.395-0.593
		c0.162-0.281,0.562-0.25,0.623-0.253c0.062-0.091,0.147-0.171,0.428-0.156c0.168-0.174,0.372-0.162,0.586-0.099
		C377.142,98.836,377.214,98.805,377.284,98.797L377.284,98.797z M376.409,100.126c1.04,0.264,1.99,0.648,2.803,1.213
		c0.869-0.487,0.169-1.498-0.302-1.885c-0.014,0.113-0.034,0.185-0.061,0.207c-0.155-0.143-0.283-0.291-0.479-0.425
		c0.006,0.087,0.057,0.177-0.047,0.254c-0.109-0.125-0.251-0.234-0.436-0.321c0.096,0.141,0.029,0.191-0.012,0.255
		c-0.144-0.106-0.281-0.214-0.538-0.286c0.075,0.078,0.176,0.152,0.082,0.255c-0.146-0.077-0.293-0.153-0.628-0.19
		c0.081,0.078,0.241,0.149,0.154,0.239c-0.18-0.054-0.377-0.088-0.594-0.1c0.109,0.077,0.201,0.153,0.122,0.225
		c-0.192-0.044-0.456-0.102-0.703-0.016l0.172,0.149c0.019,0.02-0.372,0.045-0.63,0.068c0.104,0.124,0.21,0.243,0.282,0.463
		c-0.024,0.028-0.153,0.023-0.274,0.021c0.143,0.251,0.363,0.301,0.422,0.408c-0.071,0.063-0.177,0.056-0.295,0.026
		c0.103,0.177,0.299,0.289,0.458,0.426c-0.035,0.029-0.099,0.05-0.255,0.043c0.147,0.135,0.322,0.255,0.526,0.359
		c-0.032,0.043-0.151,0.05-0.261,0.061c0.19,0.16,0.424,0.232,0.646,0.33c-0.101,0.081-0.178,0.069-0.26,0.074
		c0.16,0.113,0.421,0.158,0.665,0.215c-0.04,0.074-0.084,0.096-0.179,0.123c0.262,0.121,0.619,0.03,0.726,0.093
		c-0.019,0.072-0.085,0.123-0.165,0.167c0.408-0.007,1.514-0.128,1.664-0.984C378.561,101.169,377.763,100.69,376.409,100.126
		L376.409,100.126z M383.317,99.608c-1.254,0.76-1.973,1.353-2.354,1.84c0.276,0.824,1.388,0.779,1.792,0.725
		c-0.086-0.032-0.159-0.072-0.189-0.141c0.096-0.079,0.462-0.042,0.704-0.201c-0.098-0.013-0.145-0.028-0.196-0.095
		c0.233-0.093,0.484-0.176,0.626-0.312c-0.081,0.007-0.156,0.03-0.268-0.035c0.205-0.129,0.426-0.236,0.59-0.422
		c-0.11,0.006-0.229,0.016-0.267-0.021c0.186-0.134,0.341-0.279,0.467-0.434c-0.153,0.03-0.219,0.019-0.259-0.005
		c0.136-0.16,0.314-0.3,0.389-0.49c-0.112,0.047-0.215,0.07-0.295,0.019c0.042-0.115,0.252-0.197,0.356-0.467
		c-0.12,0.021-0.247,0.045-0.274,0.021c0.039-0.229,0.126-0.363,0.21-0.5c-0.258,0.016-0.649,0.05-0.633,0.027l0.148-0.173
		c-0.257-0.048-0.509,0.049-0.692,0.121c-0.089-0.059-0.01-0.148,0.087-0.24c-0.212,0.044-0.402,0.107-0.572,0.187
		c-0.1-0.076,0.048-0.171,0.117-0.26c-0.326,0.087-0.46,0.184-0.593,0.282c-0.108-0.088-0.019-0.176,0.043-0.264
		c-0.243,0.11-0.363,0.237-0.489,0.363c-0.05-0.058-0.125-0.097-0.05-0.251c-0.17,0.114-0.294,0.243-0.383,0.383
		c-0.115-0.061-0.078-0.158-0.085-0.245c-0.173,0.161-0.278,0.327-0.41,0.491c-0.03-0.019-0.061-0.087-0.091-0.196
		c-0.408,0.453-0.95,1.557-0.017,1.909C381.446,100.544,382.328,100.023,383.317,99.608L383.317,99.608z M382.08,108.285
		c-0.063-0.783-0.814-1.363-1.676-1.294c-0.863,0.069-1.51,0.76-1.447,1.543c0,0.005,0.001,0.01,0.001,0.015
		c0.063,0.783,0.814,1.363,1.676,1.294c0.862-0.069,1.51-0.76,1.447-1.543C382.081,108.295,382.08,108.29,382.08,108.285z
		 M379.341,104.429c-0.679-0.369-1.591-0.03-2.038,0.758c-0.447,0.788-0.259,1.726,0.419,2.095l0,0
		c0.679,0.369,1.591,0.03,2.038-0.758C380.208,105.736,380.02,104.798,379.341,104.429L379.341,104.429z M381.083,104.222
		c-0.616,0.466-0.662,1.422-0.102,2.134c0.56,0.713,1.513,0.912,2.129,0.446l0,0c0.616-0.466,0.662-1.422,0.102-2.134
		C382.652,103.956,381.699,103.756,381.083,104.222L381.083,104.222z M376.06,107.98c0.587,0.206,0.823-2.861,0.138-2.624
		C375.087,106.095,375.397,107.531,376.06,107.98z M384.271,104.712c-0.713-0.132-0.022,2.866,0.528,2.574
		C385.387,106.744,385.48,105.278,384.271,104.712L384.271,104.712z M384.061,104.256c-0.056-1.291-1.113-1.922-2.304-1.631
		C381.319,102.732,384.059,104.753,384.061,104.256z M378.423,102.838c-1.221-0.11-2.172,0.671-2.035,1.956
		C376.465,105.285,378.872,102.878,378.423,102.838z M380.062,102.413c-0.721,0.035-1.371,0.632-1.349,0.948
		c0.027,0.384,0.627,0.734,1.476,0.681c0.867-0.059,1.395-0.421,1.368-0.817C381.527,102.775,380.7,102.358,380.062,102.413
		L380.062,102.413z M380.707,110.28c-0.625,0.031-1.562,0.365-1.525,0.699c0.007,0.229,0.817,0.831,1.591,0.74
		c0.75-0.043,1.475-0.76,1.443-1.05C382.192,110.369,381.333,110.206,380.707,110.28L380.707,110.28z M378.251,108.677
		c-0.557-0.548-1.249-0.847-1.661-0.556c-0.272,0.238-0.27,0.977,0.195,1.67c0.674,0.816,1.537,0.838,1.874,0.602
		C379.012,110.09,378.738,109.174,378.251,108.677L378.251,108.677z M382.738,108.172c-0.442,0.594-0.635,1.632-0.257,1.933
		c0.356,0.229,1.259,0.126,1.859-0.838c0.44-0.65,0.2-1.663-0.098-1.914C383.806,107.069,383.245,107.515,382.738,108.172
		L382.738,108.172z"/>
</g>
<g>
	<path style="fill:#4EAC33;" d="M131.745,23.276l8.522-50.81c0.796-4.746,5.33-7.978,10.076-7.182l82.373,13.815
		c4.746,0.796,7.978,5.33,7.182,10.076l-8.522,50.81c-0.796,4.746-5.33,7.978-10.076,7.182l-82.373-13.815
		C134.181,32.556,130.949,28.022,131.745,23.276z M149.832-27.902c0.252-1.501-0.761-2.921-2.261-3.173s-2.921,0.761-3.173,2.261
		c-0.252,1.501,0.761,2.921,2.261,3.173C148.16-25.389,149.58-26.402,149.832-27.902z M140.622,27.011
		c0.252-1.501-0.761-2.921-2.261-3.173s-2.921,0.761-3.173,2.261s0.761,2.921,2.261,3.173S140.371,28.511,140.622,27.011z
		 M218.722-16.348c0.252-1.501-0.761-2.921-2.261-3.173c-1.501-0.252-2.921,0.761-3.173,2.261s0.761,2.921,2.261,3.173
		C217.05-13.835,218.47-14.848,218.722-16.348z M209.512,38.565c0.252-1.501-0.761-2.921-2.261-3.173
		c-1.501-0.252-2.921,0.761-3.173,2.261c-0.252,1.501,0.761,2.921,2.261,3.173S209.26,40.065,209.512,38.565z"/>
	<path style="fill:#D6D6D6;" d="M211.609,36.403l1.851-11.037c0.383-2.285,2.566-3.841,4.851-3.458l19.218,3.223
		c2.285,0.383,3.841,2.566,3.458,4.851l-1.851,11.037c-0.383,2.285-2.566,3.841-4.851,3.458l-19.218-3.223
		C212.782,40.871,211.226,38.688,211.609,36.403z"/>
	<path style="fill:#D6D6D6;" d="M219.028,13.807l1.322-7.884c0.311-1.855,2.084-3.119,3.939-2.808l17.251,2.893
		c1.855,0.311,3.119,2.084,2.808,3.939l-1.322,7.884c-0.311,1.855-2.084,3.119-3.939,2.808l-17.251-2.893
		C219.98,17.435,218.717,15.662,219.028,13.807z"/>
	<path style="fill:#D6D6D6;" d="M221.635-4.886l1.322-7.884c0.311-1.855,2.084-3.119,3.939-2.808l17.251,2.893
		c1.855,0.311,3.119,2.084,2.807,3.939l-1.322,7.884c-0.311,1.855-2.084,3.119-3.939,2.808l-17.251-2.893
		C222.587-1.258,221.323-3.031,221.635-4.886z"/>
	<path style="fill:#1E1F1D;" d="M156.621,11.009l1.55-9.242c0.34-2.024,2.256-3.39,4.28-3.051l9.242,1.55
		c2.024,0.34,3.39,2.256,3.051,4.28l-1.55,9.242c-0.34,2.024-2.256,3.39-4.28,3.051l-9.242-1.55
		C157.648,14.95,156.282,13.034,156.621,11.009z"/>
	<path style="fill:#1E1F1D;" d="M201.736,1.241l1.325-7.899c0.173-1.029,1.147-1.723,2.175-1.551l7.899,1.325
		c1.029,0.173,1.723,1.147,1.551,2.175l-1.325,7.899c-0.173,1.029-1.147,1.723-2.175,1.551l-7.899-1.325
		C202.258,3.244,201.563,2.27,201.736,1.241z"/>
	<path style="fill:#D6D6D6;" d="M170.773,41.832l-8.705-1.46c-1.63-0.273-2.739-1.83-2.466-3.46l2.111-12.588
		c0.273-1.63,1.83-2.739,3.46-2.466l8.705,1.46c1.63,0.273,2.739,1.83,2.466,3.46l-2.111,12.588
		C173.959,40.995,172.403,42.105,170.773,41.832z"/>
	<path style="fill:#F6A22E;" d="M157.02-24.955l0.513-3.061c0.185-1.101,1.236-1.851,2.337-1.666l43.21,7.247
		c1.101,0.185,1.851,1.236,1.666,2.337l-0.513,3.061c-0.185,1.101-1.236,1.851-2.337,1.666l-43.21-7.247
		C157.585-22.803,156.836-23.855,157.02-24.955z"/>
	<path style="fill:#FFFFFF;" d="M169.093-17.925c0.142,0.019,0.249,0.124,0.373,0.187c0.337-0.049,0.386,0.104,0.533,0.187
		c0.36-0.014,0.44,0.161,0.579,0.356l0.195,0.029c0.474,0.393,0.63,1.057,0.669,1.392c0.146-0.304,0.511-0.881,1.088-1.098
		l0.194,0.036c0.195-0.139,0.327-0.279,0.663-0.148c0.166-0.031,0.263-0.16,0.565-0.003c0.21-0.029,0.412-0.164,0.641,0.086
		c0.236-0.047,0.457-0.04,0.62,0.164c0.304,0.012,0.387,0.106,0.445,0.21c0.066,0.01,0.5,0.016,0.646,0.334
		c0.498,0.025,0.595,0.39,0.367,0.677c0.074,0.169,0.152,0.336-0.129,0.586c0.055,0.175-0.025,0.341-0.255,0.521
		c0.013,0.235-0.114,0.378-0.316,0.473c-0.018,0.316-0.371,0.442-0.478,0.49c-0.067,0.175-0.173,0.332-0.557,0.365
		c-0.106,0.259-0.335,0.269-0.559,0.289c0.641,0.525,1.159,1.161,0.935,2.47l0.073,0.2c0.731,0.623,1.2,2.311-0.157,3.391
		c-0.141,0.386-0.315,0.651-0.479,0.948c-0.381,1.247-1.57,1.662-1.869,1.685c-0.474,0.245-0.972,0.47-1.614,0.578
		c-0.669,0.485-1.326,0.602-1.948,0.498c-0.009-0.001-0.018-0.003-0.028-0.005c-0.623-0.104-1.205-0.429-1.679-1.106
		c-0.571-0.312-0.969-0.686-1.337-1.073c-0.275-0.119-1.264-0.899-1.217-2.202c-0.058-0.335-0.136-0.642-0.144-1.053
		c-0.93-1.464,0.064-2.906,0.958-3.257l0.134-0.165c0.216-1.311,0.913-1.743,1.69-2.03c-0.205-0.093-0.419-0.176-0.434-0.456
		c-0.353-0.156-0.401-0.34-0.408-0.527c-0.086-0.08-0.378-0.315-0.292-0.62c-0.16-0.155-0.234-0.332-0.144-0.55
		c-0.159-0.244-0.18-0.428-0.071-0.575c-0.184-0.329-0.056-0.461,0.069-0.597c-0.122-0.346,0.09-0.659,0.568-0.521
		c0.242-0.253,0.654-0.117,0.719-0.105c0.089-0.079,0.198-0.141,0.489-0.054c0.221-0.139,0.432-0.074,0.64,0.048
		C168.934-17.921,169.019-17.935,169.093-17.925L169.093-17.925z M167.833-16.757c1.023,0.545,1.921,1.193,2.628,1.995
		c1.038-0.287,0.564-1.528,0.169-2.056c-0.044,0.114-0.083,0.185-0.118,0.202c-0.125-0.19-0.222-0.378-0.393-0.569
		c-0.016,0.093,0.014,0.201-0.115,0.255c-0.082-0.16-0.203-0.31-0.374-0.45c0.065,0.173-0.019,0.208-0.079,0.265
		c-0.124-0.148-0.24-0.297-0.491-0.439c0.058,0.101,0.145,0.205,0.02,0.289c-0.133-0.118-0.268-0.236-0.61-0.361
		c0.065,0.102,0.215,0.219,0.1,0.291c-0.175-0.103-0.373-0.189-0.597-0.258c0.095,0.109,0.171,0.212,0.07,0.267
		c-0.19-0.095-0.452-0.224-0.733-0.198l0.142,0.2c0.015,0.026-0.402-0.049-0.679-0.091c0.077,0.157,0.157,0.309,0.177,0.559
		c-0.032,0.023-0.166-0.015-0.293-0.049c0.086,0.3,0.303,0.409,0.337,0.537c-0.091,0.048-0.2,0.013-0.316-0.049
		c0.062,0.212,0.239,0.38,0.37,0.565c-0.045,0.022-0.117,0.027-0.279-0.02c0.12,0.179,0.272,0.35,0.459,0.513
		c-0.044,0.036-0.171,0.014-0.289-0.003c0.158,0.217,0.385,0.353,0.593,0.512c-0.127,0.059-0.205,0.027-0.292,0.011
		c0.139,0.159,0.402,0.274,0.643,0.397c-0.061,0.067-0.113,0.08-0.22,0.083c0.244,0.194,0.642,0.191,0.738,0.285
		c-0.039,0.07-0.121,0.107-0.217,0.133c0.429,0.098,1.622,0.256,2-0.603C169.822-15.107,169.108-15.815,167.833-16.757
		L167.833-16.757z M175.214-15.519c-1.512,0.474-2.418,0.911-2.944,1.324c0.077,0.935,1.256,1.175,1.694,1.223
		c-0.082-0.056-0.148-0.117-0.162-0.196c0.122-0.058,0.496,0.075,0.79-0.029c-0.1-0.038-0.145-0.067-0.181-0.15
		c0.268-0.037,0.553-0.06,0.737-0.166c-0.087-0.013-0.171-0.009-0.272-0.106c0.248-0.083,0.507-0.138,0.727-0.291
		c-0.117-0.023-0.245-0.042-0.274-0.091c0.23-0.092,0.43-0.204,0.601-0.335c-0.168-0.008-0.235-0.037-0.27-0.072
		c0.184-0.133,0.406-0.233,0.535-0.414c-0.129,0.021-0.244,0.018-0.315-0.057c0.074-0.11,0.315-0.142,0.494-0.398
		c-0.131-0.009-0.27-0.017-0.293-0.049c0.1-0.23,0.226-0.348,0.35-0.471c-0.275-0.05-0.694-0.115-0.671-0.135l0.199-0.143
		c-0.258-0.117-0.547-0.08-0.758-0.052c-0.078-0.085,0.028-0.158,0.153-0.23c-0.234-0.008-0.45,0.009-0.649,0.049
		c-0.085-0.106,0.095-0.167,0.189-0.242c-0.365,0.007-0.53,0.075-0.695,0.143c-0.091-0.12,0.025-0.19,0.113-0.266
		c-0.283,0.053-0.442,0.155-0.607,0.255c-0.038-0.073-0.106-0.134,0.012-0.276c-0.207,0.076-0.371,0.179-0.501,0.303
		c-0.105-0.093-0.041-0.186-0.026-0.278c-0.223,0.125-0.376,0.272-0.557,0.41c-0.027-0.027-0.041-0.107-0.045-0.229
		c-0.545,0.37-1.398,1.389-0.511,1.999C173.01-15.018,174.069-15.338,175.214-15.519L175.214-15.519z M171.679-6.733
		c0.136-0.838-0.502-1.639-1.425-1.79c-0.923-0.15-1.781,0.408-1.916,1.246c-0.001,0.005-0.002,0.011-0.002,0.011
		c-0.136,0.844,0.502,1.645,1.424,1.795c0.923,0.15,1.781-0.408,1.916-1.246C171.677-6.723,171.678-6.728,171.679-6.733z
		 M169.8-11.485c-0.617-0.562-1.662-0.441-2.334,0.27c-0.672,0.712-0.717,1.744-0.101,2.307l0,0c0.617,0.562,1.662,0.441,2.334-0.27
		C170.372-9.89,170.417-10.923,169.8-11.485L169.8-11.485z M171.681-11.253c-0.767,0.33-1.061,1.321-0.658,2.213
		c0.403,0.892,1.352,1.347,2.118,1.017l0,0c0.767-0.33,1.061-1.321,0.658-2.213C173.396-11.128,172.447-11.583,171.681-11.253
		L171.681-11.253z M165.441-8.606c0.563,0.368,1.601-2.79,0.821-2.718C164.907-10.834,164.862-9.247,165.441-8.606z M174.9-9.916
		c-0.714-0.322-0.763,3.001-0.11,2.837C175.547-7.497,176.022-9.012,174.9-9.916L174.9-9.916z M174.797-10.449
		c0.274-1.369-0.672-2.303-1.996-2.305C172.312-12.755,174.666-9.928,174.797-10.449z M169.246-13.392
		c-1.253-0.431-2.452,0.144-2.639,1.528C166.561-11.329,169.708-13.234,169.246-13.392z M171.076-13.415
		c-0.766-0.149-1.602,0.309-1.66,0.647c-0.071,0.41,0.469,0.932,1.373,1.095c0.924,0.162,1.572-0.082,1.646-0.505
		C172.519-12.657,171.76-13.308,171.076-13.415L171.076-13.415z M169.724-4.993c-0.664-0.128-1.733-0.02-1.78,0.34
		c-0.052,0.242,0.643,1.083,1.478,1.187c0.798,0.148,1.744-0.417,1.785-0.73C171.259-4.517,170.4-4.91,169.724-4.993L169.724-4.993z
		 M167.561-7.309c-0.443-0.718-1.092-1.211-1.599-1.012c-0.347,0.179-0.535,0.956-0.226,1.802c0.496,1.03,1.396,1.276,1.811,1.115
		C167.994-5.631,167.944-6.663,167.561-7.309L167.561-7.309z M172.398-6.683c-0.617,0.509-1.087,1.548-0.768,1.961
		c0.315,0.332,1.288,0.457,2.167-0.4c0.629-0.569,0.639-1.693,0.391-2.034C173.804-7.564,173.1-7.241,172.398-6.683L172.398-6.683z"
		/>
	<path style="fill:#D6D6D6;" d="M150.301,36.602l-6.239-1.046c-0.83-0.139-1.395-0.932-1.256-1.762l0.767-4.572
		c0.139-0.83,0.932-1.395,1.762-1.256l6.239,1.046c0.83,0.139,1.395,0.932,1.256,1.762l-0.767,4.572
		C151.924,36.176,151.131,36.741,150.301,36.602z"/>
	<path style="fill:#FFFFFF;" d="M185.593,13.188l1.318,0.221c0.468,0.079,0.784,0.522,0.706,0.99l-0.505,3.011l1.301,1.323
		c0.429,0.322,0.642,0.856,0.553,1.384l-2.498,14.893c-0.098,0.584-0.544,1.047-1.123,1.167l-1.469,0.527l-0.474,2.827
		c-0.079,0.468-0.522,0.784-0.99,0.706l-1.318-0.221c-0.468-0.079-0.784-0.522-0.706-0.99l4.215-25.132
		C184.682,13.425,185.125,13.109,185.593,13.188z"/>
	<path style="fill:#D6D6D6;" d="M182.195,18.979l0.032-0.19c0.053-0.316,0.353-0.53,0.669-0.477l1.283,0.215l-0.224,1.337
		l-1.283-0.215C182.356,19.596,182.142,19.296,182.195,18.979z"/>
	<path style="fill:#D6D6D6;" d="M181.797,21.356l0.032-0.19c0.053-0.316,0.353-0.53,0.669-0.477l1.283,0.215l-0.224,1.337
		l-1.283-0.215C181.957,21.972,181.744,21.672,181.797,21.356z"/>
	<path style="fill:#D6D6D6;" d="M181.398,23.732l0.032-0.19c0.053-0.316,0.353-0.53,0.669-0.477l1.283,0.215l-0.224,1.337
		l-1.283-0.215C181.559,24.348,181.345,24.048,181.398,23.732z"/>
	<path style="fill:#D6D6D6;" d="M181,26.108l0.032-0.19c0.053-0.316,0.353-0.53,0.669-0.477l1.283,0.215l-0.224,1.337l-1.283-0.215
		C181.16,26.724,180.947,26.424,181,26.108z"/>
	<path style="fill:#D6D6D6;" d="M180.601,28.484l0.032-0.19c0.053-0.316,0.353-0.53,0.669-0.477l1.283,0.215l-0.224,1.337
		l-1.283-0.215C180.762,29.1,180.548,28.8,180.601,28.484z"/>
	<path style="fill:#D6D6D6;" d="M180.203,30.86l0.032-0.19c0.053-0.316,0.353-0.53,0.669-0.477l1.283,0.215l-0.224,1.337
		l-1.283-0.215C180.363,31.476,180.15,31.176,180.203,30.86z"/>
	<path style="fill:#D6D6D6;" d="M179.804,33.236l0.032-0.19c0.053-0.316,0.353-0.53,0.669-0.477l1.283,0.215l-0.224,1.337
		l-1.283-0.215C179.965,33.852,179.751,33.552,179.804,33.236z"/>
	<path style="fill:#020203;" d="M186.083,18.364l-2.807,16.734c-0.042,0.253-0.282,0.423-0.535,0.381l-1.71-0.287l2.96-17.65
		l1.71,0.287C185.954,17.872,186.125,18.111,186.083,18.364z"/>
	<path style="fill:#FFFFFF;" d="M139.413,13.557l-1.318-0.221c-0.468-0.079-0.784-0.522-0.706-0.99l0.505-3.011l-1.301-1.323
		c-0.429-0.322-0.642-0.856-0.553-1.384l2.498-14.893c0.098-0.584,0.544-1.047,1.123-1.167l1.469-0.527l0.474-2.827
		c0.079-0.468,0.522-0.784,0.99-0.706l1.318,0.221c0.468,0.079,0.784,0.522,0.706,0.99l-4.215,25.132
		C140.324,13.319,139.881,13.635,139.413,13.557z"/>
	<path style="fill:#D6D6D6;" d="M142.81,7.765l-0.032,0.19c-0.053,0.316-0.353,0.53-0.669,0.477l-1.283-0.215l0.224-1.337
		l1.283,0.215C142.65,7.149,142.864,7.448,142.81,7.765z"/>
	<path style="fill:#D6D6D6;" d="M143.209,5.389l-0.032,0.19c-0.053,0.316-0.353,0.53-0.669,0.477l-1.283-0.215l0.224-1.337
		l1.283,0.215C143.049,4.773,143.262,5.072,143.209,5.389z"/>
	<path style="fill:#D6D6D6;" d="M143.607,3.013l-0.032,0.19c-0.053,0.316-0.353,0.53-0.669,0.477l-1.283-0.215l0.224-1.337
		l1.283,0.215C143.447,2.397,143.661,2.696,143.607,3.013z"/>
	<path style="fill:#D6D6D6;" d="M144.006,0.637l-0.032,0.19c-0.053,0.316-0.353,0.53-0.669,0.477l-1.283-0.215l0.224-1.337
		l1.283,0.215C143.846,0.021,144.059,0.32,144.006,0.637z"/>
	<path style="fill:#D6D6D6;" d="M144.404-1.739l-0.032,0.19c-0.053,0.316-0.353,0.53-0.669,0.477l-1.283-0.215l0.224-1.337
		l1.283,0.215C144.244-2.355,144.458-2.056,144.404-1.739z"/>
	<path style="fill:#D6D6D6;" d="M144.803-4.115l-0.032,0.19c-0.053,0.316-0.353,0.53-0.669,0.477l-1.283-0.215L143.043-5
		l1.283,0.215C144.643-4.731,144.856-4.432,144.803-4.115z"/>
	<path style="fill:#D6D6D6;" d="M145.201-6.491l-0.032,0.19c-0.053,0.316-0.353,0.53-0.669,0.477l-1.283-0.215l0.224-1.337
		l1.283,0.215C145.041-7.107,145.255-6.808,145.201-6.491z"/>
	<path style="fill:#020203;" d="M138.923,8.381l2.807-16.734c0.042-0.253,0.282-0.423,0.535-0.381l1.71,0.287l-2.96,17.65
		l-1.71-0.287C139.051,8.873,138.881,8.634,138.923,8.381z"/>
	<path style="fill:#D6D6D6;" d="M138.561-18.266l0.955-5.691c0.056-0.334,0.373-0.56,0.707-0.504l2.012,0.338
		c0.334,0.056,0.56,0.373,0.504,0.707l-0.954,5.691c-0.056,0.334-0.373,0.56-0.707,0.504l-2.012-0.338
		C138.73-17.615,138.505-17.932,138.561-18.266z"/>
	<path style="fill:#020203;" d="M188.573,45.801l0.656-3.91l7.316,1.227l-0.656,3.91c-0.074,0.442-0.493,0.741-0.936,0.667
		l-5.714-0.958C188.797,46.662,188.499,46.243,188.573,45.801z"/>
	<g>
		<defs>
			<path id="XMLID_1_" d="M188.469,42.947l2.153-12.838c0.17-1.012,1.127-1.694,2.139-1.524l2.877,0.483l1.836,0.308
				c1.012,0.17,1.694,1.127,1.524,2.139l-2.153,12.838L188.469,42.947z"/>
		</defs>
		<use xlink:href="#XMLID_1_"  style="overflow:visible;fill:#AEAFAE;"/>
		<clipPath id="XMLID_7_">
			<use xlink:href="#XMLID_1_"  style="overflow:visible;"/>
		</clipPath>
		
			<rect x="189.587" y="28.462" transform="matrix(0.9862 0.1654 -0.1654 0.9862 8.1813 -31.6961)" style="clip-path:url(#XMLID_7_);fill:#2E2E2E;" width="9.622" height="9.622"/>
	</g>
	
		<ellipse transform="matrix(0.1654 -0.9862 0.9862 0.1654 132.7436 217.5752)" style="fill:#020203;" cx="194.924" cy="30.357" rx="0.69" ry="0.69"/>
	<path style="fill:#D6D7D7;" d="M192.031,32.087l-0.148-0.025c-0.295-0.049-0.495-0.331-0.446-0.626l0.182-1.083
		c0.049-0.295,0.331-0.495,0.626-0.446l0.148,0.025c0.295,0.049,0.495,0.331,0.446,0.626l-0.182,1.083
		C192.607,31.936,192.326,32.136,192.031,32.087z"/>
	<path style="fill:#B0B0AF;" d="M195.591,38.618l-3.992-0.669l1.777-6.022c0.103-0.35,0.451-0.568,0.811-0.507l0.994,0.167
		c0.356,0.06,0.613,0.373,0.602,0.733L195.591,38.618z"/>
	
		<rect x="192.542" y="39.5" transform="matrix(-0.1654 0.9862 -0.9862 -0.1654 267.6495 -139.0046)" style="fill:#020203;" width="0.198" height="8.493"/>
</g>
<g>
	<path style="fill:#1E1F1D;" d="M572.336,105.754l-85.836-50.175c-5.163-3.018-6.918-9.711-3.9-14.874l38.305-65.53
		c3.018-5.163,9.711-6.918,14.874-3.9l85.836,50.175c5.163,3.018,6.918,9.711,3.9,14.874l-38.305,65.53
		C584.192,107.017,577.499,108.772,572.336,105.754z M494.574,43.86c-1.816-1.061-4.148-0.45-5.209,1.366s-0.45,4.148,1.366,5.209
		c1.816,1.061,4.148,0.45,5.209-1.366S496.39,44.922,494.574,43.86z M577.72,92.463c-1.816-1.061-4.148-0.45-5.209,1.366
		c-1.061,1.816-0.45,4.148,1.366,5.209c1.816,1.061,4.148,0.45,5.209-1.366C580.147,95.857,579.536,93.524,577.72,92.463z
		 M533.627-22.948c-1.816-1.061-4.148-0.45-5.209,1.366c-1.061,1.816-0.45,4.148,1.366,5.209c1.816,1.061,4.148,0.45,5.209-1.366
		C536.054-19.554,535.443-21.886,533.627-22.948z M542.572-20.159c-1.004-0.587-2.294-0.249-2.881,0.755s-0.249,2.294,0.755,2.881
		c1.004,0.587,2.294,0.249,2.881-0.755C543.914-18.282,543.576-19.572,542.572-20.159z M609.38,18.894
		c-1.004-0.587-2.294-0.249-2.881,0.755s-0.249,2.294,0.755,2.881c1.004,0.587,2.294,0.249,2.881-0.755
		C610.722,20.771,610.384,19.481,609.38,18.894z M569.351,87.372c-1.004-0.587-2.294-0.249-2.881,0.755
		c-0.587,1.004-0.249,2.294,0.755,2.881c1.004,0.587,2.294,0.249,2.881-0.755C570.693,89.249,570.355,87.959,569.351,87.372z
		 M616.773,25.655c-1.816-1.061-4.148-0.45-5.209,1.366s-0.45,4.148,1.366,5.209c1.816,1.061,4.148,0.45,5.209-1.366
		C619.2,29.049,618.588,26.716,616.773,25.655z"/>
	<path style="fill:#5CAEE1;" d="M555.269,72.618l-57.113-33.385c-3.268-1.91-4.379-6.147-2.469-9.415l22.991-39.331
		c1.91-3.268,6.147-4.379,9.415-2.469l57.113,33.385c3.268,1.91,4.379,6.147,2.469,9.415l-22.991,39.331
		C562.774,73.417,558.537,74.528,555.269,72.618z"/>
	<path style="fill:#F6A22E;" d="M507.465,67.834l-9.838-5.751l3.837-6.564c0.275-0.47,0.883-0.629,1.353-0.355l8.13,4.752
		c0.47,0.275,0.629,0.883,0.355,1.353L507.465,67.834z"/>
	<path style="fill:#F6A22E;" d="M523.332,77.109l-9.838-5.751l3.837-6.564c0.275-0.47,0.883-0.629,1.353-0.355l8.13,4.752
		c0.47,0.275,0.629,0.883,0.355,1.353L523.332,77.109z"/>
	<path style="fill:#F6A22E;" d="M540.034,86.872l-9.838-5.751l3.837-6.564c0.275-0.47,0.883-0.629,1.353-0.355l8.13,4.752
		c0.47,0.275,0.629,0.883,0.355,1.353L540.034,86.872z"/>
	<path style="fill:#F6A22E;" d="M555.901,96.147l-9.838-5.751l3.837-6.564c0.275-0.47,0.883-0.629,1.353-0.355l8.13,4.752
		c0.47,0.275,0.629,0.883,0.355,1.353L555.901,96.147z"/>
	<path style="fill:#FFFFFF;" d="M575.646,72.124l-3.15-1.841c-0.608-0.355-0.812-1.136-0.457-1.743l17.279-29.559
		c0.355-0.608,1.136-0.812,1.743-0.457l3.15,1.841c0.608,0.355,0.812,1.136,0.457,1.743L577.39,71.667
		C577.034,72.274,576.254,72.479,575.646,72.124z"/>
	<path style="fill:#FFFFFF;" d="M579.296,82.94L579.296,82.94c-0.634-0.371-0.848-1.185-0.477-1.819l2.441-4.175
		c0.371-0.634,1.185-0.848,1.82-0.477l0,0c0.634,0.371,0.848,1.185,0.477,1.819l-2.441,4.175
		C580.744,83.098,579.93,83.311,579.296,82.94z"/>
	<path style="fill:#FFFFFF;" d="M587.594,68.744L587.594,68.744c-0.634-0.371-0.848-1.185-0.477-1.819l2.441-4.176
		c0.371-0.634,1.185-0.848,1.82-0.477l0,0c0.634,0.371,0.848,1.185,0.477,1.819l-2.441,4.176
		C589.043,68.901,588.228,69.114,587.594,68.744z"/>
	<path style="fill:#FFFFFF;" d="M595.405,55.382L595.405,55.382c-0.634-0.371-0.848-1.185-0.477-1.819l2.441-4.176
		c0.371-0.634,1.185-0.848,1.82-0.477v0c0.634,0.371,0.848,1.185,0.477,1.819l-2.441,4.176
		C596.854,55.539,596.039,55.753,595.405,55.382z"/>
	<path style="fill:#FFFFFF;" d="M603.215,42.021L603.215,42.021c-0.634-0.371-0.848-1.185-0.477-1.819l2.441-4.175
		c0.371-0.634,1.185-0.848,1.819-0.477l0,0c0.634,0.371,0.848,1.185,0.477,1.819l-2.441,4.176
		C604.664,42.178,603.849,42.391,603.215,42.021z"/>
	<path style="fill:#1B7591;" d="M533.818,48.255l-3.908-2.284c-0.447-0.261-0.597-0.835-0.336-1.282l17.61-30.126
		c0.261-0.447,0.835-0.597,1.282-0.336l3.908,2.284c0.447,0.261,0.597,0.835,0.336,1.282L535.1,47.919
		C534.839,48.365,534.265,48.516,533.818,48.255z"/>
	<path style="fill:#1B7591;" d="M544.6,9.438l-3.519-2.057c-0.329-0.192-0.439-0.614-0.247-0.943l2.057-3.519
		c0.192-0.329,0.614-0.439,0.943-0.247l3.519,2.057c0.329,0.192,0.439,0.614,0.247,0.943l-2.057,3.519
		C545.351,9.519,544.929,9.63,544.6,9.438z"/>
	<path style="fill:#1B7591;" d="M541.008,15.584l-3.52-2.057c-0.329-0.192-0.439-0.614-0.247-0.943l2.057-3.519
		c0.192-0.329,0.615-0.439,0.943-0.247l3.519,2.057c0.329,0.192,0.44,0.614,0.247,0.943l-2.057,3.519
		C541.759,15.665,541.336,15.776,541.008,15.584z"/>
	<path style="fill:#1B7591;" d="M537.415,21.729l-3.519-2.057c-0.329-0.192-0.439-0.614-0.247-0.943l2.057-3.519
		c0.192-0.329,0.614-0.439,0.943-0.247l3.52,2.057c0.329,0.192,0.439,0.614,0.247,0.943l-2.057,3.519
		C538.166,21.811,537.744,21.921,537.415,21.729z"/>
	<path style="fill:#1B7591;" d="M533.823,27.875l-3.519-2.057c-0.329-0.192-0.439-0.614-0.247-0.943l2.057-3.519
		c0.192-0.329,0.615-0.439,0.943-0.247l3.519,2.057c0.329,0.192,0.439,0.614,0.247,0.943l-2.057,3.519
		C534.574,27.956,534.151,28.067,533.823,27.875z"/>
	<path style="fill:#1B7591;" d="M530.23,34.021l-3.519-2.057c-0.329-0.192-0.44-0.614-0.247-0.943l2.057-3.519
		c0.192-0.329,0.614-0.439,0.943-0.247l3.52,2.057c0.329,0.192,0.439,0.614,0.247,0.943l-2.057,3.519
		C530.981,34.102,530.559,34.213,530.23,34.021z"/>
	<path style="fill:#1B7591;" d="M526.638,40.166l-3.519-2.057c-0.329-0.192-0.439-0.614-0.247-0.943l2.057-3.519
		c0.192-0.329,0.615-0.439,0.943-0.247l3.519,2.057c0.329,0.192,0.439,0.614,0.247,0.943l-2.057,3.519
		C527.389,40.248,526.967,40.358,526.638,40.166z"/>
	<path style="fill:#1B7591;" d="M522.908,46.547l-3.52-2.057c-0.329-0.192-0.439-0.614-0.247-0.943l2.057-3.519
		c0.192-0.329,0.614-0.439,0.943-0.247l3.519,2.057c0.329,0.192,0.44,0.614,0.247,0.943l-2.057,3.519
		C523.659,46.628,523.237,46.739,522.908,46.547z"/>
	<path style="fill:#1B7591;" d="M537.919,5.533L534.4,3.475c-0.329-0.192-0.44-0.614-0.247-0.943l2.057-3.519
		c0.192-0.329,0.614-0.439,0.943-0.247l3.52,2.057c0.329,0.192,0.439,0.614,0.247,0.943l-2.057,3.519
		C538.67,5.614,538.248,5.725,537.919,5.533z"/>
	<path style="fill:#1B7591;" d="M534.327,11.678l-3.519-2.057c-0.329-0.192-0.439-0.614-0.247-0.943l2.057-3.519
		c0.192-0.329,0.615-0.439,0.943-0.247l3.519,2.057c0.329,0.192,0.439,0.614,0.247,0.943l-2.057,3.519
		C535.078,11.76,534.656,11.87,534.327,11.678z"/>
	<path style="fill:#1B7591;" d="M530.734,17.824l-3.519-2.057c-0.329-0.192-0.44-0.614-0.247-0.943l2.057-3.519
		c0.192-0.329,0.614-0.439,0.943-0.247l3.519,2.057c0.329,0.192,0.44,0.614,0.247,0.943l-2.057,3.519
		C531.485,17.905,531.063,18.016,530.734,17.824z"/>
	<path style="fill:#1B7591;" d="M527.142,23.97l-3.519-2.057c-0.329-0.192-0.439-0.614-0.247-0.943l2.057-3.519
		c0.192-0.329,0.614-0.439,0.943-0.247l3.519,2.057c0.329,0.192,0.439,0.614,0.247,0.943l-2.057,3.519
		C527.893,24.051,527.471,24.162,527.142,23.97z"/>
	<path style="fill:#1B7591;" d="M523.549,30.115l-3.52-2.057c-0.329-0.192-0.439-0.614-0.247-0.943l2.057-3.519
		c0.192-0.329,0.614-0.439,0.943-0.247l3.519,2.057c0.329,0.192,0.44,0.614,0.247,0.943l-2.057,3.519
		C524.3,30.197,523.878,30.307,523.549,30.115z"/>
	<path style="fill:#1B7591;" d="M519.957,36.261l-3.519-2.057c-0.329-0.192-0.439-0.614-0.247-0.943l2.057-3.519
		c0.192-0.329,0.614-0.439,0.943-0.247l3.519,2.057c0.329,0.192,0.439,0.614,0.247,0.943l-2.057,3.519
		C520.708,36.342,520.286,36.453,519.957,36.261z"/>
	<path style="fill:#1B7591;" d="M516.227,42.642l-3.519-2.057c-0.329-0.192-0.439-0.614-0.247-0.943l2.057-3.519
		c0.192-0.329,0.615-0.439,0.943-0.247l3.519,2.057c0.329,0.192,0.439,0.614,0.247,0.943l-2.057,3.519
		C516.978,42.723,516.556,42.834,516.227,42.642z"/>
	<path style="fill:#1B7591;" d="M531.238,1.627l-3.519-2.057c-0.329-0.192-0.44-0.614-0.247-0.943l2.057-3.519
		c0.192-0.329,0.614-0.439,0.943-0.247l3.519,2.057c0.329,0.192,0.44,0.614,0.247,0.943l-2.057,3.519
		C531.989,1.709,531.567,1.82,531.238,1.627z"/>
	<path style="fill:#1B7591;" d="M527.646,7.773l-3.519-2.057c-0.329-0.192-0.439-0.614-0.247-0.943l2.057-3.519
		c0.192-0.329,0.614-0.439,0.943-0.247l3.519,2.057c0.329,0.192,0.439,0.614,0.247,0.943l-2.057,3.519
		C528.397,7.854,527.975,7.965,527.646,7.773z"/>
	<path style="fill:#1B7591;" d="M524.054,13.919l-3.52-2.057c-0.329-0.192-0.439-0.614-0.247-0.943l2.057-3.519
		c0.192-0.329,0.615-0.439,0.943-0.247l3.519,2.057c0.329,0.192,0.44,0.614,0.247,0.943l-2.057,3.519
		C524.805,14,524.382,14.111,524.054,13.919z"/>
	<path style="fill:#1B7591;" d="M520.461,20.064l-3.519-2.057c-0.329-0.192-0.439-0.614-0.247-0.943l2.057-3.519
		c0.192-0.329,0.614-0.439,0.943-0.247l3.52,2.057c0.329,0.192,0.439,0.614,0.247,0.943l-2.057,3.519
		C521.212,20.146,520.79,20.257,520.461,20.064z"/>
	<path style="fill:#1B7591;" d="M516.869,26.21l-3.519-2.057c-0.329-0.192-0.439-0.614-0.247-0.943l2.057-3.519
		c0.192-0.329,0.615-0.439,0.943-0.247l3.519,2.057c0.329,0.192,0.439,0.614,0.247,0.943l-2.057,3.519
		C517.62,26.291,517.197,26.402,516.869,26.21z"/>
	<path style="fill:#1B7591;" d="M513.276,32.356l-3.52-2.057c-0.329-0.192-0.439-0.614-0.247-0.943l2.057-3.519
		c0.192-0.329,0.614-0.439,0.943-0.247l3.52,2.057c0.329,0.192,0.439,0.614,0.247,0.943l-2.057,3.519
		C514.027,32.437,513.605,32.548,513.276,32.356z"/>
	<path style="fill:#1B7591;" d="M509.546,38.737l-3.519-2.057c-0.329-0.192-0.439-0.614-0.247-0.943l2.057-3.519
		c0.192-0.329,0.614-0.439,0.943-0.247l3.52,2.057c0.329,0.192,0.439,0.614,0.247,0.943l-2.057,3.519
		C510.297,38.818,509.875,38.929,509.546,38.737z"/>
	<path style="fill:#1B7591;" d="M524.558-2.278l-3.519-2.057c-0.329-0.192-0.439-0.614-0.247-0.943l2.057-3.519
		c0.192-0.329,0.615-0.439,0.943-0.247l3.519,2.057c0.329,0.192,0.439,0.614,0.247,0.943l-2.057,3.519
		C525.309-2.196,524.886-2.086,524.558-2.278z"/>
	<path style="fill:#1B7591;" d="M520.965,3.868l-3.519-2.057c-0.329-0.192-0.44-0.614-0.247-0.943l2.057-3.519
		c0.192-0.329,0.614-0.439,0.943-0.247l3.52,2.057c0.329,0.192,0.439,0.614,0.247,0.943l-2.057,3.519
		C521.716,3.949,521.294,4.06,520.965,3.868z"/>
	<path style="fill:#1B7591;" d="M517.373,10.013l-3.519-2.057c-0.329-0.192-0.439-0.614-0.247-0.943l2.057-3.519
		c0.192-0.329,0.615-0.439,0.943-0.247l3.519,2.057c0.329,0.192,0.439,0.614,0.247,0.943l-2.057,3.519
		C518.124,10.095,517.701,10.206,517.373,10.013z"/>
	<path style="fill:#1B7591;" d="M513.78,16.159l-3.52-2.057c-0.329-0.192-0.439-0.614-0.247-0.943l2.057-3.519
		c0.192-0.329,0.614-0.439,0.943-0.247l3.519,2.057c0.329,0.192,0.44,0.614,0.247,0.943l-2.057,3.519
		C514.531,16.241,514.109,16.351,513.78,16.159z"/>
	<path style="fill:#1B7591;" d="M510.188,22.305l-3.519-2.057c-0.329-0.192-0.439-0.614-0.247-0.943l2.057-3.519
		c0.192-0.329,0.614-0.439,0.943-0.247l3.52,2.057c0.329,0.192,0.439,0.614,0.247,0.943l-2.057,3.519
		C510.939,22.386,510.517,22.497,510.188,22.305z"/>
	<path style="fill:#1B7591;" d="M506.595,28.45l-3.519-2.057c-0.329-0.192-0.439-0.614-0.247-0.943l2.057-3.519
		c0.192-0.329,0.614-0.439,0.943-0.247l3.52,2.057c0.329,0.192,0.439,0.614,0.247,0.943l-2.057,3.519
		C507.346,28.532,506.924,28.643,506.595,28.45z"/>
	<path style="fill:#1B7591;" d="M502.865,34.831l-3.519-2.057c-0.329-0.192-0.439-0.614-0.247-0.943l2.057-3.519
		c0.192-0.329,0.614-0.439,0.943-0.247l3.519,2.057c0.329,0.192,0.439,0.614,0.247,0.943l-2.057,3.519
		C503.617,34.913,503.194,35.023,502.865,34.831z"/>
	<path style="fill:#1B7591;" d="M581.344,30.917l-3.519-2.057c-0.329-0.192-0.439-0.614-0.247-0.943l2.057-3.519
		c0.192-0.329,0.615-0.439,0.943-0.247l3.519,2.057c0.329,0.192,0.439,0.614,0.247,0.943l-2.057,3.519
		C582.095,30.998,581.673,31.109,581.344,30.917z"/>
	<path style="fill:#1B7591;" d="M577.752,37.062l-3.519-2.057c-0.329-0.192-0.44-0.614-0.247-0.943l2.057-3.519
		c0.192-0.329,0.614-0.439,0.943-0.247l3.519,2.057c0.329,0.192,0.44,0.614,0.247,0.943l-2.057,3.519
		C578.503,37.144,578.081,37.255,577.752,37.062z"/>
	<path style="fill:#1B7591;" d="M574.159,43.208l-3.519-2.057c-0.329-0.192-0.439-0.614-0.247-0.943l2.057-3.519
		c0.192-0.329,0.614-0.439,0.943-0.247l3.519,2.057c0.329,0.192,0.439,0.614,0.247,0.943l-2.057,3.519
		C574.911,43.289,574.488,43.4,574.159,43.208z"/>
	<path style="fill:#1B7591;" d="M570.567,49.354l-3.52-2.057c-0.329-0.192-0.439-0.614-0.247-0.943l2.057-3.519
		c0.192-0.329,0.615-0.439,0.943-0.247l3.519,2.057c0.329,0.192,0.44,0.614,0.247,0.943l-2.057,3.519
		C571.318,49.435,570.896,49.546,570.567,49.354z"/>
	<path style="fill:#1B7591;" d="M566.975,55.499l-3.519-2.057c-0.329-0.192-0.439-0.614-0.247-0.943l2.057-3.519
		c0.192-0.329,0.614-0.439,0.943-0.247l3.519,2.057c0.329,0.192,0.439,0.614,0.247,0.943l-2.057,3.519
		C567.726,55.581,567.303,55.692,566.975,55.499z"/>
	<path style="fill:#1B7591;" d="M563.382,61.645l-3.519-2.057c-0.329-0.192-0.439-0.614-0.247-0.943l2.057-3.519
		c0.192-0.329,0.615-0.439,0.943-0.247l3.519,2.057c0.329,0.192,0.439,0.614,0.247,0.943l-2.057,3.519
		C564.133,61.727,563.711,61.837,563.382,61.645z"/>
	<path style="fill:#1B7591;" d="M559.652,68.026l-3.519-2.057c-0.329-0.192-0.44-0.614-0.247-0.943l2.057-3.519
		c0.192-0.329,0.614-0.439,0.943-0.247l3.519,2.057c0.329,0.192,0.44,0.614,0.247,0.943l-2.057,3.519
		C560.403,68.107,559.981,68.218,559.652,68.026z"/>
	<path style="fill:#1B7591;" d="M574.664,27.011l-3.519-2.057c-0.329-0.192-0.439-0.614-0.247-0.943l2.057-3.519
		c0.192-0.329,0.614-0.439,0.943-0.247l3.519,2.057c0.329,0.192,0.439,0.614,0.247,0.943l-2.057,3.519
		C575.415,27.093,574.992,27.204,574.664,27.011z"/>
	<path style="fill:#1B7591;" d="M571.071,33.157l-3.519-2.057c-0.329-0.192-0.439-0.614-0.247-0.943l2.057-3.519
		c0.192-0.329,0.615-0.439,0.943-0.247l3.519,2.057c0.329,0.192,0.439,0.614,0.247,0.943l-2.057,3.519
		C571.822,33.239,571.4,33.349,571.071,33.157z"/>
	<path style="fill:#1B7591;" d="M567.479,39.303l-3.519-2.057c-0.329-0.192-0.44-0.614-0.247-0.943l2.057-3.519
		c0.192-0.329,0.614-0.439,0.943-0.247l3.52,2.057c0.329,0.192,0.439,0.614,0.247,0.943l-2.057,3.519
		C568.23,39.384,567.807,39.495,567.479,39.303z"/>
	<path style="fill:#1B7591;" d="M563.886,45.448l-3.519-2.057c-0.329-0.192-0.439-0.614-0.247-0.943l2.057-3.519
		c0.192-0.329,0.615-0.439,0.943-0.247l3.519,2.057c0.329,0.192,0.439,0.614,0.247,0.943l-2.057,3.519
		C564.637,45.53,564.215,45.641,563.886,45.448z"/>
	<path style="fill:#1B7591;" d="M560.294,51.594l-3.519-2.057c-0.329-0.192-0.44-0.614-0.247-0.943l2.057-3.519
		c0.192-0.329,0.614-0.439,0.943-0.247l3.519,2.057c0.329,0.192,0.44,0.614,0.247,0.943l-2.057,3.519
		C561.045,51.676,560.623,51.786,560.294,51.594z"/>
	<path style="fill:#1B7591;" d="M556.701,57.74l-3.519-2.057c-0.329-0.192-0.439-0.614-0.247-0.943l2.057-3.519
		c0.192-0.329,0.614-0.439,0.943-0.247l3.519,2.057c0.329,0.192,0.439,0.614,0.247,0.943l-2.057,3.519
		C557.452,57.821,557.03,57.932,556.701,57.74z"/>
	<path style="fill:#1B7591;" d="M552.971,64.121l-3.52-2.057c-0.329-0.192-0.439-0.614-0.247-0.943l2.057-3.519
		c0.192-0.329,0.614-0.439,0.943-0.247l3.519,2.057c0.329,0.192,0.44,0.614,0.247,0.943l-2.057,3.519
		C553.723,64.202,553.3,64.313,552.971,64.121z"/>
	<path style="fill:#1B7591;" d="M567.983,23.106l-3.519-2.057c-0.329-0.192-0.44-0.614-0.247-0.943l2.057-3.519
		c0.192-0.329,0.614-0.439,0.943-0.247l3.52,2.057c0.329,0.192,0.439,0.614,0.247,0.943l-2.057,3.519
		C568.734,23.188,568.312,23.298,567.983,23.106z"/>
	<path style="fill:#1B7591;" d="M564.39,29.252l-3.519-2.057c-0.329-0.192-0.439-0.614-0.247-0.943l2.057-3.519
		c0.192-0.329,0.615-0.439,0.943-0.247l3.519,2.057c0.329,0.192,0.439,0.614,0.247,0.943l-2.057,3.519
		C565.141,29.333,564.719,29.444,564.39,29.252z"/>
	<path style="fill:#1B7591;" d="M560.798,35.398l-3.519-2.057c-0.329-0.192-0.44-0.614-0.247-0.943l2.057-3.519
		c0.192-0.329,0.614-0.439,0.943-0.247l3.519,2.057c0.329,0.192,0.44,0.614,0.247,0.943l-2.057,3.519
		C561.549,35.479,561.127,35.59,560.798,35.398z"/>
	<path style="fill:#1B7591;" d="M557.205,41.543l-3.519-2.057c-0.329-0.192-0.439-0.614-0.247-0.943l2.057-3.519
		c0.192-0.329,0.614-0.439,0.943-0.247l3.519,2.057c0.329,0.192,0.439,0.614,0.247,0.943l-2.057,3.519
		C557.956,41.625,557.534,41.735,557.205,41.543z"/>
	<path style="fill:#1B7591;" d="M553.613,47.689l-3.52-2.057c-0.329-0.192-0.439-0.614-0.247-0.943l2.057-3.519
		c0.192-0.329,0.614-0.439,0.943-0.247l3.519,2.057c0.329,0.192,0.44,0.614,0.247,0.943l-2.057,3.519
		C554.364,47.77,553.942,47.881,553.613,47.689z"/>
	<path style="fill:#1B7591;" d="M550.021,53.835l-3.519-2.057c-0.329-0.192-0.439-0.614-0.247-0.943l2.057-3.519
		c0.192-0.329,0.614-0.439,0.943-0.247l3.519,2.057c0.329,0.192,0.439,0.614,0.247,0.943l-2.057,3.519
		C550.772,53.916,550.349,54.027,550.021,53.835z"/>
	<path style="fill:#1B7591;" d="M546.291,60.215l-3.519-2.057c-0.329-0.192-0.439-0.614-0.247-0.943l2.057-3.519
		c0.192-0.329,0.615-0.439,0.943-0.247l3.519,2.057c0.329,0.192,0.439,0.614,0.247,0.943l-2.057,3.519
		C547.042,60.297,546.619,60.408,546.291,60.215z"/>
	<path style="fill:#1B7591;" d="M561.302,19.201l-3.52-2.057c-0.329-0.192-0.439-0.614-0.247-0.943l2.057-3.519
		c0.192-0.329,0.614-0.439,0.943-0.247l3.519,2.057c0.329,0.192,0.44,0.614,0.247,0.943l-2.057,3.519
		C562.053,19.282,561.631,19.393,561.302,19.201z"/>
	<path style="fill:#1B7591;" d="M557.71,25.347l-3.519-2.057c-0.329-0.192-0.439-0.614-0.247-0.943L556,18.827
		c0.192-0.329,0.614-0.439,0.943-0.247l3.519,2.057c0.329,0.192,0.439,0.614,0.247,0.943l-2.057,3.519
		C558.461,25.428,558.038,25.539,557.71,25.347z"/>
	<path style="fill:#1B7591;" d="M554.117,31.492l-3.519-2.057c-0.329-0.192-0.439-0.614-0.247-0.943l2.057-3.519
		c0.192-0.329,0.615-0.439,0.943-0.247l3.519,2.057c0.329,0.192,0.439,0.614,0.247,0.943l-2.057,3.519
		C554.868,31.574,554.446,31.684,554.117,31.492z"/>
	<path style="fill:#1B7591;" d="M550.525,37.638l-3.519-2.057c-0.329-0.192-0.44-0.614-0.247-0.943l2.057-3.519
		c0.192-0.329,0.614-0.439,0.943-0.247l3.52,2.057c0.329,0.192,0.439,0.614,0.247,0.943l-2.057,3.519
		C551.276,37.719,550.853,37.83,550.525,37.638z"/>
	<path style="fill:#1B7591;" d="M546.932,43.784l-3.519-2.057c-0.329-0.192-0.439-0.614-0.247-0.943l2.057-3.519
		c0.192-0.329,0.615-0.439,0.943-0.247l3.519,2.057c0.329,0.192,0.439,0.614,0.247,0.943l-2.057,3.519
		C547.683,43.865,547.261,43.976,546.932,43.784z"/>
	<path style="fill:#1B7591;" d="M543.34,49.929l-3.519-2.057c-0.329-0.192-0.44-0.614-0.247-0.943l2.057-3.519
		c0.192-0.329,0.614-0.439,0.943-0.247l3.519,2.057c0.329,0.192,0.44,0.614,0.247,0.943l-2.057,3.519
		C544.091,50.011,543.669,50.121,543.34,49.929z"/>
	<path style="fill:#1B7591;" d="M539.61,56.31l-3.519-2.057c-0.329-0.192-0.439-0.614-0.247-0.943l2.057-3.519
		c0.192-0.329,0.614-0.439,0.943-0.247l3.519,2.057c0.329,0.192,0.439,0.614,0.247,0.943l-2.057,3.519
		C540.361,56.392,539.939,56.502,539.61,56.31z"/>
</g>
</svg>
