<?xml version="1.0" encoding="iso-8859-1"?>
<!-- Generator: Adobe Illustrator 21.1.0, SVG Export Plug-In . SVG Version: 6.00 Build 0)  -->
<svg version="1.0" id="Layer_1" xmlns="http://www.w3.org/2000/svg" xmlns:xlink="http://www.w3.org/1999/xlink" x="0px" y="0px"
	 viewBox="0 0 595.28 841.89" style="enable-background:new 0 0 595.28 841.89;" xml:space="preserve">
<path style="fill:none;stroke:#30B2AB;stroke-width:10.0532;stroke-miterlimit:10;" d="M586.787-3.509l-17.972,2.85
	c-4.222,0.669-6.93,3.76-7.691,7.271c-0.761,3.512,0.426,7.446,3.992,9.803l7.074,4.675c7.518,4.968,4.377,16.647-4.619,17.174
	l-15.401,0.902c-8.763,0.513-12.074,11.712-5,16.908l5.443,3.998c3.732,2.741,4.903,7.798,2.754,11.901l-16.704,31.892"/>
<path style="fill:#D6D7D7;" d="M535.158,118.244l-9.942,19.894c-0.939,1.879-3.245,2.649-5.125,1.709l0,0
	c-1.879-0.939-2.649-3.245-1.709-5.125l9.942-19.894c0.939-1.879,3.245-2.649,5.125-1.709l0,0
	C535.328,114.059,536.097,116.365,535.158,118.244z"/>
<path style="fill:#1E1F1D;" d="M539.225,123.985l11.999-24.01c1.158-2.318,0.218-5.135-2.099-6.293l-8.631-4.314
	c-2.318-1.158-5.135-0.218-6.293,2.099l-11.999,24.01c-1.158,2.318-0.218,5.135,2.099,6.293l8.631,4.314
	C535.249,127.243,538.067,126.303,539.225,123.985z"/>
<polygon style="fill:#FFD114;" points="523.272,157.131 545.644,167.432 527.222,190.428 537.663,195.235 502.013,224.856 
	514.137,198.527 506.071,194.488 "/>
<path style="fill:#9BC226;" d="M517.887,267.46l57.463-106.607c1.93-3.581,6.439-4.932,10.02-3.001l51.825,27.935
	c3.581,1.93,4.932,6.439,3.001,10.02l-57.463,106.607c-1.93,3.581-6.439,4.932-10.02,3.001l-51.825-27.935
	C517.308,275.55,515.957,271.041,517.887,267.46z"/>
<path style="fill:#1E1F1D;" d="M540.311,247.17l31.32-58.107c0.705-1.308,2.337-1.797,3.646-1.092l8.561,4.614
	c1.308,0.705,1.797,2.337,1.092,3.646l-31.32,58.107c-0.705,1.308-2.337,1.797-3.646,1.092l-8.561-4.614
	C540.095,250.111,539.606,248.479,540.311,247.17z"/>
<path style="fill:#F2F1F2;" d="M575.184,182.473l5.993-11.119c0.324-0.602,1.075-0.827,1.677-0.502l11.119,5.993
	c0.602,0.324,0.827,1.075,0.502,1.677l-5.993,11.119c-0.324,0.602-1.075,0.827-1.677,0.502l-11.119-5.993
	C575.085,183.825,574.86,183.075,575.184,182.473z"/>
<path style="fill:#F2F1F2;" d="M592.503,191.808l5.993-11.119c0.324-0.602,1.075-0.827,1.677-0.502l11.119,5.993
	c0.602,0.324,0.827,1.075,0.502,1.677l-5.993,11.119c-0.324,0.602-1.075,0.827-1.677,0.502l-11.119-5.993
	C592.404,193.161,592.179,192.41,592.503,191.808z"/>
<path style="fill:#F2F1F2;" d="M610.309,199.354l5.993-11.119c0.324-0.602,1.075-0.827,1.677-0.502l11.119,5.993
	c0.602,0.324,0.827,1.075,0.502,1.677l-5.993,11.119c-0.324,0.602-1.075,0.827-1.677,0.502l-11.119-5.993
	C610.21,200.707,609.985,199.956,610.309,199.354z"/>
<path style="fill:#F2F1F2;" d="M583.612,208.302l5.993-11.119c0.324-0.602,1.075-0.827,1.677-0.502l11.119,5.993
	c0.602,0.324,0.827,1.075,0.502,1.677l-5.993,11.119c-0.324,0.602-1.075,0.827-1.677,0.502l-11.119-5.993
	C583.513,209.655,583.288,208.904,583.612,208.302z"/>
<path style="fill:#F2F1F2;" d="M574.722,224.796l5.993-11.119c0.324-0.602,1.075-0.827,1.677-0.502l11.119,5.993
	c0.602,0.324,0.827,1.075,0.502,1.677l-5.993,11.119c-0.324,0.602-1.075,0.827-1.677,0.502l-11.119-5.993
	C574.622,226.149,574.397,225.398,574.722,224.796z"/>
<path style="fill:#F2F1F2;" d="M565.831,241.29l5.993-11.119c0.324-0.602,1.075-0.827,1.677-0.502l11.119,5.993
	c0.602,0.324,0.827,1.075,0.502,1.677l-5.993,11.119c-0.324,0.602-1.075,0.827-1.677,0.502l-11.119-5.993
	C565.732,242.643,565.507,241.892,565.831,241.29z"/>
<path style="fill:#F2F1F2;" d="M556.941,257.785l5.993-11.119c0.324-0.602,1.075-0.827,1.677-0.502l11.119,5.993
	c0.602,0.324,0.827,1.075,0.502,1.677l-5.993,11.119c-0.324,0.602-1.075,0.827-1.677,0.502l-11.119-5.993
	C556.841,259.137,556.616,258.386,556.941,257.785z"/>
<path style="fill:#F2F1F2;" d="M548.05,274.279l5.993-11.119c0.324-0.602,1.075-0.827,1.677-0.502l11.119,5.993
	c0.602,0.324,0.827,1.075,0.502,1.677l-5.993,11.119c-0.324,0.602-1.075,0.827-1.677,0.502l-11.119-5.993
	C547.951,275.631,547.726,274.881,548.05,274.279z"/>
<path style="fill:#F2F1F2;" d="M530.365,265.623l5.993-11.119c0.324-0.602,1.075-0.827,1.677-0.502l11.119,5.993
	c0.602,0.324,0.827,1.075,0.502,1.677l-5.993,11.119c-0.324,0.602-1.075,0.827-1.677,0.502l-11.119-5.993
	C530.265,266.976,530.04,266.225,530.365,265.623z"/>
<path style="fill:#F2F1F2;" d="M591.216,233.687l5.993-11.119c0.324-0.602,1.075-0.827,1.677-0.502l11.119,5.993
	c0.602,0.324,0.827,1.075,0.502,1.677l-5.993,11.119c-0.324,0.602-1.075,0.827-1.677,0.502l-11.119-5.993
	C591.117,235.04,590.892,234.289,591.216,233.687z"/>
<path style="fill:#F2F1F2;" d="M600.515,217.413l5.993-11.119c0.324-0.602,1.075-0.827,1.677-0.502l11.119,5.993
	c0.602,0.324,0.827,1.075,0.502,1.677l-5.993,11.119c-0.324,0.602-1.075,0.827-1.677,0.502l-11.119-5.993
	C600.415,218.765,600.19,218.015,600.515,217.413z"/>
<path style="fill:#F2F1F2;" d="M582.325,250.181l5.993-11.119c0.324-0.602,1.075-0.827,1.677-0.502l11.119,5.993
	c0.602,0.324,0.827,1.075,0.502,1.677l-5.993,11.119c-0.324,0.602-1.075,0.827-1.677,0.502l-11.119-5.993
	C582.226,251.534,582.001,250.783,582.325,250.181z"/>
<path style="fill:#F2F1F2;" d="M573.435,266.675l5.993-11.119c0.324-0.602,1.075-0.827,1.677-0.502l11.119,5.993
	c0.602,0.324,0.827,1.075,0.502,1.677l-5.993,11.119c-0.324,0.602-1.075,0.827-1.677,0.502l-11.119-5.993
	C573.335,268.028,573.11,267.277,573.435,266.675z"/>
<path style="fill:#F2F1F2;" d="M564.544,283.169l5.993-11.119c0.324-0.602,1.075-0.827,1.677-0.502l11.119,5.993
	c0.602,0.324,0.827,1.075,0.502,1.677l-5.993,11.119c-0.324,0.602-1.075,0.827-1.677,0.502l-11.119-5.993
	C564.445,284.522,564.22,283.771,564.544,283.169z"/>
<polygon style="fill:#FFD114;" points="71.081,155.942 48.708,166.243 67.13,189.239 56.689,194.046 92.339,223.667 80.216,197.338 
	88.282,193.298 "/>
<path style="fill:#EA691B;" d="M81.7,261.944L15.086,160.802c-2.238-3.397-6.848-4.346-10.245-2.109l-49.168,32.383
	c-3.397,2.238-4.346,6.848-2.109,10.245l66.614,101.142c2.238,3.397,6.848,4.346,10.245,2.109l49.168-32.383
	C82.989,269.952,83.938,265.341,81.7,261.944z"/>
<path style="fill:#1E1F1D;" d="M57.579,243.704l-36.308-55.128c-0.817-1.241-2.486-1.585-3.728-0.767l-8.122,5.349
	c-1.241,0.818-1.585,2.486-0.767,3.728l36.308,55.128c0.818,1.241,2.486,1.585,3.728,0.767l8.122-5.349
	C58.053,246.615,58.397,244.946,57.579,243.704z"/>
<path style="fill:#F2F1F2;" d="M68.685,260.567l-6.948-10.549c-0.376-0.571-1.144-0.729-1.715-0.353l-10.549,6.948
	c-0.571,0.376-0.729,1.144-0.353,1.715l6.948,10.549c0.376,0.571,1.144,0.729,1.715,0.353l10.549-6.948
	C68.903,261.905,69.061,261.138,68.685,260.567z"/>
<path style="fill:#F2F1F2;" d="M17.152,182.324l-6.948-10.549c-0.376-0.571-1.144-0.729-1.715-0.353l-10.549,6.948
	c-0.571,0.376-0.729,1.144-0.353,1.715l6.948,10.549c0.376,0.571,1.144,0.729,1.715,0.353l10.549-6.948
	C17.37,183.663,17.528,182.895,17.152,182.324z"/>
<path style="fill:#F2F1F2;" d="M0.721,193.146l-6.948-10.549c-0.376-0.571-1.144-0.729-1.715-0.353l-10.549,6.948
	c-0.571,0.376-0.729,1.144-0.353,1.715l6.948,10.549c0.376,0.571,1.144,0.729,1.715,0.353l10.549-6.948
	C0.94,194.484,1.098,193.717,0.721,193.146z"/>
<path style="fill:#F2F1F2;" d="M11.028,208.794L4.08,198.245c-0.376-0.571-1.144-0.729-1.715-0.353l-10.549,6.948
	c-0.571,0.376-0.729,1.144-0.353,1.715l6.948,10.549c0.376,0.571,1.144,0.729,1.715,0.353l10.549-6.948
	C11.246,210.133,11.404,209.365,11.028,208.794z"/>
<path style="fill:#F2F1F2;" d="M21.334,224.443l-6.948-10.549c-0.376-0.571-1.144-0.729-1.715-0.353l-10.549,6.948
	c-0.571,0.376-0.729,1.144-0.353,1.715l6.948,10.549c0.376,0.571,1.144,0.729,1.715,0.353l10.549-6.948
	C21.553,225.782,21.711,225.014,21.334,224.443z"/>
<path style="fill:#F2F1F2;" d="M31.641,240.091l-6.948-10.549c-0.376-0.571-1.144-0.729-1.715-0.353l-10.549,6.948
	c-0.571,0.376-0.729,1.144-0.353,1.715l6.948,10.549c0.376,0.571,1.144,0.729,1.715,0.353l10.549-6.948
	C31.859,241.43,32.017,240.662,31.641,240.091z"/>
<path style="fill:#F2F1F2;" d="M41.948,255.74L35,245.191c-0.376-0.571-1.144-0.729-1.715-0.353l-10.549,6.948
	c-0.571,0.376-0.729,1.144-0.353,1.715l6.948,10.549c0.376,0.571,1.144,0.729,1.715,0.353l10.549-6.948
	C42.166,257.079,42.324,256.311,41.948,255.74z"/>
<path style="fill:#F2F1F2;" d="M52.254,271.388l-6.948-10.549c-0.376-0.571-1.144-0.729-1.715-0.353l-10.549,6.948
	c-0.571,0.376-0.729,1.144-0.353,1.715l6.948,10.549c0.376,0.571,1.144,0.729,1.715,0.353l10.549-6.948
	C52.472,272.727,52.63,271.959,52.254,271.388z"/>
<path style="fill:#F2F1F2;" d="M5.686,234.749L-1.262,224.2c-0.376-0.571-1.144-0.729-1.715-0.353l-10.549,6.948
	c-0.571,0.376-0.729,1.144-0.353,1.715l6.948,10.549c0.376,0.571,1.144,0.729,1.715,0.353l10.549-6.948
	C5.904,236.088,6.062,235.32,5.686,234.749z"/>
<path style="fill:#F2F1F2;" d="M-4.621,219.101l-6.948-10.549c-0.376-0.571-1.144-0.729-1.715-0.353l-10.549,6.948
	c-0.571,0.376-0.729,1.144-0.353,1.715l6.948,10.549c0.376,0.571,1.144,0.729,1.715,0.353l10.549-6.948
	C-4.403,220.44-4.244,219.672-4.621,219.101z"/>
<path style="fill:#F2F1F2;" d="M-15.252,202.959L-22.2,192.41c-0.376-0.571-1.144-0.729-1.715-0.353l-10.549,6.948
	c-0.571,0.376-0.729,1.144-0.353,1.715l6.948,10.549c0.376,0.571,1.144,0.729,1.715,0.353l10.549-6.948
	C-15.034,204.297-14.876,203.53-15.252,202.959z"/>
<path style="fill:#F2F1F2;" d="M15.992,250.398l-6.948-10.549c-0.376-0.571-1.144-0.729-1.715-0.353l-10.549,6.948
	c-0.571,0.376-0.729,1.144-0.353,1.715l6.948,10.549c0.376,0.571,1.144,0.729,1.715,0.353l10.549-6.948
	C16.211,251.737,16.369,250.969,15.992,250.398z"/>
<path style="fill:#F2F1F2;" d="M26.299,266.046l-6.948-10.549c-0.376-0.571-1.144-0.729-1.715-0.353l-10.549,6.948
	c-0.571,0.376-0.729,1.144-0.353,1.715l6.948,10.549c0.376,0.571,1.144,0.729,1.715,0.353l10.549-6.948
	C26.517,267.385,26.675,266.617,26.299,266.046z"/>
<path style="fill:#F2F1F2;" d="M36.605,281.695l-6.948-10.549c-0.376-0.571-1.144-0.729-1.715-0.353l-10.549,6.948
	c-0.571,0.376-0.729,1.144-0.353,1.715l6.948,10.549c0.376,0.571,1.144,0.729,1.715,0.353l10.549-6.948
	C36.824,283.034,36.982,282.266,36.605,281.695z"/>
<path style="fill:#E84727;" d="M351.64,183.54H241.488c-3.643,0-6.597-2.954-6.597-6.597V78.265c0-9.422,7.709-17.131,17.131-17.131
	h89.086c9.422,0,17.131,7.709,17.131,17.131v98.678C358.237,180.587,355.284,183.54,351.64,183.54z"/>
<path style="fill:#E9E9E9;" d="M340.005,142.692H251.37c-4.684,0-8.517-3.833-8.517-8.517V78.782c0-4.684,3.833-8.517,8.517-8.517
	h88.634c4.684,0,8.517,3.833,8.517,8.517v55.393C348.522,138.86,344.689,142.692,340.005,142.692z"/>
<rect x="276.451" y="118.284" style="fill:#1E1F1D;" width="38.119" height="3.775"/>
<rect x="286.179" y="97.298" transform="matrix(8.220808e-11 -1 1 8.220808e-11 197.696 395.8148)" style="fill:#1E1F1D;" width="21.153" height="3.522"/>
<rect x="270.457" y="114.371" style="fill:#1E1F1D;" width="5.994" height="3.775"/>
<path style="fill:#1E1F1D;" d="M342.213,161.836H305.75c-0.969,0-1.762-0.793-1.762-1.762v-0.124c0-0.969,0.793-1.762,1.762-1.762
	h36.462c0.969,0,1.762,0.793,1.762,1.762v0.124C343.974,161.044,343.181,161.836,342.213,161.836z"/>
<path style="fill:#1E1F1D;" d="M252.968,161.836h-4.516c-0.969,0-1.762-0.793-1.762-1.762v-0.124c0-0.969,0.793-1.762,1.762-1.762
	h4.516c0.969,0,1.762,0.793,1.762,1.762v0.124C254.73,161.044,253.937,161.836,252.968,161.836z"/>
<rect x="314.57" y="114.371" style="fill:#1E1F1D;" width="5.994" height="3.775"/>
<rect x="289" y="84.708" style="fill:#1E1F1D;" width="5.994" height="3.775"/>
<rect x="252.844" y="91.389" style="fill:#1E1F1D;" width="13.839" height="3.775"/>
<rect x="323.981" y="91.389" style="fill:#1E1F1D;" width="13.839" height="3.775"/>
<rect x="327.153" y="102.183" style="fill:#1E1F1D;" width="5.994" height="5.164"/>
<rect x="255.841" y="102.183" style="fill:#1E1F1D;" width="5.994" height="5.164"/>
<path style="fill:#1E1F1D;" d="M346.305,163.296h-19.152v-6.566h19.152c1.224,0,2.217,0.993,2.217,2.217v2.132
	C348.522,162.303,347.529,163.296,346.305,163.296z"/>
<rect x="247.935" y="117.581" style="fill:#F7B8A2;" width="11.043" height="9.514"/>
<rect x="330.529" y="117.581" style="fill:#F7B8A2;" width="11.043" height="9.514"/>
<path style="fill:#28131E;" d="M211.911,137.695c0.2,1.734,3.636,3.077,3.694,4.791c0.1,2.962-0.009,5.89-0.315,8.768
	c-3.043,28.656-25.582,52.408-55.407,55.854c-5.659,0.654-11.23,0.536-16.607-0.27c-1.895-0.284-3.083-5.021-4.925-5.473
	c-2.383-0.584-5.4,3.063-7.677,2.214c-2.155-0.804-4.258-1.724-6.3-2.753c-2.526-1.272-4.959-2.711-7.285-4.303
	c-1.988-1.361,0.225-5.136-1.594-6.714c-1.122-0.973-6.332,0.315-7.384-0.736c-1.308-1.306-2.559-2.671-3.75-4.091
	c-1.407-1.676,4-6.027,2.77-7.851c-0.945-1.401-8.565-0.247-9.399-1.729c-0.926-1.647-1.782-3.343-2.562-5.083
	c-0.873-1.949-1.652-3.954-2.329-6.01c-0.663-2.012,3.824-4.645,3.362-6.75c-0.457-2.079-5.865-3.628-6.115-5.787
	c-0.188-1.626-0.312-3.244-0.375-4.853c-0.083-2.144-0.057-4.27,0.074-6.373c0.185-2.967,3.589-5.868,4.178-8.726
	c0.476-2.306-1.931-4.59-1.207-6.805c0.74-2.265,1.606-4.477,2.59-6.629c0.805-1.759,4.415-3.007,5.374-4.679
	c1.628-2.837,0.746-6.01,2.787-8.557c2.138-2.667,6.63-2.087,9.178-4.381c1.098-0.989,0.094-5.015,1.262-5.926
	c1.782-1.39,3.642-2.688,5.576-3.885c2.308-1.429,5.251,1.879,7.755,0.75c2.13-0.96,3.795-6.4,6.053-7.125
	c1.87-0.6,3.781-1.117,5.729-1.545c2.079-0.457,4.2-0.813,6.36-1.062c2.889-0.334,4.902,2.997,7.73,3.055
	c1.873,0.038,4.583-3.305,6.42-3.103c2.955,0.324,5.858,0.855,8.69,1.58c2.734,0.7,2.486,4.963,5.076,6.012
	c2.304,0.934,7.462-1.382,9.629-0.19c1.437,0.791,2.841,1.636,4.21,2.534c2.343,1.538,2.163,5.837,4.282,7.67
	c1.821,1.576,5.972,0.649,7.606,2.426c1.638,1.782,3.176,3.661,4.604,5.629c1.527,2.104,0.08,6.416,1.344,8.714
	c0.956,1.738,4.682,1.423,5.475,3.262c0.999,2.315,1.864,4.707,2.586,7.167C214.074,130.137,211.49,134.053,211.911,137.695z"/>
<ellipse transform="matrix(0.9934 -0.1148 0.1148 0.9934 -18.9013 21.7882)" style="fill:#815349;" cx="179.723" cy="175.003" rx="42.533" ry="42.533"/>
<ellipse transform="matrix(0.9934 -0.1148 0.1148 0.9934 -20.099 16.7091)" style="fill:#815349;" cx="135.025" cy="182.862" rx="9.691" ry="9.691"/>
<path style="fill:#FFFFFF;" d="M203.072,186.235c0.73,6.316-3.798,12.027-10.114,12.757c-6.316,0.73-12.027-3.798-12.757-10.114
	L203.072,186.235z"/>
<polyline style="fill:none;stroke:#020203;stroke-width:2.4375;stroke-miterlimit:10;" points="190.294,159.253 196.062,178.5 
	188.334,179.393 "/>
<ellipse transform="matrix(0.9934 -0.1148 0.1148 0.9934 -18.695 25.2409)" style="fill:#020203;" cx="209.804" cy="174.938" rx="2.344" ry="2.344"/>
<ellipse transform="matrix(0.9934 -0.1148 0.1148 0.9934 -19.6727 20.8669)" style="fill:#020203;" cx="171.338" cy="181.239" rx="2.344" ry="2.344"/>
<rect x="124.494" y="-21.252" transform="matrix(0.9771 -0.2129 0.2129 0.9771 3.485 28.0531)" style="fill:#EDE9E9;" width="15.005" height="38.195"/>
<path style="fill:#D6D7D7;" d="M162.979,31.308l-42.947,9.358c-5.795,1.263-11.742-3.231-13.213-9.986l-0.286-1.314
	c-1.472-6.755,2.066-13.315,7.861-14.578L157.34,5.43c5.795-1.263,11.742,3.231,13.213,9.986l0.286,1.314
	C172.312,23.485,168.774,30.045,162.979,31.308z"/>
<path style="fill:#40B9C8;" d="M185.497,54.823l-75.532,16.458c-5.55,1.209-11.08-2.342-12.289-7.892l-3.192-14.65
	c-1.209-5.55,2.342-11.08,7.892-12.289l75.532-16.458c5.55-1.209,11.08,2.342,12.289,7.892l3.192,14.65
	C194.599,48.084,191.047,53.614,185.497,54.823z"/>
<ellipse transform="matrix(0.9771 -0.2129 0.2129 0.9771 9.5422 25.8033)" style="fill:#E84728;" cx="124.579" cy="-31.404" rx="17.875" ry="17.875"/>
<ellipse transform="matrix(0.9771 -0.2129 0.2129 0.9771 -8.4404 25.6195)" style="fill:#E84728;" cx="114.735" cy="52" rx="8.073" ry="8.073"/>
<ellipse transform="matrix(0.9771 -0.2129 0.2129 0.9771 -7.0253 29.8639)" style="fill:#F2F1F2;" cx="135.149" cy="47.551" rx="8.073" ry="8.073"/>
<path style="fill:#EDE9E9;" d="M172.262,37.339l-12.401,2.702c-1.611,0.351-3.217-0.68-3.568-2.291v0
	c-0.351-1.611,0.68-3.217,2.291-3.568l12.401-2.702c1.611-0.351,3.217,0.68,3.568,2.291v0
	C174.904,35.382,173.873,36.988,172.262,37.339z"/>
<path style="fill:#1E1F1D;" d="M174.463,47.44l-12.401,2.702c-1.611,0.351-3.217-0.68-3.568-2.291v0
	c-0.351-1.611,0.68-3.217,2.291-3.568l12.401-2.702c1.611-0.351,3.217,0.68,3.568,2.291v0
	C177.105,45.483,176.074,47.089,174.463,47.44z"/>
<path style="fill:#AEAFAE;" d="M345.789,47.688H238.036c-5.905,0-10.736-4.831-10.736-10.736v-47.82
	c0-5.905,4.831-10.736,10.736-10.736h107.753c5.905,0,10.736,4.831,10.736,10.736v47.82
	C356.525,42.856,351.694,47.688,345.789,47.688z"/>
<line style="fill:#828484;stroke:#1E1F1D;stroke-width:1.8854;stroke-miterlimit:10;" x1="298.673" y1="-28.384" x2="316.814" y2="-52.089"/>
<line style="fill:#828484;stroke:#1E1F1D;stroke-width:1.8854;stroke-miterlimit:10;" x1="283.383" y1="-28.384" x2="265.242" y2="-52.089"/>
<g>
	<defs>
		<path id="XMLID_55_" d="M316.852,37.3h-47.804c-7.593,0-13.805-6.212-13.805-13.805v0c0-7.593,6.212-13.805,13.805-13.805h47.804
			c7.593,0,13.805,6.212,13.805,13.805v0C330.657,31.088,324.444,37.3,316.852,37.3z"/>
	</defs>
	<use xlink:href="#XMLID_55_"  style="overflow:visible;fill:#F2F1F2;"/>
	<clipPath id="XMLID_2_">
		<use xlink:href="#XMLID_55_"  style="overflow:visible;"/>
	</clipPath>
	
		<line style="clip-path:url(#XMLID_2_);fill:#F2F1F2;stroke:#1E1F1D;stroke-width:2.5453;stroke-miterlimit:10;" x1="269.56" y1="3.94" x2="269.56" y2="43.02"/>
	
		<line style="clip-path:url(#XMLID_2_);fill:#F2F1F2;stroke:#1E1F1D;stroke-width:2.5453;stroke-miterlimit:10;" x1="284.591" y1="3.94" x2="284.591" y2="43.02"/>
	
		<line style="clip-path:url(#XMLID_2_);fill:#F2F1F2;stroke:#1E1F1D;stroke-width:2.5453;stroke-miterlimit:10;" x1="300.953" y1="4.242" x2="300.953" y2="43.322"/>
	
		<line style="clip-path:url(#XMLID_2_);fill:#F2F1F2;stroke:#1E1F1D;stroke-width:2.5453;stroke-miterlimit:10;" x1="316.762" y1="4.242" x2="316.762" y2="43.322"/>
</g>
<circle style="fill:#AEAFAE;" cx="289.928" cy="-15.626" r="19.955"/>
<circle style="fill:#AEAFAE;" cx="265.105" cy="-52.963" r="4.828"/>
<circle style="fill:#AEAFAE;" cx="316.865" cy="-52.963" r="4.828"/>
<ellipse transform="matrix(0.9151 -0.4033 0.4033 0.9151 14.8553 100.2409)" style="fill:#020203;" cx="245.441" cy="14.848" rx="2.83" ry="2.83"/>
<ellipse transform="matrix(0.9151 -0.4033 0.4033 0.9151 22.9016 138.4514)" style="fill:#020203;" cx="340.192" cy="14.848" rx="2.83" ry="2.83"/>
<polyline style="fill:none;stroke:#020203;stroke-width:2.4762;stroke-miterlimit:10;" points="289.468,-19.246 293.59,2.414 
	285.054,2.516 "/>
<circle style="fill:#E94880;" cx="241.784" cy="32.33" r="8.526"/>
<circle style="fill:#E94880;" cx="343.41" cy="32.33" r="8.526"/>
<ellipse transform="matrix(0.99 -0.1413 0.1413 0.99 -19.9537 71.0512)" style="fill:#EED2BF;" cx="490.485" cy="176.073" rx="11.509" ry="11.509"/>
<g>
	<defs>
		
			<ellipse id="XMLID_33_" transform="matrix(0.0462 -0.9989 0.9989 0.0462 252.7338 586.1496)" cx="433.309" cy="160.729" rx="56.864" ry="56.864"/>
	</defs>
	<use xlink:href="#XMLID_33_"  style="overflow:visible;fill:#EED2BF;"/>
	<clipPath id="XMLID_3_">
		<use xlink:href="#XMLID_33_"  style="overflow:visible;"/>
	</clipPath>
	<path style="clip-path:url(#XMLID_3_);fill:#28131E;" d="M479.408,125.731c0,0-100.112,28.804-109.643,10.434l20.888-35.275
		l44.926-14.787l30.786,6.911L479.408,125.731z"/>
</g>
<path style="fill:#020203;" d="M401.463,185.737c-0.393,8.491,6.172,15.693,14.663,16.085c8.491,0.393,15.693-6.172,16.085-14.663
	L401.463,185.737z"/>
<ellipse transform="matrix(0.0462 -0.9989 0.9989 0.0462 249.7261 609.7386)" style="fill:#020203;" cx="444.158" cy="174.098" rx="3.134" ry="3.134"/>
<polyline style="fill:none;stroke:#020203;stroke-width:2.7776;stroke-miterlimit:10;" points="417.078,153.559 411.155,179.76 
	421.544,180.24 "/>
<ellipse transform="matrix(0.0462 -0.9989 0.9989 0.0462 203.049 556.0959)" style="fill:#020203;" cx="392.729" cy="171.72" rx="3.134" ry="3.134"/>
<path style="fill:#28131E;" d="M468.965,122.992l7.661,32.824c0.63,2.697,2.712,4.818,5.398,5.497l8.088,2.044l0.215-31.35
	c0.019-2.792-1.95-5.202-4.69-5.74L468.965,122.992z"/>
<ellipse transform="matrix(0.3821 -0.9241 0.9241 0.3821 113.5541 518.0276)" style="fill:none;stroke:#E94880;stroke-width:3.9793;stroke-miterlimit:10;" cx="444.158" cy="174.098" rx="12.866" ry="12.866"/>
<ellipse transform="matrix(0.3821 -0.9241 0.9241 0.3821 83.9745 469.0316)" style="fill:none;stroke:#E94880;stroke-width:3.9793;stroke-miterlimit:10;" cx="392.729" cy="171.72" rx="12.866" ry="12.866"/>
<line style="fill:none;stroke:#E94880;stroke-width:3.9793;stroke-miterlimit:10;" x1="432.268" y1="169.182" x2="405.007" y2="167.876"/>
<line style="fill:none;stroke:#E94880;stroke-width:3.9793;stroke-linecap:round;stroke-miterlimit:10;" x1="493.714" y1="161.979" x2="457.508" y2="170.266"/>
<path style="fill:#28131E;stroke:#28131E;stroke-width:0.647;stroke-miterlimit:10;" d="M401.118,151.62l-13.844,0.418
	c-0.992,0.03-1.828-0.757-1.858-1.749l0,0c-0.03-0.992,0.757-1.828,1.749-1.858l13.844-0.418c0.992-0.03,1.828,0.757,1.858,1.749
	l0,0C402.897,150.754,402.11,151.59,401.118,151.62z"/>
<path style="fill:#28131E;stroke:#28131E;stroke-width:0.647;stroke-miterlimit:10;" d="M454.058,152.768l-13.684-2.138
	c-0.98-0.153-1.657-1.081-1.504-2.061l0,0c0.153-0.98,1.081-1.657,2.061-1.504l13.684,2.138c0.98,0.153,1.657,1.081,1.504,2.061l0,0
	C455.966,152.245,455.039,152.921,454.058,152.768z"/>
<path style="fill:#F6EA60;" d="M-10.988,93.777c5.715,11.127,1.328,24.78-9.799,30.495c-1.693,0.87-3.445,1.506-5.219,1.919
	c-1.774,0.414-3.778-0.284-5.557-0.303c-1.91-0.02-3.594,0.607-5.424,0.117c-1.746-0.468-3.435-1.143-5.027-2.012
	c-1.358-0.742-2.109-2.528-3.301-3.545c-1.431-1.222-3.26-1.733-4.373-3.327c-0.583-0.834-1.116-1.717-1.594-2.648
	c-1.235-2.405-1.295-5.51-1.621-8.046c-0.325-2.536-0.916-4.502-0.399-6.957c0.409-1.941,1.07-3.824,1.968-5.596
	c0.823-1.625,2.325-2.719,3.532-4.118c1.391-1.612,2.547-3.484,4.411-4.68c0.612-0.393,1.248-0.759,1.908-1.098
	c2.055-1.056,4.366-0.948,6.528-1.335c2.161-0.388,4.173-1.27,6.309-1.032C-21.353,82.424-14.592,86.76-10.988,93.777z"/>
<path style="fill:#F6EA60;" d="M73.872,50.19c5.715,11.127,1.328,24.78-9.799,30.495c-1.693,0.87-3.445,1.506-5.219,1.919
	c-1.774,0.414-3.778-0.284-5.557-0.303c-1.91-0.02-3.594,0.607-5.424,0.117c-1.746-0.468-3.435-1.143-5.027-2.012
	c-1.358-0.742-2.109-2.528-3.301-3.545c-1.431-1.222-3.26-1.733-4.373-3.327c-0.583-0.834-1.116-1.717-1.594-2.648
	c-1.235-2.405-1.295-5.51-1.621-8.046c-0.325-2.536-0.916-4.502-0.399-6.957c0.409-1.941,1.07-3.824,1.968-5.596
	c0.823-1.625,2.325-2.719,3.532-4.118c1.391-1.612,2.547-3.484,4.411-4.68c0.612-0.393,1.248-0.759,1.908-1.098
	c2.055-1.056,4.366-0.948,6.528-1.335c2.161-0.388,4.173-1.27,6.309-1.032C63.507,38.836,70.268,43.173,73.872,50.19z"/>
<ellipse transform="matrix(0.8895 -0.4569 0.4569 0.8895 -50.9465 -2.7798)" style="fill:#DAC62B;" cx="-31.221" cy="103.957" rx="12.503" ry="12.503"/>
<ellipse transform="matrix(0.8895 -0.4569 0.4569 0.8895 -21.3749 31.5033)" style="fill:#DAC62B;" cx="54.455" cy="59.951" rx="12.503" ry="12.503"/>
<path style="fill:#F6EA60;" d="M66.681,73.473c1.841,3.584,3.016,7.365,3.57,11.236c0.192,1.343-1.924,3.725-1.879,5.086
	c0.056,1.709,2.231,2.4,2.062,4.121c-0.144,1.464-0.369,2.929-0.671,4.39c-0.354,1.709-2.329,2.764-2.893,4.453
	c-0.48,1.439,0.479,3.517-0.148,4.93c-0.717,1.615-1.529,3.209-2.432,4.775c-0.706,1.224-1.468,2.432-2.284,3.617
	c-1.521,2.211-4.19,2.851-6.076,4.89c-1.35,1.459-1.831,4.364-3.358,5.713c-1.686,1.489-3.478,2.906-5.37,4.238
	c-1.843,1.298-3.781,2.515-5.81,3.641c-0.612,0.34-1.885-0.601-2.513-0.279c-4.421,2.271-8.302,5.239-12.836,6.385
	c-2.613,0.661-5.225,1.138-7.816,1.438c-2.362,0.273-5.424-0.996-7.732-1.015c-2.078-0.017-3.41,1.244-5.419,0.995
	c-2.61-0.323-4.124-1.367-6.571-2.071c-1.937-0.557-4.695-1.946-6.5-2.735c-1.832-0.801-3.737-0.479-5.406-1.514
	c-2.031-1.259-3.439-3.063-5.183-4.659c-3.093-2.83-6.188-5.807-8.161-9.649c-6.043-11.764-4.905-25.642,1.784-37.909
	c1.086-1.992,4.384-3.884,5.756-5.776c1.561-2.152,1.238-4.285,3.151-6.262c1.79-1.851,4.617-2.379,6.698-4.036
	c1.489-1.186,2.162-3.554,3.792-4.625c1.898-1.246,3.889-2.409,5.968-3.477c0.478-0.246,2.228-1.08,2.708-1.312
	c3.633-1.755,6.063-2.531,9.768-3.535c2.831-0.767,5.714-0.103,8.523-0.446c2.324-0.283,4.582-1.639,6.857-1.64
	C44.852,52.441,59.702,59.886,66.681,73.473z"/>
<ellipse transform="matrix(0.8258 -0.5639 0.5639 0.8258 -65.7256 16.8733)" style="fill:#020203;" cx="-5.547" cy="114.838" rx="2.974" ry="2.974"/>
<ellipse transform="matrix(0.8258 -0.5639 0.5639 0.8258 -40.8666 42.3024)" style="fill:#020203;" cx="48.049" cy="87.309" rx="2.974" ry="2.974"/>
<line style="fill:none;stroke:#020203;stroke-width:2.7519;stroke-linecap:round;stroke-miterlimit:10;" x1="23.059" y1="103.488" x2="29.989" y2="116.979"/>
<path style="fill:#56322B;" d="M30.23,102.113l-12.262,6.298c-3.191,1.639-7.144,0.369-8.783-2.822l0,0
	c-1.639-3.191-0.369-7.144,2.822-8.783l12.262-6.298c3.191-1.639,7.144-0.369,8.783,2.822l0,0
	C34.692,96.521,33.422,100.473,30.23,102.113z"/>
<g>
	<path style="fill:none;stroke:#020203;stroke-width:2.7438;stroke-linecap:round;stroke-miterlimit:10;" d="M16.428,119.902
		c9.445,0.677,17.363-3.202,21.876-8.565"/>
</g>
<path style="fill:#FFD114;" d="M18.461,35.941c2.952-0.976,5.926-1.89,8.891-2.827c-0.535-2.586-1.071-5.172-1.605-7.758
	c-0.15-0.724-0.394-1.469,0.429-2.003c1.532-1.315,3.095-2.597,4.581-3.959c0.665-0.61,1.219-0.615,2.01-0.283
	c2.183,0.916,4.439,1.667,6.601,2.624c0.963,0.426,1.472,0.231,1.898-0.613c0.177-0.352,0.353-0.704,0.53-1.056l-0.005-0.108
	l0.094-0.057c0.27-0.485,0.54-0.971,0.81-1.457c0.008-0.029,0.016-0.058,0.024-0.086c0.013-0.022,0.027-0.044,0.04-0.066
	c1.59-2.822,1.578-2.814-1.09-4.601c-1.732-1.16-4.215-2.012-4.943-3.63c-0.757-1.683,0.281-4.12,0.362-6.232
	c0.049-1.265,0.65-1.809,1.756-2.218c2.199-0.813,4.347-1.763,6.541-2.589c0.714-0.269,0.848-0.583,0.636-1.274
	c-0.81-2.64-1.607-5.286-2.319-7.953c-0.24-0.899-0.643-0.995-1.48-0.815c-2.292,0.492-4.614,0.847-6.905,1.348
	c-1.054,0.231-1.743,0-2.38-0.86c-1.061-1.432-2.203-2.809-3.383-4.148c-0.581-0.659-0.621-1.215-0.252-2.002
	c0.959-2.047,1.764-4.164,2.752-6.198c0.524-1.079,0.528-1.657-0.707-2.232c-2.265-1.054-4.449-2.279-6.617-3.517
	c-0.912-0.52-1.429-0.562-2.062,0.442c-1.27,2.014-2.727,3.915-4.06,5.893c-0.438,0.65-0.87,0.929-1.712,0.806
	c-1.845-0.269-3.708-0.462-5.572-0.559c-1.034-0.054-1.552-0.495-1.9-1.398c-0.849-2.199-1.813-4.354-2.627-6.565
	c-0.323-0.878-0.736-0.939-1.549-0.689c-2.971,0.917-5.963,1.77-8.946,2.648c0.481,2.597,0.963,5.194,1.443,7.791
	c0.134,0.727,0.363,1.477-0.47,1.994c-1.558,1.284-3.147,2.534-4.662,3.867c-0.677,0.596-1.231,0.59-2.015,0.242
	c-2.162-0.96-4.403-1.757-6.544-2.758c-0.954-0.446-1.466-0.261-1.91,0.575c-0.184,0.348-0.368,0.697-0.552,1.045l0.002,0.108
	l-0.095,0.055c-0.28,0.48-0.56,0.96-0.84,1.44c-0.03,0.1-0.059,0.199-0.089,0.298c-0.22,0.37-0.438,0.741-0.641,1.12
	c-1.531,2.853-1.52,2.845,1.186,4.577c1.756,1.125,4.256,1.926,5.018,3.529C-13.075-2.5-14.063-0.043-14.1,2.07
	c-0.022,1.265-0.613,1.822-1.71,2.253c-2.182,0.857-4.31,1.85-6.487,2.72c-0.708,0.283-0.836,0.6-0.61,1.286
	c0.865,2.622,1.717,5.251,2.485,7.903c0.259,0.894,0.663,0.981,1.497,0.785c2.282-0.538,4.597-0.939,6.876-1.486
	c1.049-0.252,1.743-0.035,2.398,0.812c1.091,1.41,2.262,2.764,3.47,4.078c0.594,0.647,0.646,1.202,0.294,1.996
	c-0.916,2.066-1.677,4.198-2.623,6.25c-0.502,1.089-0.494,1.667,0.754,2.217c2.286,1.008,4.497,2.189,6.691,3.382
	c0.923,0.502,1.441,0.533,2.053-0.484c1.228-2.039,2.646-3.968,3.937-5.972c0.424-0.658,0.85-0.946,1.696-0.84
	c1.85,0.232,3.717,0.387,5.583,0.447c1.035,0.033,1.562,0.464,1.93,1.359c0.894,2.181,1.904,4.315,2.764,6.509
	C17.24,36.155,17.654,36.209,18.461,35.941z M6.822,10.875C2.336,8.313,0.362,3.388,1.938-1.317c0.07-0.208,0.145-0.414,0.218-0.621
	c0.479-0.614,0.836-1.336,1.571-1.727C6.959-7.049,12.364-7.792,16.359-5.4c4.43,2.653,6.301,7.618,4.628,12.291
	c-0.047,0.131-0.098,0.26-0.146,0.391c-0.413,0.586-0.755,1.232-1.423,1.605C16.256,12.335,10.866,13.186,6.822,10.875z"/>
<path style="fill:#E84727;" d="M610.987,147.237c2.89-1.149,5.804-2.236,8.709-3.346c-0.687-2.55-1.374-5.1-2.06-7.65
	c-0.192-0.714-0.48-1.444,0.31-2.025c1.452-1.403,2.936-2.775,4.34-4.223c0.628-0.648,1.18-0.685,1.989-0.401
	c2.233,0.786,4.53,1.403,6.744,2.23c0.987,0.369,1.483,0.144,1.858-0.724c0.156-0.362,0.311-0.724,0.467-1.086l-0.011-0.108
	l0.091-0.062c0.241-0.501,0.482-1.001,0.723-1.502c0.006-0.029,0.013-0.058,0.019-0.088c0.011-0.023,0.024-0.046,0.036-0.069
	c1.421-2.911,1.41-2.902-1.359-4.529c-1.797-1.056-4.326-1.76-5.148-3.332c-0.855-1.635,0.038-4.13-0.006-6.243
	c-0.026-1.266,0.543-1.845,1.622-2.318c2.147-0.942,4.235-2.016,6.377-2.97c0.696-0.31,0.812-0.632,0.56-1.309
	c-0.965-2.588-1.916-5.182-2.784-7.803c-0.293-0.883-0.7-0.955-1.525-0.726c-2.259,0.627-4.556,1.117-6.813,1.753
	c-1.038,0.292-1.74,0.103-2.427-0.718c-1.143-1.367-2.365-2.674-3.622-3.941c-0.618-0.623-0.691-1.177-0.37-1.983
	c0.837-2.1,1.515-4.261,2.382-6.349c0.46-1.108,0.43-1.685-0.838-2.187c-2.323-0.919-4.576-2.013-6.813-3.121
	c-0.941-0.466-1.46-0.477-2.033,0.563c-1.149,2.086-2.492,4.069-3.705,6.122c-0.399,0.675-0.813,0.978-1.662,0.905
	c-1.857-0.16-3.729-0.242-5.595-0.229c-1.036,0.007-1.578-0.403-1.98-1.284c-0.977-2.145-2.067-4.239-3.01-6.398
	c-0.374-0.857-0.79-0.894-1.587-0.596c-2.912,1.091-5.848,2.119-8.775,3.171c0.633,2.564,1.268,5.128,1.9,7.692
	c0.177,0.718,0.45,1.453-0.352,2.018c-1.48,1.374-2.993,2.716-4.426,4.135c-0.641,0.635-1.194,0.662-1.997,0.361
	c-2.215-0.831-4.499-1.494-6.695-2.367c-0.978-0.389-1.479-0.174-1.872,0.687c-0.163,0.359-0.326,0.717-0.489,1.076l0.009,0.108
	l-0.092,0.06c-0.251,0.496-0.502,0.992-0.753,1.487c-0.024,0.101-0.048,0.202-0.072,0.303c-0.198,0.382-0.393,0.766-0.574,1.156
	c-1.36,2.938-1.349,2.929,1.453,4.5c1.819,1.019,4.363,1.671,5.218,3.227c0.889,1.617,0.048,4.128,0.136,6.24
	c0.052,1.264-0.504,1.855-1.574,2.35c-2.128,0.984-4.193,2.101-6.315,3.098c-0.69,0.324-0.799,0.648-0.533,1.32
	c1.018,2.567,2.023,5.141,2.947,7.743c0.311,0.877,0.72,0.94,1.54,0.695c2.246-0.672,4.533-1.209,6.777-1.889
	c1.032-0.313,1.738-0.138,2.442,0.669c1.172,1.343,2.421,2.625,3.704,3.866c0.631,0.61,0.716,1.162,0.411,1.975
	c-0.793,2.116-1.427,4.29-2.25,6.394c-0.437,1.116-0.395,1.693,0.883,2.169c2.342,0.871,4.618,1.92,6.879,2.982
	c0.951,0.447,1.469,0.447,2.021-0.604c1.106-2.108,2.407-4.117,3.578-6.194c0.385-0.682,0.793-0.994,1.643-0.939
	c1.861,0.122,3.734,0.167,5.6,0.117c1.035-0.028,1.587,0.371,2.006,1.243c1.021,2.124,2.155,4.196,3.143,6.334
	C609.78,147.523,610.196,147.552,610.987,147.237z M597.889,122.901c-4.629-2.293-6.89-7.094-5.594-11.883
	c0.057-0.212,0.12-0.422,0.181-0.633c0.442-0.642,0.755-1.383,1.467-1.816c3.027-3.569,8.379-4.629,12.508-2.477
	c4.579,2.387,6.739,7.233,5.344,11.997c-0.039,0.133-0.082,0.266-0.123,0.399c-0.378,0.61-0.681,1.274-1.326,1.686
	C607.393,123.802,602.063,124.969,597.889,122.901z"/>
<g>
	<path style="fill:#1E1F1D;" d="M487.064,98.12l-97.468-19.629c-5.862-1.181-9.693-6.943-8.512-12.806l14.985-74.41
		c1.181-5.862,6.943-9.693,12.806-8.512l97.468,19.629c5.862,1.181,9.693,6.943,8.512,12.806l-14.985,74.41
		C498.689,95.47,492.927,99.301,487.064,98.12z M393.434,64.788c-2.062-0.415-4.07,0.92-4.485,2.981
		c-0.415,2.062,0.92,4.07,2.981,4.485c2.062,0.415,4.07-0.92,4.485-2.981C396.83,67.211,395.495,65.203,393.434,64.788z
		 M487.847,83.801c-2.062-0.415-4.07,0.92-4.485,2.981c-0.415,2.062,0.92,4.07,2.981,4.485c2.062,0.415,4.07-0.92,4.485-2.981
		C491.243,86.224,489.909,84.216,487.847,83.801z M408.711-11.074c-2.062-0.415-4.07,0.92-4.485,2.981s0.92,4.07,2.981,4.485
		s4.07-0.92,4.485-2.981C412.108-8.651,410.773-10.659,408.711-11.074z M418.077-11.337c-1.14-0.23-2.251,0.509-2.481,1.649
		c-0.23,1.14,0.509,2.251,1.649,2.481c1.14,0.23,2.251-0.509,2.481-1.649C419.956-9.996,419.217-11.107,418.077-11.337z
		 M493.939,3.941c-1.14-0.23-2.251,0.509-2.481,1.649c-0.23,1.14,0.509,2.251,1.649,2.481c1.14,0.23,2.251-0.509,2.481-1.649
		C495.817,5.281,495.079,4.171,493.939,3.941z M478.279,81.699c-1.14-0.23-2.251,0.509-2.481,1.649
		c-0.23,1.14,0.509,2.251,1.649,2.481c1.14,0.23,2.251-0.509,2.481-1.649C480.158,83.039,479.419,81.929,478.279,81.699z
		 M503.124,7.939c-2.062-0.415-4.07,0.92-4.485,2.981s0.92,4.07,2.981,4.485c2.062,0.415,4.07-0.92,4.485-2.981
		C506.521,10.363,505.186,8.355,503.124,7.939z"/>
	<path style="fill:#5CAEE1;" d="M460.174,72.309l-64.853-13.06c-3.711-0.747-6.136-4.395-5.388-8.106l8.994-44.661
		c0.747-3.711,4.395-6.136,8.106-5.388l64.853,13.06c3.711,0.747,6.136,4.395,5.388,8.106L468.28,66.92
		C467.533,70.631,463.885,73.056,460.174,72.309z"/>
	<path style="fill:#F6A22E;" d="M413.402,83.286l-11.171-2.25l1.501-7.453c0.107-0.533,0.632-0.882,1.165-0.774l9.232,1.859
		c0.533,0.107,0.882,0.632,0.774,1.165L413.402,83.286z"/>
	<path style="fill:#F6A22E;" d="M431.419,86.914l-11.171-2.25l1.501-7.453c0.107-0.533,0.632-0.882,1.165-0.774l9.232,1.859
		c0.533,0.107,0.882,0.632,0.774,1.165L431.419,86.914z"/>
	<path style="fill:#F6A22E;" d="M450.384,90.733l-11.171-2.25l1.501-7.453c0.107-0.533,0.632-0.882,1.165-0.774l9.232,1.859
		c0.533,0.107,0.882,0.632,0.774,1.165L450.384,90.733z"/>
	<path style="fill:#F6A22E;" d="M468.401,94.362l-11.171-2.25l1.501-7.453c0.107-0.533,0.632-0.882,1.165-0.774l9.232,1.859
		c0.533,0.107,0.882,0.632,0.774,1.165L468.401,94.362z"/>
	<path style="fill:#FFFFFF;" d="M479.289,65.234l-3.577-0.72c-0.69-0.139-1.137-0.811-0.998-1.501l6.76-33.565
		c0.139-0.69,0.811-1.137,1.501-0.998l3.577,0.72c0.69,0.139,1.137,0.811,0.998,1.501l-6.76,33.565
		C480.651,64.926,479.979,65.372,479.289,65.234z"/>
	<path style="fill:#FFFFFF;" d="M486.249,74.282L486.249,74.282c-0.72-0.145-1.186-0.846-1.041-1.566l0.955-4.741
		c0.145-0.72,0.846-1.186,1.566-1.041l0,0c0.72,0.145,1.186,0.846,1.041,1.566l-0.955,4.741
		C487.671,73.961,486.969,74.427,486.249,74.282z"/>
	<path style="fill:#FFFFFF;" d="M489.496,58.162L489.496,58.162c-0.72-0.145-1.186-0.846-1.041-1.566l0.955-4.741
		c0.145-0.72,0.846-1.186,1.566-1.041l0,0c0.72,0.145,1.186,0.846,1.041,1.566l-0.955,4.741
		C490.917,57.841,490.216,58.307,489.496,58.162z"/>
	<path style="fill:#FFFFFF;" d="M492.551,42.989L492.551,42.989c-0.72-0.145-1.186-0.846-1.041-1.566l0.955-4.741
		c0.145-0.72,0.846-1.186,1.566-1.041v0c0.72,0.145,1.186,0.846,1.041,1.566l-0.955,4.741
		C493.973,42.668,493.271,43.134,492.551,42.989z"/>
	<path style="fill:#FFFFFF;" d="M495.607,27.817L495.607,27.817c-0.72-0.145-1.186-0.846-1.041-1.566l0.955-4.741
		c0.145-0.72,0.846-1.186,1.566-1.041l0,0c0.72,0.145,1.186,0.846,1.041,1.566l-0.955,4.741
		C497.028,27.496,496.327,27.962,495.607,27.817z"/>
	<path style="fill:#1B7591;" d="M431.982,56.218l-4.437-0.894c-0.507-0.102-0.836-0.596-0.734-1.103l6.889-34.208
		c0.102-0.507,0.596-0.836,1.103-0.734l4.437,0.894c0.507,0.102,0.836,0.596,0.734,1.103l-6.889,34.208
		C432.983,55.992,432.489,56.321,431.982,56.218z"/>
	<path style="fill:#1B7591;" d="M429.593,16.003l-3.996-0.805c-0.373-0.075-0.615-0.439-0.54-0.812l0.805-3.996
		c0.075-0.373,0.439-0.615,0.812-0.54l3.996,0.805c0.373,0.075,0.615,0.439,0.54,0.812l-0.805,3.996
		C430.33,15.836,429.966,16.078,429.593,16.003z"/>
	<path style="fill:#1B7591;" d="M428.188,22.981l-3.996-0.805c-0.373-0.075-0.615-0.439-0.54-0.812l0.805-3.996
		c0.075-0.373,0.439-0.615,0.812-0.54l3.996,0.805c0.373,0.075,0.615,0.439,0.54,0.812L429,22.442
		C428.925,22.815,428.561,23.057,428.188,22.981z"/>
	<path style="fill:#1B7591;" d="M426.782,29.96l-3.996-0.805c-0.373-0.075-0.615-0.439-0.54-0.812l0.805-3.996
		c0.075-0.373,0.439-0.615,0.812-0.54l3.996,0.805c0.373,0.075,0.615,0.439,0.54,0.812l-0.805,3.996
		C427.519,29.793,427.156,30.035,426.782,29.96z"/>
	<path style="fill:#1B7591;" d="M425.377,36.938l-3.996-0.805c-0.373-0.075-0.615-0.439-0.54-0.812l0.805-3.996
		c0.075-0.373,0.439-0.615,0.812-0.54l3.996,0.805c0.373,0.075,0.615,0.439,0.54,0.812l-0.805,3.996
		C426.114,36.772,425.75,37.014,425.377,36.938z"/>
	<path style="fill:#1B7591;" d="M423.972,43.917l-3.996-0.805c-0.373-0.075-0.615-0.439-0.54-0.812l0.805-3.996
		c0.075-0.373,0.439-0.615,0.812-0.54l3.996,0.805c0.373,0.075,0.615,0.439,0.54,0.812l-0.805,3.996
		C424.708,43.75,424.345,43.992,423.972,43.917z"/>
	<path style="fill:#1B7591;" d="M422.566,50.895l-3.996-0.805c-0.373-0.075-0.615-0.439-0.54-0.812l0.805-3.996
		c0.075-0.373,0.439-0.615,0.812-0.54l3.996,0.805c0.373,0.075,0.615,0.439,0.54,0.812l-0.805,3.996
		C423.303,50.729,422.939,50.971,422.566,50.895z"/>
	<path style="fill:#1B7591;" d="M421.107,58.141l-3.996-0.805c-0.373-0.075-0.615-0.439-0.54-0.812l0.805-3.996
		c0.075-0.373,0.439-0.615,0.812-0.54l3.996,0.805c0.373,0.075,0.615,0.439,0.54,0.812l-0.805,3.996
		C421.844,57.975,421.48,58.216,421.107,58.141z"/>
	<path style="fill:#1B7591;" d="M422.007,14.475l-3.996-0.805c-0.373-0.075-0.615-0.439-0.54-0.812l0.805-3.996
		c0.075-0.373,0.439-0.615,0.812-0.54l3.996,0.805c0.373,0.075,0.615,0.439,0.54,0.812l-0.805,3.996
		C422.744,14.309,422.38,14.55,422.007,14.475z"/>
	<path style="fill:#1B7591;" d="M420.602,21.454l-3.996-0.805c-0.373-0.075-0.615-0.439-0.54-0.812l0.805-3.996
		c0.075-0.373,0.439-0.615,0.812-0.54l3.996,0.805c0.373,0.075,0.615,0.439,0.54,0.812l-0.805,3.996
		C421.338,21.287,420.975,21.529,420.602,21.454z"/>
	<path style="fill:#1B7591;" d="M419.196,28.432l-3.996-0.805c-0.373-0.075-0.615-0.439-0.54-0.812l0.805-3.996
		c0.075-0.373,0.439-0.615,0.812-0.54l3.996,0.805c0.373,0.075,0.615,0.439,0.54,0.812l-0.805,3.996
		C419.933,28.266,419.569,28.507,419.196,28.432z"/>
	<path style="fill:#1B7591;" d="M417.791,35.411l-3.996-0.805c-0.373-0.075-0.615-0.439-0.54-0.812l0.805-3.996
		c0.075-0.373,0.439-0.615,0.812-0.54l3.996,0.805c0.373,0.075,0.615,0.439,0.54,0.812l-0.805,3.996
		C418.528,35.244,418.164,35.486,417.791,35.411z"/>
	<path style="fill:#1B7591;" d="M416.385,42.389l-3.996-0.805c-0.373-0.075-0.615-0.439-0.54-0.812l0.805-3.996
		c0.075-0.373,0.439-0.615,0.812-0.54l3.996,0.805c0.373,0.075,0.615,0.439,0.54,0.812l-0.805,3.996
		C417.122,42.223,416.759,42.464,416.385,42.389z"/>
	<path style="fill:#1B7591;" d="M414.98,49.368l-3.996-0.805c-0.373-0.075-0.615-0.439-0.54-0.812l0.805-3.996
		c0.075-0.373,0.439-0.615,0.812-0.54l3.996,0.805c0.373,0.075,0.615,0.439,0.54,0.812l-0.805,3.996
		C415.717,49.201,415.353,49.443,414.98,49.368z"/>
	<path style="fill:#1B7591;" d="M413.521,56.613l-3.996-0.805c-0.373-0.075-0.615-0.439-0.54-0.812L409.789,51
		c0.075-0.373,0.439-0.615,0.812-0.54l3.996,0.805c0.373,0.075,0.615,0.439,0.54,0.812l-0.805,3.996
		C414.258,56.447,413.894,56.688,413.521,56.613z"/>
	<path style="fill:#1B7591;" d="M414.421,12.947l-3.996-0.805c-0.373-0.075-0.615-0.439-0.54-0.812l0.805-3.996
		c0.075-0.373,0.439-0.615,0.812-0.54l3.996,0.805c0.373,0.075,0.615,0.439,0.54,0.812l-0.805,3.996
		C415.158,12.781,414.794,13.022,414.421,12.947z"/>
	<path style="fill:#1B7591;" d="M413.015,19.926l-3.996-0.805c-0.373-0.075-0.615-0.439-0.54-0.812l0.805-3.996
		c0.075-0.373,0.439-0.615,0.812-0.54l3.996,0.805c0.373,0.075,0.615,0.439,0.54,0.812l-0.805,3.996
		C413.752,19.759,413.389,20.001,413.015,19.926z"/>
	<path style="fill:#1B7591;" d="M411.61,26.904l-3.996-0.805c-0.373-0.075-0.615-0.439-0.54-0.812l0.805-3.996
		c0.075-0.373,0.439-0.615,0.812-0.54l3.996,0.805c0.373,0.075,0.615,0.439,0.54,0.812l-0.805,3.996
		C412.347,26.738,411.983,26.98,411.61,26.904z"/>
	<path style="fill:#1B7591;" d="M410.205,33.883l-3.996-0.805c-0.373-0.075-0.615-0.439-0.54-0.812l0.805-3.996
		c0.075-0.373,0.439-0.615,0.812-0.54l3.996,0.805c0.373,0.075,0.615,0.439,0.54,0.812l-0.805,3.996
		C410.941,33.716,410.578,33.958,410.205,33.883z"/>
	<path style="fill:#1B7591;" d="M408.799,40.861l-3.996-0.805c-0.373-0.075-0.615-0.439-0.54-0.812l0.805-3.996
		c0.075-0.373,0.439-0.615,0.812-0.54l3.996,0.805c0.373,0.075,0.615,0.439,0.54,0.812l-0.805,3.996
		C409.536,40.695,409.173,40.937,408.799,40.861z"/>
	<path style="fill:#1B7591;" d="M407.394,47.84l-3.996-0.805c-0.373-0.075-0.615-0.439-0.54-0.812l0.805-3.996
		c0.075-0.373,0.439-0.615,0.812-0.54l3.996,0.805c0.373,0.075,0.615,0.439,0.54,0.812l-0.805,3.996
		C408.131,47.673,407.767,47.915,407.394,47.84z"/>
	<path style="fill:#1B7591;" d="M405.935,55.086l-3.996-0.805c-0.373-0.075-0.615-0.439-0.54-0.812l0.805-3.996
		c0.075-0.373,0.439-0.615,0.812-0.54l3.996,0.805c0.373,0.075,0.615,0.439,0.54,0.812l-0.805,3.996
		C406.672,54.919,406.308,55.161,405.935,55.086z"/>
	<path style="fill:#1B7591;" d="M406.835,11.42l-3.996-0.805c-0.373-0.075-0.615-0.439-0.54-0.812l0.805-3.996
		c0.075-0.373,0.439-0.615,0.812-0.54l3.996,0.805c0.373,0.075,0.615,0.439,0.54,0.812l-0.805,3.996
		C407.571,11.253,407.208,11.495,406.835,11.42z"/>
	<path style="fill:#1B7591;" d="M405.429,18.398l-3.996-0.805c-0.373-0.075-0.615-0.439-0.54-0.812l0.805-3.996
		c0.075-0.373,0.439-0.615,0.812-0.54l3.996,0.805c0.373,0.075,0.615,0.439,0.54,0.812l-0.805,3.996
		C406.166,18.232,405.802,18.473,405.429,18.398z"/>
	<path style="fill:#1B7591;" d="M404.024,25.377l-3.996-0.805c-0.373-0.075-0.615-0.439-0.54-0.812l0.805-3.996
		c0.075-0.373,0.439-0.615,0.812-0.54l3.996,0.805c0.373,0.075,0.615,0.439,0.54,0.812l-0.805,3.996
		C404.761,25.21,404.397,25.452,404.024,25.377z"/>
	<path style="fill:#1B7591;" d="M402.618,32.355l-3.996-0.805c-0.373-0.075-0.615-0.439-0.54-0.812l0.805-3.996
		c0.075-0.373,0.439-0.615,0.812-0.54l3.996,0.805c0.373,0.075,0.615,0.439,0.54,0.812l-0.805,3.996
		C403.355,32.189,402.992,32.43,402.618,32.355z"/>
	<path style="fill:#1B7591;" d="M401.213,39.334l-3.996-0.805c-0.373-0.075-0.615-0.439-0.54-0.812l0.805-3.996
		c0.075-0.373,0.439-0.615,0.812-0.54l3.996,0.805c0.373,0.075,0.615,0.439,0.54,0.812l-0.805,3.996
		C401.95,39.167,401.586,39.409,401.213,39.334z"/>
	<path style="fill:#1B7591;" d="M399.808,46.312l-3.996-0.805c-0.373-0.075-0.615-0.439-0.54-0.812l0.805-3.996
		c0.075-0.373,0.439-0.615,0.812-0.54l3.996,0.805c0.373,0.075,0.615,0.439,0.54,0.812l-0.805,3.996
		C400.545,46.146,400.181,46.387,399.808,46.312z"/>
	<path style="fill:#1B7591;" d="M398.348,53.558l-3.996-0.805c-0.373-0.075-0.615-0.439-0.54-0.812l0.805-3.996
		c0.075-0.373,0.439-0.615,0.812-0.54l3.996,0.805c0.373,0.075,0.615,0.439,0.54,0.812l-0.805,3.996
		C399.085,53.391,398.722,53.633,398.348,53.558z"/>
	<path style="fill:#1B7591;" d="M471.317,24.405l-3.996-0.805c-0.373-0.075-0.615-0.439-0.54-0.812l0.805-3.996
		c0.075-0.373,0.439-0.615,0.812-0.54l3.996,0.805c0.373,0.075,0.615,0.439,0.54,0.812l-0.805,3.996
		C472.054,24.239,471.69,24.481,471.317,24.405z"/>
	<path style="fill:#1B7591;" d="M469.912,31.384l-3.996-0.805c-0.373-0.075-0.615-0.439-0.54-0.812l0.805-3.996
		c0.075-0.373,0.439-0.615,0.812-0.54l3.996,0.805c0.373,0.075,0.615,0.439,0.54,0.812l-0.805,3.996
		C470.648,31.218,470.285,31.459,469.912,31.384z"/>
	<path style="fill:#1B7591;" d="M468.506,38.363l-3.996-0.805c-0.373-0.075-0.615-0.439-0.54-0.812l0.805-3.996
		c0.075-0.373,0.439-0.615,0.812-0.54l3.996,0.805c0.373,0.075,0.615,0.439,0.54,0.812l-0.805,3.996
		C469.243,38.196,468.88,38.438,468.506,38.363z"/>
	<path style="fill:#1B7591;" d="M467.101,45.341l-3.996-0.805c-0.373-0.075-0.615-0.439-0.54-0.812l0.805-3.996
		c0.075-0.373,0.439-0.615,0.812-0.54l3.996,0.805c0.373,0.075,0.615,0.439,0.54,0.812l-0.805,3.996
		C467.838,45.175,467.474,45.416,467.101,45.341z"/>
	<path style="fill:#1B7591;" d="M465.695,52.32l-3.996-0.805c-0.373-0.075-0.615-0.439-0.54-0.812l0.805-3.996
		c0.075-0.373,0.439-0.615,0.812-0.54l3.996,0.805c0.373,0.075,0.615,0.439,0.54,0.812l-0.805,3.996
		C466.432,52.153,466.069,52.395,465.695,52.32z"/>
	<path style="fill:#1B7591;" d="M464.29,59.298l-3.996-0.805c-0.373-0.075-0.615-0.439-0.54-0.812l0.805-3.996
		c0.075-0.373,0.439-0.615,0.812-0.54l3.996,0.805c0.373,0.075,0.615,0.439,0.54,0.812l-0.805,3.996
		C465.027,59.132,464.663,59.373,464.29,59.298z"/>
	<path style="fill:#1B7591;" d="M462.831,66.544l-3.996-0.805c-0.373-0.075-0.615-0.439-0.54-0.812l0.805-3.996
		c0.075-0.373,0.439-0.615,0.812-0.54l3.996,0.805c0.373,0.075,0.615,0.439,0.54,0.812l-0.805,3.996
		C463.568,66.377,463.204,66.619,462.831,66.544z"/>
	<path style="fill:#1B7591;" d="M463.731,22.878l-3.996-0.805c-0.373-0.075-0.615-0.439-0.54-0.812l0.805-3.996
		c0.075-0.373,0.439-0.615,0.812-0.54l3.996,0.805c0.373,0.075,0.615,0.439,0.54,0.812l-0.805,3.996
		C464.468,22.711,464.104,22.953,463.731,22.878z"/>
	<path style="fill:#1B7591;" d="M462.325,29.856l-3.996-0.805c-0.373-0.075-0.615-0.439-0.54-0.812l0.805-3.996
		c0.075-0.373,0.439-0.615,0.812-0.54l3.996,0.805c0.373,0.075,0.615,0.439,0.54,0.812l-0.805,3.996
		C463.062,29.69,462.699,29.931,462.325,29.856z"/>
	<path style="fill:#1B7591;" d="M460.92,36.835l-3.996-0.805c-0.373-0.075-0.615-0.439-0.54-0.812l0.805-3.996
		c0.075-0.373,0.439-0.615,0.812-0.54l3.996,0.805c0.373,0.075,0.615,0.439,0.54,0.812l-0.805,3.996
		C461.657,36.668,461.293,36.91,460.92,36.835z"/>
	<path style="fill:#1B7591;" d="M459.515,43.813l-3.996-0.805c-0.373-0.075-0.615-0.439-0.54-0.812l0.805-3.996
		c0.075-0.373,0.439-0.615,0.812-0.54l3.996,0.805c0.373,0.075,0.615,0.439,0.54,0.812l-0.805,3.996
		C460.252,43.647,459.888,43.888,459.515,43.813z"/>
	<path style="fill:#1B7591;" d="M458.109,50.792l-3.996-0.805c-0.373-0.075-0.615-0.439-0.54-0.812l0.805-3.996
		c0.075-0.373,0.439-0.615,0.812-0.54l3.996,0.805c0.373,0.075,0.615,0.439,0.54,0.812l-0.805,3.996
		C458.846,50.625,458.483,50.867,458.109,50.792z"/>
	<path style="fill:#1B7591;" d="M456.704,57.77l-3.996-0.805c-0.373-0.075-0.615-0.439-0.54-0.812l0.805-3.996
		c0.075-0.373,0.439-0.615,0.812-0.54l3.996,0.805c0.373,0.075,0.615,0.439,0.54,0.812l-0.805,3.996
		C457.441,57.604,457.077,57.846,456.704,57.77z"/>
	<path style="fill:#1B7591;" d="M455.245,65.016l-3.996-0.805c-0.373-0.075-0.615-0.439-0.54-0.812l0.805-3.996
		c0.075-0.373,0.439-0.615,0.812-0.54l3.996,0.805c0.373,0.075,0.615,0.439,0.54,0.812l-0.805,3.996
		C455.982,64.849,455.618,65.091,455.245,65.016z"/>
	<path style="fill:#1B7591;" d="M456.145,21.35l-3.996-0.805c-0.373-0.075-0.615-0.439-0.54-0.812l0.805-3.996
		c0.075-0.373,0.439-0.615,0.812-0.54l3.996,0.805c0.373,0.075,0.615,0.439,0.54,0.812l-0.805,3.996
		C456.882,21.183,456.518,21.425,456.145,21.35z"/>
	<path style="fill:#1B7591;" d="M454.739,28.328l-3.996-0.805c-0.373-0.075-0.615-0.439-0.54-0.812l0.805-3.996
		c0.075-0.373,0.439-0.615,0.812-0.54l3.996,0.805c0.373,0.075,0.615,0.439,0.54,0.812l-0.805,3.996
		C455.476,28.162,455.113,28.404,454.739,28.328z"/>
	<path style="fill:#1B7591;" d="M453.334,35.307l-3.996-0.805c-0.373-0.075-0.615-0.439-0.54-0.812l0.805-3.996
		c0.075-0.373,0.439-0.615,0.812-0.54l3.996,0.805c0.373,0.075,0.615,0.439,0.54,0.812l-0.805,3.996
		C454.071,35.141,453.707,35.382,453.334,35.307z"/>
	<path style="fill:#1B7591;" d="M451.929,42.286l-3.996-0.805c-0.373-0.075-0.615-0.439-0.54-0.812l0.805-3.996
		c0.075-0.373,0.439-0.615,0.812-0.54l3.996,0.805c0.373,0.075,0.615,0.439,0.54,0.812l-0.805,3.996
		C452.665,42.119,452.302,42.361,451.929,42.286z"/>
	<path style="fill:#1B7591;" d="M450.523,49.264l-3.996-0.805c-0.373-0.075-0.615-0.439-0.54-0.812l0.805-3.996
		c0.075-0.373,0.439-0.615,0.812-0.54l3.996,0.805c0.373,0.075,0.615,0.439,0.54,0.812l-0.805,3.996
		C451.26,49.098,450.896,49.339,450.523,49.264z"/>
	<path style="fill:#1B7591;" d="M449.118,56.243l-3.996-0.805c-0.373-0.075-0.615-0.439-0.54-0.812l0.805-3.996
		c0.075-0.373,0.439-0.615,0.812-0.54l3.996,0.805c0.373,0.075,0.615,0.439,0.54,0.812l-0.805,3.996
		C449.855,56.076,449.491,56.318,449.118,56.243z"/>
	<path style="fill:#1B7591;" d="M447.659,63.488l-3.996-0.805c-0.373-0.075-0.615-0.439-0.54-0.812l0.805-3.996
		c0.075-0.373,0.439-0.615,0.812-0.54l3.996,0.805c0.373,0.075,0.615,0.439,0.54,0.812l-0.805,3.996
		C448.395,63.322,448.032,63.563,447.659,63.488z"/>
	<path style="fill:#1B7591;" d="M448.559,19.822l-3.996-0.805c-0.373-0.075-0.615-0.439-0.54-0.812l0.805-3.996
		c0.075-0.373,0.439-0.615,0.812-0.54l3.996,0.805c0.373,0.075,0.615,0.439,0.54,0.812l-0.805,3.996
		C449.295,19.656,448.932,19.897,448.559,19.822z"/>
	<path style="fill:#1B7591;" d="M447.153,26.801l-3.996-0.805c-0.373-0.075-0.615-0.439-0.54-0.812l0.805-3.996
		c0.075-0.373,0.439-0.615,0.812-0.54l3.996,0.805c0.373,0.075,0.615,0.439,0.54,0.812l-0.805,3.996
		C447.89,26.634,447.526,26.876,447.153,26.801z"/>
	<path style="fill:#1B7591;" d="M445.748,33.779l-3.996-0.805c-0.373-0.075-0.615-0.439-0.54-0.812l0.805-3.996
		c0.075-0.373,0.439-0.615,0.812-0.54l3.996,0.805c0.373,0.075,0.615,0.439,0.54,0.812l-0.805,3.996
		C446.485,33.613,446.121,33.854,445.748,33.779z"/>
	<path style="fill:#1B7591;" d="M444.342,40.758l-3.996-0.805c-0.373-0.075-0.615-0.439-0.54-0.812l0.805-3.996
		c0.075-0.373,0.439-0.615,0.812-0.54l3.996,0.805c0.373,0.075,0.615,0.439,0.54,0.812l-0.805,3.996
		C445.079,40.591,444.716,40.833,444.342,40.758z"/>
	<path style="fill:#1B7591;" d="M442.937,47.736l-3.996-0.805c-0.373-0.075-0.615-0.439-0.54-0.812l0.805-3.996
		c0.075-0.373,0.439-0.615,0.812-0.54l3.996,0.805c0.373,0.075,0.615,0.439,0.54,0.812l-0.805,3.996
		C443.674,47.57,443.31,47.812,442.937,47.736z"/>
	<path style="fill:#1B7591;" d="M441.532,54.715l-3.996-0.805c-0.373-0.075-0.615-0.439-0.54-0.812l0.805-3.996
		c0.075-0.373,0.439-0.615,0.812-0.54l3.996,0.805c0.373,0.075,0.615,0.439,0.54,0.812l-0.805,3.996
		C442.268,54.548,441.905,54.79,441.532,54.715z"/>
	<path style="fill:#1B7591;" d="M440.072,61.96l-3.996-0.805c-0.373-0.075-0.615-0.439-0.54-0.812l0.805-3.996
		c0.075-0.373,0.439-0.615,0.812-0.54l3.996,0.805c0.373,0.075,0.615,0.439,0.54,0.812l-0.805,3.996
		C440.809,61.794,440.446,62.036,440.072,61.96z"/>
</g>
</svg>
